G04 #@! TF.GenerationSoftware,KiCad,Pcbnew,(5.1.5)-3*
G04 #@! TF.CreationDate,2020-06-07T22:31:29+02:00*
G04 #@! TF.ProjectId,betsubetsu,62657473-7562-4657-9473-752e6b696361,rev?*
G04 #@! TF.SameCoordinates,Original*
G04 #@! TF.FileFunction,Soldermask,Top*
G04 #@! TF.FilePolarity,Negative*
%FSLAX46Y46*%
G04 Gerber Fmt 4.6, Leading zero omitted, Abs format (unit mm)*
G04 Created by KiCad (PCBNEW (5.1.5)-3) date 2020-06-07 22:31:29*
%MOMM*%
%LPD*%
G04 APERTURE LIST*
%ADD10C,0.100000*%
G04 APERTURE END LIST*
D10*
G36*
X115355000Y-133795000D02*
G01*
X112903000Y-133795000D01*
X112903000Y-125693000D01*
X115355000Y-125693000D01*
X115355000Y-133795000D01*
G37*
G36*
X154955000Y-133795000D02*
G01*
X152503000Y-133795000D01*
X152503000Y-125693000D01*
X154955000Y-125693000D01*
X154955000Y-133795000D01*
G37*
G36*
X174755000Y-133795000D02*
G01*
X172303000Y-133795000D01*
X172303000Y-125693000D01*
X174755000Y-125693000D01*
X174755000Y-133795000D01*
G37*
G36*
X198515000Y-133795000D02*
G01*
X196063000Y-133795000D01*
X196063000Y-125693000D01*
X198515000Y-125693000D01*
X198515000Y-133795000D01*
G37*
G36*
X158915000Y-133795000D02*
G01*
X156463000Y-133795000D01*
X156463000Y-125693000D01*
X158915000Y-125693000D01*
X158915000Y-133795000D01*
G37*
G36*
X194555000Y-133795000D02*
G01*
X192103000Y-133795000D01*
X192103000Y-125693000D01*
X194555000Y-125693000D01*
X194555000Y-133795000D01*
G37*
G36*
X178715000Y-133795000D02*
G01*
X176263000Y-133795000D01*
X176263000Y-125693000D01*
X178715000Y-125693000D01*
X178715000Y-133795000D01*
G37*
G36*
X186635000Y-133795000D02*
G01*
X184183000Y-133795000D01*
X184183000Y-125693000D01*
X186635000Y-125693000D01*
X186635000Y-133795000D01*
G37*
G36*
X131195000Y-133795000D02*
G01*
X128743000Y-133795000D01*
X128743000Y-125693000D01*
X131195000Y-125693000D01*
X131195000Y-133795000D01*
G37*
G36*
X123275000Y-133795000D02*
G01*
X120823000Y-133795000D01*
X120823000Y-125693000D01*
X123275000Y-125693000D01*
X123275000Y-133795000D01*
G37*
G36*
X103475000Y-133795000D02*
G01*
X101023000Y-133795000D01*
X101023000Y-125693000D01*
X103475000Y-125693000D01*
X103475000Y-133795000D01*
G37*
G36*
X119315000Y-133795000D02*
G01*
X116863000Y-133795000D01*
X116863000Y-125693000D01*
X119315000Y-125693000D01*
X119315000Y-133795000D01*
G37*
G36*
X111395000Y-133795000D02*
G01*
X108943000Y-133795000D01*
X108943000Y-125693000D01*
X111395000Y-125693000D01*
X111395000Y-133795000D01*
G37*
G36*
X127235000Y-133795000D02*
G01*
X124783000Y-133795000D01*
X124783000Y-125693000D01*
X127235000Y-125693000D01*
X127235000Y-133795000D01*
G37*
G36*
X143075000Y-133795000D02*
G01*
X140623000Y-133795000D01*
X140623000Y-125693000D01*
X143075000Y-125693000D01*
X143075000Y-133795000D01*
G37*
G36*
X107435000Y-133795000D02*
G01*
X104983000Y-133795000D01*
X104983000Y-125693000D01*
X107435000Y-125693000D01*
X107435000Y-133795000D01*
G37*
G36*
X170795000Y-133795000D02*
G01*
X168343000Y-133795000D01*
X168343000Y-125693000D01*
X170795000Y-125693000D01*
X170795000Y-133795000D01*
G37*
G36*
X135155000Y-133795000D02*
G01*
X132703000Y-133795000D01*
X132703000Y-125693000D01*
X135155000Y-125693000D01*
X135155000Y-133795000D01*
G37*
G36*
X150995000Y-133795000D02*
G01*
X148543000Y-133795000D01*
X148543000Y-125693000D01*
X150995000Y-125693000D01*
X150995000Y-133795000D01*
G37*
G36*
X147035000Y-133795000D02*
G01*
X144583000Y-133795000D01*
X144583000Y-125693000D01*
X147035000Y-125693000D01*
X147035000Y-133795000D01*
G37*
G36*
X99515000Y-133795000D02*
G01*
X97063000Y-133795000D01*
X97063000Y-125693000D01*
X99515000Y-125693000D01*
X99515000Y-133795000D01*
G37*
G36*
X162875000Y-133795000D02*
G01*
X160423000Y-133795000D01*
X160423000Y-125693000D01*
X162875000Y-125693000D01*
X162875000Y-133795000D01*
G37*
G36*
X202475000Y-133795000D02*
G01*
X200023000Y-133795000D01*
X200023000Y-125693000D01*
X202475000Y-125693000D01*
X202475000Y-133795000D01*
G37*
G36*
X206435000Y-133795000D02*
G01*
X203983000Y-133795000D01*
X203983000Y-125693000D01*
X206435000Y-125693000D01*
X206435000Y-133795000D01*
G37*
G36*
X190595000Y-133795000D02*
G01*
X188143000Y-133795000D01*
X188143000Y-125693000D01*
X190595000Y-125693000D01*
X190595000Y-133795000D01*
G37*
G36*
X166835000Y-133795000D02*
G01*
X164383000Y-133795000D01*
X164383000Y-125693000D01*
X166835000Y-125693000D01*
X166835000Y-133795000D01*
G37*
G36*
X139115000Y-133795000D02*
G01*
X136663000Y-133795000D01*
X136663000Y-125693000D01*
X139115000Y-125693000D01*
X139115000Y-133795000D01*
G37*
G36*
X102181810Y-119408135D02*
G01*
X102238707Y-119419452D01*
X102399494Y-119486052D01*
X102399496Y-119486053D01*
X102544196Y-119582738D01*
X102667262Y-119705804D01*
X102763947Y-119850504D01*
X102830548Y-120011294D01*
X102864500Y-120181981D01*
X102864500Y-120356019D01*
X102830548Y-120526706D01*
X102763947Y-120687496D01*
X102667262Y-120832196D01*
X102544196Y-120955262D01*
X102399496Y-121051947D01*
X102399495Y-121051948D01*
X102399494Y-121051948D01*
X102238707Y-121118548D01*
X102181810Y-121129865D01*
X102068019Y-121152500D01*
X101893981Y-121152500D01*
X101780190Y-121129865D01*
X101723293Y-121118548D01*
X101562506Y-121051948D01*
X101562505Y-121051948D01*
X101562504Y-121051947D01*
X101417804Y-120955262D01*
X101294738Y-120832196D01*
X101198053Y-120687496D01*
X101131452Y-120526706D01*
X101097500Y-120356019D01*
X101097500Y-120181981D01*
X101131452Y-120011294D01*
X101198053Y-119850504D01*
X101294738Y-119705804D01*
X101417804Y-119582738D01*
X101562504Y-119486053D01*
X101562506Y-119486052D01*
X101723293Y-119419452D01*
X101780190Y-119408135D01*
X101893981Y-119385500D01*
X102068019Y-119385500D01*
X102181810Y-119408135D01*
G37*
G36*
X115389810Y-118138135D02*
G01*
X115446707Y-118149452D01*
X115587796Y-118207893D01*
X115607496Y-118216053D01*
X115752196Y-118312738D01*
X115875262Y-118435804D01*
X115971947Y-118580504D01*
X115971948Y-118580506D01*
X116038548Y-118741293D01*
X116041672Y-118757000D01*
X116072500Y-118911981D01*
X116072500Y-119086019D01*
X116038548Y-119256706D01*
X115971947Y-119417496D01*
X115875262Y-119562196D01*
X115752196Y-119685262D01*
X115607496Y-119781947D01*
X115607495Y-119781948D01*
X115607494Y-119781948D01*
X115446707Y-119848548D01*
X115436873Y-119850504D01*
X115276019Y-119882500D01*
X115101981Y-119882500D01*
X114941127Y-119850504D01*
X114931293Y-119848548D01*
X114770506Y-119781948D01*
X114770505Y-119781948D01*
X114770504Y-119781947D01*
X114625804Y-119685262D01*
X114502738Y-119562196D01*
X114406053Y-119417496D01*
X114339452Y-119256706D01*
X114305500Y-119086019D01*
X114305500Y-118911981D01*
X114336328Y-118757000D01*
X114339452Y-118741293D01*
X114406052Y-118580506D01*
X114406053Y-118580504D01*
X114502738Y-118435804D01*
X114625804Y-118312738D01*
X114770504Y-118216053D01*
X114790204Y-118207893D01*
X114931293Y-118149452D01*
X114988190Y-118138135D01*
X115101981Y-118115500D01*
X115276019Y-118115500D01*
X115389810Y-118138135D01*
G37*
G36*
X200926000Y-118757000D02*
G01*
X199124000Y-118757000D01*
X199124000Y-116955000D01*
X200926000Y-116955000D01*
X200926000Y-118757000D01*
G37*
G36*
X197598512Y-116959927D02*
G01*
X197747812Y-116989624D01*
X197911784Y-117057544D01*
X198059354Y-117156147D01*
X198184853Y-117281646D01*
X198283456Y-117429216D01*
X198351376Y-117593188D01*
X198386000Y-117767259D01*
X198386000Y-117944741D01*
X198351376Y-118118812D01*
X198283456Y-118282784D01*
X198184853Y-118430354D01*
X198059354Y-118555853D01*
X197911784Y-118654456D01*
X197747812Y-118722376D01*
X197598512Y-118752073D01*
X197573742Y-118757000D01*
X197396258Y-118757000D01*
X197371488Y-118752073D01*
X197222188Y-118722376D01*
X197058216Y-118654456D01*
X196910646Y-118555853D01*
X196785147Y-118430354D01*
X196686544Y-118282784D01*
X196618624Y-118118812D01*
X196584000Y-117944741D01*
X196584000Y-117767259D01*
X196618624Y-117593188D01*
X196686544Y-117429216D01*
X196785147Y-117281646D01*
X196910646Y-117156147D01*
X197058216Y-117057544D01*
X197222188Y-116989624D01*
X197371488Y-116959927D01*
X197396258Y-116955000D01*
X197573742Y-116955000D01*
X197598512Y-116959927D01*
G37*
G36*
X126617589Y-117221876D02*
G01*
X126716893Y-117241629D01*
X126857206Y-117299748D01*
X126983484Y-117384125D01*
X127090875Y-117491516D01*
X127175252Y-117617794D01*
X127233371Y-117758107D01*
X127263000Y-117907063D01*
X127263000Y-118058937D01*
X127233371Y-118207893D01*
X127175252Y-118348206D01*
X127090875Y-118474484D01*
X126983484Y-118581875D01*
X126857206Y-118666252D01*
X126716893Y-118724371D01*
X126617589Y-118744124D01*
X126567938Y-118754000D01*
X126416062Y-118754000D01*
X126366411Y-118744124D01*
X126267107Y-118724371D01*
X126126794Y-118666252D01*
X126000516Y-118581875D01*
X125893125Y-118474484D01*
X125808748Y-118348206D01*
X125750629Y-118207893D01*
X125721000Y-118058937D01*
X125721000Y-117907063D01*
X125750629Y-117758107D01*
X125808748Y-117617794D01*
X125893125Y-117491516D01*
X126000516Y-117384125D01*
X126126794Y-117299748D01*
X126267107Y-117241629D01*
X126366411Y-117221876D01*
X126416062Y-117212000D01*
X126567938Y-117212000D01*
X126617589Y-117221876D01*
G37*
G36*
X136344674Y-116347465D02*
G01*
X136382367Y-116358899D01*
X136417103Y-116377466D01*
X136447548Y-116402452D01*
X136472534Y-116432897D01*
X136491101Y-116467633D01*
X136502535Y-116505326D01*
X136507000Y-116550661D01*
X136507000Y-117637339D01*
X136502535Y-117682674D01*
X136491101Y-117720367D01*
X136472534Y-117755103D01*
X136447548Y-117785548D01*
X136417103Y-117810534D01*
X136382367Y-117829101D01*
X136344674Y-117840535D01*
X136299339Y-117845000D01*
X135462661Y-117845000D01*
X135417326Y-117840535D01*
X135379633Y-117829101D01*
X135344897Y-117810534D01*
X135314452Y-117785548D01*
X135289466Y-117755103D01*
X135270899Y-117720367D01*
X135259465Y-117682674D01*
X135255000Y-117637339D01*
X135255000Y-116550661D01*
X135259465Y-116505326D01*
X135270899Y-116467633D01*
X135289466Y-116432897D01*
X135314452Y-116402452D01*
X135344897Y-116377466D01*
X135379633Y-116358899D01*
X135417326Y-116347465D01*
X135462661Y-116343000D01*
X136299339Y-116343000D01*
X136344674Y-116347465D01*
G37*
G36*
X138394674Y-116347465D02*
G01*
X138432367Y-116358899D01*
X138467103Y-116377466D01*
X138497548Y-116402452D01*
X138522534Y-116432897D01*
X138541101Y-116467633D01*
X138552535Y-116505326D01*
X138557000Y-116550661D01*
X138557000Y-117637339D01*
X138552535Y-117682674D01*
X138541101Y-117720367D01*
X138522534Y-117755103D01*
X138497548Y-117785548D01*
X138467103Y-117810534D01*
X138432367Y-117829101D01*
X138394674Y-117840535D01*
X138349339Y-117845000D01*
X137512661Y-117845000D01*
X137467326Y-117840535D01*
X137429633Y-117829101D01*
X137394897Y-117810534D01*
X137364452Y-117785548D01*
X137339466Y-117755103D01*
X137320899Y-117720367D01*
X137309465Y-117682674D01*
X137305000Y-117637339D01*
X137305000Y-116550661D01*
X137309465Y-116505326D01*
X137320899Y-116467633D01*
X137339466Y-116432897D01*
X137364452Y-116402452D01*
X137394897Y-116377466D01*
X137429633Y-116358899D01*
X137467326Y-116347465D01*
X137512661Y-116343000D01*
X138349339Y-116343000D01*
X138394674Y-116347465D01*
G37*
G36*
X182306564Y-114989389D02*
G01*
X182497833Y-115068615D01*
X182497835Y-115068616D01*
X182547769Y-115101981D01*
X182669973Y-115183635D01*
X182816365Y-115330027D01*
X182931385Y-115502167D01*
X183010611Y-115693436D01*
X183051000Y-115896484D01*
X183051000Y-116103516D01*
X183010611Y-116306564D01*
X182958282Y-116432897D01*
X182931384Y-116497835D01*
X182816365Y-116669973D01*
X182669973Y-116816365D01*
X182497835Y-116931384D01*
X182497834Y-116931385D01*
X182497833Y-116931385D01*
X182306564Y-117010611D01*
X182103516Y-117051000D01*
X181896484Y-117051000D01*
X181693436Y-117010611D01*
X181502167Y-116931385D01*
X181502166Y-116931385D01*
X181502165Y-116931384D01*
X181330027Y-116816365D01*
X181183635Y-116669973D01*
X181068616Y-116497835D01*
X181041718Y-116432897D01*
X180989389Y-116306564D01*
X180949000Y-116103516D01*
X180949000Y-115896484D01*
X180989389Y-115693436D01*
X181068615Y-115502167D01*
X181183635Y-115330027D01*
X181330027Y-115183635D01*
X181452231Y-115101981D01*
X181502165Y-115068616D01*
X181502167Y-115068615D01*
X181693436Y-114989389D01*
X181896484Y-114949000D01*
X182103516Y-114949000D01*
X182306564Y-114989389D01*
G37*
G36*
X124077589Y-114681876D02*
G01*
X124176893Y-114701629D01*
X124317206Y-114759748D01*
X124443484Y-114844125D01*
X124550875Y-114951516D01*
X124635252Y-115077794D01*
X124693371Y-115218107D01*
X124723000Y-115367063D01*
X124723000Y-115518937D01*
X124693371Y-115667893D01*
X124635252Y-115808206D01*
X124550875Y-115934484D01*
X124443484Y-116041875D01*
X124317206Y-116126252D01*
X124176893Y-116184371D01*
X124077589Y-116204124D01*
X124027938Y-116214000D01*
X123876062Y-116214000D01*
X123826411Y-116204124D01*
X123727107Y-116184371D01*
X123586794Y-116126252D01*
X123460516Y-116041875D01*
X123353125Y-115934484D01*
X123268748Y-115808206D01*
X123210629Y-115667893D01*
X123181000Y-115518937D01*
X123181000Y-115367063D01*
X123210629Y-115218107D01*
X123268748Y-115077794D01*
X123353125Y-114951516D01*
X123460516Y-114844125D01*
X123586794Y-114759748D01*
X123727107Y-114701629D01*
X123826411Y-114681876D01*
X123876062Y-114672000D01*
X124027938Y-114672000D01*
X124077589Y-114681876D01*
G37*
G36*
X102181810Y-114328135D02*
G01*
X102238707Y-114339452D01*
X102399494Y-114406052D01*
X102399496Y-114406053D01*
X102544196Y-114502738D01*
X102667262Y-114625804D01*
X102756760Y-114759748D01*
X102763948Y-114770506D01*
X102830548Y-114931293D01*
X102864500Y-115101983D01*
X102864500Y-115276017D01*
X102830548Y-115446707D01*
X102800629Y-115518937D01*
X102763947Y-115607496D01*
X102667262Y-115752196D01*
X102544196Y-115875262D01*
X102399496Y-115971947D01*
X102399495Y-115971948D01*
X102399494Y-115971948D01*
X102238707Y-116038548D01*
X102181810Y-116049865D01*
X102068019Y-116072500D01*
X101893981Y-116072500D01*
X101780190Y-116049865D01*
X101723293Y-116038548D01*
X101562506Y-115971948D01*
X101562505Y-115971948D01*
X101562504Y-115971947D01*
X101417804Y-115875262D01*
X101294738Y-115752196D01*
X101198053Y-115607496D01*
X101161371Y-115518937D01*
X101131452Y-115446707D01*
X101097500Y-115276017D01*
X101097500Y-115101983D01*
X101131452Y-114931293D01*
X101198052Y-114770506D01*
X101205240Y-114759748D01*
X101294738Y-114625804D01*
X101417804Y-114502738D01*
X101562504Y-114406053D01*
X101562506Y-114406052D01*
X101723293Y-114339452D01*
X101780190Y-114328135D01*
X101893981Y-114305500D01*
X102068019Y-114305500D01*
X102181810Y-114328135D01*
G37*
G36*
X115389810Y-114328135D02*
G01*
X115446707Y-114339452D01*
X115607494Y-114406052D01*
X115607496Y-114406053D01*
X115752196Y-114502738D01*
X115875262Y-114625804D01*
X115964760Y-114759748D01*
X115971948Y-114770506D01*
X116038548Y-114931293D01*
X116072500Y-115101983D01*
X116072500Y-115276017D01*
X116038548Y-115446707D01*
X116008629Y-115518937D01*
X115971947Y-115607496D01*
X115875262Y-115752196D01*
X115752196Y-115875262D01*
X115607496Y-115971947D01*
X115607495Y-115971948D01*
X115607494Y-115971948D01*
X115446707Y-116038548D01*
X115389810Y-116049865D01*
X115276019Y-116072500D01*
X115101981Y-116072500D01*
X114988190Y-116049865D01*
X114931293Y-116038548D01*
X114770506Y-115971948D01*
X114770505Y-115971948D01*
X114770504Y-115971947D01*
X114625804Y-115875262D01*
X114502738Y-115752196D01*
X114406053Y-115607496D01*
X114369371Y-115518937D01*
X114339452Y-115446707D01*
X114305500Y-115276017D01*
X114305500Y-115101983D01*
X114339452Y-114931293D01*
X114406052Y-114770506D01*
X114413240Y-114759748D01*
X114502738Y-114625804D01*
X114625804Y-114502738D01*
X114770504Y-114406053D01*
X114770506Y-114406052D01*
X114931293Y-114339452D01*
X114988190Y-114328135D01*
X115101981Y-114305500D01*
X115276019Y-114305500D01*
X115389810Y-114328135D01*
G37*
G36*
X138394674Y-112664465D02*
G01*
X138432367Y-112675899D01*
X138467103Y-112694466D01*
X138497548Y-112719452D01*
X138522534Y-112749897D01*
X138541101Y-112784633D01*
X138552535Y-112822326D01*
X138557000Y-112867661D01*
X138557000Y-113954339D01*
X138552535Y-113999674D01*
X138541101Y-114037367D01*
X138522534Y-114072103D01*
X138497548Y-114102548D01*
X138467103Y-114127534D01*
X138432367Y-114146101D01*
X138394674Y-114157535D01*
X138349339Y-114162000D01*
X137512661Y-114162000D01*
X137467326Y-114157535D01*
X137429633Y-114146101D01*
X137394897Y-114127534D01*
X137364452Y-114102548D01*
X137339466Y-114072103D01*
X137320899Y-114037367D01*
X137309465Y-113999674D01*
X137305000Y-113954339D01*
X137305000Y-112867661D01*
X137309465Y-112822326D01*
X137320899Y-112784633D01*
X137339466Y-112749897D01*
X137364452Y-112719452D01*
X137394897Y-112694466D01*
X137429633Y-112675899D01*
X137467326Y-112664465D01*
X137512661Y-112660000D01*
X138349339Y-112660000D01*
X138394674Y-112664465D01*
G37*
G36*
X136344674Y-112664465D02*
G01*
X136382367Y-112675899D01*
X136417103Y-112694466D01*
X136447548Y-112719452D01*
X136472534Y-112749897D01*
X136491101Y-112784633D01*
X136502535Y-112822326D01*
X136507000Y-112867661D01*
X136507000Y-113954339D01*
X136502535Y-113999674D01*
X136491101Y-114037367D01*
X136472534Y-114072103D01*
X136447548Y-114102548D01*
X136417103Y-114127534D01*
X136382367Y-114146101D01*
X136344674Y-114157535D01*
X136299339Y-114162000D01*
X135462661Y-114162000D01*
X135417326Y-114157535D01*
X135379633Y-114146101D01*
X135344897Y-114127534D01*
X135314452Y-114102548D01*
X135289466Y-114072103D01*
X135270899Y-114037367D01*
X135259465Y-113999674D01*
X135255000Y-113954339D01*
X135255000Y-112867661D01*
X135259465Y-112822326D01*
X135270899Y-112784633D01*
X135289466Y-112749897D01*
X135314452Y-112719452D01*
X135344897Y-112694466D01*
X135379633Y-112675899D01*
X135417326Y-112664465D01*
X135462661Y-112660000D01*
X136299339Y-112660000D01*
X136344674Y-112664465D01*
G37*
G36*
X157825674Y-112410465D02*
G01*
X157863367Y-112421899D01*
X157898103Y-112440466D01*
X157928548Y-112465452D01*
X157953534Y-112495897D01*
X157972101Y-112530633D01*
X157983535Y-112568326D01*
X157988000Y-112613661D01*
X157988000Y-113700339D01*
X157983535Y-113745674D01*
X157972101Y-113783367D01*
X157953534Y-113818103D01*
X157928548Y-113848548D01*
X157898103Y-113873534D01*
X157863367Y-113892101D01*
X157825674Y-113903535D01*
X157780339Y-113908000D01*
X156943661Y-113908000D01*
X156898326Y-113903535D01*
X156860633Y-113892101D01*
X156825897Y-113873534D01*
X156795452Y-113848548D01*
X156770466Y-113818103D01*
X156751899Y-113783367D01*
X156740465Y-113745674D01*
X156736000Y-113700339D01*
X156736000Y-112613661D01*
X156740465Y-112568326D01*
X156751899Y-112530633D01*
X156770466Y-112495897D01*
X156795452Y-112465452D01*
X156825897Y-112440466D01*
X156860633Y-112421899D01*
X156898326Y-112410465D01*
X156943661Y-112406000D01*
X157780339Y-112406000D01*
X157825674Y-112410465D01*
G37*
G36*
X155775674Y-112410465D02*
G01*
X155813367Y-112421899D01*
X155848103Y-112440466D01*
X155878548Y-112465452D01*
X155903534Y-112495897D01*
X155922101Y-112530633D01*
X155933535Y-112568326D01*
X155938000Y-112613661D01*
X155938000Y-113700339D01*
X155933535Y-113745674D01*
X155922101Y-113783367D01*
X155903534Y-113818103D01*
X155878548Y-113848548D01*
X155848103Y-113873534D01*
X155813367Y-113892101D01*
X155775674Y-113903535D01*
X155730339Y-113908000D01*
X154893661Y-113908000D01*
X154848326Y-113903535D01*
X154810633Y-113892101D01*
X154775897Y-113873534D01*
X154745452Y-113848548D01*
X154720466Y-113818103D01*
X154701899Y-113783367D01*
X154690465Y-113745674D01*
X154686000Y-113700339D01*
X154686000Y-112613661D01*
X154690465Y-112568326D01*
X154701899Y-112530633D01*
X154720466Y-112495897D01*
X154745452Y-112465452D01*
X154775897Y-112440466D01*
X154810633Y-112421899D01*
X154848326Y-112410465D01*
X154893661Y-112406000D01*
X155730339Y-112406000D01*
X155775674Y-112410465D01*
G37*
G36*
X152110674Y-112410465D02*
G01*
X152148367Y-112421899D01*
X152183103Y-112440466D01*
X152213548Y-112465452D01*
X152238534Y-112495897D01*
X152257101Y-112530633D01*
X152268535Y-112568326D01*
X152273000Y-112613661D01*
X152273000Y-113700339D01*
X152268535Y-113745674D01*
X152257101Y-113783367D01*
X152238534Y-113818103D01*
X152213548Y-113848548D01*
X152183103Y-113873534D01*
X152148367Y-113892101D01*
X152110674Y-113903535D01*
X152065339Y-113908000D01*
X151228661Y-113908000D01*
X151183326Y-113903535D01*
X151145633Y-113892101D01*
X151110897Y-113873534D01*
X151080452Y-113848548D01*
X151055466Y-113818103D01*
X151036899Y-113783367D01*
X151025465Y-113745674D01*
X151021000Y-113700339D01*
X151021000Y-112613661D01*
X151025465Y-112568326D01*
X151036899Y-112530633D01*
X151055466Y-112495897D01*
X151080452Y-112465452D01*
X151110897Y-112440466D01*
X151145633Y-112421899D01*
X151183326Y-112410465D01*
X151228661Y-112406000D01*
X152065339Y-112406000D01*
X152110674Y-112410465D01*
G37*
G36*
X150060674Y-112410465D02*
G01*
X150098367Y-112421899D01*
X150133103Y-112440466D01*
X150163548Y-112465452D01*
X150188534Y-112495897D01*
X150207101Y-112530633D01*
X150218535Y-112568326D01*
X150223000Y-112613661D01*
X150223000Y-113700339D01*
X150218535Y-113745674D01*
X150207101Y-113783367D01*
X150188534Y-113818103D01*
X150163548Y-113848548D01*
X150133103Y-113873534D01*
X150098367Y-113892101D01*
X150060674Y-113903535D01*
X150015339Y-113908000D01*
X149178661Y-113908000D01*
X149133326Y-113903535D01*
X149095633Y-113892101D01*
X149060897Y-113873534D01*
X149030452Y-113848548D01*
X149005466Y-113818103D01*
X148986899Y-113783367D01*
X148975465Y-113745674D01*
X148971000Y-113700339D01*
X148971000Y-112613661D01*
X148975465Y-112568326D01*
X148986899Y-112530633D01*
X149005466Y-112495897D01*
X149030452Y-112465452D01*
X149060897Y-112440466D01*
X149095633Y-112421899D01*
X149133326Y-112410465D01*
X149178661Y-112406000D01*
X150015339Y-112406000D01*
X150060674Y-112410465D01*
G37*
G36*
X126617589Y-112141876D02*
G01*
X126716893Y-112161629D01*
X126857206Y-112219748D01*
X126983484Y-112304125D01*
X127090875Y-112411516D01*
X127175252Y-112537794D01*
X127233371Y-112678107D01*
X127263000Y-112827063D01*
X127263000Y-112978937D01*
X127233371Y-113127893D01*
X127175252Y-113268206D01*
X127090875Y-113394484D01*
X126983484Y-113501875D01*
X126857206Y-113586252D01*
X126716893Y-113644371D01*
X126617589Y-113664124D01*
X126567938Y-113674000D01*
X126416062Y-113674000D01*
X126366411Y-113664124D01*
X126267107Y-113644371D01*
X126126794Y-113586252D01*
X126000516Y-113501875D01*
X125893125Y-113394484D01*
X125808748Y-113268206D01*
X125750629Y-113127893D01*
X125721000Y-112978937D01*
X125721000Y-112827063D01*
X125750629Y-112678107D01*
X125808748Y-112537794D01*
X125893125Y-112411516D01*
X126000516Y-112304125D01*
X126126794Y-112219748D01*
X126267107Y-112161629D01*
X126366411Y-112141876D01*
X126416062Y-112132000D01*
X126567938Y-112132000D01*
X126617589Y-112141876D01*
G37*
G36*
X102181810Y-109248135D02*
G01*
X102238707Y-109259452D01*
X102266738Y-109271063D01*
X102399496Y-109326053D01*
X102544196Y-109422738D01*
X102667262Y-109545804D01*
X102763947Y-109690504D01*
X102763948Y-109690506D01*
X102830548Y-109851293D01*
X102838315Y-109890339D01*
X102864500Y-110021981D01*
X102864500Y-110196019D01*
X102830548Y-110366706D01*
X102763947Y-110527496D01*
X102667262Y-110672196D01*
X102544196Y-110795262D01*
X102399496Y-110891947D01*
X102399495Y-110891948D01*
X102399494Y-110891948D01*
X102238707Y-110958548D01*
X102181810Y-110969865D01*
X102068019Y-110992500D01*
X101893981Y-110992500D01*
X101780190Y-110969865D01*
X101723293Y-110958548D01*
X101562506Y-110891948D01*
X101562505Y-110891948D01*
X101562504Y-110891947D01*
X101417804Y-110795262D01*
X101294738Y-110672196D01*
X101198053Y-110527496D01*
X101131452Y-110366706D01*
X101097500Y-110196019D01*
X101097500Y-110021981D01*
X101123685Y-109890339D01*
X101131452Y-109851293D01*
X101198052Y-109690506D01*
X101198053Y-109690504D01*
X101294738Y-109545804D01*
X101417804Y-109422738D01*
X101562504Y-109326053D01*
X101695262Y-109271063D01*
X101723293Y-109259452D01*
X101780190Y-109248135D01*
X101893981Y-109225500D01*
X102068019Y-109225500D01*
X102181810Y-109248135D01*
G37*
G36*
X115389810Y-109248135D02*
G01*
X115446707Y-109259452D01*
X115474738Y-109271063D01*
X115607496Y-109326053D01*
X115752196Y-109422738D01*
X115875262Y-109545804D01*
X115971947Y-109690504D01*
X115971948Y-109690506D01*
X116038548Y-109851293D01*
X116046315Y-109890339D01*
X116072500Y-110021981D01*
X116072500Y-110196019D01*
X116038548Y-110366706D01*
X115971947Y-110527496D01*
X115875262Y-110672196D01*
X115752196Y-110795262D01*
X115607496Y-110891947D01*
X115607495Y-110891948D01*
X115607494Y-110891948D01*
X115446707Y-110958548D01*
X115389810Y-110969865D01*
X115276019Y-110992500D01*
X115101981Y-110992500D01*
X114988190Y-110969865D01*
X114931293Y-110958548D01*
X114770506Y-110891948D01*
X114770505Y-110891948D01*
X114770504Y-110891947D01*
X114625804Y-110795262D01*
X114502738Y-110672196D01*
X114406053Y-110527496D01*
X114339452Y-110366706D01*
X114305500Y-110196019D01*
X114305500Y-110021981D01*
X114331685Y-109890339D01*
X114339452Y-109851293D01*
X114406052Y-109690506D01*
X114406053Y-109690504D01*
X114502738Y-109545804D01*
X114625804Y-109422738D01*
X114770504Y-109326053D01*
X114903262Y-109271063D01*
X114931293Y-109259452D01*
X114988190Y-109248135D01*
X115101981Y-109225500D01*
X115276019Y-109225500D01*
X115389810Y-109248135D01*
G37*
G36*
X199642589Y-108585876D02*
G01*
X199741893Y-108605629D01*
X199882206Y-108663748D01*
X200008484Y-108748125D01*
X200115875Y-108855516D01*
X200200252Y-108981794D01*
X200258371Y-109122107D01*
X200258371Y-109122109D01*
X200285691Y-109259452D01*
X200288000Y-109271063D01*
X200288000Y-109422937D01*
X200258371Y-109571893D01*
X200200252Y-109712206D01*
X200115875Y-109838484D01*
X200008484Y-109945875D01*
X199882206Y-110030252D01*
X199741893Y-110088371D01*
X199642589Y-110108124D01*
X199592938Y-110118000D01*
X199441062Y-110118000D01*
X199391411Y-110108124D01*
X199292107Y-110088371D01*
X199151794Y-110030252D01*
X199025516Y-109945875D01*
X198918125Y-109838484D01*
X198833748Y-109712206D01*
X198775629Y-109571893D01*
X198746000Y-109422937D01*
X198746000Y-109271063D01*
X198748310Y-109259452D01*
X198775629Y-109122109D01*
X198775629Y-109122107D01*
X198833748Y-108981794D01*
X198918125Y-108855516D01*
X199025516Y-108748125D01*
X199151794Y-108663748D01*
X199292107Y-108605629D01*
X199391411Y-108585876D01*
X199441062Y-108576000D01*
X199592938Y-108576000D01*
X199642589Y-108585876D01*
G37*
G36*
X155775674Y-108600465D02*
G01*
X155813367Y-108611899D01*
X155848103Y-108630466D01*
X155878548Y-108655452D01*
X155903534Y-108685897D01*
X155922101Y-108720633D01*
X155933535Y-108758326D01*
X155938000Y-108803661D01*
X155938000Y-109890339D01*
X155933535Y-109935674D01*
X155922101Y-109973367D01*
X155903534Y-110008103D01*
X155878548Y-110038548D01*
X155848103Y-110063534D01*
X155813367Y-110082101D01*
X155775674Y-110093535D01*
X155730339Y-110098000D01*
X154893661Y-110098000D01*
X154848326Y-110093535D01*
X154810633Y-110082101D01*
X154775897Y-110063534D01*
X154745452Y-110038548D01*
X154720466Y-110008103D01*
X154701899Y-109973367D01*
X154690465Y-109935674D01*
X154686000Y-109890339D01*
X154686000Y-108803661D01*
X154690465Y-108758326D01*
X154701899Y-108720633D01*
X154720466Y-108685897D01*
X154745452Y-108655452D01*
X154775897Y-108630466D01*
X154810633Y-108611899D01*
X154848326Y-108600465D01*
X154893661Y-108596000D01*
X155730339Y-108596000D01*
X155775674Y-108600465D01*
G37*
G36*
X157825674Y-108600465D02*
G01*
X157863367Y-108611899D01*
X157898103Y-108630466D01*
X157928548Y-108655452D01*
X157953534Y-108685897D01*
X157972101Y-108720633D01*
X157983535Y-108758326D01*
X157988000Y-108803661D01*
X157988000Y-109890339D01*
X157983535Y-109935674D01*
X157972101Y-109973367D01*
X157953534Y-110008103D01*
X157928548Y-110038548D01*
X157898103Y-110063534D01*
X157863367Y-110082101D01*
X157825674Y-110093535D01*
X157780339Y-110098000D01*
X156943661Y-110098000D01*
X156898326Y-110093535D01*
X156860633Y-110082101D01*
X156825897Y-110063534D01*
X156795452Y-110038548D01*
X156770466Y-110008103D01*
X156751899Y-109973367D01*
X156740465Y-109935674D01*
X156736000Y-109890339D01*
X156736000Y-108803661D01*
X156740465Y-108758326D01*
X156751899Y-108720633D01*
X156770466Y-108685897D01*
X156795452Y-108655452D01*
X156825897Y-108630466D01*
X156860633Y-108611899D01*
X156898326Y-108600465D01*
X156943661Y-108596000D01*
X157780339Y-108596000D01*
X157825674Y-108600465D01*
G37*
G36*
X150060674Y-108600465D02*
G01*
X150098367Y-108611899D01*
X150133103Y-108630466D01*
X150163548Y-108655452D01*
X150188534Y-108685897D01*
X150207101Y-108720633D01*
X150218535Y-108758326D01*
X150223000Y-108803661D01*
X150223000Y-109890339D01*
X150218535Y-109935674D01*
X150207101Y-109973367D01*
X150188534Y-110008103D01*
X150163548Y-110038548D01*
X150133103Y-110063534D01*
X150098367Y-110082101D01*
X150060674Y-110093535D01*
X150015339Y-110098000D01*
X149178661Y-110098000D01*
X149133326Y-110093535D01*
X149095633Y-110082101D01*
X149060897Y-110063534D01*
X149030452Y-110038548D01*
X149005466Y-110008103D01*
X148986899Y-109973367D01*
X148975465Y-109935674D01*
X148971000Y-109890339D01*
X148971000Y-108803661D01*
X148975465Y-108758326D01*
X148986899Y-108720633D01*
X149005466Y-108685897D01*
X149030452Y-108655452D01*
X149060897Y-108630466D01*
X149095633Y-108611899D01*
X149133326Y-108600465D01*
X149178661Y-108596000D01*
X150015339Y-108596000D01*
X150060674Y-108600465D01*
G37*
G36*
X152110674Y-108600465D02*
G01*
X152148367Y-108611899D01*
X152183103Y-108630466D01*
X152213548Y-108655452D01*
X152238534Y-108685897D01*
X152257101Y-108720633D01*
X152268535Y-108758326D01*
X152273000Y-108803661D01*
X152273000Y-109890339D01*
X152268535Y-109935674D01*
X152257101Y-109973367D01*
X152238534Y-110008103D01*
X152213548Y-110038548D01*
X152183103Y-110063534D01*
X152148367Y-110082101D01*
X152110674Y-110093535D01*
X152065339Y-110098000D01*
X151228661Y-110098000D01*
X151183326Y-110093535D01*
X151145633Y-110082101D01*
X151110897Y-110063534D01*
X151080452Y-110038548D01*
X151055466Y-110008103D01*
X151036899Y-109973367D01*
X151025465Y-109935674D01*
X151021000Y-109890339D01*
X151021000Y-108803661D01*
X151025465Y-108758326D01*
X151036899Y-108720633D01*
X151055466Y-108685897D01*
X151080452Y-108655452D01*
X151110897Y-108630466D01*
X151145633Y-108611899D01*
X151183326Y-108600465D01*
X151228661Y-108596000D01*
X152065339Y-108596000D01*
X152110674Y-108600465D01*
G37*
G36*
X138267674Y-108473465D02*
G01*
X138305367Y-108484899D01*
X138340103Y-108503466D01*
X138370548Y-108528452D01*
X138395534Y-108558897D01*
X138414101Y-108593633D01*
X138425535Y-108631326D01*
X138430000Y-108676661D01*
X138430000Y-109763339D01*
X138425535Y-109808674D01*
X138414101Y-109846367D01*
X138395534Y-109881103D01*
X138370548Y-109911548D01*
X138340103Y-109936534D01*
X138305367Y-109955101D01*
X138267674Y-109966535D01*
X138222339Y-109971000D01*
X137385661Y-109971000D01*
X137340326Y-109966535D01*
X137302633Y-109955101D01*
X137267897Y-109936534D01*
X137237452Y-109911548D01*
X137212466Y-109881103D01*
X137193899Y-109846367D01*
X137182465Y-109808674D01*
X137178000Y-109763339D01*
X137178000Y-108676661D01*
X137182465Y-108631326D01*
X137193899Y-108593633D01*
X137212466Y-108558897D01*
X137237452Y-108528452D01*
X137267897Y-108503466D01*
X137302633Y-108484899D01*
X137340326Y-108473465D01*
X137385661Y-108469000D01*
X138222339Y-108469000D01*
X138267674Y-108473465D01*
G37*
G36*
X136217674Y-108473465D02*
G01*
X136255367Y-108484899D01*
X136290103Y-108503466D01*
X136320548Y-108528452D01*
X136345534Y-108558897D01*
X136364101Y-108593633D01*
X136375535Y-108631326D01*
X136380000Y-108676661D01*
X136380000Y-109763339D01*
X136375535Y-109808674D01*
X136364101Y-109846367D01*
X136345534Y-109881103D01*
X136320548Y-109911548D01*
X136290103Y-109936534D01*
X136255367Y-109955101D01*
X136217674Y-109966535D01*
X136172339Y-109971000D01*
X135335661Y-109971000D01*
X135290326Y-109966535D01*
X135252633Y-109955101D01*
X135217897Y-109936534D01*
X135187452Y-109911548D01*
X135162466Y-109881103D01*
X135143899Y-109846367D01*
X135132465Y-109808674D01*
X135128000Y-109763339D01*
X135128000Y-108676661D01*
X135132465Y-108631326D01*
X135143899Y-108593633D01*
X135162466Y-108558897D01*
X135187452Y-108528452D01*
X135217897Y-108503466D01*
X135252633Y-108484899D01*
X135290326Y-108473465D01*
X135335661Y-108469000D01*
X136172339Y-108469000D01*
X136217674Y-108473465D01*
G37*
G36*
X197073238Y-106040038D02*
G01*
X197201893Y-106065629D01*
X197342206Y-106123748D01*
X197468484Y-106208125D01*
X197575875Y-106315516D01*
X197660252Y-106441794D01*
X197718371Y-106582107D01*
X197748000Y-106731063D01*
X197748000Y-106882937D01*
X197718371Y-107031893D01*
X197660252Y-107172206D01*
X197575875Y-107298484D01*
X197468484Y-107405875D01*
X197342206Y-107490252D01*
X197201893Y-107548371D01*
X197102589Y-107568124D01*
X197052938Y-107578000D01*
X196901062Y-107578000D01*
X196851411Y-107568124D01*
X196752107Y-107548371D01*
X196611794Y-107490252D01*
X196485516Y-107405875D01*
X196378125Y-107298484D01*
X196293748Y-107172206D01*
X196235629Y-107031893D01*
X196206000Y-106882937D01*
X196206000Y-106731063D01*
X196235629Y-106582107D01*
X196293748Y-106441794D01*
X196378125Y-106315516D01*
X196485516Y-106208125D01*
X196611794Y-106123748D01*
X196752107Y-106065629D01*
X196880762Y-106040038D01*
X196901062Y-106036000D01*
X197052938Y-106036000D01*
X197073238Y-106040038D01*
G37*
G36*
X155775674Y-104790465D02*
G01*
X155813367Y-104801899D01*
X155848103Y-104820466D01*
X155878548Y-104845452D01*
X155903534Y-104875897D01*
X155922101Y-104910633D01*
X155933535Y-104948326D01*
X155938000Y-104993661D01*
X155938000Y-106080339D01*
X155933535Y-106125674D01*
X155922101Y-106163367D01*
X155903534Y-106198103D01*
X155878548Y-106228548D01*
X155848103Y-106253534D01*
X155813367Y-106272101D01*
X155775674Y-106283535D01*
X155730339Y-106288000D01*
X154893661Y-106288000D01*
X154848326Y-106283535D01*
X154810633Y-106272101D01*
X154775897Y-106253534D01*
X154745452Y-106228548D01*
X154720466Y-106198103D01*
X154701899Y-106163367D01*
X154690465Y-106125674D01*
X154686000Y-106080339D01*
X154686000Y-104993661D01*
X154690465Y-104948326D01*
X154701899Y-104910633D01*
X154720466Y-104875897D01*
X154745452Y-104845452D01*
X154775897Y-104820466D01*
X154810633Y-104801899D01*
X154848326Y-104790465D01*
X154893661Y-104786000D01*
X155730339Y-104786000D01*
X155775674Y-104790465D01*
G37*
G36*
X157825674Y-104790465D02*
G01*
X157863367Y-104801899D01*
X157898103Y-104820466D01*
X157928548Y-104845452D01*
X157953534Y-104875897D01*
X157972101Y-104910633D01*
X157983535Y-104948326D01*
X157988000Y-104993661D01*
X157988000Y-106080339D01*
X157983535Y-106125674D01*
X157972101Y-106163367D01*
X157953534Y-106198103D01*
X157928548Y-106228548D01*
X157898103Y-106253534D01*
X157863367Y-106272101D01*
X157825674Y-106283535D01*
X157780339Y-106288000D01*
X156943661Y-106288000D01*
X156898326Y-106283535D01*
X156860633Y-106272101D01*
X156825897Y-106253534D01*
X156795452Y-106228548D01*
X156770466Y-106198103D01*
X156751899Y-106163367D01*
X156740465Y-106125674D01*
X156736000Y-106080339D01*
X156736000Y-104993661D01*
X156740465Y-104948326D01*
X156751899Y-104910633D01*
X156770466Y-104875897D01*
X156795452Y-104845452D01*
X156825897Y-104820466D01*
X156860633Y-104801899D01*
X156898326Y-104790465D01*
X156943661Y-104786000D01*
X157780339Y-104786000D01*
X157825674Y-104790465D01*
G37*
G36*
X136217674Y-104663465D02*
G01*
X136255367Y-104674899D01*
X136290103Y-104693466D01*
X136320548Y-104718452D01*
X136345534Y-104748897D01*
X136364101Y-104783633D01*
X136375535Y-104821326D01*
X136380000Y-104866661D01*
X136380000Y-105953339D01*
X136375535Y-105998674D01*
X136364101Y-106036367D01*
X136345534Y-106071103D01*
X136320548Y-106101548D01*
X136290103Y-106126534D01*
X136255367Y-106145101D01*
X136217674Y-106156535D01*
X136172339Y-106161000D01*
X135335661Y-106161000D01*
X135290326Y-106156535D01*
X135252633Y-106145101D01*
X135217897Y-106126534D01*
X135187452Y-106101548D01*
X135162466Y-106071103D01*
X135143899Y-106036367D01*
X135132465Y-105998674D01*
X135128000Y-105953339D01*
X135128000Y-104866661D01*
X135132465Y-104821326D01*
X135143899Y-104783633D01*
X135162466Y-104748897D01*
X135187452Y-104718452D01*
X135217897Y-104693466D01*
X135252633Y-104674899D01*
X135290326Y-104663465D01*
X135335661Y-104659000D01*
X136172339Y-104659000D01*
X136217674Y-104663465D01*
G37*
G36*
X138267674Y-104663465D02*
G01*
X138305367Y-104674899D01*
X138340103Y-104693466D01*
X138370548Y-104718452D01*
X138395534Y-104748897D01*
X138414101Y-104783633D01*
X138425535Y-104821326D01*
X138430000Y-104866661D01*
X138430000Y-105953339D01*
X138425535Y-105998674D01*
X138414101Y-106036367D01*
X138395534Y-106071103D01*
X138370548Y-106101548D01*
X138340103Y-106126534D01*
X138305367Y-106145101D01*
X138267674Y-106156535D01*
X138222339Y-106161000D01*
X137385661Y-106161000D01*
X137340326Y-106156535D01*
X137302633Y-106145101D01*
X137267897Y-106126534D01*
X137237452Y-106101548D01*
X137212466Y-106071103D01*
X137193899Y-106036367D01*
X137182465Y-105998674D01*
X137178000Y-105953339D01*
X137178000Y-104866661D01*
X137182465Y-104821326D01*
X137193899Y-104783633D01*
X137212466Y-104748897D01*
X137237452Y-104718452D01*
X137267897Y-104693466D01*
X137302633Y-104674899D01*
X137340326Y-104663465D01*
X137385661Y-104659000D01*
X138222339Y-104659000D01*
X138267674Y-104663465D01*
G37*
G36*
X102181810Y-104168135D02*
G01*
X102238707Y-104179452D01*
X102266738Y-104191063D01*
X102399496Y-104246053D01*
X102544196Y-104342738D01*
X102667262Y-104465804D01*
X102763947Y-104610504D01*
X102763948Y-104610506D01*
X102830548Y-104771293D01*
X102834514Y-104791230D01*
X102864500Y-104941981D01*
X102864500Y-105116019D01*
X102830548Y-105286706D01*
X102763947Y-105447496D01*
X102667262Y-105592196D01*
X102544196Y-105715262D01*
X102399496Y-105811947D01*
X102399495Y-105811948D01*
X102399494Y-105811948D01*
X102238707Y-105878548D01*
X102187030Y-105888827D01*
X102068019Y-105912500D01*
X101893981Y-105912500D01*
X101774970Y-105888827D01*
X101723293Y-105878548D01*
X101562506Y-105811948D01*
X101562505Y-105811948D01*
X101562504Y-105811947D01*
X101417804Y-105715262D01*
X101294738Y-105592196D01*
X101198053Y-105447496D01*
X101131452Y-105286706D01*
X101097500Y-105116019D01*
X101097500Y-104941981D01*
X101127486Y-104791230D01*
X101131452Y-104771293D01*
X101198052Y-104610506D01*
X101198053Y-104610504D01*
X101294738Y-104465804D01*
X101417804Y-104342738D01*
X101562504Y-104246053D01*
X101695262Y-104191063D01*
X101723293Y-104179452D01*
X101780190Y-104168135D01*
X101893981Y-104145500D01*
X102068019Y-104145500D01*
X102181810Y-104168135D01*
G37*
G36*
X115389810Y-104168135D02*
G01*
X115446707Y-104179452D01*
X115474738Y-104191063D01*
X115607496Y-104246053D01*
X115752196Y-104342738D01*
X115875262Y-104465804D01*
X115971947Y-104610504D01*
X115971948Y-104610506D01*
X116038548Y-104771293D01*
X116042514Y-104791230D01*
X116072500Y-104941981D01*
X116072500Y-105116019D01*
X116038548Y-105286706D01*
X115971947Y-105447496D01*
X115875262Y-105592196D01*
X115752196Y-105715262D01*
X115607496Y-105811947D01*
X115607495Y-105811948D01*
X115607494Y-105811948D01*
X115446707Y-105878548D01*
X115395030Y-105888827D01*
X115276019Y-105912500D01*
X115101981Y-105912500D01*
X114982970Y-105888827D01*
X114931293Y-105878548D01*
X114770506Y-105811948D01*
X114770505Y-105811948D01*
X114770504Y-105811947D01*
X114625804Y-105715262D01*
X114502738Y-105592196D01*
X114406053Y-105447496D01*
X114339452Y-105286706D01*
X114305500Y-105116019D01*
X114305500Y-104941981D01*
X114335486Y-104791230D01*
X114339452Y-104771293D01*
X114406052Y-104610506D01*
X114406053Y-104610504D01*
X114502738Y-104465804D01*
X114625804Y-104342738D01*
X114770504Y-104246053D01*
X114903262Y-104191063D01*
X114931293Y-104179452D01*
X114988190Y-104168135D01*
X115101981Y-104145500D01*
X115276019Y-104145500D01*
X115389810Y-104168135D01*
G37*
G36*
X144765000Y-105223000D02*
G01*
X143213000Y-105223000D01*
X143213000Y-100771000D01*
X144765000Y-100771000D01*
X144765000Y-105223000D01*
G37*
G36*
X150665000Y-105223000D02*
G01*
X149113000Y-105223000D01*
X149113000Y-100771000D01*
X150665000Y-100771000D01*
X150665000Y-105223000D01*
G37*
G36*
X199642589Y-103505876D02*
G01*
X199741893Y-103525629D01*
X199882206Y-103583748D01*
X200008484Y-103668125D01*
X200115875Y-103775516D01*
X200200252Y-103901794D01*
X200258371Y-104042107D01*
X200258371Y-104042109D01*
X200285691Y-104179452D01*
X200288000Y-104191063D01*
X200288000Y-104342937D01*
X200258371Y-104491893D01*
X200200252Y-104632206D01*
X200115875Y-104758484D01*
X200008484Y-104865875D01*
X199882206Y-104950252D01*
X199741893Y-105008371D01*
X199642589Y-105028124D01*
X199592938Y-105038000D01*
X199441062Y-105038000D01*
X199391411Y-105028124D01*
X199292107Y-105008371D01*
X199151794Y-104950252D01*
X199025516Y-104865875D01*
X198918125Y-104758484D01*
X198833748Y-104632206D01*
X198775629Y-104491893D01*
X198746000Y-104342937D01*
X198746000Y-104191063D01*
X198748310Y-104179452D01*
X198775629Y-104042109D01*
X198775629Y-104042107D01*
X198833748Y-103901794D01*
X198918125Y-103775516D01*
X199025516Y-103668125D01*
X199151794Y-103583748D01*
X199292107Y-103525629D01*
X199391411Y-103505876D01*
X199441062Y-103496000D01*
X199592938Y-103496000D01*
X199642589Y-103505876D01*
G37*
G36*
X126760934Y-100556671D02*
G01*
X126790877Y-100565754D01*
X126818465Y-100580500D01*
X126842651Y-100600349D01*
X126862500Y-100624535D01*
X126877246Y-100652123D01*
X126886329Y-100682066D01*
X126890000Y-100719340D01*
X126890000Y-102988660D01*
X126886329Y-103025934D01*
X126877246Y-103055877D01*
X126862500Y-103083465D01*
X126842651Y-103107651D01*
X126818465Y-103127500D01*
X126790877Y-103142246D01*
X126760934Y-103151329D01*
X126723660Y-103155000D01*
X122954340Y-103155000D01*
X122917066Y-103151329D01*
X122887123Y-103142246D01*
X122859535Y-103127500D01*
X122835349Y-103107651D01*
X122815500Y-103083465D01*
X122800754Y-103055877D01*
X122791671Y-103025934D01*
X122788000Y-102988660D01*
X122788000Y-100719340D01*
X122791671Y-100682066D01*
X122800754Y-100652123D01*
X122815500Y-100624535D01*
X122835349Y-100600349D01*
X122859535Y-100580500D01*
X122887123Y-100565754D01*
X122917066Y-100556671D01*
X122954340Y-100553000D01*
X126723660Y-100553000D01*
X126760934Y-100556671D01*
G37*
G36*
X132860934Y-100556671D02*
G01*
X132890877Y-100565754D01*
X132918465Y-100580500D01*
X132942651Y-100600349D01*
X132962500Y-100624535D01*
X132977246Y-100652123D01*
X132986329Y-100682066D01*
X132990000Y-100719340D01*
X132990000Y-102988660D01*
X132986329Y-103025934D01*
X132977246Y-103055877D01*
X132962500Y-103083465D01*
X132942651Y-103107651D01*
X132918465Y-103127500D01*
X132890877Y-103142246D01*
X132860934Y-103151329D01*
X132823660Y-103155000D01*
X129054340Y-103155000D01*
X129017066Y-103151329D01*
X128987123Y-103142246D01*
X128959535Y-103127500D01*
X128935349Y-103107651D01*
X128915500Y-103083465D01*
X128900754Y-103055877D01*
X128891671Y-103025934D01*
X128888000Y-102988660D01*
X128888000Y-100719340D01*
X128891671Y-100682066D01*
X128900754Y-100652123D01*
X128915500Y-100624535D01*
X128935349Y-100600349D01*
X128959535Y-100580500D01*
X128987123Y-100565754D01*
X129017066Y-100556671D01*
X129054340Y-100553000D01*
X132823660Y-100553000D01*
X132860934Y-100556671D01*
G37*
G36*
X157825674Y-100980465D02*
G01*
X157863367Y-100991899D01*
X157898103Y-101010466D01*
X157928548Y-101035452D01*
X157953534Y-101065897D01*
X157972101Y-101100633D01*
X157983535Y-101138326D01*
X157988000Y-101183661D01*
X157988000Y-102270339D01*
X157983535Y-102315674D01*
X157972101Y-102353367D01*
X157953534Y-102388103D01*
X157928548Y-102418548D01*
X157898103Y-102443534D01*
X157863367Y-102462101D01*
X157825674Y-102473535D01*
X157780339Y-102478000D01*
X156943661Y-102478000D01*
X156898326Y-102473535D01*
X156860633Y-102462101D01*
X156825897Y-102443534D01*
X156795452Y-102418548D01*
X156770466Y-102388103D01*
X156751899Y-102353367D01*
X156740465Y-102315674D01*
X156736000Y-102270339D01*
X156736000Y-101183661D01*
X156740465Y-101138326D01*
X156751899Y-101100633D01*
X156770466Y-101065897D01*
X156795452Y-101035452D01*
X156825897Y-101010466D01*
X156860633Y-100991899D01*
X156898326Y-100980465D01*
X156943661Y-100976000D01*
X157780339Y-100976000D01*
X157825674Y-100980465D01*
G37*
G36*
X155775674Y-100980465D02*
G01*
X155813367Y-100991899D01*
X155848103Y-101010466D01*
X155878548Y-101035452D01*
X155903534Y-101065897D01*
X155922101Y-101100633D01*
X155933535Y-101138326D01*
X155938000Y-101183661D01*
X155938000Y-102270339D01*
X155933535Y-102315674D01*
X155922101Y-102353367D01*
X155903534Y-102388103D01*
X155878548Y-102418548D01*
X155848103Y-102443534D01*
X155813367Y-102462101D01*
X155775674Y-102473535D01*
X155730339Y-102478000D01*
X154893661Y-102478000D01*
X154848326Y-102473535D01*
X154810633Y-102462101D01*
X154775897Y-102443534D01*
X154745452Y-102418548D01*
X154720466Y-102388103D01*
X154701899Y-102353367D01*
X154690465Y-102315674D01*
X154686000Y-102270339D01*
X154686000Y-101183661D01*
X154690465Y-101138326D01*
X154701899Y-101100633D01*
X154720466Y-101065897D01*
X154745452Y-101035452D01*
X154775897Y-101010466D01*
X154810633Y-100991899D01*
X154848326Y-100980465D01*
X154893661Y-100976000D01*
X155730339Y-100976000D01*
X155775674Y-100980465D01*
G37*
G36*
X138757674Y-99837465D02*
G01*
X138795367Y-99848899D01*
X138830103Y-99867466D01*
X138860548Y-99892452D01*
X138885534Y-99922897D01*
X138904101Y-99957633D01*
X138915535Y-99995326D01*
X138920000Y-100040661D01*
X138920000Y-101127339D01*
X138915535Y-101172674D01*
X138904101Y-101210367D01*
X138885534Y-101245103D01*
X138860548Y-101275548D01*
X138830103Y-101300534D01*
X138795367Y-101319101D01*
X138757674Y-101330535D01*
X138712339Y-101335000D01*
X137875661Y-101335000D01*
X137830326Y-101330535D01*
X137792633Y-101319101D01*
X137757897Y-101300534D01*
X137727452Y-101275548D01*
X137702466Y-101245103D01*
X137683899Y-101210367D01*
X137672465Y-101172674D01*
X137668000Y-101127339D01*
X137668000Y-100040661D01*
X137672465Y-99995326D01*
X137683899Y-99957633D01*
X137702466Y-99922897D01*
X137727452Y-99892452D01*
X137757897Y-99867466D01*
X137792633Y-99848899D01*
X137830326Y-99837465D01*
X137875661Y-99833000D01*
X138712339Y-99833000D01*
X138757674Y-99837465D01*
G37*
G36*
X140807674Y-99837465D02*
G01*
X140845367Y-99848899D01*
X140880103Y-99867466D01*
X140910548Y-99892452D01*
X140935534Y-99922897D01*
X140954101Y-99957633D01*
X140965535Y-99995326D01*
X140970000Y-100040661D01*
X140970000Y-101127339D01*
X140965535Y-101172674D01*
X140954101Y-101210367D01*
X140935534Y-101245103D01*
X140910548Y-101275548D01*
X140880103Y-101300534D01*
X140845367Y-101319101D01*
X140807674Y-101330535D01*
X140762339Y-101335000D01*
X139925661Y-101335000D01*
X139880326Y-101330535D01*
X139842633Y-101319101D01*
X139807897Y-101300534D01*
X139777452Y-101275548D01*
X139752466Y-101245103D01*
X139733899Y-101210367D01*
X139722465Y-101172674D01*
X139718000Y-101127339D01*
X139718000Y-100040661D01*
X139722465Y-99995326D01*
X139733899Y-99957633D01*
X139752466Y-99922897D01*
X139777452Y-99892452D01*
X139807897Y-99867466D01*
X139842633Y-99848899D01*
X139880326Y-99837465D01*
X139925661Y-99833000D01*
X140762339Y-99833000D01*
X140807674Y-99837465D01*
G37*
G36*
X199642589Y-95250876D02*
G01*
X199741893Y-95270629D01*
X199882206Y-95328748D01*
X200008484Y-95413125D01*
X200115875Y-95520516D01*
X200200252Y-95646794D01*
X200258371Y-95787107D01*
X200288000Y-95936063D01*
X200288000Y-96087937D01*
X200258371Y-96236893D01*
X200200252Y-96377206D01*
X200115875Y-96503484D01*
X200008484Y-96610875D01*
X199882206Y-96695252D01*
X199741893Y-96753371D01*
X199642589Y-96773124D01*
X199592938Y-96783000D01*
X199441062Y-96783000D01*
X199391411Y-96773124D01*
X199292107Y-96753371D01*
X199151794Y-96695252D01*
X199025516Y-96610875D01*
X198918125Y-96503484D01*
X198833748Y-96377206D01*
X198775629Y-96236893D01*
X198746000Y-96087937D01*
X198746000Y-95936063D01*
X198775629Y-95787107D01*
X198833748Y-95646794D01*
X198918125Y-95520516D01*
X199025516Y-95413125D01*
X199151794Y-95328748D01*
X199292107Y-95270629D01*
X199391411Y-95250876D01*
X199441062Y-95241000D01*
X199592938Y-95241000D01*
X199642589Y-95250876D01*
G37*
G36*
X102040424Y-93431760D02*
G01*
X102040427Y-93431761D01*
X102040428Y-93431761D01*
X102219692Y-93486140D01*
X102219695Y-93486142D01*
X102219696Y-93486142D01*
X102384903Y-93574446D01*
X102529712Y-93693288D01*
X102648554Y-93838097D01*
X102715574Y-93963483D01*
X102736860Y-94003307D01*
X102757356Y-94070875D01*
X102791240Y-94182575D01*
X102805000Y-94322282D01*
X102805000Y-95415718D01*
X102791240Y-95555425D01*
X102791239Y-95555428D01*
X102791239Y-95555429D01*
X102736860Y-95734693D01*
X102736858Y-95734696D01*
X102736858Y-95734697D01*
X102648554Y-95899903D01*
X102529712Y-96044712D01*
X102384903Y-96163554D01*
X102219697Y-96251858D01*
X102219693Y-96251860D01*
X102040429Y-96306239D01*
X102040428Y-96306239D01*
X102040425Y-96306240D01*
X101854000Y-96324601D01*
X101667576Y-96306240D01*
X101667573Y-96306239D01*
X101667572Y-96306239D01*
X101488308Y-96251860D01*
X101488304Y-96251858D01*
X101323098Y-96163554D01*
X101178289Y-96044712D01*
X101059447Y-95899903D01*
X100971140Y-95734692D01*
X100916760Y-95555430D01*
X100903000Y-95415718D01*
X100903000Y-94322283D01*
X100916760Y-94182576D01*
X100916761Y-94182572D01*
X100971140Y-94003308D01*
X100992427Y-93963483D01*
X101059446Y-93838097D01*
X101178288Y-93693288D01*
X101323097Y-93574446D01*
X101488303Y-93486142D01*
X101488304Y-93486142D01*
X101488307Y-93486140D01*
X101667571Y-93431761D01*
X101667572Y-93431761D01*
X101667575Y-93431760D01*
X101854000Y-93413399D01*
X102040424Y-93431760D01*
G37*
G36*
X109940424Y-91431760D02*
G01*
X109940427Y-91431761D01*
X109940428Y-91431761D01*
X110119692Y-91486140D01*
X110119695Y-91486142D01*
X110119696Y-91486142D01*
X110284903Y-91574446D01*
X110429712Y-91693288D01*
X110548554Y-91838097D01*
X110636858Y-92003303D01*
X110636860Y-92003307D01*
X110636860Y-92003308D01*
X110691240Y-92182575D01*
X110705000Y-92322282D01*
X110705000Y-93415718D01*
X110691240Y-93555425D01*
X110691239Y-93555428D01*
X110691239Y-93555429D01*
X110636860Y-93734693D01*
X110636858Y-93734696D01*
X110636858Y-93734697D01*
X110548554Y-93899903D01*
X110429712Y-94044712D01*
X110284903Y-94163554D01*
X110191701Y-94213371D01*
X110119693Y-94251860D01*
X109940429Y-94306239D01*
X109940428Y-94306239D01*
X109940425Y-94306240D01*
X109754000Y-94324601D01*
X109567576Y-94306240D01*
X109567573Y-94306239D01*
X109567572Y-94306239D01*
X109388308Y-94251860D01*
X109316300Y-94213371D01*
X109223098Y-94163554D01*
X109078289Y-94044712D01*
X108959447Y-93899903D01*
X108871140Y-93734692D01*
X108816760Y-93555430D01*
X108803000Y-93415718D01*
X108803000Y-92322283D01*
X108816760Y-92182576D01*
X108816761Y-92182572D01*
X108871140Y-92003308D01*
X108871143Y-92003303D01*
X108959446Y-91838097D01*
X109078288Y-91693288D01*
X109223097Y-91574446D01*
X109388303Y-91486142D01*
X109388304Y-91486142D01*
X109388307Y-91486140D01*
X109567571Y-91431761D01*
X109567572Y-91431761D01*
X109567575Y-91431760D01*
X109754000Y-91413399D01*
X109940424Y-91431760D01*
G37*
G36*
X104440424Y-91431760D02*
G01*
X104440427Y-91431761D01*
X104440428Y-91431761D01*
X104619692Y-91486140D01*
X104619695Y-91486142D01*
X104619696Y-91486142D01*
X104784903Y-91574446D01*
X104929712Y-91693288D01*
X105048554Y-91838097D01*
X105136858Y-92003303D01*
X105136860Y-92003307D01*
X105136860Y-92003308D01*
X105191240Y-92182575D01*
X105205000Y-92322282D01*
X105205000Y-93415718D01*
X105191240Y-93555425D01*
X105191239Y-93555428D01*
X105191239Y-93555429D01*
X105136860Y-93734693D01*
X105136858Y-93734696D01*
X105136858Y-93734697D01*
X105048554Y-93899903D01*
X104929712Y-94044712D01*
X104784903Y-94163554D01*
X104691701Y-94213371D01*
X104619693Y-94251860D01*
X104440429Y-94306239D01*
X104440428Y-94306239D01*
X104440425Y-94306240D01*
X104254000Y-94324601D01*
X104067576Y-94306240D01*
X104067573Y-94306239D01*
X104067572Y-94306239D01*
X103888308Y-94251860D01*
X103816300Y-94213371D01*
X103723098Y-94163554D01*
X103578289Y-94044712D01*
X103459447Y-93899903D01*
X103371140Y-93734692D01*
X103316760Y-93555430D01*
X103303000Y-93415718D01*
X103303000Y-92322283D01*
X103316760Y-92182576D01*
X103316761Y-92182572D01*
X103371140Y-92003308D01*
X103371143Y-92003303D01*
X103459446Y-91838097D01*
X103578288Y-91693288D01*
X103723097Y-91574446D01*
X103888303Y-91486142D01*
X103888304Y-91486142D01*
X103888307Y-91486140D01*
X104067571Y-91431761D01*
X104067572Y-91431761D01*
X104067575Y-91431760D01*
X104254000Y-91413399D01*
X104440424Y-91431760D01*
G37*
G36*
X197102589Y-92710876D02*
G01*
X197201893Y-92730629D01*
X197342206Y-92788748D01*
X197468484Y-92873125D01*
X197575875Y-92980516D01*
X197660252Y-93106794D01*
X197718371Y-93247107D01*
X197748000Y-93396063D01*
X197748000Y-93547937D01*
X197718371Y-93696893D01*
X197660252Y-93837206D01*
X197575875Y-93963484D01*
X197468484Y-94070875D01*
X197342206Y-94155252D01*
X197201893Y-94213371D01*
X197102589Y-94233124D01*
X197052938Y-94243000D01*
X196901062Y-94243000D01*
X196851411Y-94233124D01*
X196752107Y-94213371D01*
X196611794Y-94155252D01*
X196485516Y-94070875D01*
X196378125Y-93963484D01*
X196293748Y-93837206D01*
X196235629Y-93696893D01*
X196206000Y-93547937D01*
X196206000Y-93396063D01*
X196235629Y-93247107D01*
X196293748Y-93106794D01*
X196378125Y-92980516D01*
X196485516Y-92873125D01*
X196611794Y-92788748D01*
X196752107Y-92730629D01*
X196851411Y-92710876D01*
X196901062Y-92701000D01*
X197052938Y-92701000D01*
X197102589Y-92710876D01*
G37*
G36*
X157825674Y-91455465D02*
G01*
X157863367Y-91466899D01*
X157898103Y-91485466D01*
X157928548Y-91510452D01*
X157953534Y-91540897D01*
X157972101Y-91575633D01*
X157983535Y-91613326D01*
X157988000Y-91658661D01*
X157988000Y-92745339D01*
X157983535Y-92790674D01*
X157972101Y-92828367D01*
X157953534Y-92863103D01*
X157928548Y-92893548D01*
X157898103Y-92918534D01*
X157863367Y-92937101D01*
X157825674Y-92948535D01*
X157780339Y-92953000D01*
X156943661Y-92953000D01*
X156898326Y-92948535D01*
X156860633Y-92937101D01*
X156825897Y-92918534D01*
X156795452Y-92893548D01*
X156770466Y-92863103D01*
X156751899Y-92828367D01*
X156740465Y-92790674D01*
X156736000Y-92745339D01*
X156736000Y-91658661D01*
X156740465Y-91613326D01*
X156751899Y-91575633D01*
X156770466Y-91540897D01*
X156795452Y-91510452D01*
X156825897Y-91485466D01*
X156860633Y-91466899D01*
X156898326Y-91455465D01*
X156943661Y-91451000D01*
X157780339Y-91451000D01*
X157825674Y-91455465D01*
G37*
G36*
X155775674Y-91455465D02*
G01*
X155813367Y-91466899D01*
X155848103Y-91485466D01*
X155878548Y-91510452D01*
X155903534Y-91540897D01*
X155922101Y-91575633D01*
X155933535Y-91613326D01*
X155938000Y-91658661D01*
X155938000Y-92745339D01*
X155933535Y-92790674D01*
X155922101Y-92828367D01*
X155903534Y-92863103D01*
X155878548Y-92893548D01*
X155848103Y-92918534D01*
X155813367Y-92937101D01*
X155775674Y-92948535D01*
X155730339Y-92953000D01*
X154893661Y-92953000D01*
X154848326Y-92948535D01*
X154810633Y-92937101D01*
X154775897Y-92918534D01*
X154745452Y-92893548D01*
X154720466Y-92863103D01*
X154701899Y-92828367D01*
X154690465Y-92790674D01*
X154686000Y-92745339D01*
X154686000Y-91658661D01*
X154690465Y-91613326D01*
X154701899Y-91575633D01*
X154720466Y-91540897D01*
X154745452Y-91510452D01*
X154775897Y-91485466D01*
X154810633Y-91466899D01*
X154848326Y-91455465D01*
X154893661Y-91451000D01*
X155730339Y-91451000D01*
X155775674Y-91455465D01*
G37*
G36*
X136979674Y-91201465D02*
G01*
X137017367Y-91212899D01*
X137052103Y-91231466D01*
X137082548Y-91256452D01*
X137107534Y-91286897D01*
X137126101Y-91321633D01*
X137137535Y-91359326D01*
X137142000Y-91404661D01*
X137142000Y-92491339D01*
X137137535Y-92536674D01*
X137126101Y-92574367D01*
X137107534Y-92609103D01*
X137082548Y-92639548D01*
X137052103Y-92664534D01*
X137017367Y-92683101D01*
X136979674Y-92694535D01*
X136934339Y-92699000D01*
X136097661Y-92699000D01*
X136052326Y-92694535D01*
X136014633Y-92683101D01*
X135979897Y-92664534D01*
X135949452Y-92639548D01*
X135924466Y-92609103D01*
X135905899Y-92574367D01*
X135894465Y-92536674D01*
X135890000Y-92491339D01*
X135890000Y-91404661D01*
X135894465Y-91359326D01*
X135905899Y-91321633D01*
X135924466Y-91286897D01*
X135949452Y-91256452D01*
X135979897Y-91231466D01*
X136014633Y-91212899D01*
X136052326Y-91201465D01*
X136097661Y-91197000D01*
X136934339Y-91197000D01*
X136979674Y-91201465D01*
G37*
G36*
X139029674Y-91201465D02*
G01*
X139067367Y-91212899D01*
X139102103Y-91231466D01*
X139132548Y-91256452D01*
X139157534Y-91286897D01*
X139176101Y-91321633D01*
X139187535Y-91359326D01*
X139192000Y-91404661D01*
X139192000Y-92491339D01*
X139187535Y-92536674D01*
X139176101Y-92574367D01*
X139157534Y-92609103D01*
X139132548Y-92639548D01*
X139102103Y-92664534D01*
X139067367Y-92683101D01*
X139029674Y-92694535D01*
X138984339Y-92699000D01*
X138147661Y-92699000D01*
X138102326Y-92694535D01*
X138064633Y-92683101D01*
X138029897Y-92664534D01*
X137999452Y-92639548D01*
X137974466Y-92609103D01*
X137955899Y-92574367D01*
X137944465Y-92536674D01*
X137940000Y-92491339D01*
X137940000Y-91404661D01*
X137944465Y-91359326D01*
X137955899Y-91321633D01*
X137974466Y-91286897D01*
X137999452Y-91256452D01*
X138029897Y-91231466D01*
X138064633Y-91212899D01*
X138102326Y-91201465D01*
X138147661Y-91197000D01*
X138984339Y-91197000D01*
X139029674Y-91201465D01*
G37*
G36*
X151910934Y-89126671D02*
G01*
X151940877Y-89135754D01*
X151968465Y-89150500D01*
X151992651Y-89170349D01*
X152012500Y-89194535D01*
X152027246Y-89222123D01*
X152036329Y-89252066D01*
X152040000Y-89289340D01*
X152040000Y-91558660D01*
X152036329Y-91595934D01*
X152027246Y-91625877D01*
X152012500Y-91653465D01*
X151992651Y-91677651D01*
X151968465Y-91697500D01*
X151940877Y-91712246D01*
X151910934Y-91721329D01*
X151873660Y-91725000D01*
X148104340Y-91725000D01*
X148067066Y-91721329D01*
X148037123Y-91712246D01*
X148009535Y-91697500D01*
X147985349Y-91677651D01*
X147965500Y-91653465D01*
X147950754Y-91625877D01*
X147941671Y-91595934D01*
X147938000Y-91558660D01*
X147938000Y-89289340D01*
X147941671Y-89252066D01*
X147950754Y-89222123D01*
X147965500Y-89194535D01*
X147985349Y-89170349D01*
X148009535Y-89150500D01*
X148037123Y-89135754D01*
X148067066Y-89126671D01*
X148104340Y-89123000D01*
X151873660Y-89123000D01*
X151910934Y-89126671D01*
G37*
G36*
X132860934Y-89126671D02*
G01*
X132890877Y-89135754D01*
X132918465Y-89150500D01*
X132942651Y-89170349D01*
X132962500Y-89194535D01*
X132977246Y-89222123D01*
X132986329Y-89252066D01*
X132990000Y-89289340D01*
X132990000Y-91558660D01*
X132986329Y-91595934D01*
X132977246Y-91625877D01*
X132962500Y-91653465D01*
X132942651Y-91677651D01*
X132918465Y-91697500D01*
X132890877Y-91712246D01*
X132860934Y-91721329D01*
X132823660Y-91725000D01*
X129054340Y-91725000D01*
X129017066Y-91721329D01*
X128987123Y-91712246D01*
X128959535Y-91697500D01*
X128935349Y-91677651D01*
X128915500Y-91653465D01*
X128900754Y-91625877D01*
X128891671Y-91595934D01*
X128888000Y-91558660D01*
X128888000Y-89289340D01*
X128891671Y-89252066D01*
X128900754Y-89222123D01*
X128915500Y-89194535D01*
X128935349Y-89170349D01*
X128959535Y-89150500D01*
X128987123Y-89135754D01*
X129017066Y-89126671D01*
X129054340Y-89123000D01*
X132823660Y-89123000D01*
X132860934Y-89126671D01*
G37*
G36*
X126760934Y-89126671D02*
G01*
X126790877Y-89135754D01*
X126818465Y-89150500D01*
X126842651Y-89170349D01*
X126862500Y-89194535D01*
X126877246Y-89222123D01*
X126886329Y-89252066D01*
X126890000Y-89289340D01*
X126890000Y-91558660D01*
X126886329Y-91595934D01*
X126877246Y-91625877D01*
X126862500Y-91653465D01*
X126842651Y-91677651D01*
X126818465Y-91697500D01*
X126790877Y-91712246D01*
X126760934Y-91721329D01*
X126723660Y-91725000D01*
X122954340Y-91725000D01*
X122917066Y-91721329D01*
X122887123Y-91712246D01*
X122859535Y-91697500D01*
X122835349Y-91677651D01*
X122815500Y-91653465D01*
X122800754Y-91625877D01*
X122791671Y-91595934D01*
X122788000Y-91558660D01*
X122788000Y-89289340D01*
X122791671Y-89252066D01*
X122800754Y-89222123D01*
X122815500Y-89194535D01*
X122835349Y-89170349D01*
X122859535Y-89150500D01*
X122887123Y-89135754D01*
X122917066Y-89126671D01*
X122954340Y-89123000D01*
X126723660Y-89123000D01*
X126760934Y-89126671D01*
G37*
G36*
X145810934Y-89126671D02*
G01*
X145840877Y-89135754D01*
X145868465Y-89150500D01*
X145892651Y-89170349D01*
X145912500Y-89194535D01*
X145927246Y-89222123D01*
X145936329Y-89252066D01*
X145940000Y-89289340D01*
X145940000Y-91558660D01*
X145936329Y-91595934D01*
X145927246Y-91625877D01*
X145912500Y-91653465D01*
X145892651Y-91677651D01*
X145868465Y-91697500D01*
X145840877Y-91712246D01*
X145810934Y-91721329D01*
X145773660Y-91725000D01*
X142004340Y-91725000D01*
X141967066Y-91721329D01*
X141937123Y-91712246D01*
X141909535Y-91697500D01*
X141885349Y-91677651D01*
X141865500Y-91653465D01*
X141850754Y-91625877D01*
X141841671Y-91595934D01*
X141838000Y-91558660D01*
X141838000Y-89289340D01*
X141841671Y-89252066D01*
X141850754Y-89222123D01*
X141865500Y-89194535D01*
X141885349Y-89170349D01*
X141909535Y-89150500D01*
X141937123Y-89135754D01*
X141967066Y-89126671D01*
X142004340Y-89123000D01*
X145773660Y-89123000D01*
X145810934Y-89126671D01*
G37*
G36*
X199642589Y-90170876D02*
G01*
X199741893Y-90190629D01*
X199882206Y-90248748D01*
X200008484Y-90333125D01*
X200115875Y-90440516D01*
X200200252Y-90566794D01*
X200258371Y-90707107D01*
X200288000Y-90856063D01*
X200288000Y-91007937D01*
X200258371Y-91156893D01*
X200200252Y-91297206D01*
X200115875Y-91423484D01*
X200008484Y-91530875D01*
X199882206Y-91615252D01*
X199741893Y-91673371D01*
X199642589Y-91693124D01*
X199592938Y-91703000D01*
X199441062Y-91703000D01*
X199391411Y-91693124D01*
X199292107Y-91673371D01*
X199151794Y-91615252D01*
X199025516Y-91530875D01*
X198918125Y-91423484D01*
X198833748Y-91297206D01*
X198775629Y-91156893D01*
X198746000Y-91007937D01*
X198746000Y-90856063D01*
X198775629Y-90707107D01*
X198833748Y-90566794D01*
X198918125Y-90440516D01*
X199025516Y-90333125D01*
X199151794Y-90248748D01*
X199292107Y-90190629D01*
X199391411Y-90170876D01*
X199441062Y-90161000D01*
X199592938Y-90161000D01*
X199642589Y-90170876D01*
G37*
G36*
X182306564Y-88989389D02*
G01*
X182497833Y-89068615D01*
X182497835Y-89068616D01*
X182609158Y-89143000D01*
X182669973Y-89183635D01*
X182816365Y-89330027D01*
X182931385Y-89502167D01*
X183010611Y-89693436D01*
X183051000Y-89896484D01*
X183051000Y-90103516D01*
X183010611Y-90306564D01*
X182999609Y-90333125D01*
X182931384Y-90497835D01*
X182816365Y-90669973D01*
X182669973Y-90816365D01*
X182497835Y-90931384D01*
X182497834Y-90931385D01*
X182497833Y-90931385D01*
X182306564Y-91010611D01*
X182103516Y-91051000D01*
X181896484Y-91051000D01*
X181693436Y-91010611D01*
X181502167Y-90931385D01*
X181502166Y-90931385D01*
X181502165Y-90931384D01*
X181330027Y-90816365D01*
X181183635Y-90669973D01*
X181068616Y-90497835D01*
X181000391Y-90333125D01*
X180989389Y-90306564D01*
X180949000Y-90103516D01*
X180949000Y-89896484D01*
X180989389Y-89693436D01*
X181068615Y-89502167D01*
X181183635Y-89330027D01*
X181330027Y-89183635D01*
X181390842Y-89143000D01*
X181502165Y-89068616D01*
X181502167Y-89068615D01*
X181693436Y-88989389D01*
X181896484Y-88949000D01*
X182103516Y-88949000D01*
X182306564Y-88989389D01*
G37*
G36*
X136979674Y-87645465D02*
G01*
X137017367Y-87656899D01*
X137052103Y-87675466D01*
X137082548Y-87700452D01*
X137107534Y-87730897D01*
X137126101Y-87765633D01*
X137137535Y-87803326D01*
X137142000Y-87848661D01*
X137142000Y-88935339D01*
X137137535Y-88980674D01*
X137126101Y-89018367D01*
X137107534Y-89053103D01*
X137082548Y-89083548D01*
X137052103Y-89108534D01*
X137017367Y-89127101D01*
X136979674Y-89138535D01*
X136934339Y-89143000D01*
X136097661Y-89143000D01*
X136052326Y-89138535D01*
X136014633Y-89127101D01*
X135979897Y-89108534D01*
X135949452Y-89083548D01*
X135924466Y-89053103D01*
X135905899Y-89018367D01*
X135894465Y-88980674D01*
X135890000Y-88935339D01*
X135890000Y-87848661D01*
X135894465Y-87803326D01*
X135905899Y-87765633D01*
X135924466Y-87730897D01*
X135949452Y-87700452D01*
X135979897Y-87675466D01*
X136014633Y-87656899D01*
X136052326Y-87645465D01*
X136097661Y-87641000D01*
X136934339Y-87641000D01*
X136979674Y-87645465D01*
G37*
G36*
X139029674Y-87645465D02*
G01*
X139067367Y-87656899D01*
X139102103Y-87675466D01*
X139132548Y-87700452D01*
X139157534Y-87730897D01*
X139176101Y-87765633D01*
X139187535Y-87803326D01*
X139192000Y-87848661D01*
X139192000Y-88935339D01*
X139187535Y-88980674D01*
X139176101Y-89018367D01*
X139157534Y-89053103D01*
X139132548Y-89083548D01*
X139102103Y-89108534D01*
X139067367Y-89127101D01*
X139029674Y-89138535D01*
X138984339Y-89143000D01*
X138147661Y-89143000D01*
X138102326Y-89138535D01*
X138064633Y-89127101D01*
X138029897Y-89108534D01*
X137999452Y-89083548D01*
X137974466Y-89053103D01*
X137955899Y-89018367D01*
X137944465Y-88980674D01*
X137940000Y-88935339D01*
X137940000Y-87848661D01*
X137944465Y-87803326D01*
X137955899Y-87765633D01*
X137974466Y-87730897D01*
X137999452Y-87700452D01*
X138029897Y-87675466D01*
X138064633Y-87656899D01*
X138102326Y-87645465D01*
X138147661Y-87641000D01*
X138984339Y-87641000D01*
X139029674Y-87645465D01*
G37*
G36*
X155775674Y-87645465D02*
G01*
X155813367Y-87656899D01*
X155848103Y-87675466D01*
X155878548Y-87700452D01*
X155903534Y-87730897D01*
X155922101Y-87765633D01*
X155933535Y-87803326D01*
X155938000Y-87848661D01*
X155938000Y-88935339D01*
X155933535Y-88980674D01*
X155922101Y-89018367D01*
X155903534Y-89053103D01*
X155878548Y-89083548D01*
X155848103Y-89108534D01*
X155813367Y-89127101D01*
X155775674Y-89138535D01*
X155730339Y-89143000D01*
X154893661Y-89143000D01*
X154848326Y-89138535D01*
X154810633Y-89127101D01*
X154775897Y-89108534D01*
X154745452Y-89083548D01*
X154720466Y-89053103D01*
X154701899Y-89018367D01*
X154690465Y-88980674D01*
X154686000Y-88935339D01*
X154686000Y-87848661D01*
X154690465Y-87803326D01*
X154701899Y-87765633D01*
X154720466Y-87730897D01*
X154745452Y-87700452D01*
X154775897Y-87675466D01*
X154810633Y-87656899D01*
X154848326Y-87645465D01*
X154893661Y-87641000D01*
X155730339Y-87641000D01*
X155775674Y-87645465D01*
G37*
G36*
X157825674Y-87645465D02*
G01*
X157863367Y-87656899D01*
X157898103Y-87675466D01*
X157928548Y-87700452D01*
X157953534Y-87730897D01*
X157972101Y-87765633D01*
X157983535Y-87803326D01*
X157988000Y-87848661D01*
X157988000Y-88935339D01*
X157983535Y-88980674D01*
X157972101Y-89018367D01*
X157953534Y-89053103D01*
X157928548Y-89083548D01*
X157898103Y-89108534D01*
X157863367Y-89127101D01*
X157825674Y-89138535D01*
X157780339Y-89143000D01*
X156943661Y-89143000D01*
X156898326Y-89138535D01*
X156860633Y-89127101D01*
X156825897Y-89108534D01*
X156795452Y-89083548D01*
X156770466Y-89053103D01*
X156751899Y-89018367D01*
X156740465Y-88980674D01*
X156736000Y-88935339D01*
X156736000Y-87848661D01*
X156740465Y-87803326D01*
X156751899Y-87765633D01*
X156770466Y-87730897D01*
X156795452Y-87700452D01*
X156825897Y-87675466D01*
X156860633Y-87656899D01*
X156898326Y-87645465D01*
X156943661Y-87641000D01*
X157780339Y-87641000D01*
X157825674Y-87645465D01*
G37*
G36*
X102857571Y-84916863D02*
G01*
X102936023Y-84924590D01*
X103036682Y-84955125D01*
X103087013Y-84970392D01*
X103226165Y-85044771D01*
X103348133Y-85144867D01*
X103448229Y-85266835D01*
X103522608Y-85405987D01*
X103522608Y-85405988D01*
X103568410Y-85556977D01*
X103583875Y-85714000D01*
X103568410Y-85871023D01*
X103537875Y-85971682D01*
X103522608Y-86022013D01*
X103448229Y-86161165D01*
X103348133Y-86283133D01*
X103226165Y-86383229D01*
X103087013Y-86457608D01*
X103036682Y-86472875D01*
X102936023Y-86503410D01*
X102857571Y-86511137D01*
X102818346Y-86515000D01*
X101239654Y-86515000D01*
X101200429Y-86511137D01*
X101121977Y-86503410D01*
X101021318Y-86472875D01*
X100970987Y-86457608D01*
X100831835Y-86383229D01*
X100709867Y-86283133D01*
X100609771Y-86161165D01*
X100535392Y-86022013D01*
X100520125Y-85971682D01*
X100489590Y-85871023D01*
X100474125Y-85714000D01*
X100489590Y-85556977D01*
X100535392Y-85405988D01*
X100535392Y-85405987D01*
X100609771Y-85266835D01*
X100709867Y-85144867D01*
X100831835Y-85044771D01*
X100970987Y-84970392D01*
X101021318Y-84955125D01*
X101121977Y-84924590D01*
X101200429Y-84916863D01*
X101239654Y-84913000D01*
X102818346Y-84913000D01*
X102857571Y-84916863D01*
G37*
G36*
X199642589Y-81915876D02*
G01*
X199741893Y-81935629D01*
X199882206Y-81993748D01*
X200008484Y-82078125D01*
X200115875Y-82185516D01*
X200200252Y-82311794D01*
X200258371Y-82452107D01*
X200288000Y-82601063D01*
X200288000Y-82752937D01*
X200258371Y-82901893D01*
X200200252Y-83042206D01*
X200115875Y-83168484D01*
X200008484Y-83275875D01*
X199882206Y-83360252D01*
X199741893Y-83418371D01*
X199642589Y-83438124D01*
X199592938Y-83448000D01*
X199441062Y-83448000D01*
X199391411Y-83438124D01*
X199292107Y-83418371D01*
X199151794Y-83360252D01*
X199025516Y-83275875D01*
X198918125Y-83168484D01*
X198833748Y-83042206D01*
X198775629Y-82901893D01*
X198746000Y-82752937D01*
X198746000Y-82601063D01*
X198775629Y-82452107D01*
X198833748Y-82311794D01*
X198918125Y-82185516D01*
X199025516Y-82078125D01*
X199151794Y-81993748D01*
X199292107Y-81935629D01*
X199391411Y-81915876D01*
X199441062Y-81906000D01*
X199592938Y-81906000D01*
X199642589Y-81915876D01*
G37*
G36*
X105176293Y-81623507D02*
G01*
X105249225Y-81638014D01*
X105306138Y-81661588D01*
X105386626Y-81694927D01*
X105510284Y-81777553D01*
X105615447Y-81882716D01*
X105698073Y-82006374D01*
X105754986Y-82143776D01*
X105784000Y-82289638D01*
X105784000Y-82438362D01*
X105754986Y-82584224D01*
X105698073Y-82721626D01*
X105615447Y-82845284D01*
X105510284Y-82950447D01*
X105386626Y-83033073D01*
X105306138Y-83066412D01*
X105249225Y-83089986D01*
X105176293Y-83104493D01*
X105103362Y-83119000D01*
X104954638Y-83119000D01*
X104881707Y-83104493D01*
X104808775Y-83089986D01*
X104751862Y-83066412D01*
X104671374Y-83033073D01*
X104547716Y-82950447D01*
X104442553Y-82845284D01*
X104359927Y-82721626D01*
X104303014Y-82584224D01*
X104274000Y-82438362D01*
X104274000Y-82289638D01*
X104303014Y-82143776D01*
X104359927Y-82006374D01*
X104442553Y-81882716D01*
X104547716Y-81777553D01*
X104671374Y-81694927D01*
X104751862Y-81661588D01*
X104808775Y-81638014D01*
X104881707Y-81623507D01*
X104954638Y-81609000D01*
X105103362Y-81609000D01*
X105176293Y-81623507D01*
G37*
G36*
X107676293Y-81623507D02*
G01*
X107749225Y-81638014D01*
X107806138Y-81661588D01*
X107886626Y-81694927D01*
X108010284Y-81777553D01*
X108115447Y-81882716D01*
X108198073Y-82006374D01*
X108254986Y-82143776D01*
X108284000Y-82289638D01*
X108284000Y-82438362D01*
X108254986Y-82584224D01*
X108198073Y-82721626D01*
X108115447Y-82845284D01*
X108010284Y-82950447D01*
X107886626Y-83033073D01*
X107806138Y-83066412D01*
X107749225Y-83089986D01*
X107676293Y-83104493D01*
X107603362Y-83119000D01*
X107454638Y-83119000D01*
X107381707Y-83104493D01*
X107308775Y-83089986D01*
X107251862Y-83066412D01*
X107171374Y-83033073D01*
X107047716Y-82950447D01*
X106942553Y-82845284D01*
X106859927Y-82721626D01*
X106803014Y-82584224D01*
X106774000Y-82438362D01*
X106774000Y-82289638D01*
X106803014Y-82143776D01*
X106859927Y-82006374D01*
X106942553Y-81882716D01*
X107047716Y-81777553D01*
X107171374Y-81694927D01*
X107251862Y-81661588D01*
X107308775Y-81638014D01*
X107381707Y-81623507D01*
X107454638Y-81609000D01*
X107603362Y-81609000D01*
X107676293Y-81623507D01*
G37*
G36*
X138775674Y-80025465D02*
G01*
X138813367Y-80036899D01*
X138848103Y-80055466D01*
X138878548Y-80080452D01*
X138903534Y-80110897D01*
X138922101Y-80145633D01*
X138933535Y-80183326D01*
X138938000Y-80228661D01*
X138938000Y-81315339D01*
X138933535Y-81360674D01*
X138922101Y-81398367D01*
X138903534Y-81433103D01*
X138878548Y-81463548D01*
X138848103Y-81488534D01*
X138813367Y-81507101D01*
X138775674Y-81518535D01*
X138730339Y-81523000D01*
X137893661Y-81523000D01*
X137848326Y-81518535D01*
X137810633Y-81507101D01*
X137775897Y-81488534D01*
X137745452Y-81463548D01*
X137720466Y-81433103D01*
X137701899Y-81398367D01*
X137690465Y-81360674D01*
X137686000Y-81315339D01*
X137686000Y-80228661D01*
X137690465Y-80183326D01*
X137701899Y-80145633D01*
X137720466Y-80110897D01*
X137745452Y-80080452D01*
X137775897Y-80055466D01*
X137810633Y-80036899D01*
X137848326Y-80025465D01*
X137893661Y-80021000D01*
X138730339Y-80021000D01*
X138775674Y-80025465D01*
G37*
G36*
X136725674Y-80025465D02*
G01*
X136763367Y-80036899D01*
X136798103Y-80055466D01*
X136828548Y-80080452D01*
X136853534Y-80110897D01*
X136872101Y-80145633D01*
X136883535Y-80183326D01*
X136888000Y-80228661D01*
X136888000Y-81315339D01*
X136883535Y-81360674D01*
X136872101Y-81398367D01*
X136853534Y-81433103D01*
X136828548Y-81463548D01*
X136798103Y-81488534D01*
X136763367Y-81507101D01*
X136725674Y-81518535D01*
X136680339Y-81523000D01*
X135843661Y-81523000D01*
X135798326Y-81518535D01*
X135760633Y-81507101D01*
X135725897Y-81488534D01*
X135695452Y-81463548D01*
X135670466Y-81433103D01*
X135651899Y-81398367D01*
X135640465Y-81360674D01*
X135636000Y-81315339D01*
X135636000Y-80228661D01*
X135640465Y-80183326D01*
X135651899Y-80145633D01*
X135670466Y-80110897D01*
X135695452Y-80080452D01*
X135725897Y-80055466D01*
X135760633Y-80036899D01*
X135798326Y-80025465D01*
X135843661Y-80021000D01*
X136680339Y-80021000D01*
X136725674Y-80025465D01*
G37*
G36*
X155775674Y-80025465D02*
G01*
X155813367Y-80036899D01*
X155848103Y-80055466D01*
X155878548Y-80080452D01*
X155903534Y-80110897D01*
X155922101Y-80145633D01*
X155933535Y-80183326D01*
X155938000Y-80228661D01*
X155938000Y-81315339D01*
X155933535Y-81360674D01*
X155922101Y-81398367D01*
X155903534Y-81433103D01*
X155878548Y-81463548D01*
X155848103Y-81488534D01*
X155813367Y-81507101D01*
X155775674Y-81518535D01*
X155730339Y-81523000D01*
X154893661Y-81523000D01*
X154848326Y-81518535D01*
X154810633Y-81507101D01*
X154775897Y-81488534D01*
X154745452Y-81463548D01*
X154720466Y-81433103D01*
X154701899Y-81398367D01*
X154690465Y-81360674D01*
X154686000Y-81315339D01*
X154686000Y-80228661D01*
X154690465Y-80183326D01*
X154701899Y-80145633D01*
X154720466Y-80110897D01*
X154745452Y-80080452D01*
X154775897Y-80055466D01*
X154810633Y-80036899D01*
X154848326Y-80025465D01*
X154893661Y-80021000D01*
X155730339Y-80021000D01*
X155775674Y-80025465D01*
G37*
G36*
X157825674Y-80025465D02*
G01*
X157863367Y-80036899D01*
X157898103Y-80055466D01*
X157928548Y-80080452D01*
X157953534Y-80110897D01*
X157972101Y-80145633D01*
X157983535Y-80183326D01*
X157988000Y-80228661D01*
X157988000Y-81315339D01*
X157983535Y-81360674D01*
X157972101Y-81398367D01*
X157953534Y-81433103D01*
X157928548Y-81463548D01*
X157898103Y-81488534D01*
X157863367Y-81507101D01*
X157825674Y-81518535D01*
X157780339Y-81523000D01*
X156943661Y-81523000D01*
X156898326Y-81518535D01*
X156860633Y-81507101D01*
X156825897Y-81488534D01*
X156795452Y-81463548D01*
X156770466Y-81433103D01*
X156751899Y-81398367D01*
X156740465Y-81360674D01*
X156736000Y-81315339D01*
X156736000Y-80228661D01*
X156740465Y-80183326D01*
X156751899Y-80145633D01*
X156770466Y-80110897D01*
X156795452Y-80080452D01*
X156825897Y-80055466D01*
X156860633Y-80036899D01*
X156898326Y-80025465D01*
X156943661Y-80021000D01*
X157780339Y-80021000D01*
X157825674Y-80025465D01*
G37*
G36*
X105784000Y-81019000D02*
G01*
X104274000Y-81019000D01*
X104274000Y-79509000D01*
X105784000Y-79509000D01*
X105784000Y-81019000D01*
G37*
G36*
X107676293Y-79523507D02*
G01*
X107749225Y-79538014D01*
X107806138Y-79561588D01*
X107886626Y-79594927D01*
X108010284Y-79677553D01*
X108115447Y-79782716D01*
X108198073Y-79906374D01*
X108200448Y-79912109D01*
X108254986Y-80043775D01*
X108258425Y-80061063D01*
X108284000Y-80189638D01*
X108284000Y-80338362D01*
X108254986Y-80484224D01*
X108198073Y-80621626D01*
X108115447Y-80745284D01*
X108010284Y-80850447D01*
X107886626Y-80933073D01*
X107806138Y-80966412D01*
X107749225Y-80989986D01*
X107676293Y-81004493D01*
X107603362Y-81019000D01*
X107454638Y-81019000D01*
X107381707Y-81004493D01*
X107308775Y-80989986D01*
X107251862Y-80966412D01*
X107171374Y-80933073D01*
X107047716Y-80850447D01*
X106942553Y-80745284D01*
X106859927Y-80621626D01*
X106803014Y-80484224D01*
X106774000Y-80338362D01*
X106774000Y-80189638D01*
X106799575Y-80061063D01*
X106803014Y-80043775D01*
X106857552Y-79912109D01*
X106859927Y-79906374D01*
X106942553Y-79782716D01*
X107047716Y-79677553D01*
X107171374Y-79594927D01*
X107251862Y-79561588D01*
X107308775Y-79538014D01*
X107381707Y-79523507D01*
X107454638Y-79509000D01*
X107603362Y-79509000D01*
X107676293Y-79523507D01*
G37*
G36*
X197102589Y-79375876D02*
G01*
X197201893Y-79395629D01*
X197342206Y-79453748D01*
X197468484Y-79538125D01*
X197575875Y-79645516D01*
X197660252Y-79771794D01*
X197718371Y-79912107D01*
X197718371Y-79912109D01*
X197744562Y-80043776D01*
X197748000Y-80061063D01*
X197748000Y-80212937D01*
X197718371Y-80361893D01*
X197660252Y-80502206D01*
X197575875Y-80628484D01*
X197468484Y-80735875D01*
X197342206Y-80820252D01*
X197201893Y-80878371D01*
X197102589Y-80898124D01*
X197052938Y-80908000D01*
X196901062Y-80908000D01*
X196851411Y-80898124D01*
X196752107Y-80878371D01*
X196611794Y-80820252D01*
X196485516Y-80735875D01*
X196378125Y-80628484D01*
X196293748Y-80502206D01*
X196235629Y-80361893D01*
X196206000Y-80212937D01*
X196206000Y-80061063D01*
X196209439Y-80043776D01*
X196235629Y-79912109D01*
X196235629Y-79912107D01*
X196293748Y-79771794D01*
X196378125Y-79645516D01*
X196485516Y-79538125D01*
X196611794Y-79453748D01*
X196752107Y-79395629D01*
X196851411Y-79375876D01*
X196901062Y-79366000D01*
X197052938Y-79366000D01*
X197102589Y-79375876D01*
G37*
G36*
X101386023Y-77424590D02*
G01*
X101486682Y-77455125D01*
X101537013Y-77470392D01*
X101676165Y-77544771D01*
X101798133Y-77644867D01*
X101898229Y-77766835D01*
X101972608Y-77905987D01*
X101972608Y-77905988D01*
X102018410Y-78056977D01*
X102030000Y-78174655D01*
X102030000Y-79753345D01*
X102018410Y-79871023D01*
X101987875Y-79971682D01*
X101972608Y-80022013D01*
X101941371Y-80080452D01*
X101898229Y-80161165D01*
X101798133Y-80283133D01*
X101730835Y-80338362D01*
X101676164Y-80383229D01*
X101537012Y-80457608D01*
X101486681Y-80472875D01*
X101386022Y-80503410D01*
X101229000Y-80518875D01*
X101071977Y-80503410D01*
X100971318Y-80472875D01*
X100920987Y-80457608D01*
X100781835Y-80383229D01*
X100755837Y-80361893D01*
X100659867Y-80283133D01*
X100559771Y-80161164D01*
X100542397Y-80128660D01*
X100485392Y-80022012D01*
X100450314Y-79906373D01*
X100439590Y-79871022D01*
X100428000Y-79753344D01*
X100428001Y-78174655D01*
X100439591Y-78056977D01*
X100485393Y-77905988D01*
X100485393Y-77905987D01*
X100559772Y-77766835D01*
X100659868Y-77644867D01*
X100781836Y-77544771D01*
X100920988Y-77470392D01*
X100971319Y-77455125D01*
X101071978Y-77424590D01*
X101229000Y-77409125D01*
X101386023Y-77424590D01*
G37*
G36*
X151910934Y-77696671D02*
G01*
X151940877Y-77705754D01*
X151968465Y-77720500D01*
X151992651Y-77740349D01*
X152012500Y-77764535D01*
X152027246Y-77792123D01*
X152036329Y-77822066D01*
X152040000Y-77859340D01*
X152040000Y-80128660D01*
X152036329Y-80165934D01*
X152027246Y-80195877D01*
X152012500Y-80223465D01*
X151992651Y-80247651D01*
X151968465Y-80267500D01*
X151940877Y-80282246D01*
X151910934Y-80291329D01*
X151873660Y-80295000D01*
X148104340Y-80295000D01*
X148067066Y-80291329D01*
X148037123Y-80282246D01*
X148009535Y-80267500D01*
X147985349Y-80247651D01*
X147965500Y-80223465D01*
X147950754Y-80195877D01*
X147941671Y-80165934D01*
X147938000Y-80128660D01*
X147938000Y-77859340D01*
X147941671Y-77822066D01*
X147950754Y-77792123D01*
X147965500Y-77764535D01*
X147985349Y-77740349D01*
X148009535Y-77720500D01*
X148037123Y-77705754D01*
X148067066Y-77696671D01*
X148104340Y-77693000D01*
X151873660Y-77693000D01*
X151910934Y-77696671D01*
G37*
G36*
X145810934Y-77696671D02*
G01*
X145840877Y-77705754D01*
X145868465Y-77720500D01*
X145892651Y-77740349D01*
X145912500Y-77764535D01*
X145927246Y-77792123D01*
X145936329Y-77822066D01*
X145940000Y-77859340D01*
X145940000Y-80128660D01*
X145936329Y-80165934D01*
X145927246Y-80195877D01*
X145912500Y-80223465D01*
X145892651Y-80247651D01*
X145868465Y-80267500D01*
X145840877Y-80282246D01*
X145810934Y-80291329D01*
X145773660Y-80295000D01*
X142004340Y-80295000D01*
X141967066Y-80291329D01*
X141937123Y-80282246D01*
X141909535Y-80267500D01*
X141885349Y-80247651D01*
X141865500Y-80223465D01*
X141850754Y-80195877D01*
X141841671Y-80165934D01*
X141838000Y-80128660D01*
X141838000Y-77859340D01*
X141841671Y-77822066D01*
X141850754Y-77792123D01*
X141865500Y-77764535D01*
X141885349Y-77740349D01*
X141909535Y-77720500D01*
X141937123Y-77705754D01*
X141967066Y-77696671D01*
X142004340Y-77693000D01*
X145773660Y-77693000D01*
X145810934Y-77696671D01*
G37*
G36*
X126760934Y-77696671D02*
G01*
X126790877Y-77705754D01*
X126818465Y-77720500D01*
X126842651Y-77740349D01*
X126862500Y-77764535D01*
X126877246Y-77792123D01*
X126886329Y-77822066D01*
X126890000Y-77859340D01*
X126890000Y-80128660D01*
X126886329Y-80165934D01*
X126877246Y-80195877D01*
X126862500Y-80223465D01*
X126842651Y-80247651D01*
X126818465Y-80267500D01*
X126790877Y-80282246D01*
X126760934Y-80291329D01*
X126723660Y-80295000D01*
X122954340Y-80295000D01*
X122917066Y-80291329D01*
X122887123Y-80282246D01*
X122859535Y-80267500D01*
X122835349Y-80247651D01*
X122815500Y-80223465D01*
X122800754Y-80195877D01*
X122791671Y-80165934D01*
X122788000Y-80128660D01*
X122788000Y-77859340D01*
X122791671Y-77822066D01*
X122800754Y-77792123D01*
X122815500Y-77764535D01*
X122835349Y-77740349D01*
X122859535Y-77720500D01*
X122887123Y-77705754D01*
X122917066Y-77696671D01*
X122954340Y-77693000D01*
X126723660Y-77693000D01*
X126760934Y-77696671D01*
G37*
G36*
X132860934Y-77696671D02*
G01*
X132890877Y-77705754D01*
X132918465Y-77720500D01*
X132942651Y-77740349D01*
X132962500Y-77764535D01*
X132977246Y-77792123D01*
X132986329Y-77822066D01*
X132990000Y-77859340D01*
X132990000Y-80128660D01*
X132986329Y-80165934D01*
X132977246Y-80195877D01*
X132962500Y-80223465D01*
X132942651Y-80247651D01*
X132918465Y-80267500D01*
X132890877Y-80282246D01*
X132860934Y-80291329D01*
X132823660Y-80295000D01*
X129054340Y-80295000D01*
X129017066Y-80291329D01*
X128987123Y-80282246D01*
X128959535Y-80267500D01*
X128935349Y-80247651D01*
X128915500Y-80223465D01*
X128900754Y-80195877D01*
X128891671Y-80165934D01*
X128888000Y-80128660D01*
X128888000Y-77859340D01*
X128891671Y-77822066D01*
X128900754Y-77792123D01*
X128915500Y-77764535D01*
X128935349Y-77740349D01*
X128959535Y-77720500D01*
X128987123Y-77705754D01*
X129017066Y-77696671D01*
X129054340Y-77693000D01*
X132823660Y-77693000D01*
X132860934Y-77696671D01*
G37*
G36*
X107676293Y-77323507D02*
G01*
X107749225Y-77338014D01*
X107806138Y-77361588D01*
X107886626Y-77394927D01*
X108010284Y-77477553D01*
X108115447Y-77582716D01*
X108198073Y-77706374D01*
X108231412Y-77786862D01*
X108254986Y-77843775D01*
X108267361Y-77905987D01*
X108284000Y-77989638D01*
X108284000Y-78138362D01*
X108254986Y-78284224D01*
X108198073Y-78421626D01*
X108115447Y-78545284D01*
X108010284Y-78650447D01*
X107886626Y-78733073D01*
X107806138Y-78766412D01*
X107749225Y-78789986D01*
X107676293Y-78804493D01*
X107603362Y-78819000D01*
X107454638Y-78819000D01*
X107381707Y-78804493D01*
X107308775Y-78789986D01*
X107251862Y-78766412D01*
X107171374Y-78733073D01*
X107047716Y-78650447D01*
X106942553Y-78545284D01*
X106859927Y-78421626D01*
X106803014Y-78284224D01*
X106774000Y-78138362D01*
X106774000Y-77989638D01*
X106790639Y-77905987D01*
X106803014Y-77843775D01*
X106826588Y-77786862D01*
X106859927Y-77706374D01*
X106942553Y-77582716D01*
X107047716Y-77477553D01*
X107171374Y-77394927D01*
X107251862Y-77361588D01*
X107308775Y-77338014D01*
X107381707Y-77323507D01*
X107454638Y-77309000D01*
X107603362Y-77309000D01*
X107676293Y-77323507D01*
G37*
G36*
X105176293Y-76923507D02*
G01*
X105249225Y-76938014D01*
X105306138Y-76961588D01*
X105386626Y-76994927D01*
X105510284Y-77077553D01*
X105615447Y-77182716D01*
X105698073Y-77306374D01*
X105754986Y-77443776D01*
X105784000Y-77589638D01*
X105784000Y-77738362D01*
X105754986Y-77884224D01*
X105698073Y-78021626D01*
X105615447Y-78145284D01*
X105510284Y-78250447D01*
X105386626Y-78333073D01*
X105306138Y-78366412D01*
X105249225Y-78389986D01*
X105176293Y-78404493D01*
X105103362Y-78419000D01*
X104954638Y-78419000D01*
X104881707Y-78404493D01*
X104808775Y-78389986D01*
X104751862Y-78366412D01*
X104671374Y-78333073D01*
X104547716Y-78250447D01*
X104442553Y-78145284D01*
X104359927Y-78021626D01*
X104303014Y-77884224D01*
X104274000Y-77738362D01*
X104274000Y-77589638D01*
X104303014Y-77443776D01*
X104359927Y-77306374D01*
X104442553Y-77182716D01*
X104547716Y-77077553D01*
X104671374Y-76994927D01*
X104751862Y-76961588D01*
X104808775Y-76938014D01*
X104881707Y-76923507D01*
X104954638Y-76909000D01*
X105103362Y-76909000D01*
X105176293Y-76923507D01*
G37*
G36*
X199642589Y-76835876D02*
G01*
X199741893Y-76855629D01*
X199882206Y-76913748D01*
X200008484Y-76998125D01*
X200115875Y-77105516D01*
X200200252Y-77231794D01*
X200258371Y-77372107D01*
X200288000Y-77521063D01*
X200288000Y-77672937D01*
X200258371Y-77821893D01*
X200200252Y-77962206D01*
X200115875Y-78088484D01*
X200008484Y-78195875D01*
X199882206Y-78280252D01*
X199741893Y-78338371D01*
X199642589Y-78358124D01*
X199592938Y-78368000D01*
X199441062Y-78368000D01*
X199391411Y-78358124D01*
X199292107Y-78338371D01*
X199151794Y-78280252D01*
X199025516Y-78195875D01*
X198918125Y-78088484D01*
X198833748Y-77962206D01*
X198775629Y-77821893D01*
X198746000Y-77672937D01*
X198746000Y-77521063D01*
X198775629Y-77372107D01*
X198833748Y-77231794D01*
X198918125Y-77105516D01*
X199025516Y-76998125D01*
X199151794Y-76913748D01*
X199292107Y-76855629D01*
X199391411Y-76835876D01*
X199441062Y-76826000D01*
X199592938Y-76826000D01*
X199642589Y-76835876D01*
G37*
G36*
X136725674Y-76215465D02*
G01*
X136763367Y-76226899D01*
X136798103Y-76245466D01*
X136828548Y-76270452D01*
X136853534Y-76300897D01*
X136872101Y-76335633D01*
X136883535Y-76373326D01*
X136888000Y-76418661D01*
X136888000Y-77505339D01*
X136883535Y-77550674D01*
X136872101Y-77588367D01*
X136853534Y-77623103D01*
X136828548Y-77653548D01*
X136798103Y-77678534D01*
X136763367Y-77697101D01*
X136725674Y-77708535D01*
X136680339Y-77713000D01*
X135843661Y-77713000D01*
X135798326Y-77708535D01*
X135760633Y-77697101D01*
X135725897Y-77678534D01*
X135695452Y-77653548D01*
X135670466Y-77623103D01*
X135651899Y-77588367D01*
X135640465Y-77550674D01*
X135636000Y-77505339D01*
X135636000Y-76418661D01*
X135640465Y-76373326D01*
X135651899Y-76335633D01*
X135670466Y-76300897D01*
X135695452Y-76270452D01*
X135725897Y-76245466D01*
X135760633Y-76226899D01*
X135798326Y-76215465D01*
X135843661Y-76211000D01*
X136680339Y-76211000D01*
X136725674Y-76215465D01*
G37*
G36*
X138775674Y-76215465D02*
G01*
X138813367Y-76226899D01*
X138848103Y-76245466D01*
X138878548Y-76270452D01*
X138903534Y-76300897D01*
X138922101Y-76335633D01*
X138933535Y-76373326D01*
X138938000Y-76418661D01*
X138938000Y-77505339D01*
X138933535Y-77550674D01*
X138922101Y-77588367D01*
X138903534Y-77623103D01*
X138878548Y-77653548D01*
X138848103Y-77678534D01*
X138813367Y-77697101D01*
X138775674Y-77708535D01*
X138730339Y-77713000D01*
X137893661Y-77713000D01*
X137848326Y-77708535D01*
X137810633Y-77697101D01*
X137775897Y-77678534D01*
X137745452Y-77653548D01*
X137720466Y-77623103D01*
X137701899Y-77588367D01*
X137690465Y-77550674D01*
X137686000Y-77505339D01*
X137686000Y-76418661D01*
X137690465Y-76373326D01*
X137701899Y-76335633D01*
X137720466Y-76300897D01*
X137745452Y-76270452D01*
X137775897Y-76245466D01*
X137810633Y-76226899D01*
X137848326Y-76215465D01*
X137893661Y-76211000D01*
X138730339Y-76211000D01*
X138775674Y-76215465D01*
G37*
G36*
X155775674Y-76215465D02*
G01*
X155813367Y-76226899D01*
X155848103Y-76245466D01*
X155878548Y-76270452D01*
X155903534Y-76300897D01*
X155922101Y-76335633D01*
X155933535Y-76373326D01*
X155938000Y-76418661D01*
X155938000Y-77505339D01*
X155933535Y-77550674D01*
X155922101Y-77588367D01*
X155903534Y-77623103D01*
X155878548Y-77653548D01*
X155848103Y-77678534D01*
X155813367Y-77697101D01*
X155775674Y-77708535D01*
X155730339Y-77713000D01*
X154893661Y-77713000D01*
X154848326Y-77708535D01*
X154810633Y-77697101D01*
X154775897Y-77678534D01*
X154745452Y-77653548D01*
X154720466Y-77623103D01*
X154701899Y-77588367D01*
X154690465Y-77550674D01*
X154686000Y-77505339D01*
X154686000Y-76418661D01*
X154690465Y-76373326D01*
X154701899Y-76335633D01*
X154720466Y-76300897D01*
X154745452Y-76270452D01*
X154775897Y-76245466D01*
X154810633Y-76226899D01*
X154848326Y-76215465D01*
X154893661Y-76211000D01*
X155730339Y-76211000D01*
X155775674Y-76215465D01*
G37*
G36*
X157825674Y-76215465D02*
G01*
X157863367Y-76226899D01*
X157898103Y-76245466D01*
X157928548Y-76270452D01*
X157953534Y-76300897D01*
X157972101Y-76335633D01*
X157983535Y-76373326D01*
X157988000Y-76418661D01*
X157988000Y-77505339D01*
X157983535Y-77550674D01*
X157972101Y-77588367D01*
X157953534Y-77623103D01*
X157928548Y-77653548D01*
X157898103Y-77678534D01*
X157863367Y-77697101D01*
X157825674Y-77708535D01*
X157780339Y-77713000D01*
X156943661Y-77713000D01*
X156898326Y-77708535D01*
X156860633Y-77697101D01*
X156825897Y-77678534D01*
X156795452Y-77653548D01*
X156770466Y-77623103D01*
X156751899Y-77588367D01*
X156740465Y-77550674D01*
X156736000Y-77505339D01*
X156736000Y-76418661D01*
X156740465Y-76373326D01*
X156751899Y-76335633D01*
X156770466Y-76300897D01*
X156795452Y-76270452D01*
X156825897Y-76245466D01*
X156860633Y-76226899D01*
X156898326Y-76215465D01*
X156943661Y-76211000D01*
X157780339Y-76211000D01*
X157825674Y-76215465D01*
G37*
G36*
X107676293Y-74823507D02*
G01*
X107749225Y-74838014D01*
X107806138Y-74861588D01*
X107886626Y-74894927D01*
X108010284Y-74977553D01*
X108115447Y-75082716D01*
X108198073Y-75206374D01*
X108254986Y-75343776D01*
X108284000Y-75489638D01*
X108284000Y-75638362D01*
X108254986Y-75784224D01*
X108198073Y-75921626D01*
X108115447Y-76045284D01*
X108010284Y-76150447D01*
X107886626Y-76233073D01*
X107806138Y-76266412D01*
X107749225Y-76289986D01*
X107694371Y-76300897D01*
X107603362Y-76319000D01*
X107454638Y-76319000D01*
X107363629Y-76300897D01*
X107308775Y-76289986D01*
X107251862Y-76266412D01*
X107171374Y-76233073D01*
X107047716Y-76150447D01*
X106942553Y-76045284D01*
X106859927Y-75921626D01*
X106803014Y-75784224D01*
X106774000Y-75638362D01*
X106774000Y-75489638D01*
X106803014Y-75343776D01*
X106859927Y-75206374D01*
X106942553Y-75082716D01*
X107047716Y-74977553D01*
X107171374Y-74894927D01*
X107251862Y-74861588D01*
X107308775Y-74838014D01*
X107381707Y-74823507D01*
X107454638Y-74809000D01*
X107603362Y-74809000D01*
X107676293Y-74823507D01*
G37*
G36*
X105176293Y-74823507D02*
G01*
X105249225Y-74838014D01*
X105306138Y-74861588D01*
X105386626Y-74894927D01*
X105510284Y-74977553D01*
X105615447Y-75082716D01*
X105698073Y-75206374D01*
X105754986Y-75343776D01*
X105784000Y-75489638D01*
X105784000Y-75638362D01*
X105754986Y-75784224D01*
X105698073Y-75921626D01*
X105615447Y-76045284D01*
X105510284Y-76150447D01*
X105386626Y-76233073D01*
X105306138Y-76266412D01*
X105249225Y-76289986D01*
X105194371Y-76300897D01*
X105103362Y-76319000D01*
X104954638Y-76319000D01*
X104863629Y-76300897D01*
X104808775Y-76289986D01*
X104751862Y-76266412D01*
X104671374Y-76233073D01*
X104547716Y-76150447D01*
X104442553Y-76045284D01*
X104359927Y-75921626D01*
X104303014Y-75784224D01*
X104274000Y-75638362D01*
X104274000Y-75489638D01*
X104303014Y-75343776D01*
X104359927Y-75206374D01*
X104442553Y-75082716D01*
X104547716Y-74977553D01*
X104671374Y-74894927D01*
X104751862Y-74861588D01*
X104808775Y-74838014D01*
X104881707Y-74823507D01*
X104954638Y-74809000D01*
X105103362Y-74809000D01*
X105176293Y-74823507D01*
G37*
G36*
X102857571Y-71416863D02*
G01*
X102936023Y-71424590D01*
X103036682Y-71455125D01*
X103087013Y-71470392D01*
X103226165Y-71544771D01*
X103348133Y-71644867D01*
X103448229Y-71766835D01*
X103522608Y-71905987D01*
X103522608Y-71905988D01*
X103568410Y-72056977D01*
X103583875Y-72214000D01*
X103568410Y-72371023D01*
X103537875Y-72471682D01*
X103522608Y-72522013D01*
X103448229Y-72661165D01*
X103348133Y-72783133D01*
X103226165Y-72883229D01*
X103087013Y-72957608D01*
X103036682Y-72972875D01*
X102936023Y-73003410D01*
X102857571Y-73011137D01*
X102818346Y-73015000D01*
X101239654Y-73015000D01*
X101200429Y-73011137D01*
X101121977Y-73003410D01*
X101021318Y-72972875D01*
X100970987Y-72957608D01*
X100831835Y-72883229D01*
X100709867Y-72783133D01*
X100609771Y-72661165D01*
X100535392Y-72522013D01*
X100520125Y-72471682D01*
X100489590Y-72371023D01*
X100474125Y-72214000D01*
X100489590Y-72056977D01*
X100535392Y-71905988D01*
X100535392Y-71905987D01*
X100609771Y-71766835D01*
X100709867Y-71644867D01*
X100831835Y-71544771D01*
X100970987Y-71470392D01*
X101021318Y-71455125D01*
X101121977Y-71424590D01*
X101200429Y-71416863D01*
X101239654Y-71413000D01*
X102818346Y-71413000D01*
X102857571Y-71416863D01*
G37*
G36*
X197928712Y-69969927D02*
G01*
X198078012Y-69999624D01*
X198241984Y-70067544D01*
X198389554Y-70166147D01*
X198515053Y-70291646D01*
X198613656Y-70439216D01*
X198681576Y-70603188D01*
X198716200Y-70777259D01*
X198716200Y-70954741D01*
X198681576Y-71128812D01*
X198613656Y-71292784D01*
X198515053Y-71440354D01*
X198389554Y-71565853D01*
X198241984Y-71664456D01*
X198078012Y-71732376D01*
X197928712Y-71762073D01*
X197903942Y-71767000D01*
X197726458Y-71767000D01*
X197701688Y-71762073D01*
X197552388Y-71732376D01*
X197388416Y-71664456D01*
X197240846Y-71565853D01*
X197115347Y-71440354D01*
X197016744Y-71292784D01*
X196948824Y-71128812D01*
X196914200Y-70954741D01*
X196914200Y-70777259D01*
X196948824Y-70603188D01*
X197016744Y-70439216D01*
X197115347Y-70291646D01*
X197240846Y-70166147D01*
X197388416Y-70067544D01*
X197552388Y-69999624D01*
X197701688Y-69969927D01*
X197726458Y-69965000D01*
X197903942Y-69965000D01*
X197928712Y-69969927D01*
G37*
G36*
X201256200Y-71767000D02*
G01*
X199454200Y-71767000D01*
X199454200Y-69965000D01*
X201256200Y-69965000D01*
X201256200Y-71767000D01*
G37*
G36*
X110314166Y-67881899D02*
G01*
X110446288Y-67936626D01*
X110446290Y-67936627D01*
X110565198Y-68016079D01*
X110666321Y-68117202D01*
X110666322Y-68117204D01*
X110745774Y-68236112D01*
X110800501Y-68368234D01*
X110828400Y-68508494D01*
X110828400Y-68651506D01*
X110800501Y-68791766D01*
X110745774Y-68923888D01*
X110745773Y-68923890D01*
X110666321Y-69042798D01*
X110565198Y-69143921D01*
X110446290Y-69223373D01*
X110446289Y-69223374D01*
X110446288Y-69223374D01*
X110314166Y-69278101D01*
X110173906Y-69306000D01*
X110030894Y-69306000D01*
X109890634Y-69278101D01*
X109758512Y-69223374D01*
X109758511Y-69223374D01*
X109758510Y-69223373D01*
X109639602Y-69143921D01*
X109538479Y-69042798D01*
X109459027Y-68923890D01*
X109459026Y-68923888D01*
X109404299Y-68791766D01*
X109376400Y-68651506D01*
X109376400Y-68508494D01*
X109404299Y-68368234D01*
X109459026Y-68236112D01*
X109538478Y-68117204D01*
X109538479Y-68117202D01*
X109639602Y-68016079D01*
X109758510Y-67936627D01*
X109758512Y-67936626D01*
X109890634Y-67881899D01*
X110030894Y-67854000D01*
X110173906Y-67854000D01*
X110314166Y-67881899D01*
G37*
G36*
X108828400Y-69306000D02*
G01*
X107376400Y-69306000D01*
X107376400Y-67854000D01*
X108828400Y-67854000D01*
X108828400Y-69306000D01*
G37*
G36*
X114314166Y-67881899D02*
G01*
X114446288Y-67936626D01*
X114446290Y-67936627D01*
X114565198Y-68016079D01*
X114666321Y-68117202D01*
X114666322Y-68117204D01*
X114745774Y-68236112D01*
X114800501Y-68368234D01*
X114828400Y-68508494D01*
X114828400Y-68651506D01*
X114800501Y-68791766D01*
X114745774Y-68923888D01*
X114745773Y-68923890D01*
X114666321Y-69042798D01*
X114565198Y-69143921D01*
X114446290Y-69223373D01*
X114446289Y-69223374D01*
X114446288Y-69223374D01*
X114314166Y-69278101D01*
X114173906Y-69306000D01*
X114030894Y-69306000D01*
X113890634Y-69278101D01*
X113758512Y-69223374D01*
X113758511Y-69223374D01*
X113758510Y-69223373D01*
X113639602Y-69143921D01*
X113538479Y-69042798D01*
X113459027Y-68923890D01*
X113459026Y-68923888D01*
X113404299Y-68791766D01*
X113376400Y-68651506D01*
X113376400Y-68508494D01*
X113404299Y-68368234D01*
X113459026Y-68236112D01*
X113538478Y-68117204D01*
X113538479Y-68117202D01*
X113639602Y-68016079D01*
X113758510Y-67936627D01*
X113758512Y-67936626D01*
X113890634Y-67881899D01*
X114030894Y-67854000D01*
X114173906Y-67854000D01*
X114314166Y-67881899D01*
G37*
G36*
X116314166Y-67881899D02*
G01*
X116446288Y-67936626D01*
X116446290Y-67936627D01*
X116565198Y-68016079D01*
X116666321Y-68117202D01*
X116666322Y-68117204D01*
X116745774Y-68236112D01*
X116800501Y-68368234D01*
X116828400Y-68508494D01*
X116828400Y-68651506D01*
X116800501Y-68791766D01*
X116745774Y-68923888D01*
X116745773Y-68923890D01*
X116666321Y-69042798D01*
X116565198Y-69143921D01*
X116446290Y-69223373D01*
X116446289Y-69223374D01*
X116446288Y-69223374D01*
X116314166Y-69278101D01*
X116173906Y-69306000D01*
X116030894Y-69306000D01*
X115890634Y-69278101D01*
X115758512Y-69223374D01*
X115758511Y-69223374D01*
X115758510Y-69223373D01*
X115639602Y-69143921D01*
X115538479Y-69042798D01*
X115459027Y-68923890D01*
X115459026Y-68923888D01*
X115404299Y-68791766D01*
X115376400Y-68651506D01*
X115376400Y-68508494D01*
X115404299Y-68368234D01*
X115459026Y-68236112D01*
X115538478Y-68117204D01*
X115538479Y-68117202D01*
X115639602Y-68016079D01*
X115758510Y-67936627D01*
X115758512Y-67936626D01*
X115890634Y-67881899D01*
X116030894Y-67854000D01*
X116173906Y-67854000D01*
X116314166Y-67881899D01*
G37*
G36*
X112314166Y-67881899D02*
G01*
X112446288Y-67936626D01*
X112446290Y-67936627D01*
X112565198Y-68016079D01*
X112666321Y-68117202D01*
X112666322Y-68117204D01*
X112745774Y-68236112D01*
X112800501Y-68368234D01*
X112828400Y-68508494D01*
X112828400Y-68651506D01*
X112800501Y-68791766D01*
X112745774Y-68923888D01*
X112745773Y-68923890D01*
X112666321Y-69042798D01*
X112565198Y-69143921D01*
X112446290Y-69223373D01*
X112446289Y-69223374D01*
X112446288Y-69223374D01*
X112314166Y-69278101D01*
X112173906Y-69306000D01*
X112030894Y-69306000D01*
X111890634Y-69278101D01*
X111758512Y-69223374D01*
X111758511Y-69223374D01*
X111758510Y-69223373D01*
X111639602Y-69143921D01*
X111538479Y-69042798D01*
X111459027Y-68923890D01*
X111459026Y-68923888D01*
X111404299Y-68791766D01*
X111376400Y-68651506D01*
X111376400Y-68508494D01*
X111404299Y-68368234D01*
X111459026Y-68236112D01*
X111538478Y-68117204D01*
X111538479Y-68117202D01*
X111639602Y-68016079D01*
X111758510Y-67936627D01*
X111758512Y-67936626D01*
X111890634Y-67881899D01*
X112030894Y-67854000D01*
X112173906Y-67854000D01*
X112314166Y-67881899D01*
G37*
G36*
X118314166Y-67881899D02*
G01*
X118446288Y-67936626D01*
X118446290Y-67936627D01*
X118565198Y-68016079D01*
X118666321Y-68117202D01*
X118666322Y-68117204D01*
X118745774Y-68236112D01*
X118800501Y-68368234D01*
X118828400Y-68508494D01*
X118828400Y-68651506D01*
X118800501Y-68791766D01*
X118745774Y-68923888D01*
X118745773Y-68923890D01*
X118666321Y-69042798D01*
X118565198Y-69143921D01*
X118446290Y-69223373D01*
X118446289Y-69223374D01*
X118446288Y-69223374D01*
X118314166Y-69278101D01*
X118173906Y-69306000D01*
X118030894Y-69306000D01*
X117890634Y-69278101D01*
X117758512Y-69223374D01*
X117758511Y-69223374D01*
X117758510Y-69223373D01*
X117639602Y-69143921D01*
X117538479Y-69042798D01*
X117459027Y-68923890D01*
X117459026Y-68923888D01*
X117404299Y-68791766D01*
X117376400Y-68651506D01*
X117376400Y-68508494D01*
X117404299Y-68368234D01*
X117459026Y-68236112D01*
X117538478Y-68117204D01*
X117538479Y-68117202D01*
X117639602Y-68016079D01*
X117758510Y-67936627D01*
X117758512Y-67936626D01*
X117890634Y-67881899D01*
X118030894Y-67854000D01*
X118173906Y-67854000D01*
X118314166Y-67881899D01*
G37*
G36*
X120314166Y-67881899D02*
G01*
X120446288Y-67936626D01*
X120446290Y-67936627D01*
X120565198Y-68016079D01*
X120666321Y-68117202D01*
X120666322Y-68117204D01*
X120745774Y-68236112D01*
X120800501Y-68368234D01*
X120828400Y-68508494D01*
X120828400Y-68651506D01*
X120800501Y-68791766D01*
X120745774Y-68923888D01*
X120745773Y-68923890D01*
X120666321Y-69042798D01*
X120565198Y-69143921D01*
X120446290Y-69223373D01*
X120446289Y-69223374D01*
X120446288Y-69223374D01*
X120314166Y-69278101D01*
X120173906Y-69306000D01*
X120030894Y-69306000D01*
X119890634Y-69278101D01*
X119758512Y-69223374D01*
X119758511Y-69223374D01*
X119758510Y-69223373D01*
X119639602Y-69143921D01*
X119538479Y-69042798D01*
X119459027Y-68923890D01*
X119459026Y-68923888D01*
X119404299Y-68791766D01*
X119376400Y-68651506D01*
X119376400Y-68508494D01*
X119404299Y-68368234D01*
X119459026Y-68236112D01*
X119538478Y-68117204D01*
X119538479Y-68117202D01*
X119639602Y-68016079D01*
X119758510Y-67936627D01*
X119758512Y-67936626D01*
X119890634Y-67881899D01*
X120030894Y-67854000D01*
X120173906Y-67854000D01*
X120314166Y-67881899D01*
G37*
G36*
X122314166Y-67881899D02*
G01*
X122446288Y-67936626D01*
X122446290Y-67936627D01*
X122565198Y-68016079D01*
X122666321Y-68117202D01*
X122666322Y-68117204D01*
X122745774Y-68236112D01*
X122800501Y-68368234D01*
X122828400Y-68508494D01*
X122828400Y-68651506D01*
X122800501Y-68791766D01*
X122745774Y-68923888D01*
X122745773Y-68923890D01*
X122666321Y-69042798D01*
X122565198Y-69143921D01*
X122446290Y-69223373D01*
X122446289Y-69223374D01*
X122446288Y-69223374D01*
X122314166Y-69278101D01*
X122173906Y-69306000D01*
X122030894Y-69306000D01*
X121890634Y-69278101D01*
X121758512Y-69223374D01*
X121758511Y-69223374D01*
X121758510Y-69223373D01*
X121639602Y-69143921D01*
X121538479Y-69042798D01*
X121459027Y-68923890D01*
X121459026Y-68923888D01*
X121404299Y-68791766D01*
X121376400Y-68651506D01*
X121376400Y-68508494D01*
X121404299Y-68368234D01*
X121459026Y-68236112D01*
X121538478Y-68117204D01*
X121538479Y-68117202D01*
X121639602Y-68016079D01*
X121758510Y-67936627D01*
X121758512Y-67936626D01*
X121890634Y-67881899D01*
X122030894Y-67854000D01*
X122173906Y-67854000D01*
X122314166Y-67881899D01*
G37*
G36*
X124314166Y-67881899D02*
G01*
X124446288Y-67936626D01*
X124446290Y-67936627D01*
X124565198Y-68016079D01*
X124666321Y-68117202D01*
X124666322Y-68117204D01*
X124745774Y-68236112D01*
X124800501Y-68368234D01*
X124828400Y-68508494D01*
X124828400Y-68651506D01*
X124800501Y-68791766D01*
X124745774Y-68923888D01*
X124745773Y-68923890D01*
X124666321Y-69042798D01*
X124565198Y-69143921D01*
X124446290Y-69223373D01*
X124446289Y-69223374D01*
X124446288Y-69223374D01*
X124314166Y-69278101D01*
X124173906Y-69306000D01*
X124030894Y-69306000D01*
X123890634Y-69278101D01*
X123758512Y-69223374D01*
X123758511Y-69223374D01*
X123758510Y-69223373D01*
X123639602Y-69143921D01*
X123538479Y-69042798D01*
X123459027Y-68923890D01*
X123459026Y-68923888D01*
X123404299Y-68791766D01*
X123376400Y-68651506D01*
X123376400Y-68508494D01*
X123404299Y-68368234D01*
X123459026Y-68236112D01*
X123538478Y-68117204D01*
X123538479Y-68117202D01*
X123639602Y-68016079D01*
X123758510Y-67936627D01*
X123758512Y-67936626D01*
X123890634Y-67881899D01*
X124030894Y-67854000D01*
X124173906Y-67854000D01*
X124314166Y-67881899D01*
G37*
G36*
X128314166Y-67881899D02*
G01*
X128446288Y-67936626D01*
X128446290Y-67936627D01*
X128565198Y-68016079D01*
X128666321Y-68117202D01*
X128666322Y-68117204D01*
X128745774Y-68236112D01*
X128800501Y-68368234D01*
X128828400Y-68508494D01*
X128828400Y-68651506D01*
X128800501Y-68791766D01*
X128745774Y-68923888D01*
X128745773Y-68923890D01*
X128666321Y-69042798D01*
X128565198Y-69143921D01*
X128446290Y-69223373D01*
X128446289Y-69223374D01*
X128446288Y-69223374D01*
X128314166Y-69278101D01*
X128173906Y-69306000D01*
X128030894Y-69306000D01*
X127890634Y-69278101D01*
X127758512Y-69223374D01*
X127758511Y-69223374D01*
X127758510Y-69223373D01*
X127639602Y-69143921D01*
X127538479Y-69042798D01*
X127459027Y-68923890D01*
X127459026Y-68923888D01*
X127404299Y-68791766D01*
X127376400Y-68651506D01*
X127376400Y-68508494D01*
X127404299Y-68368234D01*
X127459026Y-68236112D01*
X127538478Y-68117204D01*
X127538479Y-68117202D01*
X127639602Y-68016079D01*
X127758510Y-67936627D01*
X127758512Y-67936626D01*
X127890634Y-67881899D01*
X128030894Y-67854000D01*
X128173906Y-67854000D01*
X128314166Y-67881899D01*
G37*
G36*
X130314166Y-67881899D02*
G01*
X130446288Y-67936626D01*
X130446290Y-67936627D01*
X130565198Y-68016079D01*
X130666321Y-68117202D01*
X130666322Y-68117204D01*
X130745774Y-68236112D01*
X130800501Y-68368234D01*
X130828400Y-68508494D01*
X130828400Y-68651506D01*
X130800501Y-68791766D01*
X130745774Y-68923888D01*
X130745773Y-68923890D01*
X130666321Y-69042798D01*
X130565198Y-69143921D01*
X130446290Y-69223373D01*
X130446289Y-69223374D01*
X130446288Y-69223374D01*
X130314166Y-69278101D01*
X130173906Y-69306000D01*
X130030894Y-69306000D01*
X129890634Y-69278101D01*
X129758512Y-69223374D01*
X129758511Y-69223374D01*
X129758510Y-69223373D01*
X129639602Y-69143921D01*
X129538479Y-69042798D01*
X129459027Y-68923890D01*
X129459026Y-68923888D01*
X129404299Y-68791766D01*
X129376400Y-68651506D01*
X129376400Y-68508494D01*
X129404299Y-68368234D01*
X129459026Y-68236112D01*
X129538478Y-68117204D01*
X129538479Y-68117202D01*
X129639602Y-68016079D01*
X129758510Y-67936627D01*
X129758512Y-67936626D01*
X129890634Y-67881899D01*
X130030894Y-67854000D01*
X130173906Y-67854000D01*
X130314166Y-67881899D01*
G37*
G36*
X132314166Y-67881899D02*
G01*
X132446288Y-67936626D01*
X132446290Y-67936627D01*
X132565198Y-68016079D01*
X132666321Y-68117202D01*
X132666322Y-68117204D01*
X132745774Y-68236112D01*
X132800501Y-68368234D01*
X132828400Y-68508494D01*
X132828400Y-68651506D01*
X132800501Y-68791766D01*
X132745774Y-68923888D01*
X132745773Y-68923890D01*
X132666321Y-69042798D01*
X132565198Y-69143921D01*
X132446290Y-69223373D01*
X132446289Y-69223374D01*
X132446288Y-69223374D01*
X132314166Y-69278101D01*
X132173906Y-69306000D01*
X132030894Y-69306000D01*
X131890634Y-69278101D01*
X131758512Y-69223374D01*
X131758511Y-69223374D01*
X131758510Y-69223373D01*
X131639602Y-69143921D01*
X131538479Y-69042798D01*
X131459027Y-68923890D01*
X131459026Y-68923888D01*
X131404299Y-68791766D01*
X131376400Y-68651506D01*
X131376400Y-68508494D01*
X131404299Y-68368234D01*
X131459026Y-68236112D01*
X131538478Y-68117204D01*
X131538479Y-68117202D01*
X131639602Y-68016079D01*
X131758510Y-67936627D01*
X131758512Y-67936626D01*
X131890634Y-67881899D01*
X132030894Y-67854000D01*
X132173906Y-67854000D01*
X132314166Y-67881899D01*
G37*
G36*
X136314166Y-67881899D02*
G01*
X136446288Y-67936626D01*
X136446290Y-67936627D01*
X136565198Y-68016079D01*
X136666321Y-68117202D01*
X136666322Y-68117204D01*
X136745774Y-68236112D01*
X136800501Y-68368234D01*
X136828400Y-68508494D01*
X136828400Y-68651506D01*
X136800501Y-68791766D01*
X136745774Y-68923888D01*
X136745773Y-68923890D01*
X136666321Y-69042798D01*
X136565198Y-69143921D01*
X136446290Y-69223373D01*
X136446289Y-69223374D01*
X136446288Y-69223374D01*
X136314166Y-69278101D01*
X136173906Y-69306000D01*
X136030894Y-69306000D01*
X135890634Y-69278101D01*
X135758512Y-69223374D01*
X135758511Y-69223374D01*
X135758510Y-69223373D01*
X135639602Y-69143921D01*
X135538479Y-69042798D01*
X135459027Y-68923890D01*
X135459026Y-68923888D01*
X135404299Y-68791766D01*
X135376400Y-68651506D01*
X135376400Y-68508494D01*
X135404299Y-68368234D01*
X135459026Y-68236112D01*
X135538478Y-68117204D01*
X135538479Y-68117202D01*
X135639602Y-68016079D01*
X135758510Y-67936627D01*
X135758512Y-67936626D01*
X135890634Y-67881899D01*
X136030894Y-67854000D01*
X136173906Y-67854000D01*
X136314166Y-67881899D01*
G37*
G36*
X138314166Y-67881899D02*
G01*
X138446288Y-67936626D01*
X138446290Y-67936627D01*
X138565198Y-68016079D01*
X138666321Y-68117202D01*
X138666322Y-68117204D01*
X138745774Y-68236112D01*
X138800501Y-68368234D01*
X138828400Y-68508494D01*
X138828400Y-68651506D01*
X138800501Y-68791766D01*
X138745774Y-68923888D01*
X138745773Y-68923890D01*
X138666321Y-69042798D01*
X138565198Y-69143921D01*
X138446290Y-69223373D01*
X138446289Y-69223374D01*
X138446288Y-69223374D01*
X138314166Y-69278101D01*
X138173906Y-69306000D01*
X138030894Y-69306000D01*
X137890634Y-69278101D01*
X137758512Y-69223374D01*
X137758511Y-69223374D01*
X137758510Y-69223373D01*
X137639602Y-69143921D01*
X137538479Y-69042798D01*
X137459027Y-68923890D01*
X137459026Y-68923888D01*
X137404299Y-68791766D01*
X137376400Y-68651506D01*
X137376400Y-68508494D01*
X137404299Y-68368234D01*
X137459026Y-68236112D01*
X137538478Y-68117204D01*
X137538479Y-68117202D01*
X137639602Y-68016079D01*
X137758510Y-67936627D01*
X137758512Y-67936626D01*
X137890634Y-67881899D01*
X138030894Y-67854000D01*
X138173906Y-67854000D01*
X138314166Y-67881899D01*
G37*
G36*
X140314166Y-67881899D02*
G01*
X140446288Y-67936626D01*
X140446290Y-67936627D01*
X140565198Y-68016079D01*
X140666321Y-68117202D01*
X140666322Y-68117204D01*
X140745774Y-68236112D01*
X140800501Y-68368234D01*
X140828400Y-68508494D01*
X140828400Y-68651506D01*
X140800501Y-68791766D01*
X140745774Y-68923888D01*
X140745773Y-68923890D01*
X140666321Y-69042798D01*
X140565198Y-69143921D01*
X140446290Y-69223373D01*
X140446289Y-69223374D01*
X140446288Y-69223374D01*
X140314166Y-69278101D01*
X140173906Y-69306000D01*
X140030894Y-69306000D01*
X139890634Y-69278101D01*
X139758512Y-69223374D01*
X139758511Y-69223374D01*
X139758510Y-69223373D01*
X139639602Y-69143921D01*
X139538479Y-69042798D01*
X139459027Y-68923890D01*
X139459026Y-68923888D01*
X139404299Y-68791766D01*
X139376400Y-68651506D01*
X139376400Y-68508494D01*
X139404299Y-68368234D01*
X139459026Y-68236112D01*
X139538478Y-68117204D01*
X139538479Y-68117202D01*
X139639602Y-68016079D01*
X139758510Y-67936627D01*
X139758512Y-67936626D01*
X139890634Y-67881899D01*
X140030894Y-67854000D01*
X140173906Y-67854000D01*
X140314166Y-67881899D01*
G37*
G36*
X134314166Y-67881899D02*
G01*
X134446288Y-67936626D01*
X134446290Y-67936627D01*
X134565198Y-68016079D01*
X134666321Y-68117202D01*
X134666322Y-68117204D01*
X134745774Y-68236112D01*
X134800501Y-68368234D01*
X134828400Y-68508494D01*
X134828400Y-68651506D01*
X134800501Y-68791766D01*
X134745774Y-68923888D01*
X134745773Y-68923890D01*
X134666321Y-69042798D01*
X134565198Y-69143921D01*
X134446290Y-69223373D01*
X134446289Y-69223374D01*
X134446288Y-69223374D01*
X134314166Y-69278101D01*
X134173906Y-69306000D01*
X134030894Y-69306000D01*
X133890634Y-69278101D01*
X133758512Y-69223374D01*
X133758511Y-69223374D01*
X133758510Y-69223373D01*
X133639602Y-69143921D01*
X133538479Y-69042798D01*
X133459027Y-68923890D01*
X133459026Y-68923888D01*
X133404299Y-68791766D01*
X133376400Y-68651506D01*
X133376400Y-68508494D01*
X133404299Y-68368234D01*
X133459026Y-68236112D01*
X133538478Y-68117204D01*
X133538479Y-68117202D01*
X133639602Y-68016079D01*
X133758510Y-67936627D01*
X133758512Y-67936626D01*
X133890634Y-67881899D01*
X134030894Y-67854000D01*
X134173906Y-67854000D01*
X134314166Y-67881899D01*
G37*
G36*
X126314166Y-67881899D02*
G01*
X126446288Y-67936626D01*
X126446290Y-67936627D01*
X126565198Y-68016079D01*
X126666321Y-68117202D01*
X126666322Y-68117204D01*
X126745774Y-68236112D01*
X126800501Y-68368234D01*
X126828400Y-68508494D01*
X126828400Y-68651506D01*
X126800501Y-68791766D01*
X126745774Y-68923888D01*
X126745773Y-68923890D01*
X126666321Y-69042798D01*
X126565198Y-69143921D01*
X126446290Y-69223373D01*
X126446289Y-69223374D01*
X126446288Y-69223374D01*
X126314166Y-69278101D01*
X126173906Y-69306000D01*
X126030894Y-69306000D01*
X125890634Y-69278101D01*
X125758512Y-69223374D01*
X125758511Y-69223374D01*
X125758510Y-69223373D01*
X125639602Y-69143921D01*
X125538479Y-69042798D01*
X125459027Y-68923890D01*
X125459026Y-68923888D01*
X125404299Y-68791766D01*
X125376400Y-68651506D01*
X125376400Y-68508494D01*
X125404299Y-68368234D01*
X125459026Y-68236112D01*
X125538478Y-68117204D01*
X125538479Y-68117202D01*
X125639602Y-68016079D01*
X125758510Y-67936627D01*
X125758512Y-67936626D01*
X125890634Y-67881899D01*
X126030894Y-67854000D01*
X126173906Y-67854000D01*
X126314166Y-67881899D01*
G37*
G36*
X178715000Y-65215000D02*
G01*
X176263000Y-65215000D01*
X176263000Y-57113000D01*
X178715000Y-57113000D01*
X178715000Y-65215000D01*
G37*
G36*
X158915000Y-65215000D02*
G01*
X156463000Y-65215000D01*
X156463000Y-57113000D01*
X158915000Y-57113000D01*
X158915000Y-65215000D01*
G37*
G36*
X150995000Y-65215000D02*
G01*
X148543000Y-65215000D01*
X148543000Y-57113000D01*
X150995000Y-57113000D01*
X150995000Y-65215000D01*
G37*
G36*
X194555000Y-65215000D02*
G01*
X192103000Y-65215000D01*
X192103000Y-57113000D01*
X194555000Y-57113000D01*
X194555000Y-65215000D01*
G37*
G36*
X115355000Y-65215000D02*
G01*
X112903000Y-65215000D01*
X112903000Y-57113000D01*
X115355000Y-57113000D01*
X115355000Y-65215000D01*
G37*
G36*
X99515000Y-65215000D02*
G01*
X97063000Y-65215000D01*
X97063000Y-57113000D01*
X99515000Y-57113000D01*
X99515000Y-65215000D01*
G37*
G36*
X174755000Y-65215000D02*
G01*
X172303000Y-65215000D01*
X172303000Y-57113000D01*
X174755000Y-57113000D01*
X174755000Y-65215000D01*
G37*
G36*
X166835000Y-65215000D02*
G01*
X164383000Y-65215000D01*
X164383000Y-57113000D01*
X166835000Y-57113000D01*
X166835000Y-65215000D01*
G37*
G36*
X170795000Y-65215000D02*
G01*
X168343000Y-65215000D01*
X168343000Y-57113000D01*
X170795000Y-57113000D01*
X170795000Y-65215000D01*
G37*
G36*
X198515000Y-65215000D02*
G01*
X196063000Y-65215000D01*
X196063000Y-57113000D01*
X198515000Y-57113000D01*
X198515000Y-65215000D01*
G37*
G36*
X162875000Y-65215000D02*
G01*
X160423000Y-65215000D01*
X160423000Y-57113000D01*
X162875000Y-57113000D01*
X162875000Y-65215000D01*
G37*
G36*
X202475000Y-65215000D02*
G01*
X200023000Y-65215000D01*
X200023000Y-57113000D01*
X202475000Y-57113000D01*
X202475000Y-65215000D01*
G37*
G36*
X206435000Y-65215000D02*
G01*
X203983000Y-65215000D01*
X203983000Y-57113000D01*
X206435000Y-57113000D01*
X206435000Y-65215000D01*
G37*
G36*
X190595000Y-65215000D02*
G01*
X188143000Y-65215000D01*
X188143000Y-57113000D01*
X190595000Y-57113000D01*
X190595000Y-65215000D01*
G37*
G36*
X186635000Y-65215000D02*
G01*
X184183000Y-65215000D01*
X184183000Y-57113000D01*
X186635000Y-57113000D01*
X186635000Y-65215000D01*
G37*
G36*
X131195000Y-65215000D02*
G01*
X128743000Y-65215000D01*
X128743000Y-57113000D01*
X131195000Y-57113000D01*
X131195000Y-65215000D01*
G37*
G36*
X135155000Y-65215000D02*
G01*
X132703000Y-65215000D01*
X132703000Y-57113000D01*
X135155000Y-57113000D01*
X135155000Y-65215000D01*
G37*
G36*
X154955000Y-65215000D02*
G01*
X152503000Y-65215000D01*
X152503000Y-57113000D01*
X154955000Y-57113000D01*
X154955000Y-65215000D01*
G37*
G36*
X147035000Y-65215000D02*
G01*
X144583000Y-65215000D01*
X144583000Y-57113000D01*
X147035000Y-57113000D01*
X147035000Y-65215000D01*
G37*
G36*
X123275000Y-65215000D02*
G01*
X120823000Y-65215000D01*
X120823000Y-57113000D01*
X123275000Y-57113000D01*
X123275000Y-65215000D01*
G37*
G36*
X139115000Y-65215000D02*
G01*
X136663000Y-65215000D01*
X136663000Y-57113000D01*
X139115000Y-57113000D01*
X139115000Y-65215000D01*
G37*
G36*
X127235000Y-65215000D02*
G01*
X124783000Y-65215000D01*
X124783000Y-57113000D01*
X127235000Y-57113000D01*
X127235000Y-65215000D01*
G37*
G36*
X107435000Y-65215000D02*
G01*
X104983000Y-65215000D01*
X104983000Y-57113000D01*
X107435000Y-57113000D01*
X107435000Y-65215000D01*
G37*
G36*
X111395000Y-65215000D02*
G01*
X108943000Y-65215000D01*
X108943000Y-57113000D01*
X111395000Y-57113000D01*
X111395000Y-65215000D01*
G37*
G36*
X119315000Y-65215000D02*
G01*
X116863000Y-65215000D01*
X116863000Y-57113000D01*
X119315000Y-57113000D01*
X119315000Y-65215000D01*
G37*
G36*
X103475000Y-65215000D02*
G01*
X101023000Y-65215000D01*
X101023000Y-57113000D01*
X103475000Y-57113000D01*
X103475000Y-65215000D01*
G37*
G36*
X143075000Y-65215000D02*
G01*
X140623000Y-65215000D01*
X140623000Y-57113000D01*
X143075000Y-57113000D01*
X143075000Y-65215000D01*
G37*
M02*
