M48
; DRILL file {KiCad (5.1.5)-3} date 2020-05-14 13:49:49
; FORMAT={-:-/ absolute / inch / decimal}
; #@! TF.CreationDate,2020-05-14T13:49:49+02:00
; #@! TF.GenerationSoftware,Kicad,Pcbnew,(5.1.5)-3
; #@! TF.FileFunction,Plated,1,2,PTH
FMAT,2
INCH
T1C0.0157
T2C0.0276
T3C0.0315
T4C0.0354
T5C0.0394
T6C0.0437
%
G90
G05
T1
X3.865Y-3.9
X3.8696Y-2.6194
X3.8696Y-4.8794
X4.0256Y-2.6174
X4.0256Y-4.8794
X4.175Y-2.62
X4.175Y-3.84
X4.175Y-3.94
X4.215Y-3.42
X4.315Y-3.94
X4.315Y-4.46
X4.34Y-4.79
X4.575Y-4.86
X4.715Y-4.86
X4.875Y-4.86
X5.035Y-4.86
X5.195Y-4.86
X5.355Y-4.86
X5.495Y-4.86
X5.535Y-3.2
X5.535Y-3.64
X5.538Y-4.0816
X5.5407Y-4.6868
X5.655Y-2.66
X5.655Y-4.86
X5.815Y-2.66
X5.815Y-4.86
X5.9523Y-3.6573
X5.955Y-2.66
X5.955Y-3.26
X5.975Y-4.86
X6.115Y-2.66
X6.135Y-4.86
X6.2082Y-4.5332
X6.275Y-2.66
X6.275Y-2.94
X6.275Y-4.86
X6.3641Y-3.9491
X6.435Y-2.66
X6.435Y-4.2
X6.435Y-4.86
X6.575Y-2.66
X6.595Y-4.86
X6.67Y-4.61
X6.735Y-2.66
X6.735Y-4.655
X6.735Y-4.86
X6.895Y-2.66
X6.895Y-4.86
X7.055Y-2.66
X7.055Y-4.86
X7.2996Y-2.64
X7.2996Y-2.6954
X7.2996Y-4.82
X7.2996Y-4.8754
X7.455Y-2.64
X7.455Y-4.82
X7.455Y-4.88
X7.4555Y-2.6995
X7.6114Y-2.6436
X7.6114Y-2.7036
X7.6114Y-4.7036
X7.6114Y-4.82
X7.6114Y-4.8836
X7.9232Y-2.6388
X7.9255Y-4.8695
X8.0791Y-2.6389
X8.0791Y-4.8718
T3
X7.755Y-3.68
X7.855Y-3.58
X7.855Y-3.78
X7.755Y-3.155
X7.855Y-3.055
X7.855Y-3.255
X7.755Y-4.205
X7.855Y-4.105
X7.855Y-4.305
X4.256Y-2.7
X4.3347Y-2.7
X4.4135Y-2.7
X4.4922Y-2.7
X4.571Y-2.7
X4.6497Y-2.7
X4.7284Y-2.7
X4.8072Y-2.7
X4.8859Y-2.7
X4.9647Y-2.7
X5.0434Y-2.7
X5.1221Y-2.7
X5.2009Y-2.7
X5.2796Y-2.7
X5.3584Y-2.7
X5.4371Y-2.7
X5.5158Y-2.7
X4.88Y-4.545
X4.98Y-4.445
X4.98Y-4.645
T4
X4.135Y-2.975
X4.135Y-3.0576
X4.135Y-3.16
X4.135Y-3.2427
X4.2334Y-2.975
X4.2334Y-3.0734
X4.2334Y-3.16
X4.2334Y-3.2427
T5
X7.788Y-2.79
X7.888Y-2.79
X7.775Y-4.64
X7.875Y-4.64
T6
X4.015Y-4.135
X4.015Y-4.335
X4.015Y-4.535
X4.015Y-4.735
X4.535Y-4.135
X4.535Y-4.335
X4.535Y-4.535
X4.535Y-4.685
T2
G00X3.9854Y-3.0793
M15
G01X3.9854Y-3.1383
M16
G05
G00X4.0464Y-2.8431
M15
G01X3.9874Y-2.8431
M16
G05
G00X4.0464Y-3.3746
M15
G01X3.9874Y-3.3746
M16
G05
T5
G00X4.01Y-3.7547
M15
G01X4.01Y-3.7153
M16
G05
G00X4.1045Y-3.6759
M15
G01X4.1045Y-3.6366
M16
G05
G00X4.321Y-3.6759
M15
G01X4.321Y-3.6366
M16
G05
T0
M30
