G04 #@! TF.GenerationSoftware,KiCad,Pcbnew,(5.1.2)-2*
G04 #@! TF.CreationDate,2019-09-22T14:46:25+02:00*
G04 #@! TF.ProjectId,betsubetsu,62657473-7562-4657-9473-752e6b696361,rev?*
G04 #@! TF.SameCoordinates,Original*
G04 #@! TF.FileFunction,Legend,Top*
G04 #@! TF.FilePolarity,Positive*
%FSLAX46Y46*%
G04 Gerber Fmt 4.6, Leading zero omitted, Abs format (unit mm)*
G04 Created by KiCad (PCBNEW (5.1.2)-2) date 2019-09-22 14:46:25*
%MOMM*%
%LPD*%
G04 APERTURE LIST*
%ADD10C,0.200000*%
%ADD11C,0.100000*%
%ADD12C,0.300000*%
%ADD13C,0.120000*%
%ADD14C,0.127000*%
%ADD15C,0.150000*%
%ADD16C,0.050000*%
%ADD17C,0.254000*%
G04 APERTURE END LIST*
D10*
X68254571Y-106711879D02*
X68302190Y-106569022D01*
X68349809Y-106521403D01*
X68445047Y-106473784D01*
X68587904Y-106473784D01*
X68683142Y-106521403D01*
X68730761Y-106569022D01*
X68778380Y-106664260D01*
X68778380Y-107045213D01*
X67778380Y-107045213D01*
X67778380Y-106711879D01*
X67826000Y-106616641D01*
X67873619Y-106569022D01*
X67968857Y-106521403D01*
X68064095Y-106521403D01*
X68159333Y-106569022D01*
X68206952Y-106616641D01*
X68254571Y-106711879D01*
X68254571Y-107045213D01*
X68778380Y-105569022D02*
X68778380Y-106045213D01*
X67778380Y-106045213D01*
X67778380Y-105235689D02*
X68587904Y-105235689D01*
X68683142Y-105188070D01*
X68730761Y-105140451D01*
X68778380Y-105045213D01*
X68778380Y-104854736D01*
X68730761Y-104759498D01*
X68683142Y-104711879D01*
X68587904Y-104664260D01*
X67778380Y-104664260D01*
X68254571Y-104188070D02*
X68254571Y-103854736D01*
X68778380Y-103711879D02*
X68778380Y-104188070D01*
X67778380Y-104188070D01*
X67778380Y-103711879D01*
X67826000Y-95646666D02*
X67778380Y-95741904D01*
X67778380Y-95884761D01*
X67826000Y-96027619D01*
X67921238Y-96122857D01*
X68016476Y-96170476D01*
X68206952Y-96218095D01*
X68349809Y-96218095D01*
X68540285Y-96170476D01*
X68635523Y-96122857D01*
X68730761Y-96027619D01*
X68778380Y-95884761D01*
X68778380Y-95789523D01*
X68730761Y-95646666D01*
X68683142Y-95599047D01*
X68349809Y-95599047D01*
X68349809Y-95789523D01*
X68778380Y-94599047D02*
X68302190Y-94932380D01*
X68778380Y-95170476D02*
X67778380Y-95170476D01*
X67778380Y-94789523D01*
X67826000Y-94694285D01*
X67873619Y-94646666D01*
X67968857Y-94599047D01*
X68111714Y-94599047D01*
X68206952Y-94646666D01*
X68254571Y-94694285D01*
X68302190Y-94789523D01*
X68302190Y-95170476D01*
X68254571Y-94170476D02*
X68254571Y-93837142D01*
X68778380Y-93694285D02*
X68778380Y-94170476D01*
X67778380Y-94170476D01*
X67778380Y-93694285D01*
X68254571Y-93265714D02*
X68254571Y-92932380D01*
X68778380Y-92789523D02*
X68778380Y-93265714D01*
X67778380Y-93265714D01*
X67778380Y-92789523D01*
X68778380Y-92360952D02*
X67778380Y-92360952D01*
X68778380Y-91789523D01*
X67778380Y-91789523D01*
X68778380Y-82938857D02*
X68302190Y-83272190D01*
X68778380Y-83510285D02*
X67778380Y-83510285D01*
X67778380Y-83129333D01*
X67826000Y-83034095D01*
X67873619Y-82986476D01*
X67968857Y-82938857D01*
X68111714Y-82938857D01*
X68206952Y-82986476D01*
X68254571Y-83034095D01*
X68302190Y-83129333D01*
X68302190Y-83510285D01*
X68254571Y-82510285D02*
X68254571Y-82176952D01*
X68778380Y-82034095D02*
X68778380Y-82510285D01*
X67778380Y-82510285D01*
X67778380Y-82034095D01*
X68778380Y-81605523D02*
X67778380Y-81605523D01*
X67778380Y-81367428D01*
X67826000Y-81224571D01*
X67921238Y-81129333D01*
X68016476Y-81081714D01*
X68206952Y-81034095D01*
X68349809Y-81034095D01*
X68540285Y-81081714D01*
X68635523Y-81129333D01*
X68730761Y-81224571D01*
X68778380Y-81367428D01*
X68778380Y-81605523D01*
D11*
X46037073Y-103857960D02*
X46179930Y-103905579D01*
X46418025Y-103905579D01*
X46513263Y-103857960D01*
X46560882Y-103810341D01*
X46608501Y-103715103D01*
X46608501Y-103619865D01*
X46560882Y-103524627D01*
X46513263Y-103477008D01*
X46418025Y-103429389D01*
X46227549Y-103381770D01*
X46132311Y-103334151D01*
X46084692Y-103286532D01*
X46037073Y-103191294D01*
X46037073Y-103096056D01*
X46084692Y-103000818D01*
X46132311Y-102953199D01*
X46227549Y-102905579D01*
X46465644Y-102905579D01*
X46608501Y-102953199D01*
X47037073Y-103905579D02*
X47037073Y-102905579D01*
X47418025Y-102905579D01*
X47513263Y-102953199D01*
X47560882Y-103000818D01*
X47608501Y-103096056D01*
X47608501Y-103238913D01*
X47560882Y-103334151D01*
X47513263Y-103381770D01*
X47418025Y-103429389D01*
X47037073Y-103429389D01*
X48037073Y-103524627D02*
X48798977Y-103524627D01*
X46019463Y-101445355D02*
X46162320Y-101492974D01*
X46400415Y-101492974D01*
X46495653Y-101445355D01*
X46543272Y-101397736D01*
X46590891Y-101302498D01*
X46590891Y-101207260D01*
X46543272Y-101112022D01*
X46495653Y-101064403D01*
X46400415Y-101016784D01*
X46209939Y-100969165D01*
X46114701Y-100921546D01*
X46067082Y-100873927D01*
X46019463Y-100778689D01*
X46019463Y-100683451D01*
X46067082Y-100588213D01*
X46114701Y-100540594D01*
X46209939Y-100492974D01*
X46448034Y-100492974D01*
X46590891Y-100540594D01*
X47019463Y-101492974D02*
X47019463Y-100492974D01*
X47400415Y-100492974D01*
X47495653Y-100540594D01*
X47543272Y-100588213D01*
X47590891Y-100683451D01*
X47590891Y-100826308D01*
X47543272Y-100921546D01*
X47495653Y-100969165D01*
X47400415Y-101016784D01*
X47019463Y-101016784D01*
X48019463Y-101112022D02*
X48781367Y-101112022D01*
X48400415Y-101492974D02*
X48400415Y-100731070D01*
X47569428Y-98353571D02*
X47712285Y-98401190D01*
X47759904Y-98448809D01*
X47807523Y-98544047D01*
X47807523Y-98686904D01*
X47759904Y-98782142D01*
X47712285Y-98829761D01*
X47617047Y-98877380D01*
X47236095Y-98877380D01*
X47236095Y-97877380D01*
X47569428Y-97877380D01*
X47664666Y-97925000D01*
X47712285Y-97972619D01*
X47759904Y-98067857D01*
X47759904Y-98163095D01*
X47712285Y-98258333D01*
X47664666Y-98305952D01*
X47569428Y-98353571D01*
X47236095Y-98353571D01*
X47759904Y-95258000D02*
X47664666Y-95210380D01*
X47521809Y-95210380D01*
X47378952Y-95258000D01*
X47283714Y-95353238D01*
X47236095Y-95448476D01*
X47188476Y-95638952D01*
X47188476Y-95781809D01*
X47236095Y-95972285D01*
X47283714Y-96067523D01*
X47378952Y-96162761D01*
X47521809Y-96210380D01*
X47617047Y-96210380D01*
X47759904Y-96162761D01*
X47807523Y-96115142D01*
X47807523Y-95781809D01*
X47617047Y-95781809D01*
X47807523Y-93797380D02*
X47474190Y-93321190D01*
X47236095Y-93797380D02*
X47236095Y-92797380D01*
X47617047Y-92797380D01*
X47712285Y-92845000D01*
X47759904Y-92892619D01*
X47807523Y-92987857D01*
X47807523Y-93130714D01*
X47759904Y-93225952D01*
X47712285Y-93273571D01*
X47617047Y-93321190D01*
X47236095Y-93321190D01*
X47212285Y-91209761D02*
X47355142Y-91257380D01*
X47593238Y-91257380D01*
X47688476Y-91209761D01*
X47736095Y-91162142D01*
X47783714Y-91066904D01*
X47783714Y-90971666D01*
X47736095Y-90876428D01*
X47688476Y-90828809D01*
X47593238Y-90781190D01*
X47402761Y-90733571D01*
X47307523Y-90685952D01*
X47259904Y-90638333D01*
X47212285Y-90543095D01*
X47212285Y-90447857D01*
X47259904Y-90352619D01*
X47307523Y-90305000D01*
X47402761Y-90257380D01*
X47640857Y-90257380D01*
X47783714Y-90305000D01*
X46571557Y-87770670D02*
X46476319Y-87723050D01*
X46333462Y-87723050D01*
X46190604Y-87770670D01*
X46095366Y-87865908D01*
X46047747Y-87961146D01*
X46000128Y-88151622D01*
X46000128Y-88294479D01*
X46047747Y-88484955D01*
X46095366Y-88580193D01*
X46190604Y-88675431D01*
X46333462Y-88723050D01*
X46428700Y-88723050D01*
X46571557Y-88675431D01*
X46619176Y-88627812D01*
X46619176Y-88294479D01*
X46428700Y-88294479D01*
X47047747Y-88723050D02*
X47047747Y-87723050D01*
X47619176Y-88723050D01*
X47619176Y-87723050D01*
X48095366Y-88723050D02*
X48095366Y-87723050D01*
X48333462Y-87723050D01*
X48476319Y-87770670D01*
X48571557Y-87865908D01*
X48619176Y-87961146D01*
X48666795Y-88151622D01*
X48666795Y-88294479D01*
X48619176Y-88484955D01*
X48571557Y-88580193D01*
X48476319Y-88675431D01*
X48333462Y-88723050D01*
X48095366Y-88723050D01*
X45713322Y-85774128D02*
X46475227Y-85774128D01*
X46094275Y-86155080D02*
X46094275Y-85393176D01*
X47427608Y-85155080D02*
X46951417Y-85155080D01*
X46903798Y-85631271D01*
X46951417Y-85583652D01*
X47046656Y-85536033D01*
X47284751Y-85536033D01*
X47379989Y-85583652D01*
X47427608Y-85631271D01*
X47475227Y-85726509D01*
X47475227Y-85964604D01*
X47427608Y-86059842D01*
X47379989Y-86107461D01*
X47284751Y-86155080D01*
X47046656Y-86155080D01*
X46951417Y-86107461D01*
X46903798Y-86059842D01*
X47760941Y-85155080D02*
X48094275Y-86155080D01*
X48427608Y-85155080D01*
D12*
X93292582Y-109366931D02*
X93605082Y-110866931D01*
X94292582Y-109366931D01*
X95185440Y-110795502D02*
X95033654Y-110866931D01*
X94747940Y-110866931D01*
X94614011Y-110795502D01*
X94560440Y-110652645D01*
X94631868Y-110081217D01*
X94721154Y-109938360D01*
X94872940Y-109866931D01*
X95158654Y-109866931D01*
X95292582Y-109938360D01*
X95346154Y-110081217D01*
X95328297Y-110224074D01*
X94596154Y-110366931D01*
X95890797Y-110866931D02*
X96015797Y-109866931D01*
X95980082Y-110152645D02*
X96069368Y-110009788D01*
X96149725Y-109938360D01*
X96301511Y-109866931D01*
X96444368Y-109866931D01*
X98435440Y-109366931D02*
X98578297Y-109366931D01*
X98712225Y-109438360D01*
X98774725Y-109509788D01*
X98828297Y-109652645D01*
X98864011Y-109938360D01*
X98819368Y-110295502D01*
X98712225Y-110581217D01*
X98622940Y-110724074D01*
X98542582Y-110795502D01*
X98390797Y-110866931D01*
X98247940Y-110866931D01*
X98114011Y-110795502D01*
X98051511Y-110724074D01*
X97997940Y-110581217D01*
X97962225Y-110295502D01*
X98006868Y-109938360D01*
X98114011Y-109652645D01*
X98203297Y-109509788D01*
X98283654Y-109438360D01*
X98435440Y-109366931D01*
X99408654Y-110724074D02*
X99471154Y-110795502D01*
X99390797Y-110866931D01*
X99328297Y-110795502D01*
X99408654Y-110724074D01*
X99390797Y-110866931D01*
X100203297Y-109509788D02*
X100283654Y-109438360D01*
X100435440Y-109366931D01*
X100792582Y-109366931D01*
X100926511Y-109438360D01*
X100989011Y-109509788D01*
X101042582Y-109652645D01*
X101024725Y-109795502D01*
X100926511Y-110009788D01*
X99962225Y-110866931D01*
X100890797Y-110866931D01*
X94244999Y-77256122D02*
X94450356Y-77327550D01*
X94512856Y-77398979D01*
X94566428Y-77541836D01*
X94539642Y-77756122D01*
X94450356Y-77898979D01*
X94369999Y-77970407D01*
X94218214Y-78041836D01*
X93646785Y-78041836D01*
X93834285Y-76541836D01*
X94334285Y-76541836D01*
X94468214Y-76613265D01*
X94530714Y-76684693D01*
X94584285Y-76827550D01*
X94566428Y-76970407D01*
X94477142Y-77113265D01*
X94396785Y-77184693D01*
X94244999Y-77256122D01*
X93744999Y-77256122D01*
X95244999Y-77256122D02*
X95744999Y-77256122D01*
X95861071Y-78041836D02*
X95146785Y-78041836D01*
X95334285Y-76541836D01*
X96048571Y-76541836D01*
X96477142Y-76541836D02*
X97334285Y-76541836D01*
X96718214Y-78041836D02*
X96905714Y-76541836D01*
X97584285Y-77970407D02*
X97789642Y-78041836D01*
X98146785Y-78041836D01*
X98298571Y-77970407D01*
X98378928Y-77898979D01*
X98468214Y-77756122D01*
X98486071Y-77613265D01*
X98432499Y-77470407D01*
X98369999Y-77398979D01*
X98236071Y-77327550D01*
X97959285Y-77256122D01*
X97825356Y-77184693D01*
X97762856Y-77113265D01*
X97709285Y-76970407D01*
X97727142Y-76827550D01*
X97816428Y-76684693D01*
X97896785Y-76613265D01*
X98048571Y-76541836D01*
X98405714Y-76541836D01*
X98611071Y-76613265D01*
X99262856Y-76541836D02*
X99111071Y-77756122D01*
X99164642Y-77898979D01*
X99227142Y-77970407D01*
X99361071Y-78041836D01*
X99646785Y-78041836D01*
X99798571Y-77970407D01*
X99878928Y-77898979D01*
X99968214Y-77756122D01*
X100119999Y-76541836D01*
X94244999Y-79806122D02*
X94450356Y-79877550D01*
X94512856Y-79948979D01*
X94566428Y-80091836D01*
X94539642Y-80306122D01*
X94450356Y-80448979D01*
X94369999Y-80520407D01*
X94218214Y-80591836D01*
X93646785Y-80591836D01*
X93834285Y-79091836D01*
X94334285Y-79091836D01*
X94468214Y-79163265D01*
X94530714Y-79234693D01*
X94584285Y-79377550D01*
X94566428Y-79520407D01*
X94477142Y-79663265D01*
X94396785Y-79734693D01*
X94244999Y-79806122D01*
X93744999Y-79806122D01*
X95244999Y-79806122D02*
X95744999Y-79806122D01*
X95861071Y-80591836D02*
X95146785Y-80591836D01*
X95334285Y-79091836D01*
X96048571Y-79091836D01*
X96477142Y-79091836D02*
X97334285Y-79091836D01*
X96718214Y-80591836D02*
X96905714Y-79091836D01*
X97584285Y-80520407D02*
X97789642Y-80591836D01*
X98146785Y-80591836D01*
X98298571Y-80520407D01*
X98378928Y-80448979D01*
X98468214Y-80306122D01*
X98486071Y-80163265D01*
X98432499Y-80020407D01*
X98369999Y-79948979D01*
X98236071Y-79877550D01*
X97959285Y-79806122D01*
X97825356Y-79734693D01*
X97762856Y-79663265D01*
X97709285Y-79520407D01*
X97727142Y-79377550D01*
X97816428Y-79234693D01*
X97896785Y-79163265D01*
X98048571Y-79091836D01*
X98405714Y-79091836D01*
X98611071Y-79163265D01*
X99262856Y-79091836D02*
X99111071Y-80306122D01*
X99164642Y-80448979D01*
X99227142Y-80520407D01*
X99361071Y-80591836D01*
X99646785Y-80591836D01*
X99798571Y-80520407D01*
X99878928Y-80448979D01*
X99968214Y-80306122D01*
X100119999Y-79091836D01*
D13*
X108762000Y-84140000D02*
X112762000Y-84140000D01*
X108762000Y-82240000D02*
X108762000Y-84140000D01*
X94522000Y-82240000D02*
X108762000Y-82240000D01*
X94522000Y-90680000D02*
X94522000Y-82240000D01*
X108762000Y-90680000D02*
X94522000Y-90680000D01*
X108762000Y-90380000D02*
X108762000Y-90680000D01*
X112762000Y-90380000D02*
X108762000Y-90380000D01*
X112762000Y-84140000D02*
X112762000Y-90380000D01*
X75938748Y-89610000D02*
X76461252Y-89610000D01*
X75938748Y-88190000D02*
X76461252Y-88190000D01*
X70858748Y-85800000D02*
X71381252Y-85800000D01*
X70858748Y-84380000D02*
X71381252Y-84380000D01*
X71381252Y-88190000D02*
X70858748Y-88190000D01*
X71381252Y-89610000D02*
X70858748Y-89610000D01*
X75938748Y-85800000D02*
X76461252Y-85800000D01*
X75938748Y-84380000D02*
X76461252Y-84380000D01*
X49314359Y-83877167D02*
X49314359Y-84377167D01*
X50054359Y-83877167D02*
X49314359Y-83877167D01*
X55874359Y-105018167D02*
X49554359Y-105018167D01*
X55874359Y-84117167D02*
X49554359Y-84117167D01*
X49554359Y-84117167D02*
X49554359Y-105018167D01*
X55874359Y-84117167D02*
X55874359Y-105018167D01*
X55414359Y-84117167D02*
X55414359Y-105018167D01*
X50114359Y-84117167D02*
X50114359Y-105018167D01*
X86621252Y-81840000D02*
X86098748Y-81840000D01*
X86621252Y-83260000D02*
X86098748Y-83260000D01*
X85694759Y-85476000D02*
X85694759Y-86106000D01*
X85379759Y-85791000D02*
X86009759Y-85791000D01*
X92121000Y-87228000D02*
X92121000Y-88032000D01*
X92081000Y-86997000D02*
X92081000Y-88263000D01*
X92041000Y-86828000D02*
X92041000Y-88432000D01*
X92001000Y-86690000D02*
X92001000Y-88570000D01*
X91961000Y-86571000D02*
X91961000Y-88689000D01*
X91921000Y-86465000D02*
X91921000Y-88795000D01*
X91881000Y-86368000D02*
X91881000Y-88892000D01*
X91841000Y-86280000D02*
X91841000Y-88980000D01*
X91801000Y-86198000D02*
X91801000Y-89062000D01*
X91761000Y-86121000D02*
X91761000Y-89139000D01*
X91721000Y-86049000D02*
X91721000Y-89211000D01*
X91681000Y-85980000D02*
X91681000Y-89280000D01*
X91641000Y-85916000D02*
X91641000Y-89344000D01*
X91601000Y-85854000D02*
X91601000Y-89406000D01*
X91561000Y-85796000D02*
X91561000Y-89464000D01*
X91521000Y-85740000D02*
X91521000Y-89520000D01*
X91481000Y-85686000D02*
X91481000Y-89574000D01*
X91441000Y-85635000D02*
X91441000Y-89625000D01*
X91401000Y-85586000D02*
X91401000Y-89674000D01*
X91361000Y-85538000D02*
X91361000Y-89722000D01*
X91321000Y-85493000D02*
X91321000Y-89767000D01*
X91281000Y-85448000D02*
X91281000Y-89812000D01*
X91241000Y-85406000D02*
X91241000Y-89854000D01*
X91201000Y-85365000D02*
X91201000Y-89895000D01*
X91161000Y-88670000D02*
X91161000Y-89935000D01*
X91161000Y-85325000D02*
X91161000Y-86590000D01*
X91121000Y-88670000D02*
X91121000Y-89973000D01*
X91121000Y-85287000D02*
X91121000Y-86590000D01*
X91081000Y-88670000D02*
X91081000Y-90010000D01*
X91081000Y-85250000D02*
X91081000Y-86590000D01*
X91041000Y-88670000D02*
X91041000Y-90046000D01*
X91041000Y-85214000D02*
X91041000Y-86590000D01*
X91001000Y-88670000D02*
X91001000Y-90080000D01*
X91001000Y-85180000D02*
X91001000Y-86590000D01*
X90961000Y-88670000D02*
X90961000Y-90114000D01*
X90961000Y-85146000D02*
X90961000Y-86590000D01*
X90921000Y-88670000D02*
X90921000Y-90146000D01*
X90921000Y-85114000D02*
X90921000Y-86590000D01*
X90881000Y-88670000D02*
X90881000Y-90178000D01*
X90881000Y-85082000D02*
X90881000Y-86590000D01*
X90841000Y-88670000D02*
X90841000Y-90208000D01*
X90841000Y-85052000D02*
X90841000Y-86590000D01*
X90801000Y-88670000D02*
X90801000Y-90237000D01*
X90801000Y-85023000D02*
X90801000Y-86590000D01*
X90761000Y-88670000D02*
X90761000Y-90266000D01*
X90761000Y-84994000D02*
X90761000Y-86590000D01*
X90721000Y-88670000D02*
X90721000Y-90294000D01*
X90721000Y-84966000D02*
X90721000Y-86590000D01*
X90681000Y-88670000D02*
X90681000Y-90320000D01*
X90681000Y-84940000D02*
X90681000Y-86590000D01*
X90641000Y-88670000D02*
X90641000Y-90346000D01*
X90641000Y-84914000D02*
X90641000Y-86590000D01*
X90601000Y-88670000D02*
X90601000Y-90372000D01*
X90601000Y-84888000D02*
X90601000Y-86590000D01*
X90561000Y-88670000D02*
X90561000Y-90396000D01*
X90561000Y-84864000D02*
X90561000Y-86590000D01*
X90521000Y-88670000D02*
X90521000Y-90420000D01*
X90521000Y-84840000D02*
X90521000Y-86590000D01*
X90481000Y-88670000D02*
X90481000Y-90442000D01*
X90481000Y-84818000D02*
X90481000Y-86590000D01*
X90441000Y-88670000D02*
X90441000Y-90464000D01*
X90441000Y-84796000D02*
X90441000Y-86590000D01*
X90401000Y-88670000D02*
X90401000Y-90486000D01*
X90401000Y-84774000D02*
X90401000Y-86590000D01*
X90361000Y-88670000D02*
X90361000Y-90506000D01*
X90361000Y-84754000D02*
X90361000Y-86590000D01*
X90321000Y-88670000D02*
X90321000Y-90526000D01*
X90321000Y-84734000D02*
X90321000Y-86590000D01*
X90281000Y-88670000D02*
X90281000Y-90546000D01*
X90281000Y-84714000D02*
X90281000Y-86590000D01*
X90241000Y-88670000D02*
X90241000Y-90564000D01*
X90241000Y-84696000D02*
X90241000Y-86590000D01*
X90201000Y-88670000D02*
X90201000Y-90582000D01*
X90201000Y-84678000D02*
X90201000Y-86590000D01*
X90161000Y-88670000D02*
X90161000Y-90600000D01*
X90161000Y-84660000D02*
X90161000Y-86590000D01*
X90121000Y-88670000D02*
X90121000Y-90616000D01*
X90121000Y-84644000D02*
X90121000Y-86590000D01*
X90081000Y-88670000D02*
X90081000Y-90632000D01*
X90081000Y-84628000D02*
X90081000Y-86590000D01*
X90041000Y-88670000D02*
X90041000Y-90648000D01*
X90041000Y-84612000D02*
X90041000Y-86590000D01*
X90001000Y-88670000D02*
X90001000Y-90663000D01*
X90001000Y-84597000D02*
X90001000Y-86590000D01*
X89961000Y-88670000D02*
X89961000Y-90677000D01*
X89961000Y-84583000D02*
X89961000Y-86590000D01*
X89921000Y-88670000D02*
X89921000Y-90691000D01*
X89921000Y-84569000D02*
X89921000Y-86590000D01*
X89881000Y-88670000D02*
X89881000Y-90704000D01*
X89881000Y-84556000D02*
X89881000Y-86590000D01*
X89841000Y-88670000D02*
X89841000Y-90716000D01*
X89841000Y-84544000D02*
X89841000Y-86590000D01*
X89801000Y-88670000D02*
X89801000Y-90728000D01*
X89801000Y-84532000D02*
X89801000Y-86590000D01*
X89761000Y-88670000D02*
X89761000Y-90740000D01*
X89761000Y-84520000D02*
X89761000Y-86590000D01*
X89721000Y-88670000D02*
X89721000Y-90751000D01*
X89721000Y-84509000D02*
X89721000Y-86590000D01*
X89681000Y-88670000D02*
X89681000Y-90761000D01*
X89681000Y-84499000D02*
X89681000Y-86590000D01*
X89641000Y-88670000D02*
X89641000Y-90771000D01*
X89641000Y-84489000D02*
X89641000Y-86590000D01*
X89601000Y-88670000D02*
X89601000Y-90780000D01*
X89601000Y-84480000D02*
X89601000Y-86590000D01*
X89560000Y-88670000D02*
X89560000Y-90789000D01*
X89560000Y-84471000D02*
X89560000Y-86590000D01*
X89520000Y-88670000D02*
X89520000Y-90797000D01*
X89520000Y-84463000D02*
X89520000Y-86590000D01*
X89480000Y-88670000D02*
X89480000Y-90805000D01*
X89480000Y-84455000D02*
X89480000Y-86590000D01*
X89440000Y-88670000D02*
X89440000Y-90812000D01*
X89440000Y-84448000D02*
X89440000Y-86590000D01*
X89400000Y-88670000D02*
X89400000Y-90819000D01*
X89400000Y-84441000D02*
X89400000Y-86590000D01*
X89360000Y-88670000D02*
X89360000Y-90825000D01*
X89360000Y-84435000D02*
X89360000Y-86590000D01*
X89320000Y-88670000D02*
X89320000Y-90831000D01*
X89320000Y-84429000D02*
X89320000Y-86590000D01*
X89280000Y-88670000D02*
X89280000Y-90836000D01*
X89280000Y-84424000D02*
X89280000Y-86590000D01*
X89240000Y-88670000D02*
X89240000Y-90841000D01*
X89240000Y-84419000D02*
X89240000Y-86590000D01*
X89200000Y-88670000D02*
X89200000Y-90845000D01*
X89200000Y-84415000D02*
X89200000Y-86590000D01*
X89160000Y-88670000D02*
X89160000Y-90848000D01*
X89160000Y-84412000D02*
X89160000Y-86590000D01*
X89120000Y-88670000D02*
X89120000Y-90852000D01*
X89120000Y-84408000D02*
X89120000Y-86590000D01*
X89080000Y-84406000D02*
X89080000Y-90854000D01*
X89040000Y-84403000D02*
X89040000Y-90857000D01*
X89000000Y-84402000D02*
X89000000Y-90858000D01*
X88960000Y-84400000D02*
X88960000Y-90860000D01*
X88920000Y-84400000D02*
X88920000Y-90860000D01*
X88880000Y-84400000D02*
X88880000Y-90860000D01*
X92150000Y-87630000D02*
G75*
G03X92150000Y-87630000I-3270000J0D01*
G01*
D14*
X108830000Y-92090000D02*
X108830000Y-106090000D01*
X95830000Y-106090000D02*
X95830000Y-92090000D01*
X108830000Y-92090000D02*
X104930000Y-92090000D01*
X108830000Y-106090000D02*
X104930000Y-106090000D01*
X95830000Y-92090000D02*
X101730000Y-92090000D01*
X95830000Y-106090000D02*
X101730000Y-106090000D01*
D13*
X57330000Y-77665000D02*
X67100000Y-77665000D01*
X57330000Y-87435000D02*
X67100000Y-87435000D01*
X57330000Y-77665000D02*
X57330000Y-87435000D01*
X67100000Y-77665000D02*
X67100000Y-87435000D01*
X67100000Y-89095000D02*
X67100000Y-98865000D01*
X57330000Y-89095000D02*
X57330000Y-98865000D01*
X57330000Y-98865000D02*
X67100000Y-98865000D01*
X57330000Y-89095000D02*
X67100000Y-89095000D01*
X57330000Y-100525000D02*
X67100000Y-100525000D01*
X57330000Y-110295000D02*
X67100000Y-110295000D01*
X57330000Y-100525000D02*
X57330000Y-110295000D01*
X67100000Y-100525000D02*
X67100000Y-110295000D01*
D15*
X76415000Y-78078922D02*
X75065000Y-78078922D01*
X76415000Y-83203922D02*
X81065000Y-83203922D01*
X76415000Y-77953922D02*
X81065000Y-77953922D01*
X76415000Y-83203922D02*
X76415000Y-82978922D01*
X81065000Y-83203922D02*
X81065000Y-82978922D01*
X81065000Y-77953922D02*
X81065000Y-78178922D01*
X76415000Y-77953922D02*
X76415000Y-78078922D01*
D13*
X80280000Y-89860000D02*
X83140000Y-89860000D01*
X83140000Y-89860000D02*
X83140000Y-87940000D01*
X83140000Y-87940000D02*
X80280000Y-87940000D01*
X81018748Y-84380000D02*
X81541252Y-84380000D01*
X81018748Y-85800000D02*
X81541252Y-85800000D01*
X71620000Y-77060000D02*
X70620000Y-77060000D01*
X71620000Y-80420000D02*
X70620000Y-80420000D01*
X86860000Y-80420000D02*
X85860000Y-80420000D01*
X86860000Y-77060000D02*
X85860000Y-77060000D01*
D11*
X70900001Y-112048001D02*
X91220001Y-112048001D01*
X91220001Y-112048001D02*
X91220001Y-92490001D01*
X91220001Y-92490001D02*
X70900001Y-92490001D01*
X70900001Y-92490001D02*
X70900001Y-112048001D01*
D10*
X91764001Y-108719001D02*
X91764001Y-108719001D01*
X91764001Y-108519001D02*
X91764001Y-108519001D01*
X91364001Y-108519001D02*
G75*
G02X91764001Y-108719001I200000J-100000D01*
G01*
X91364001Y-108719001D02*
G75*
G02X91764001Y-108519001I200000J100000D01*
G01*
D15*
X104354380Y-84153333D02*
X105068666Y-84153333D01*
X105211523Y-84200952D01*
X105306761Y-84296190D01*
X105354380Y-84439047D01*
X105354380Y-84534285D01*
X104354380Y-83772380D02*
X104354380Y-83153333D01*
X104735333Y-83486666D01*
X104735333Y-83343809D01*
X104782952Y-83248571D01*
X104830571Y-83200952D01*
X104925809Y-83153333D01*
X105163904Y-83153333D01*
X105259142Y-83200952D01*
X105306761Y-83248571D01*
X105354380Y-83343809D01*
X105354380Y-83629523D01*
X105306761Y-83724761D01*
X105259142Y-83772380D01*
X93558666Y-90293333D02*
X93558666Y-89817142D01*
X93844380Y-90388571D02*
X92844380Y-90055238D01*
X93844380Y-89721904D01*
X92844380Y-89388571D02*
X93653904Y-89388571D01*
X93749142Y-89340952D01*
X93796761Y-89293333D01*
X93844380Y-89198095D01*
X93844380Y-89007619D01*
X93796761Y-88912380D01*
X93749142Y-88864761D01*
X93653904Y-88817142D01*
X92844380Y-88817142D01*
X93844380Y-88340952D02*
X92844380Y-88340952D01*
X92844380Y-88102857D01*
X92892000Y-87960000D01*
X92987238Y-87864761D01*
X93082476Y-87817142D01*
X93272952Y-87769523D01*
X93415809Y-87769523D01*
X93606285Y-87817142D01*
X93701523Y-87864761D01*
X93796761Y-87960000D01*
X93844380Y-88102857D01*
X93844380Y-88340952D01*
X93844380Y-87340952D02*
X92844380Y-87340952D01*
X92844380Y-86674285D02*
X92844380Y-86483809D01*
X92892000Y-86388571D01*
X92987238Y-86293333D01*
X93177714Y-86245714D01*
X93511047Y-86245714D01*
X93701523Y-86293333D01*
X93796761Y-86388571D01*
X93844380Y-86483809D01*
X93844380Y-86674285D01*
X93796761Y-86769523D01*
X93701523Y-86864761D01*
X93511047Y-86912380D01*
X93177714Y-86912380D01*
X92987238Y-86864761D01*
X92892000Y-86769523D01*
X92844380Y-86674285D01*
X92844380Y-84864761D02*
X92844380Y-84674285D01*
X92892000Y-84579047D01*
X92987238Y-84483809D01*
X93177714Y-84436190D01*
X93511047Y-84436190D01*
X93701523Y-84483809D01*
X93796761Y-84579047D01*
X93844380Y-84674285D01*
X93844380Y-84864761D01*
X93796761Y-84960000D01*
X93701523Y-85055238D01*
X93511047Y-85102857D01*
X93177714Y-85102857D01*
X92987238Y-85055238D01*
X92892000Y-84960000D01*
X92844380Y-84864761D01*
X92844380Y-84007619D02*
X93653904Y-84007619D01*
X93749142Y-83960000D01*
X93796761Y-83912380D01*
X93844380Y-83817142D01*
X93844380Y-83626666D01*
X93796761Y-83531428D01*
X93749142Y-83483809D01*
X93653904Y-83436190D01*
X92844380Y-83436190D01*
X92844380Y-83102857D02*
X92844380Y-82531428D01*
X93844380Y-82817142D02*
X92844380Y-82817142D01*
X76033333Y-91257380D02*
X75700000Y-90781190D01*
X75461904Y-91257380D02*
X75461904Y-90257380D01*
X75842857Y-90257380D01*
X75938095Y-90305000D01*
X75985714Y-90352619D01*
X76033333Y-90447857D01*
X76033333Y-90590714D01*
X75985714Y-90685952D01*
X75938095Y-90733571D01*
X75842857Y-90781190D01*
X75461904Y-90781190D01*
X76938095Y-90257380D02*
X76461904Y-90257380D01*
X76414285Y-90733571D01*
X76461904Y-90685952D01*
X76557142Y-90638333D01*
X76795238Y-90638333D01*
X76890476Y-90685952D01*
X76938095Y-90733571D01*
X76985714Y-90828809D01*
X76985714Y-91066904D01*
X76938095Y-91162142D01*
X76890476Y-91209761D01*
X76795238Y-91257380D01*
X76557142Y-91257380D01*
X76461904Y-91209761D01*
X76414285Y-91162142D01*
X70953333Y-87447380D02*
X70620000Y-86971190D01*
X70381904Y-87447380D02*
X70381904Y-86447380D01*
X70762857Y-86447380D01*
X70858095Y-86495000D01*
X70905714Y-86542619D01*
X70953333Y-86637857D01*
X70953333Y-86780714D01*
X70905714Y-86875952D01*
X70858095Y-86923571D01*
X70762857Y-86971190D01*
X70381904Y-86971190D01*
X71334285Y-86542619D02*
X71381904Y-86495000D01*
X71477142Y-86447380D01*
X71715238Y-86447380D01*
X71810476Y-86495000D01*
X71858095Y-86542619D01*
X71905714Y-86637857D01*
X71905714Y-86733095D01*
X71858095Y-86875952D01*
X71286666Y-87447380D01*
X71905714Y-87447380D01*
X70953333Y-91257380D02*
X70620000Y-90781190D01*
X70381904Y-91257380D02*
X70381904Y-90257380D01*
X70762857Y-90257380D01*
X70858095Y-90305000D01*
X70905714Y-90352619D01*
X70953333Y-90447857D01*
X70953333Y-90590714D01*
X70905714Y-90685952D01*
X70858095Y-90733571D01*
X70762857Y-90781190D01*
X70381904Y-90781190D01*
X71905714Y-91257380D02*
X71334285Y-91257380D01*
X71620000Y-91257380D02*
X71620000Y-90257380D01*
X71524761Y-90400238D01*
X71429523Y-90495476D01*
X71334285Y-90543095D01*
X76033333Y-87447380D02*
X75700000Y-86971190D01*
X75461904Y-87447380D02*
X75461904Y-86447380D01*
X75842857Y-86447380D01*
X75938095Y-86495000D01*
X75985714Y-86542619D01*
X76033333Y-86637857D01*
X76033333Y-86780714D01*
X75985714Y-86875952D01*
X75938095Y-86923571D01*
X75842857Y-86971190D01*
X75461904Y-86971190D01*
X76890476Y-86780714D02*
X76890476Y-87447380D01*
X76652380Y-86399761D02*
X76414285Y-87114047D01*
X77033333Y-87114047D01*
X54062380Y-94948333D02*
X54776666Y-94948333D01*
X54919523Y-94995952D01*
X55014761Y-95091190D01*
X55062380Y-95234047D01*
X55062380Y-95329285D01*
X55062380Y-93948333D02*
X55062380Y-94519761D01*
X55062380Y-94234047D02*
X54062380Y-94234047D01*
X54205238Y-94329285D01*
X54300476Y-94424523D01*
X54348095Y-94519761D01*
X51059448Y-83177605D02*
X51535638Y-83177605D01*
X50964210Y-83463319D02*
X51297543Y-82463319D01*
X51630876Y-83463319D01*
X51821352Y-82463319D02*
X52154686Y-83463319D01*
X52488019Y-82463319D01*
X53583257Y-83463319D02*
X53583257Y-82463319D01*
X54059448Y-83463319D02*
X54059448Y-82463319D01*
X54630876Y-83463319D01*
X54630876Y-82463319D01*
X89037638Y-82857455D02*
X88990019Y-82905074D01*
X88847162Y-82952693D01*
X88751924Y-82952693D01*
X88609066Y-82905074D01*
X88513828Y-82809836D01*
X88466209Y-82714598D01*
X88418590Y-82524122D01*
X88418590Y-82381265D01*
X88466209Y-82190789D01*
X88513828Y-82095551D01*
X88609066Y-82000313D01*
X88751924Y-81952693D01*
X88847162Y-81952693D01*
X88990019Y-82000313D01*
X89037638Y-82047932D01*
X89418590Y-82047932D02*
X89466209Y-82000313D01*
X89561447Y-81952693D01*
X89799543Y-81952693D01*
X89894781Y-82000313D01*
X89942400Y-82047932D01*
X89990019Y-82143170D01*
X89990019Y-82238408D01*
X89942400Y-82381265D01*
X89370971Y-82952693D01*
X89990019Y-82952693D01*
X85558333Y-91162142D02*
X85510714Y-91209761D01*
X85367857Y-91257380D01*
X85272619Y-91257380D01*
X85129761Y-91209761D01*
X85034523Y-91114523D01*
X84986904Y-91019285D01*
X84939285Y-90828809D01*
X84939285Y-90685952D01*
X84986904Y-90495476D01*
X85034523Y-90400238D01*
X85129761Y-90305000D01*
X85272619Y-90257380D01*
X85367857Y-90257380D01*
X85510714Y-90305000D01*
X85558333Y-90352619D01*
X86510714Y-91257380D02*
X85939285Y-91257380D01*
X86225000Y-91257380D02*
X86225000Y-90257380D01*
X86129761Y-90400238D01*
X86034523Y-90495476D01*
X85939285Y-90543095D01*
D16*
X105496439Y-95583906D02*
X106211953Y-95583906D01*
X106355056Y-95631607D01*
X106450458Y-95727009D01*
X106498159Y-95870112D01*
X106498159Y-95965514D01*
X105591840Y-95154598D02*
X105544140Y-95106897D01*
X105496439Y-95011495D01*
X105496439Y-94772990D01*
X105544140Y-94677588D01*
X105591840Y-94629887D01*
X105687242Y-94582186D01*
X105782644Y-94582186D01*
X105925747Y-94629887D01*
X106498159Y-95202299D01*
X106498159Y-94582186D01*
D15*
X94177449Y-103558352D02*
X95179059Y-103224482D01*
X94177449Y-102890612D01*
X95179059Y-102556742D02*
X94177449Y-102556742D01*
X95179059Y-102079785D02*
X94177449Y-102079785D01*
X94177449Y-101841307D01*
X94225145Y-101698220D01*
X94320536Y-101602828D01*
X94415927Y-101555132D01*
X94606710Y-101507437D01*
X94749797Y-101507437D01*
X94940580Y-101555132D01*
X95035972Y-101602828D01*
X95131363Y-101698220D01*
X95179059Y-101841307D01*
X95179059Y-102079785D01*
X94654406Y-101078175D02*
X94654406Y-100744305D01*
X95179059Y-100601218D02*
X95179059Y-101078175D01*
X94177449Y-101078175D01*
X94177449Y-100601218D01*
X94177449Y-99981174D02*
X94177449Y-99790391D01*
X94225145Y-99695000D01*
X94320536Y-99599608D01*
X94511319Y-99551912D01*
X94845189Y-99551912D01*
X95035972Y-99599608D01*
X95131363Y-99695000D01*
X95179059Y-99790391D01*
X95179059Y-99981174D01*
X95131363Y-100076565D01*
X95035972Y-100171957D01*
X94845189Y-100219652D01*
X94511319Y-100219652D01*
X94320536Y-100171957D01*
X94225145Y-100076565D01*
X94177449Y-99981174D01*
X94177449Y-98168737D02*
X94177449Y-97977954D01*
X94225145Y-97882562D01*
X94320536Y-97787171D01*
X94511319Y-97739475D01*
X94845189Y-97739475D01*
X95035972Y-97787171D01*
X95131363Y-97882562D01*
X95179059Y-97977954D01*
X95179059Y-98168737D01*
X95131363Y-98264128D01*
X95035972Y-98359520D01*
X94845189Y-98407215D01*
X94511319Y-98407215D01*
X94320536Y-98359520D01*
X94225145Y-98264128D01*
X94177449Y-98168737D01*
X94177449Y-97310214D02*
X94988276Y-97310214D01*
X95083667Y-97262518D01*
X95131363Y-97214822D01*
X95179059Y-97119431D01*
X95179059Y-96928648D01*
X95131363Y-96833257D01*
X95083667Y-96785561D01*
X94988276Y-96737865D01*
X94177449Y-96737865D01*
X94177449Y-96403995D02*
X94177449Y-95831647D01*
X95179059Y-96117821D02*
X94177449Y-96117821D01*
X64174761Y-86812380D02*
X63841428Y-86336190D01*
X63603333Y-86812380D02*
X63603333Y-85812380D01*
X63984285Y-85812380D01*
X64079523Y-85860000D01*
X64127142Y-85907619D01*
X64174761Y-86002857D01*
X64174761Y-86145714D01*
X64127142Y-86240952D01*
X64079523Y-86288571D01*
X63984285Y-86336190D01*
X63603333Y-86336190D01*
X64460476Y-85812380D02*
X64793809Y-86812380D01*
X65127142Y-85812380D01*
X65984285Y-86812380D02*
X65412857Y-86812380D01*
X65698571Y-86812380D02*
X65698571Y-85812380D01*
X65603333Y-85955238D01*
X65508095Y-86050476D01*
X65412857Y-86098095D01*
X64174761Y-98242380D02*
X63841428Y-97766190D01*
X63603333Y-98242380D02*
X63603333Y-97242380D01*
X63984285Y-97242380D01*
X64079523Y-97290000D01*
X64127142Y-97337619D01*
X64174761Y-97432857D01*
X64174761Y-97575714D01*
X64127142Y-97670952D01*
X64079523Y-97718571D01*
X63984285Y-97766190D01*
X63603333Y-97766190D01*
X64460476Y-97242380D02*
X64793809Y-98242380D01*
X65127142Y-97242380D01*
X65412857Y-97337619D02*
X65460476Y-97290000D01*
X65555714Y-97242380D01*
X65793809Y-97242380D01*
X65889047Y-97290000D01*
X65936666Y-97337619D01*
X65984285Y-97432857D01*
X65984285Y-97528095D01*
X65936666Y-97670952D01*
X65365238Y-98242380D01*
X65984285Y-98242380D01*
X64174761Y-109672380D02*
X63841428Y-109196190D01*
X63603333Y-109672380D02*
X63603333Y-108672380D01*
X63984285Y-108672380D01*
X64079523Y-108720000D01*
X64127142Y-108767619D01*
X64174761Y-108862857D01*
X64174761Y-109005714D01*
X64127142Y-109100952D01*
X64079523Y-109148571D01*
X63984285Y-109196190D01*
X63603333Y-109196190D01*
X64460476Y-108672380D02*
X64793809Y-109672380D01*
X65127142Y-108672380D01*
X65365238Y-108672380D02*
X65984285Y-108672380D01*
X65650952Y-109053333D01*
X65793809Y-109053333D01*
X65889047Y-109100952D01*
X65936666Y-109148571D01*
X65984285Y-109243809D01*
X65984285Y-109481904D01*
X65936666Y-109577142D01*
X65889047Y-109624761D01*
X65793809Y-109672380D01*
X65508095Y-109672380D01*
X65412857Y-109624761D01*
X65365238Y-109577142D01*
X77978095Y-79970380D02*
X77978095Y-80779904D01*
X78025714Y-80875142D01*
X78073333Y-80922761D01*
X78168571Y-80970380D01*
X78359047Y-80970380D01*
X78454285Y-80922761D01*
X78501904Y-80875142D01*
X78549523Y-80779904D01*
X78549523Y-79970380D01*
X79549523Y-80970380D02*
X78978095Y-80970380D01*
X79263809Y-80970380D02*
X79263809Y-79970380D01*
X79168571Y-80113238D01*
X79073333Y-80208476D01*
X78978095Y-80256095D01*
X75590525Y-76540029D02*
X76161954Y-76540029D01*
X75876240Y-77540029D02*
X75876240Y-76540029D01*
X76495287Y-77540029D02*
X76495287Y-76540029D01*
X76495287Y-77016220D02*
X77066716Y-77016220D01*
X77066716Y-77540029D02*
X77066716Y-76540029D01*
X77495287Y-77492410D02*
X77638144Y-77540029D01*
X77876240Y-77540029D01*
X77971478Y-77492410D01*
X78019097Y-77444791D01*
X78066716Y-77349553D01*
X78066716Y-77254315D01*
X78019097Y-77159077D01*
X77971478Y-77111458D01*
X77876240Y-77063839D01*
X77685763Y-77016220D01*
X77590525Y-76968601D01*
X77542906Y-76920982D01*
X77495287Y-76825744D01*
X77495287Y-76730506D01*
X77542906Y-76635268D01*
X77590525Y-76587649D01*
X77685763Y-76540029D01*
X77923859Y-76540029D01*
X78066716Y-76587649D01*
X78400049Y-76540029D02*
X79066716Y-76540029D01*
X78638144Y-77540029D01*
X79352430Y-76540029D02*
X79971478Y-76540029D01*
X79638144Y-76920982D01*
X79781002Y-76920982D01*
X79876240Y-76968601D01*
X79923859Y-77016220D01*
X79971478Y-77111458D01*
X79971478Y-77349553D01*
X79923859Y-77444791D01*
X79876240Y-77492410D01*
X79781002Y-77540029D01*
X79495287Y-77540029D01*
X79400049Y-77492410D01*
X79352430Y-77444791D01*
X80304811Y-76540029D02*
X80971478Y-76540029D01*
X80542906Y-77540029D01*
X81781002Y-76873363D02*
X81781002Y-77540029D01*
X81542906Y-76492410D02*
X81304811Y-77206696D01*
X81923859Y-77206696D01*
X80541904Y-91257380D02*
X80541904Y-90257380D01*
X80780000Y-90257380D01*
X80922857Y-90305000D01*
X81018095Y-90400238D01*
X81065714Y-90495476D01*
X81113333Y-90685952D01*
X81113333Y-90828809D01*
X81065714Y-91019285D01*
X81018095Y-91114523D01*
X80922857Y-91209761D01*
X80780000Y-91257380D01*
X80541904Y-91257380D01*
X82065714Y-91257380D02*
X81494285Y-91257380D01*
X81780000Y-91257380D02*
X81780000Y-90257380D01*
X81684761Y-90400238D01*
X81589523Y-90495476D01*
X81494285Y-90543095D01*
X81113333Y-87447380D02*
X80780000Y-86971190D01*
X80541904Y-87447380D02*
X80541904Y-86447380D01*
X80922857Y-86447380D01*
X81018095Y-86495000D01*
X81065714Y-86542619D01*
X81113333Y-86637857D01*
X81113333Y-86780714D01*
X81065714Y-86875952D01*
X81018095Y-86923571D01*
X80922857Y-86971190D01*
X80541904Y-86971190D01*
X81446666Y-86447380D02*
X82065714Y-86447380D01*
X81732380Y-86828333D01*
X81875238Y-86828333D01*
X81970476Y-86875952D01*
X82018095Y-86923571D01*
X82065714Y-87018809D01*
X82065714Y-87256904D01*
X82018095Y-87352142D01*
X81970476Y-87399761D01*
X81875238Y-87447380D01*
X81589523Y-87447380D01*
X81494285Y-87399761D01*
X81446666Y-87352142D01*
X70524761Y-76557142D02*
X70477142Y-76604761D01*
X70334285Y-76652380D01*
X70239047Y-76652380D01*
X70096190Y-76604761D01*
X70000952Y-76509523D01*
X69953333Y-76414285D01*
X69905714Y-76223809D01*
X69905714Y-76080952D01*
X69953333Y-75890476D01*
X70000952Y-75795238D01*
X70096190Y-75700000D01*
X70239047Y-75652380D01*
X70334285Y-75652380D01*
X70477142Y-75700000D01*
X70524761Y-75747619D01*
X70905714Y-76366666D02*
X71381904Y-76366666D01*
X70810476Y-76652380D02*
X71143809Y-75652380D01*
X71477142Y-76652380D01*
X72334285Y-76652380D02*
X71762857Y-76652380D01*
X72048571Y-76652380D02*
X72048571Y-75652380D01*
X71953333Y-75795238D01*
X71858095Y-75890476D01*
X71762857Y-75938095D01*
X85764761Y-76652380D02*
X85431428Y-76176190D01*
X85193333Y-76652380D02*
X85193333Y-75652380D01*
X85574285Y-75652380D01*
X85669523Y-75700000D01*
X85717142Y-75747619D01*
X85764761Y-75842857D01*
X85764761Y-75985714D01*
X85717142Y-76080952D01*
X85669523Y-76128571D01*
X85574285Y-76176190D01*
X85193333Y-76176190D01*
X86145714Y-76366666D02*
X86621904Y-76366666D01*
X86050476Y-76652380D02*
X86383809Y-75652380D01*
X86717142Y-76652380D01*
X87574285Y-76652380D02*
X87002857Y-76652380D01*
X87288571Y-76652380D02*
X87288571Y-75652380D01*
X87193333Y-75795238D01*
X87098095Y-75890476D01*
X87002857Y-75938095D01*
D17*
X80092381Y-100269523D02*
X80818096Y-100269523D01*
X80455239Y-101539523D02*
X80455239Y-100269523D01*
X81906667Y-101539523D02*
X81180953Y-101539523D01*
X81543810Y-101539523D02*
X81543810Y-100269523D01*
X81422858Y-100450952D01*
X81301905Y-100571904D01*
X81180953Y-100632380D01*
X76917381Y-103444523D02*
X77643096Y-103444523D01*
X77280239Y-104714523D02*
X77280239Y-103444523D01*
X78308334Y-104109761D02*
X78308334Y-104714523D01*
X77885001Y-103444523D02*
X78308334Y-104109761D01*
X78731667Y-103444523D01*
X79155001Y-104230714D02*
X80122620Y-104230714D01*
X80666905Y-103565476D02*
X80727381Y-103505000D01*
X80848334Y-103444523D01*
X81150715Y-103444523D01*
X81271667Y-103505000D01*
X81332143Y-103565476D01*
X81392620Y-103686428D01*
X81392620Y-103807380D01*
X81332143Y-103988809D01*
X80606429Y-104714523D01*
X81392620Y-104714523D01*
X82541667Y-103444523D02*
X81936905Y-103444523D01*
X81876429Y-104049285D01*
X81936905Y-103988809D01*
X82057858Y-103928333D01*
X82360239Y-103928333D01*
X82481191Y-103988809D01*
X82541667Y-104049285D01*
X82602143Y-104170238D01*
X82602143Y-104472619D01*
X82541667Y-104593571D01*
X82481191Y-104654047D01*
X82360239Y-104714523D01*
X82057858Y-104714523D01*
X81936905Y-104654047D01*
X81876429Y-104593571D01*
X83388334Y-103444523D02*
X83509286Y-103444523D01*
X83630239Y-103505000D01*
X83690715Y-103565476D01*
X83751191Y-103686428D01*
X83811667Y-103928333D01*
X83811667Y-104230714D01*
X83751191Y-104472619D01*
X83690715Y-104593571D01*
X83630239Y-104654047D01*
X83509286Y-104714523D01*
X83388334Y-104714523D01*
X83267381Y-104654047D01*
X83206905Y-104593571D01*
X83146429Y-104472619D01*
X83085953Y-104230714D01*
X83085953Y-103928333D01*
X83146429Y-103686428D01*
X83206905Y-103565476D01*
X83267381Y-103505000D01*
X83388334Y-103444523D01*
X84355953Y-104714523D02*
X84355953Y-103444523D01*
X84839762Y-103444523D01*
X84960715Y-103505000D01*
X85021191Y-103565476D01*
X85081667Y-103686428D01*
X85081667Y-103867857D01*
X85021191Y-103988809D01*
X84960715Y-104049285D01*
X84839762Y-104109761D01*
X84355953Y-104109761D01*
M02*
