G04 #@! TF.GenerationSoftware,KiCad,Pcbnew,(5.1.2)-2*
G04 #@! TF.CreationDate,2019-09-22T14:46:25+02:00*
G04 #@! TF.ProjectId,betsubetsu,62657473-7562-4657-9473-752e6b696361,rev?*
G04 #@! TF.SameCoordinates,Original*
G04 #@! TF.FileFunction,Copper,L1,Top*
G04 #@! TF.FilePolarity,Positive*
%FSLAX46Y46*%
G04 Gerber Fmt 4.6, Leading zero omitted, Abs format (unit mm)*
G04 Created by KiCad (PCBNEW (5.1.2)-2) date 2019-09-22 14:46:25*
%MOMM*%
%LPD*%
G04 APERTURE LIST*
%ADD10O,1.800000X2.800000*%
%ADD11C,0.100000*%
%ADD12C,1.150000*%
%ADD13C,2.200000*%
%ADD14R,2.200000X2.200000*%
%ADD15C,1.600000*%
%ADD16R,1.600000X1.600000*%
%ADD17R,1.408000X1.408000*%
%ADD18C,1.408000*%
%ADD19O,3.000000X1.500000*%
%ADD20O,1.500000X3.000000*%
%ADD21C,1.440000*%
%ADD22R,1.450000X0.450000*%
%ADD23R,0.800000X0.500000*%
%ADD24R,0.800000X0.400000*%
%ADD25C,1.665000*%
%ADD26C,0.800000*%
%ADD27C,0.250000*%
%ADD28C,0.500000*%
%ADD29C,0.254000*%
G04 APERTURE END LIST*
D10*
X99542000Y-88360000D03*
X105042000Y-88360000D03*
X107442000Y-86360000D03*
D11*
G36*
X77574505Y-88201204D02*
G01*
X77598773Y-88204804D01*
X77622572Y-88210765D01*
X77645671Y-88219030D01*
X77667850Y-88229520D01*
X77688893Y-88242132D01*
X77708599Y-88256747D01*
X77726777Y-88273223D01*
X77743253Y-88291401D01*
X77757868Y-88311107D01*
X77770480Y-88332150D01*
X77780970Y-88354329D01*
X77789235Y-88377428D01*
X77795196Y-88401227D01*
X77798796Y-88425495D01*
X77800000Y-88449999D01*
X77800000Y-89350001D01*
X77798796Y-89374505D01*
X77795196Y-89398773D01*
X77789235Y-89422572D01*
X77780970Y-89445671D01*
X77770480Y-89467850D01*
X77757868Y-89488893D01*
X77743253Y-89508599D01*
X77726777Y-89526777D01*
X77708599Y-89543253D01*
X77688893Y-89557868D01*
X77667850Y-89570480D01*
X77645671Y-89580970D01*
X77622572Y-89589235D01*
X77598773Y-89595196D01*
X77574505Y-89598796D01*
X77550001Y-89600000D01*
X76899999Y-89600000D01*
X76875495Y-89598796D01*
X76851227Y-89595196D01*
X76827428Y-89589235D01*
X76804329Y-89580970D01*
X76782150Y-89570480D01*
X76761107Y-89557868D01*
X76741401Y-89543253D01*
X76723223Y-89526777D01*
X76706747Y-89508599D01*
X76692132Y-89488893D01*
X76679520Y-89467850D01*
X76669030Y-89445671D01*
X76660765Y-89422572D01*
X76654804Y-89398773D01*
X76651204Y-89374505D01*
X76650000Y-89350001D01*
X76650000Y-88449999D01*
X76651204Y-88425495D01*
X76654804Y-88401227D01*
X76660765Y-88377428D01*
X76669030Y-88354329D01*
X76679520Y-88332150D01*
X76692132Y-88311107D01*
X76706747Y-88291401D01*
X76723223Y-88273223D01*
X76741401Y-88256747D01*
X76761107Y-88242132D01*
X76782150Y-88229520D01*
X76804329Y-88219030D01*
X76827428Y-88210765D01*
X76851227Y-88204804D01*
X76875495Y-88201204D01*
X76899999Y-88200000D01*
X77550001Y-88200000D01*
X77574505Y-88201204D01*
X77574505Y-88201204D01*
G37*
D12*
X77225000Y-88900000D03*
D11*
G36*
X75524505Y-88201204D02*
G01*
X75548773Y-88204804D01*
X75572572Y-88210765D01*
X75595671Y-88219030D01*
X75617850Y-88229520D01*
X75638893Y-88242132D01*
X75658599Y-88256747D01*
X75676777Y-88273223D01*
X75693253Y-88291401D01*
X75707868Y-88311107D01*
X75720480Y-88332150D01*
X75730970Y-88354329D01*
X75739235Y-88377428D01*
X75745196Y-88401227D01*
X75748796Y-88425495D01*
X75750000Y-88449999D01*
X75750000Y-89350001D01*
X75748796Y-89374505D01*
X75745196Y-89398773D01*
X75739235Y-89422572D01*
X75730970Y-89445671D01*
X75720480Y-89467850D01*
X75707868Y-89488893D01*
X75693253Y-89508599D01*
X75676777Y-89526777D01*
X75658599Y-89543253D01*
X75638893Y-89557868D01*
X75617850Y-89570480D01*
X75595671Y-89580970D01*
X75572572Y-89589235D01*
X75548773Y-89595196D01*
X75524505Y-89598796D01*
X75500001Y-89600000D01*
X74849999Y-89600000D01*
X74825495Y-89598796D01*
X74801227Y-89595196D01*
X74777428Y-89589235D01*
X74754329Y-89580970D01*
X74732150Y-89570480D01*
X74711107Y-89557868D01*
X74691401Y-89543253D01*
X74673223Y-89526777D01*
X74656747Y-89508599D01*
X74642132Y-89488893D01*
X74629520Y-89467850D01*
X74619030Y-89445671D01*
X74610765Y-89422572D01*
X74604804Y-89398773D01*
X74601204Y-89374505D01*
X74600000Y-89350001D01*
X74600000Y-88449999D01*
X74601204Y-88425495D01*
X74604804Y-88401227D01*
X74610765Y-88377428D01*
X74619030Y-88354329D01*
X74629520Y-88332150D01*
X74642132Y-88311107D01*
X74656747Y-88291401D01*
X74673223Y-88273223D01*
X74691401Y-88256747D01*
X74711107Y-88242132D01*
X74732150Y-88229520D01*
X74754329Y-88219030D01*
X74777428Y-88210765D01*
X74801227Y-88204804D01*
X74825495Y-88201204D01*
X74849999Y-88200000D01*
X75500001Y-88200000D01*
X75524505Y-88201204D01*
X75524505Y-88201204D01*
G37*
D12*
X75175000Y-88900000D03*
D11*
G36*
X72494505Y-84391204D02*
G01*
X72518773Y-84394804D01*
X72542572Y-84400765D01*
X72565671Y-84409030D01*
X72587850Y-84419520D01*
X72608893Y-84432132D01*
X72628599Y-84446747D01*
X72646777Y-84463223D01*
X72663253Y-84481401D01*
X72677868Y-84501107D01*
X72690480Y-84522150D01*
X72700970Y-84544329D01*
X72709235Y-84567428D01*
X72715196Y-84591227D01*
X72718796Y-84615495D01*
X72720000Y-84639999D01*
X72720000Y-85540001D01*
X72718796Y-85564505D01*
X72715196Y-85588773D01*
X72709235Y-85612572D01*
X72700970Y-85635671D01*
X72690480Y-85657850D01*
X72677868Y-85678893D01*
X72663253Y-85698599D01*
X72646777Y-85716777D01*
X72628599Y-85733253D01*
X72608893Y-85747868D01*
X72587850Y-85760480D01*
X72565671Y-85770970D01*
X72542572Y-85779235D01*
X72518773Y-85785196D01*
X72494505Y-85788796D01*
X72470001Y-85790000D01*
X71819999Y-85790000D01*
X71795495Y-85788796D01*
X71771227Y-85785196D01*
X71747428Y-85779235D01*
X71724329Y-85770970D01*
X71702150Y-85760480D01*
X71681107Y-85747868D01*
X71661401Y-85733253D01*
X71643223Y-85716777D01*
X71626747Y-85698599D01*
X71612132Y-85678893D01*
X71599520Y-85657850D01*
X71589030Y-85635671D01*
X71580765Y-85612572D01*
X71574804Y-85588773D01*
X71571204Y-85564505D01*
X71570000Y-85540001D01*
X71570000Y-84639999D01*
X71571204Y-84615495D01*
X71574804Y-84591227D01*
X71580765Y-84567428D01*
X71589030Y-84544329D01*
X71599520Y-84522150D01*
X71612132Y-84501107D01*
X71626747Y-84481401D01*
X71643223Y-84463223D01*
X71661401Y-84446747D01*
X71681107Y-84432132D01*
X71702150Y-84419520D01*
X71724329Y-84409030D01*
X71747428Y-84400765D01*
X71771227Y-84394804D01*
X71795495Y-84391204D01*
X71819999Y-84390000D01*
X72470001Y-84390000D01*
X72494505Y-84391204D01*
X72494505Y-84391204D01*
G37*
D12*
X72145000Y-85090000D03*
D11*
G36*
X70444505Y-84391204D02*
G01*
X70468773Y-84394804D01*
X70492572Y-84400765D01*
X70515671Y-84409030D01*
X70537850Y-84419520D01*
X70558893Y-84432132D01*
X70578599Y-84446747D01*
X70596777Y-84463223D01*
X70613253Y-84481401D01*
X70627868Y-84501107D01*
X70640480Y-84522150D01*
X70650970Y-84544329D01*
X70659235Y-84567428D01*
X70665196Y-84591227D01*
X70668796Y-84615495D01*
X70670000Y-84639999D01*
X70670000Y-85540001D01*
X70668796Y-85564505D01*
X70665196Y-85588773D01*
X70659235Y-85612572D01*
X70650970Y-85635671D01*
X70640480Y-85657850D01*
X70627868Y-85678893D01*
X70613253Y-85698599D01*
X70596777Y-85716777D01*
X70578599Y-85733253D01*
X70558893Y-85747868D01*
X70537850Y-85760480D01*
X70515671Y-85770970D01*
X70492572Y-85779235D01*
X70468773Y-85785196D01*
X70444505Y-85788796D01*
X70420001Y-85790000D01*
X69769999Y-85790000D01*
X69745495Y-85788796D01*
X69721227Y-85785196D01*
X69697428Y-85779235D01*
X69674329Y-85770970D01*
X69652150Y-85760480D01*
X69631107Y-85747868D01*
X69611401Y-85733253D01*
X69593223Y-85716777D01*
X69576747Y-85698599D01*
X69562132Y-85678893D01*
X69549520Y-85657850D01*
X69539030Y-85635671D01*
X69530765Y-85612572D01*
X69524804Y-85588773D01*
X69521204Y-85564505D01*
X69520000Y-85540001D01*
X69520000Y-84639999D01*
X69521204Y-84615495D01*
X69524804Y-84591227D01*
X69530765Y-84567428D01*
X69539030Y-84544329D01*
X69549520Y-84522150D01*
X69562132Y-84501107D01*
X69576747Y-84481401D01*
X69593223Y-84463223D01*
X69611401Y-84446747D01*
X69631107Y-84432132D01*
X69652150Y-84419520D01*
X69674329Y-84409030D01*
X69697428Y-84400765D01*
X69721227Y-84394804D01*
X69745495Y-84391204D01*
X69769999Y-84390000D01*
X70420001Y-84390000D01*
X70444505Y-84391204D01*
X70444505Y-84391204D01*
G37*
D12*
X70095000Y-85090000D03*
D11*
G36*
X70444505Y-88201204D02*
G01*
X70468773Y-88204804D01*
X70492572Y-88210765D01*
X70515671Y-88219030D01*
X70537850Y-88229520D01*
X70558893Y-88242132D01*
X70578599Y-88256747D01*
X70596777Y-88273223D01*
X70613253Y-88291401D01*
X70627868Y-88311107D01*
X70640480Y-88332150D01*
X70650970Y-88354329D01*
X70659235Y-88377428D01*
X70665196Y-88401227D01*
X70668796Y-88425495D01*
X70670000Y-88449999D01*
X70670000Y-89350001D01*
X70668796Y-89374505D01*
X70665196Y-89398773D01*
X70659235Y-89422572D01*
X70650970Y-89445671D01*
X70640480Y-89467850D01*
X70627868Y-89488893D01*
X70613253Y-89508599D01*
X70596777Y-89526777D01*
X70578599Y-89543253D01*
X70558893Y-89557868D01*
X70537850Y-89570480D01*
X70515671Y-89580970D01*
X70492572Y-89589235D01*
X70468773Y-89595196D01*
X70444505Y-89598796D01*
X70420001Y-89600000D01*
X69769999Y-89600000D01*
X69745495Y-89598796D01*
X69721227Y-89595196D01*
X69697428Y-89589235D01*
X69674329Y-89580970D01*
X69652150Y-89570480D01*
X69631107Y-89557868D01*
X69611401Y-89543253D01*
X69593223Y-89526777D01*
X69576747Y-89508599D01*
X69562132Y-89488893D01*
X69549520Y-89467850D01*
X69539030Y-89445671D01*
X69530765Y-89422572D01*
X69524804Y-89398773D01*
X69521204Y-89374505D01*
X69520000Y-89350001D01*
X69520000Y-88449999D01*
X69521204Y-88425495D01*
X69524804Y-88401227D01*
X69530765Y-88377428D01*
X69539030Y-88354329D01*
X69549520Y-88332150D01*
X69562132Y-88311107D01*
X69576747Y-88291401D01*
X69593223Y-88273223D01*
X69611401Y-88256747D01*
X69631107Y-88242132D01*
X69652150Y-88229520D01*
X69674329Y-88219030D01*
X69697428Y-88210765D01*
X69721227Y-88204804D01*
X69745495Y-88201204D01*
X69769999Y-88200000D01*
X70420001Y-88200000D01*
X70444505Y-88201204D01*
X70444505Y-88201204D01*
G37*
D12*
X70095000Y-88900000D03*
D11*
G36*
X72494505Y-88201204D02*
G01*
X72518773Y-88204804D01*
X72542572Y-88210765D01*
X72565671Y-88219030D01*
X72587850Y-88229520D01*
X72608893Y-88242132D01*
X72628599Y-88256747D01*
X72646777Y-88273223D01*
X72663253Y-88291401D01*
X72677868Y-88311107D01*
X72690480Y-88332150D01*
X72700970Y-88354329D01*
X72709235Y-88377428D01*
X72715196Y-88401227D01*
X72718796Y-88425495D01*
X72720000Y-88449999D01*
X72720000Y-89350001D01*
X72718796Y-89374505D01*
X72715196Y-89398773D01*
X72709235Y-89422572D01*
X72700970Y-89445671D01*
X72690480Y-89467850D01*
X72677868Y-89488893D01*
X72663253Y-89508599D01*
X72646777Y-89526777D01*
X72628599Y-89543253D01*
X72608893Y-89557868D01*
X72587850Y-89570480D01*
X72565671Y-89580970D01*
X72542572Y-89589235D01*
X72518773Y-89595196D01*
X72494505Y-89598796D01*
X72470001Y-89600000D01*
X71819999Y-89600000D01*
X71795495Y-89598796D01*
X71771227Y-89595196D01*
X71747428Y-89589235D01*
X71724329Y-89580970D01*
X71702150Y-89570480D01*
X71681107Y-89557868D01*
X71661401Y-89543253D01*
X71643223Y-89526777D01*
X71626747Y-89508599D01*
X71612132Y-89488893D01*
X71599520Y-89467850D01*
X71589030Y-89445671D01*
X71580765Y-89422572D01*
X71574804Y-89398773D01*
X71571204Y-89374505D01*
X71570000Y-89350001D01*
X71570000Y-88449999D01*
X71571204Y-88425495D01*
X71574804Y-88401227D01*
X71580765Y-88377428D01*
X71589030Y-88354329D01*
X71599520Y-88332150D01*
X71612132Y-88311107D01*
X71626747Y-88291401D01*
X71643223Y-88273223D01*
X71661401Y-88256747D01*
X71681107Y-88242132D01*
X71702150Y-88229520D01*
X71724329Y-88219030D01*
X71747428Y-88210765D01*
X71771227Y-88204804D01*
X71795495Y-88201204D01*
X71819999Y-88200000D01*
X72470001Y-88200000D01*
X72494505Y-88201204D01*
X72494505Y-88201204D01*
G37*
D12*
X72145000Y-88900000D03*
D11*
G36*
X77574505Y-84391204D02*
G01*
X77598773Y-84394804D01*
X77622572Y-84400765D01*
X77645671Y-84409030D01*
X77667850Y-84419520D01*
X77688893Y-84432132D01*
X77708599Y-84446747D01*
X77726777Y-84463223D01*
X77743253Y-84481401D01*
X77757868Y-84501107D01*
X77770480Y-84522150D01*
X77780970Y-84544329D01*
X77789235Y-84567428D01*
X77795196Y-84591227D01*
X77798796Y-84615495D01*
X77800000Y-84639999D01*
X77800000Y-85540001D01*
X77798796Y-85564505D01*
X77795196Y-85588773D01*
X77789235Y-85612572D01*
X77780970Y-85635671D01*
X77770480Y-85657850D01*
X77757868Y-85678893D01*
X77743253Y-85698599D01*
X77726777Y-85716777D01*
X77708599Y-85733253D01*
X77688893Y-85747868D01*
X77667850Y-85760480D01*
X77645671Y-85770970D01*
X77622572Y-85779235D01*
X77598773Y-85785196D01*
X77574505Y-85788796D01*
X77550001Y-85790000D01*
X76899999Y-85790000D01*
X76875495Y-85788796D01*
X76851227Y-85785196D01*
X76827428Y-85779235D01*
X76804329Y-85770970D01*
X76782150Y-85760480D01*
X76761107Y-85747868D01*
X76741401Y-85733253D01*
X76723223Y-85716777D01*
X76706747Y-85698599D01*
X76692132Y-85678893D01*
X76679520Y-85657850D01*
X76669030Y-85635671D01*
X76660765Y-85612572D01*
X76654804Y-85588773D01*
X76651204Y-85564505D01*
X76650000Y-85540001D01*
X76650000Y-84639999D01*
X76651204Y-84615495D01*
X76654804Y-84591227D01*
X76660765Y-84567428D01*
X76669030Y-84544329D01*
X76679520Y-84522150D01*
X76692132Y-84501107D01*
X76706747Y-84481401D01*
X76723223Y-84463223D01*
X76741401Y-84446747D01*
X76761107Y-84432132D01*
X76782150Y-84419520D01*
X76804329Y-84409030D01*
X76827428Y-84400765D01*
X76851227Y-84394804D01*
X76875495Y-84391204D01*
X76899999Y-84390000D01*
X77550001Y-84390000D01*
X77574505Y-84391204D01*
X77574505Y-84391204D01*
G37*
D12*
X77225000Y-85090000D03*
D11*
G36*
X75524505Y-84391204D02*
G01*
X75548773Y-84394804D01*
X75572572Y-84400765D01*
X75595671Y-84409030D01*
X75617850Y-84419520D01*
X75638893Y-84432132D01*
X75658599Y-84446747D01*
X75676777Y-84463223D01*
X75693253Y-84481401D01*
X75707868Y-84501107D01*
X75720480Y-84522150D01*
X75730970Y-84544329D01*
X75739235Y-84567428D01*
X75745196Y-84591227D01*
X75748796Y-84615495D01*
X75750000Y-84639999D01*
X75750000Y-85540001D01*
X75748796Y-85564505D01*
X75745196Y-85588773D01*
X75739235Y-85612572D01*
X75730970Y-85635671D01*
X75720480Y-85657850D01*
X75707868Y-85678893D01*
X75693253Y-85698599D01*
X75676777Y-85716777D01*
X75658599Y-85733253D01*
X75638893Y-85747868D01*
X75617850Y-85760480D01*
X75595671Y-85770970D01*
X75572572Y-85779235D01*
X75548773Y-85785196D01*
X75524505Y-85788796D01*
X75500001Y-85790000D01*
X74849999Y-85790000D01*
X74825495Y-85788796D01*
X74801227Y-85785196D01*
X74777428Y-85779235D01*
X74754329Y-85770970D01*
X74732150Y-85760480D01*
X74711107Y-85747868D01*
X74691401Y-85733253D01*
X74673223Y-85716777D01*
X74656747Y-85698599D01*
X74642132Y-85678893D01*
X74629520Y-85657850D01*
X74619030Y-85635671D01*
X74610765Y-85612572D01*
X74604804Y-85588773D01*
X74601204Y-85564505D01*
X74600000Y-85540001D01*
X74600000Y-84639999D01*
X74601204Y-84615495D01*
X74604804Y-84591227D01*
X74610765Y-84567428D01*
X74619030Y-84544329D01*
X74629520Y-84522150D01*
X74642132Y-84501107D01*
X74656747Y-84481401D01*
X74673223Y-84463223D01*
X74691401Y-84446747D01*
X74711107Y-84432132D01*
X74732150Y-84419520D01*
X74754329Y-84409030D01*
X74777428Y-84400765D01*
X74801227Y-84394804D01*
X74825495Y-84391204D01*
X74849999Y-84390000D01*
X75500001Y-84390000D01*
X75524505Y-84391204D01*
X75524505Y-84391204D01*
G37*
D12*
X75175000Y-85090000D03*
D13*
X52714359Y-103457167D03*
X52714359Y-100917167D03*
X52714359Y-98377167D03*
X52714359Y-95837167D03*
X52714359Y-93297167D03*
X52714359Y-90757167D03*
X52714359Y-88217167D03*
D14*
X52714359Y-85677167D03*
D11*
G36*
X85684505Y-81851204D02*
G01*
X85708773Y-81854804D01*
X85732572Y-81860765D01*
X85755671Y-81869030D01*
X85777850Y-81879520D01*
X85798893Y-81892132D01*
X85818599Y-81906747D01*
X85836777Y-81923223D01*
X85853253Y-81941401D01*
X85867868Y-81961107D01*
X85880480Y-81982150D01*
X85890970Y-82004329D01*
X85899235Y-82027428D01*
X85905196Y-82051227D01*
X85908796Y-82075495D01*
X85910000Y-82099999D01*
X85910000Y-83000001D01*
X85908796Y-83024505D01*
X85905196Y-83048773D01*
X85899235Y-83072572D01*
X85890970Y-83095671D01*
X85880480Y-83117850D01*
X85867868Y-83138893D01*
X85853253Y-83158599D01*
X85836777Y-83176777D01*
X85818599Y-83193253D01*
X85798893Y-83207868D01*
X85777850Y-83220480D01*
X85755671Y-83230970D01*
X85732572Y-83239235D01*
X85708773Y-83245196D01*
X85684505Y-83248796D01*
X85660001Y-83250000D01*
X85009999Y-83250000D01*
X84985495Y-83248796D01*
X84961227Y-83245196D01*
X84937428Y-83239235D01*
X84914329Y-83230970D01*
X84892150Y-83220480D01*
X84871107Y-83207868D01*
X84851401Y-83193253D01*
X84833223Y-83176777D01*
X84816747Y-83158599D01*
X84802132Y-83138893D01*
X84789520Y-83117850D01*
X84779030Y-83095671D01*
X84770765Y-83072572D01*
X84764804Y-83048773D01*
X84761204Y-83024505D01*
X84760000Y-83000001D01*
X84760000Y-82099999D01*
X84761204Y-82075495D01*
X84764804Y-82051227D01*
X84770765Y-82027428D01*
X84779030Y-82004329D01*
X84789520Y-81982150D01*
X84802132Y-81961107D01*
X84816747Y-81941401D01*
X84833223Y-81923223D01*
X84851401Y-81906747D01*
X84871107Y-81892132D01*
X84892150Y-81879520D01*
X84914329Y-81869030D01*
X84937428Y-81860765D01*
X84961227Y-81854804D01*
X84985495Y-81851204D01*
X85009999Y-81850000D01*
X85660001Y-81850000D01*
X85684505Y-81851204D01*
X85684505Y-81851204D01*
G37*
D12*
X85335000Y-82550000D03*
D11*
G36*
X87734505Y-81851204D02*
G01*
X87758773Y-81854804D01*
X87782572Y-81860765D01*
X87805671Y-81869030D01*
X87827850Y-81879520D01*
X87848893Y-81892132D01*
X87868599Y-81906747D01*
X87886777Y-81923223D01*
X87903253Y-81941401D01*
X87917868Y-81961107D01*
X87930480Y-81982150D01*
X87940970Y-82004329D01*
X87949235Y-82027428D01*
X87955196Y-82051227D01*
X87958796Y-82075495D01*
X87960000Y-82099999D01*
X87960000Y-83000001D01*
X87958796Y-83024505D01*
X87955196Y-83048773D01*
X87949235Y-83072572D01*
X87940970Y-83095671D01*
X87930480Y-83117850D01*
X87917868Y-83138893D01*
X87903253Y-83158599D01*
X87886777Y-83176777D01*
X87868599Y-83193253D01*
X87848893Y-83207868D01*
X87827850Y-83220480D01*
X87805671Y-83230970D01*
X87782572Y-83239235D01*
X87758773Y-83245196D01*
X87734505Y-83248796D01*
X87710001Y-83250000D01*
X87059999Y-83250000D01*
X87035495Y-83248796D01*
X87011227Y-83245196D01*
X86987428Y-83239235D01*
X86964329Y-83230970D01*
X86942150Y-83220480D01*
X86921107Y-83207868D01*
X86901401Y-83193253D01*
X86883223Y-83176777D01*
X86866747Y-83158599D01*
X86852132Y-83138893D01*
X86839520Y-83117850D01*
X86829030Y-83095671D01*
X86820765Y-83072572D01*
X86814804Y-83048773D01*
X86811204Y-83024505D01*
X86810000Y-83000001D01*
X86810000Y-82099999D01*
X86811204Y-82075495D01*
X86814804Y-82051227D01*
X86820765Y-82027428D01*
X86829030Y-82004329D01*
X86839520Y-81982150D01*
X86852132Y-81961107D01*
X86866747Y-81941401D01*
X86883223Y-81923223D01*
X86901401Y-81906747D01*
X86921107Y-81892132D01*
X86942150Y-81879520D01*
X86964329Y-81869030D01*
X86987428Y-81860765D01*
X87011227Y-81854804D01*
X87035495Y-81851204D01*
X87059999Y-81850000D01*
X87710001Y-81850000D01*
X87734505Y-81851204D01*
X87734505Y-81851204D01*
G37*
D12*
X87385000Y-82550000D03*
D15*
X90130000Y-87630000D03*
D16*
X87630000Y-87630000D03*
D17*
X100330000Y-97790000D03*
D18*
X100330000Y-100390000D03*
X100330000Y-102490000D03*
X97830000Y-97790000D03*
X100330000Y-95690000D03*
X97830000Y-102490000D03*
X97830000Y-99990000D03*
X97830000Y-95690000D03*
D19*
X103330000Y-92340000D03*
X103330000Y-105840000D03*
D20*
X104130000Y-99090000D03*
D21*
X62230000Y-80010000D03*
X64770000Y-82550000D03*
X62230000Y-85090000D03*
X62230000Y-96520000D03*
X64770000Y-93980000D03*
X62230000Y-91440000D03*
X62230000Y-102870000D03*
X64770000Y-105410000D03*
X62230000Y-107950000D03*
D22*
X81690000Y-78628922D03*
X81690000Y-79278922D03*
X81690000Y-79928922D03*
X81690000Y-80578922D03*
X81690000Y-81228922D03*
X81690000Y-81878922D03*
X81690000Y-82528922D03*
X75790000Y-82528922D03*
X75790000Y-81878922D03*
X75790000Y-81228922D03*
X75790000Y-80578922D03*
X75790000Y-79928922D03*
X75790000Y-79278922D03*
X75790000Y-78628922D03*
D11*
G36*
X82654505Y-88201204D02*
G01*
X82678773Y-88204804D01*
X82702572Y-88210765D01*
X82725671Y-88219030D01*
X82747850Y-88229520D01*
X82768893Y-88242132D01*
X82788599Y-88256747D01*
X82806777Y-88273223D01*
X82823253Y-88291401D01*
X82837868Y-88311107D01*
X82850480Y-88332150D01*
X82860970Y-88354329D01*
X82869235Y-88377428D01*
X82875196Y-88401227D01*
X82878796Y-88425495D01*
X82880000Y-88449999D01*
X82880000Y-89350001D01*
X82878796Y-89374505D01*
X82875196Y-89398773D01*
X82869235Y-89422572D01*
X82860970Y-89445671D01*
X82850480Y-89467850D01*
X82837868Y-89488893D01*
X82823253Y-89508599D01*
X82806777Y-89526777D01*
X82788599Y-89543253D01*
X82768893Y-89557868D01*
X82747850Y-89570480D01*
X82725671Y-89580970D01*
X82702572Y-89589235D01*
X82678773Y-89595196D01*
X82654505Y-89598796D01*
X82630001Y-89600000D01*
X81979999Y-89600000D01*
X81955495Y-89598796D01*
X81931227Y-89595196D01*
X81907428Y-89589235D01*
X81884329Y-89580970D01*
X81862150Y-89570480D01*
X81841107Y-89557868D01*
X81821401Y-89543253D01*
X81803223Y-89526777D01*
X81786747Y-89508599D01*
X81772132Y-89488893D01*
X81759520Y-89467850D01*
X81749030Y-89445671D01*
X81740765Y-89422572D01*
X81734804Y-89398773D01*
X81731204Y-89374505D01*
X81730000Y-89350001D01*
X81730000Y-88449999D01*
X81731204Y-88425495D01*
X81734804Y-88401227D01*
X81740765Y-88377428D01*
X81749030Y-88354329D01*
X81759520Y-88332150D01*
X81772132Y-88311107D01*
X81786747Y-88291401D01*
X81803223Y-88273223D01*
X81821401Y-88256747D01*
X81841107Y-88242132D01*
X81862150Y-88229520D01*
X81884329Y-88219030D01*
X81907428Y-88210765D01*
X81931227Y-88204804D01*
X81955495Y-88201204D01*
X81979999Y-88200000D01*
X82630001Y-88200000D01*
X82654505Y-88201204D01*
X82654505Y-88201204D01*
G37*
D12*
X82305000Y-88900000D03*
D11*
G36*
X80604505Y-88201204D02*
G01*
X80628773Y-88204804D01*
X80652572Y-88210765D01*
X80675671Y-88219030D01*
X80697850Y-88229520D01*
X80718893Y-88242132D01*
X80738599Y-88256747D01*
X80756777Y-88273223D01*
X80773253Y-88291401D01*
X80787868Y-88311107D01*
X80800480Y-88332150D01*
X80810970Y-88354329D01*
X80819235Y-88377428D01*
X80825196Y-88401227D01*
X80828796Y-88425495D01*
X80830000Y-88449999D01*
X80830000Y-89350001D01*
X80828796Y-89374505D01*
X80825196Y-89398773D01*
X80819235Y-89422572D01*
X80810970Y-89445671D01*
X80800480Y-89467850D01*
X80787868Y-89488893D01*
X80773253Y-89508599D01*
X80756777Y-89526777D01*
X80738599Y-89543253D01*
X80718893Y-89557868D01*
X80697850Y-89570480D01*
X80675671Y-89580970D01*
X80652572Y-89589235D01*
X80628773Y-89595196D01*
X80604505Y-89598796D01*
X80580001Y-89600000D01*
X79929999Y-89600000D01*
X79905495Y-89598796D01*
X79881227Y-89595196D01*
X79857428Y-89589235D01*
X79834329Y-89580970D01*
X79812150Y-89570480D01*
X79791107Y-89557868D01*
X79771401Y-89543253D01*
X79753223Y-89526777D01*
X79736747Y-89508599D01*
X79722132Y-89488893D01*
X79709520Y-89467850D01*
X79699030Y-89445671D01*
X79690765Y-89422572D01*
X79684804Y-89398773D01*
X79681204Y-89374505D01*
X79680000Y-89350001D01*
X79680000Y-88449999D01*
X79681204Y-88425495D01*
X79684804Y-88401227D01*
X79690765Y-88377428D01*
X79699030Y-88354329D01*
X79709520Y-88332150D01*
X79722132Y-88311107D01*
X79736747Y-88291401D01*
X79753223Y-88273223D01*
X79771401Y-88256747D01*
X79791107Y-88242132D01*
X79812150Y-88229520D01*
X79834329Y-88219030D01*
X79857428Y-88210765D01*
X79881227Y-88204804D01*
X79905495Y-88201204D01*
X79929999Y-88200000D01*
X80580001Y-88200000D01*
X80604505Y-88201204D01*
X80604505Y-88201204D01*
G37*
D12*
X80255000Y-88900000D03*
D11*
G36*
X80604505Y-84391204D02*
G01*
X80628773Y-84394804D01*
X80652572Y-84400765D01*
X80675671Y-84409030D01*
X80697850Y-84419520D01*
X80718893Y-84432132D01*
X80738599Y-84446747D01*
X80756777Y-84463223D01*
X80773253Y-84481401D01*
X80787868Y-84501107D01*
X80800480Y-84522150D01*
X80810970Y-84544329D01*
X80819235Y-84567428D01*
X80825196Y-84591227D01*
X80828796Y-84615495D01*
X80830000Y-84639999D01*
X80830000Y-85540001D01*
X80828796Y-85564505D01*
X80825196Y-85588773D01*
X80819235Y-85612572D01*
X80810970Y-85635671D01*
X80800480Y-85657850D01*
X80787868Y-85678893D01*
X80773253Y-85698599D01*
X80756777Y-85716777D01*
X80738599Y-85733253D01*
X80718893Y-85747868D01*
X80697850Y-85760480D01*
X80675671Y-85770970D01*
X80652572Y-85779235D01*
X80628773Y-85785196D01*
X80604505Y-85788796D01*
X80580001Y-85790000D01*
X79929999Y-85790000D01*
X79905495Y-85788796D01*
X79881227Y-85785196D01*
X79857428Y-85779235D01*
X79834329Y-85770970D01*
X79812150Y-85760480D01*
X79791107Y-85747868D01*
X79771401Y-85733253D01*
X79753223Y-85716777D01*
X79736747Y-85698599D01*
X79722132Y-85678893D01*
X79709520Y-85657850D01*
X79699030Y-85635671D01*
X79690765Y-85612572D01*
X79684804Y-85588773D01*
X79681204Y-85564505D01*
X79680000Y-85540001D01*
X79680000Y-84639999D01*
X79681204Y-84615495D01*
X79684804Y-84591227D01*
X79690765Y-84567428D01*
X79699030Y-84544329D01*
X79709520Y-84522150D01*
X79722132Y-84501107D01*
X79736747Y-84481401D01*
X79753223Y-84463223D01*
X79771401Y-84446747D01*
X79791107Y-84432132D01*
X79812150Y-84419520D01*
X79834329Y-84409030D01*
X79857428Y-84400765D01*
X79881227Y-84394804D01*
X79905495Y-84391204D01*
X79929999Y-84390000D01*
X80580001Y-84390000D01*
X80604505Y-84391204D01*
X80604505Y-84391204D01*
G37*
D12*
X80255000Y-85090000D03*
D11*
G36*
X82654505Y-84391204D02*
G01*
X82678773Y-84394804D01*
X82702572Y-84400765D01*
X82725671Y-84409030D01*
X82747850Y-84419520D01*
X82768893Y-84432132D01*
X82788599Y-84446747D01*
X82806777Y-84463223D01*
X82823253Y-84481401D01*
X82837868Y-84501107D01*
X82850480Y-84522150D01*
X82860970Y-84544329D01*
X82869235Y-84567428D01*
X82875196Y-84591227D01*
X82878796Y-84615495D01*
X82880000Y-84639999D01*
X82880000Y-85540001D01*
X82878796Y-85564505D01*
X82875196Y-85588773D01*
X82869235Y-85612572D01*
X82860970Y-85635671D01*
X82850480Y-85657850D01*
X82837868Y-85678893D01*
X82823253Y-85698599D01*
X82806777Y-85716777D01*
X82788599Y-85733253D01*
X82768893Y-85747868D01*
X82747850Y-85760480D01*
X82725671Y-85770970D01*
X82702572Y-85779235D01*
X82678773Y-85785196D01*
X82654505Y-85788796D01*
X82630001Y-85790000D01*
X81979999Y-85790000D01*
X81955495Y-85788796D01*
X81931227Y-85785196D01*
X81907428Y-85779235D01*
X81884329Y-85770970D01*
X81862150Y-85760480D01*
X81841107Y-85747868D01*
X81821401Y-85733253D01*
X81803223Y-85716777D01*
X81786747Y-85698599D01*
X81772132Y-85678893D01*
X81759520Y-85657850D01*
X81749030Y-85635671D01*
X81740765Y-85612572D01*
X81734804Y-85588773D01*
X81731204Y-85564505D01*
X81730000Y-85540001D01*
X81730000Y-84639999D01*
X81731204Y-84615495D01*
X81734804Y-84591227D01*
X81740765Y-84567428D01*
X81749030Y-84544329D01*
X81759520Y-84522150D01*
X81772132Y-84501107D01*
X81786747Y-84481401D01*
X81803223Y-84463223D01*
X81821401Y-84446747D01*
X81841107Y-84432132D01*
X81862150Y-84419520D01*
X81884329Y-84409030D01*
X81907428Y-84400765D01*
X81931227Y-84394804D01*
X81955495Y-84391204D01*
X81979999Y-84390000D01*
X82630001Y-84390000D01*
X82654505Y-84391204D01*
X82654505Y-84391204D01*
G37*
D12*
X82305000Y-85090000D03*
D23*
X72020000Y-79940000D03*
D24*
X72020000Y-79140000D03*
D23*
X72020000Y-77540000D03*
D24*
X72020000Y-78340000D03*
D23*
X70220000Y-79940000D03*
D24*
X70220000Y-78340000D03*
X70220000Y-79140000D03*
D23*
X70220000Y-77540000D03*
X85460000Y-77540000D03*
D24*
X85460000Y-79140000D03*
X85460000Y-78340000D03*
D23*
X85460000Y-79940000D03*
D24*
X87260000Y-78340000D03*
D23*
X87260000Y-77540000D03*
D24*
X87260000Y-79140000D03*
D23*
X87260000Y-79940000D03*
D25*
X87664001Y-108619001D03*
X87664001Y-104809001D03*
X87664001Y-99729001D03*
X87664001Y-94649001D03*
X74456001Y-94649001D03*
X74456001Y-99729001D03*
X74456001Y-104809001D03*
X74456001Y-109889001D03*
D26*
X92710000Y-106680000D03*
X92710000Y-104140000D03*
X95250000Y-105410000D03*
X95250000Y-81915000D03*
X92075000Y-80010000D03*
X96520000Y-83820000D03*
X90170000Y-80645000D03*
X71779784Y-95909784D03*
X65405000Y-86360000D03*
X73025000Y-83185000D03*
X67945000Y-76835000D03*
X77470000Y-100330000D03*
X67310000Y-86995000D03*
D27*
X75790000Y-81228922D02*
X75790000Y-81878922D01*
D28*
X70095000Y-85090000D02*
X70095000Y-83575000D01*
X75764999Y-81853921D02*
X75790000Y-81853921D01*
X75165001Y-81253923D02*
X75764999Y-81853921D01*
X70095000Y-83575000D02*
X72416077Y-81253923D01*
X72416077Y-81253923D02*
X75165001Y-81253923D01*
X86330000Y-87630000D02*
X85725000Y-87025000D01*
X84240000Y-87025000D02*
X82305000Y-85090000D01*
X85725000Y-87025000D02*
X84240000Y-87025000D01*
X86330000Y-87630000D02*
X87630000Y-87630000D01*
X85335000Y-86635000D02*
X86330000Y-87630000D01*
X85335000Y-82550000D02*
X85335000Y-86635000D01*
X82775001Y-81253923D02*
X81690000Y-81253923D01*
X85335000Y-82550000D02*
X84038923Y-81253923D01*
X84038923Y-81253923D02*
X82775001Y-81253923D01*
X82775001Y-81853921D02*
X81690000Y-81853921D01*
X85335000Y-82550000D02*
X84638921Y-81853921D01*
X84638921Y-81853921D02*
X82775001Y-81853921D01*
X100330000Y-102490000D02*
X98045000Y-104775000D01*
X98045000Y-104775000D02*
X97155000Y-104775000D01*
X97155000Y-104775000D02*
X90170000Y-97790000D01*
X90170000Y-97790000D02*
X90170000Y-92075000D01*
X87630000Y-89535000D02*
X87630000Y-87630000D01*
X90170000Y-92075000D02*
X87630000Y-89535000D01*
X100330000Y-94694394D02*
X97790000Y-92154394D01*
X100330000Y-95690000D02*
X100330000Y-94694394D01*
X97790000Y-92154394D02*
X97790000Y-78740000D01*
X96590000Y-77540000D02*
X87260000Y-77540000D01*
X97790000Y-78740000D02*
X96590000Y-77540000D01*
X88160000Y-78340000D02*
X87260000Y-78340000D01*
X93580000Y-78340000D02*
X88160000Y-78340000D01*
X93980000Y-78740000D02*
X93580000Y-78340000D01*
X93980000Y-99635606D02*
X93980000Y-78740000D01*
X96834394Y-102490000D02*
X93980000Y-99635606D01*
X97830000Y-102490000D02*
X96834394Y-102490000D01*
X97830000Y-99990000D02*
X95250000Y-97410000D01*
X95250000Y-97410000D02*
X95250000Y-81915000D01*
X91205000Y-79140000D02*
X87260000Y-79140000D01*
X92075000Y-80010000D02*
X91205000Y-79140000D01*
X52714359Y-90757167D02*
X56562833Y-90757167D01*
X58420000Y-88900000D02*
X70095000Y-88900000D01*
X56562833Y-90757167D02*
X58420000Y-88900000D01*
X97830000Y-95690000D02*
X96520000Y-94380000D01*
X96520000Y-94380000D02*
X96520000Y-83820000D01*
X87965000Y-80645000D02*
X87260000Y-79940000D01*
X90170000Y-80645000D02*
X87965000Y-80645000D01*
X52714359Y-103457167D02*
X54349312Y-105092120D01*
X54349312Y-105092120D02*
X62597449Y-105092120D01*
X71990901Y-95698668D02*
X71990901Y-94062869D01*
X75175000Y-90878770D02*
X75175000Y-88900000D01*
X71990901Y-94062869D02*
X75175000Y-90878770D01*
X62597449Y-105092120D02*
X71779784Y-95909784D01*
X71779784Y-95909784D02*
X71990901Y-95698668D01*
X61892799Y-100917167D02*
X71162080Y-91647886D01*
X52714359Y-100917167D02*
X61892799Y-100917167D01*
X71162080Y-91647886D02*
X72612579Y-91647886D01*
X72612579Y-91647886D02*
X73681231Y-90579234D01*
X73681231Y-86583769D02*
X75175000Y-85090000D01*
X73681231Y-90579234D02*
X73681231Y-86583769D01*
X80255000Y-85090000D02*
X80255000Y-88900000D01*
D27*
X74815000Y-80578922D02*
X75790000Y-80578922D01*
X72158922Y-80578922D02*
X74815000Y-80578922D01*
X72020000Y-80440000D02*
X72158922Y-80578922D01*
X72020000Y-79940000D02*
X72020000Y-80440000D01*
X72455002Y-79140000D02*
X72020000Y-79140000D01*
X73243924Y-79928922D02*
X72455002Y-79140000D01*
X75790000Y-79928922D02*
X73243924Y-79928922D01*
X75790000Y-78153922D02*
X75790000Y-78628922D01*
X75176078Y-77540000D02*
X75790000Y-78153922D01*
X72020000Y-77540000D02*
X75176078Y-77540000D01*
X72670000Y-78340000D02*
X72020000Y-78340000D01*
X73876078Y-78340000D02*
X72670000Y-78340000D01*
X74815000Y-79278922D02*
X73876078Y-78340000D01*
X75790000Y-79278922D02*
X74815000Y-79278922D01*
D28*
X64770000Y-81531767D02*
X65405000Y-80896767D01*
X64770000Y-82550000D02*
X64770000Y-81531767D01*
X65405000Y-80896767D02*
X65405000Y-78740000D01*
X65805000Y-78340000D02*
X70220000Y-78340000D01*
X65405000Y-78740000D02*
X65805000Y-78340000D01*
X65405000Y-86360000D02*
X66756393Y-85008607D01*
X69320000Y-79140000D02*
X70220000Y-79140000D01*
X67166557Y-79140000D02*
X69320000Y-79140000D01*
X66756393Y-79550164D02*
X67166557Y-79140000D01*
X66756393Y-85008607D02*
X66756393Y-79550164D01*
X72145000Y-88900000D02*
X72145000Y-85090000D01*
X72145000Y-85090000D02*
X72145000Y-84065000D01*
X72145000Y-84065000D02*
X73025000Y-83185000D01*
X69515000Y-76835000D02*
X70220000Y-77540000D01*
X67945000Y-76835000D02*
X69515000Y-76835000D01*
D27*
X81690000Y-78153922D02*
X81690000Y-78628922D01*
X82303922Y-77540000D02*
X81690000Y-78153922D01*
X85460000Y-77540000D02*
X82303922Y-77540000D01*
X84377075Y-79140000D02*
X85460000Y-79140000D01*
X81690000Y-79928922D02*
X83588153Y-79928922D01*
X83588153Y-79928922D02*
X84377075Y-79140000D01*
X85460000Y-78340000D02*
X84220000Y-78340000D01*
X83281078Y-79278922D02*
X81690000Y-79278922D01*
X84220000Y-78340000D02*
X83281078Y-79278922D01*
X85460000Y-80440000D02*
X85460000Y-79940000D01*
X85321078Y-80578922D02*
X85460000Y-80440000D01*
X81690000Y-80578922D02*
X85321078Y-80578922D01*
D28*
X76200000Y-96393000D02*
X74456001Y-94649001D01*
X77470000Y-100330000D02*
X76200000Y-99060000D01*
X76200000Y-99060000D02*
X76200000Y-96393000D01*
X86831502Y-103976502D02*
X85561502Y-103976502D01*
X87664001Y-104809001D02*
X86831502Y-103976502D01*
X77225000Y-95640000D02*
X77225000Y-88900000D01*
X85561502Y-103976502D02*
X77225000Y-95640000D01*
X77225000Y-85090000D02*
X77225000Y-88900000D01*
X67310000Y-86995000D02*
X68032700Y-86272300D01*
X70220000Y-80690000D02*
X70220000Y-79940000D01*
X68032700Y-82877300D02*
X70220000Y-80690000D01*
X68032700Y-86272300D02*
X68032700Y-82877300D01*
D29*
G36*
X108560000Y-84802652D02*
G01*
X108532661Y-84769339D01*
X108298927Y-84577519D01*
X108032261Y-84434983D01*
X107742913Y-84347210D01*
X107442000Y-84317573D01*
X107141088Y-84347210D01*
X106851740Y-84434983D01*
X106585074Y-84577519D01*
X106351340Y-84769339D01*
X106159519Y-85003073D01*
X106016983Y-85269739D01*
X105929210Y-85559087D01*
X105907000Y-85784592D01*
X105907000Y-86584144D01*
X105898927Y-86577519D01*
X105632261Y-86434983D01*
X105342913Y-86347210D01*
X105042000Y-86317573D01*
X104741088Y-86347210D01*
X104451740Y-86434983D01*
X104185074Y-86577519D01*
X103951340Y-86769339D01*
X103759519Y-87003073D01*
X103616983Y-87269739D01*
X103529210Y-87559087D01*
X103507000Y-87784592D01*
X103507000Y-88935407D01*
X103529210Y-89160912D01*
X103616983Y-89450260D01*
X103759519Y-89716926D01*
X103951339Y-89950661D01*
X104185073Y-90142481D01*
X104451739Y-90285017D01*
X104741087Y-90372790D01*
X105042000Y-90402427D01*
X105342912Y-90372790D01*
X105632260Y-90285017D01*
X105898926Y-90142481D01*
X106132661Y-89950661D01*
X106324481Y-89716927D01*
X106467017Y-89450261D01*
X106554790Y-89160913D01*
X106577000Y-88935408D01*
X106577000Y-88135856D01*
X106585073Y-88142481D01*
X106851739Y-88285017D01*
X107141087Y-88372790D01*
X107442000Y-88402427D01*
X107742912Y-88372790D01*
X108032260Y-88285017D01*
X108298926Y-88142481D01*
X108532661Y-87950661D01*
X108560000Y-87917348D01*
X108560001Y-113640000D01*
X45364000Y-113640000D01*
X45364000Y-110304344D01*
X46375000Y-110304344D01*
X46375000Y-110675656D01*
X46447439Y-111039834D01*
X46589534Y-111382882D01*
X46795825Y-111691618D01*
X47058382Y-111954175D01*
X47367118Y-112160466D01*
X47710166Y-112302561D01*
X48074344Y-112375000D01*
X48445656Y-112375000D01*
X48809834Y-112302561D01*
X49152882Y-112160466D01*
X49461618Y-111954175D01*
X49724175Y-111691618D01*
X49930466Y-111382882D01*
X50072561Y-111039834D01*
X50145000Y-110675656D01*
X50145000Y-110304344D01*
X50072561Y-109940166D01*
X49991500Y-109744465D01*
X72988501Y-109744465D01*
X72988501Y-110033537D01*
X73044896Y-110317055D01*
X73155519Y-110584123D01*
X73316119Y-110824478D01*
X73520524Y-111028883D01*
X73760879Y-111189483D01*
X74027947Y-111300106D01*
X74311465Y-111356501D01*
X74600537Y-111356501D01*
X74884055Y-111300106D01*
X75151123Y-111189483D01*
X75391478Y-111028883D01*
X75595883Y-110824478D01*
X75756483Y-110584123D01*
X75867106Y-110317055D01*
X75869634Y-110304344D01*
X103525000Y-110304344D01*
X103525000Y-110675656D01*
X103597439Y-111039834D01*
X103739534Y-111382882D01*
X103945825Y-111691618D01*
X104208382Y-111954175D01*
X104517118Y-112160466D01*
X104860166Y-112302561D01*
X105224344Y-112375000D01*
X105595656Y-112375000D01*
X105959834Y-112302561D01*
X106302882Y-112160466D01*
X106611618Y-111954175D01*
X106874175Y-111691618D01*
X107080466Y-111382882D01*
X107222561Y-111039834D01*
X107295000Y-110675656D01*
X107295000Y-110304344D01*
X107222561Y-109940166D01*
X107080466Y-109597118D01*
X106874175Y-109288382D01*
X106611618Y-109025825D01*
X106302882Y-108819534D01*
X105959834Y-108677439D01*
X105595656Y-108605000D01*
X105224344Y-108605000D01*
X104860166Y-108677439D01*
X104517118Y-108819534D01*
X104208382Y-109025825D01*
X103945825Y-109288382D01*
X103739534Y-109597118D01*
X103597439Y-109940166D01*
X103525000Y-110304344D01*
X75869634Y-110304344D01*
X75923501Y-110033537D01*
X75923501Y-109744465D01*
X75867106Y-109460947D01*
X75756483Y-109193879D01*
X75595883Y-108953524D01*
X75391478Y-108749119D01*
X75151123Y-108588519D01*
X74884055Y-108477896D01*
X74866807Y-108474465D01*
X86196501Y-108474465D01*
X86196501Y-108763537D01*
X86252896Y-109047055D01*
X86363519Y-109314123D01*
X86524119Y-109554478D01*
X86728524Y-109758883D01*
X86968879Y-109919483D01*
X87235947Y-110030106D01*
X87519465Y-110086501D01*
X87808537Y-110086501D01*
X88092055Y-110030106D01*
X88359123Y-109919483D01*
X88599478Y-109758883D01*
X88803883Y-109554478D01*
X88964483Y-109314123D01*
X89075106Y-109047055D01*
X89131501Y-108763537D01*
X89131501Y-108474465D01*
X89075106Y-108190947D01*
X88964483Y-107923879D01*
X88803883Y-107683524D01*
X88599478Y-107479119D01*
X88359123Y-107318519D01*
X88092055Y-107207896D01*
X87808537Y-107151501D01*
X87519465Y-107151501D01*
X87235947Y-107207896D01*
X86968879Y-107318519D01*
X86728524Y-107479119D01*
X86524119Y-107683524D01*
X86363519Y-107923879D01*
X86252896Y-108190947D01*
X86196501Y-108474465D01*
X74866807Y-108474465D01*
X74600537Y-108421501D01*
X74311465Y-108421501D01*
X74027947Y-108477896D01*
X73760879Y-108588519D01*
X73520524Y-108749119D01*
X73316119Y-108953524D01*
X73155519Y-109193879D01*
X73044896Y-109460947D01*
X72988501Y-109744465D01*
X49991500Y-109744465D01*
X49930466Y-109597118D01*
X49724175Y-109288382D01*
X49461618Y-109025825D01*
X49152882Y-108819534D01*
X48809834Y-108677439D01*
X48445656Y-108605000D01*
X48074344Y-108605000D01*
X47710166Y-108677439D01*
X47367118Y-108819534D01*
X47058382Y-109025825D01*
X46795825Y-109288382D01*
X46589534Y-109597118D01*
X46447439Y-109940166D01*
X46375000Y-110304344D01*
X45364000Y-110304344D01*
X45364000Y-107816544D01*
X60875000Y-107816544D01*
X60875000Y-108083456D01*
X60927072Y-108345239D01*
X61029215Y-108591833D01*
X61177503Y-108813762D01*
X61366238Y-109002497D01*
X61588167Y-109150785D01*
X61834761Y-109252928D01*
X62096544Y-109305000D01*
X62363456Y-109305000D01*
X62625239Y-109252928D01*
X62871833Y-109150785D01*
X63093762Y-109002497D01*
X63282497Y-108813762D01*
X63430785Y-108591833D01*
X63532928Y-108345239D01*
X63585000Y-108083456D01*
X63585000Y-107816544D01*
X63532928Y-107554761D01*
X63430785Y-107308167D01*
X63282497Y-107086238D01*
X63093762Y-106897503D01*
X62871833Y-106749215D01*
X62625239Y-106647072D01*
X62363456Y-106595000D01*
X62096544Y-106595000D01*
X61834761Y-106647072D01*
X61588167Y-106749215D01*
X61366238Y-106897503D01*
X61177503Y-107086238D01*
X61029215Y-107308167D01*
X60927072Y-107554761D01*
X60875000Y-107816544D01*
X45364000Y-107816544D01*
X45364000Y-90586284D01*
X50979359Y-90586284D01*
X50979359Y-90928050D01*
X51046034Y-91263248D01*
X51176822Y-91578998D01*
X51366696Y-91863165D01*
X51530698Y-92027167D01*
X51366696Y-92191169D01*
X51176822Y-92475336D01*
X51046034Y-92791086D01*
X50979359Y-93126284D01*
X50979359Y-93468050D01*
X51046034Y-93803248D01*
X51176822Y-94118998D01*
X51366696Y-94403165D01*
X51530698Y-94567167D01*
X51366696Y-94731169D01*
X51176822Y-95015336D01*
X51046034Y-95331086D01*
X50979359Y-95666284D01*
X50979359Y-96008050D01*
X51046034Y-96343248D01*
X51176822Y-96658998D01*
X51366696Y-96943165D01*
X51530698Y-97107167D01*
X51366696Y-97271169D01*
X51176822Y-97555336D01*
X51046034Y-97871086D01*
X50979359Y-98206284D01*
X50979359Y-98548050D01*
X51046034Y-98883248D01*
X51176822Y-99198998D01*
X51366696Y-99483165D01*
X51530698Y-99647167D01*
X51366696Y-99811169D01*
X51176822Y-100095336D01*
X51046034Y-100411086D01*
X50979359Y-100746284D01*
X50979359Y-101088050D01*
X51046034Y-101423248D01*
X51176822Y-101738998D01*
X51366696Y-102023165D01*
X51530698Y-102187167D01*
X51366696Y-102351169D01*
X51176822Y-102635336D01*
X51046034Y-102951086D01*
X50979359Y-103286284D01*
X50979359Y-103628050D01*
X51046034Y-103963248D01*
X51176822Y-104278998D01*
X51366696Y-104563165D01*
X51608361Y-104804830D01*
X51892528Y-104994704D01*
X52208278Y-105125492D01*
X52543476Y-105192167D01*
X52885242Y-105192167D01*
X53145927Y-105140314D01*
X53692782Y-105687169D01*
X53720495Y-105720937D01*
X53754263Y-105748650D01*
X53754265Y-105748652D01*
X53823216Y-105805239D01*
X53855253Y-105831531D01*
X54008999Y-105913709D01*
X54175822Y-105964315D01*
X54305835Y-105977120D01*
X54305843Y-105977120D01*
X54349312Y-105981401D01*
X54392781Y-105977120D01*
X62553980Y-105977120D01*
X62597449Y-105981401D01*
X62640915Y-105977120D01*
X62640926Y-105977120D01*
X62770939Y-105964315D01*
X62937762Y-105913709D01*
X63091508Y-105831531D01*
X63226266Y-105720937D01*
X63253983Y-105687164D01*
X63415000Y-105526147D01*
X63415000Y-105543456D01*
X63467072Y-105805239D01*
X63569215Y-106051833D01*
X63717503Y-106273762D01*
X63906238Y-106462497D01*
X64128167Y-106610785D01*
X64374761Y-106712928D01*
X64636544Y-106765000D01*
X64903456Y-106765000D01*
X65165239Y-106712928D01*
X65411833Y-106610785D01*
X65633762Y-106462497D01*
X65822497Y-106273762D01*
X65970785Y-106051833D01*
X66072928Y-105805239D01*
X66125000Y-105543456D01*
X66125000Y-105276544D01*
X66072928Y-105014761D01*
X65970785Y-104768167D01*
X65901494Y-104664465D01*
X72988501Y-104664465D01*
X72988501Y-104953537D01*
X73044896Y-105237055D01*
X73155519Y-105504123D01*
X73316119Y-105744478D01*
X73520524Y-105948883D01*
X73760879Y-106109483D01*
X74027947Y-106220106D01*
X74311465Y-106276501D01*
X74600537Y-106276501D01*
X74884055Y-106220106D01*
X75151123Y-106109483D01*
X75391478Y-105948883D01*
X75595883Y-105744478D01*
X75756483Y-105504123D01*
X75867106Y-105237055D01*
X75923501Y-104953537D01*
X75923501Y-104664465D01*
X75867106Y-104380947D01*
X75756483Y-104113879D01*
X75595883Y-103873524D01*
X75391478Y-103669119D01*
X75151123Y-103508519D01*
X74884055Y-103397896D01*
X74600537Y-103341501D01*
X74311465Y-103341501D01*
X74027947Y-103397896D01*
X73760879Y-103508519D01*
X73520524Y-103669119D01*
X73316119Y-103873524D01*
X73155519Y-104113879D01*
X73044896Y-104380947D01*
X72988501Y-104664465D01*
X65901494Y-104664465D01*
X65822497Y-104546238D01*
X65633762Y-104357503D01*
X65411833Y-104209215D01*
X65165239Y-104107072D01*
X64903456Y-104055000D01*
X64886147Y-104055000D01*
X72024828Y-96916319D01*
X72081682Y-96905010D01*
X72270040Y-96826989D01*
X72439558Y-96713721D01*
X72583721Y-96569558D01*
X72696989Y-96400040D01*
X72775010Y-96211682D01*
X72807508Y-96048302D01*
X72812490Y-96038981D01*
X72863096Y-95872158D01*
X72875901Y-95742145D01*
X72875901Y-95742136D01*
X72880182Y-95698670D01*
X72875901Y-95655201D01*
X72875901Y-94429447D01*
X73035087Y-94270261D01*
X72988501Y-94504465D01*
X72988501Y-94793537D01*
X73044896Y-95077055D01*
X73155519Y-95344123D01*
X73316119Y-95584478D01*
X73520524Y-95788883D01*
X73760879Y-95949483D01*
X74027947Y-96060106D01*
X74311465Y-96116501D01*
X74600537Y-96116501D01*
X74660079Y-96104657D01*
X75315001Y-96759580D01*
X75315000Y-98538018D01*
X75151123Y-98428519D01*
X74884055Y-98317896D01*
X74600537Y-98261501D01*
X74311465Y-98261501D01*
X74027947Y-98317896D01*
X73760879Y-98428519D01*
X73520524Y-98589119D01*
X73316119Y-98793524D01*
X73155519Y-99033879D01*
X73044896Y-99300947D01*
X72988501Y-99584465D01*
X72988501Y-99873537D01*
X73044896Y-100157055D01*
X73155519Y-100424123D01*
X73316119Y-100664478D01*
X73520524Y-100868883D01*
X73760879Y-101029483D01*
X74027947Y-101140106D01*
X74311465Y-101196501D01*
X74600537Y-101196501D01*
X74884055Y-101140106D01*
X75151123Y-101029483D01*
X75391478Y-100868883D01*
X75595883Y-100664478D01*
X75756483Y-100424123D01*
X75867106Y-100157055D01*
X75896700Y-100008278D01*
X76463465Y-100575044D01*
X76474774Y-100631898D01*
X76552795Y-100820256D01*
X76666063Y-100989774D01*
X76810226Y-101133937D01*
X76979744Y-101247205D01*
X77168102Y-101325226D01*
X77368061Y-101365000D01*
X77571939Y-101365000D01*
X77771898Y-101325226D01*
X77960256Y-101247205D01*
X78129774Y-101133937D01*
X78273937Y-100989774D01*
X78387205Y-100820256D01*
X78465226Y-100631898D01*
X78505000Y-100431939D01*
X78505000Y-100228061D01*
X78465226Y-100028102D01*
X78387205Y-99839744D01*
X78273937Y-99670226D01*
X78129774Y-99526063D01*
X77960256Y-99412795D01*
X77771898Y-99334774D01*
X77715044Y-99323465D01*
X77085000Y-98693422D01*
X77085000Y-96751578D01*
X84904972Y-104571551D01*
X84932685Y-104605319D01*
X84966453Y-104633032D01*
X84966455Y-104633034D01*
X85004754Y-104664465D01*
X85067443Y-104715913D01*
X85221189Y-104798091D01*
X85388012Y-104848697D01*
X85518025Y-104861502D01*
X85518035Y-104861502D01*
X85561501Y-104865783D01*
X85604967Y-104861502D01*
X86196501Y-104861502D01*
X86196501Y-104953537D01*
X86252896Y-105237055D01*
X86363519Y-105504123D01*
X86524119Y-105744478D01*
X86728524Y-105948883D01*
X86968879Y-106109483D01*
X87235947Y-106220106D01*
X87519465Y-106276501D01*
X87808537Y-106276501D01*
X88092055Y-106220106D01*
X88359123Y-106109483D01*
X88599478Y-105948883D01*
X88708361Y-105840000D01*
X101188299Y-105840000D01*
X101215040Y-106111507D01*
X101294236Y-106372581D01*
X101422843Y-106613188D01*
X101595919Y-106824081D01*
X101806812Y-106997157D01*
X102047419Y-107125764D01*
X102308493Y-107204960D01*
X102511963Y-107225000D01*
X104148037Y-107225000D01*
X104351507Y-107204960D01*
X104612581Y-107125764D01*
X104853188Y-106997157D01*
X105064081Y-106824081D01*
X105237157Y-106613188D01*
X105365764Y-106372581D01*
X105444960Y-106111507D01*
X105471701Y-105840000D01*
X105444960Y-105568493D01*
X105365764Y-105307419D01*
X105237157Y-105066812D01*
X105064081Y-104855919D01*
X104853188Y-104682843D01*
X104612581Y-104554236D01*
X104351507Y-104475040D01*
X104148037Y-104455000D01*
X102511963Y-104455000D01*
X102308493Y-104475040D01*
X102047419Y-104554236D01*
X101806812Y-104682843D01*
X101595919Y-104855919D01*
X101422843Y-105066812D01*
X101294236Y-105307419D01*
X101215040Y-105568493D01*
X101188299Y-105840000D01*
X88708361Y-105840000D01*
X88803883Y-105744478D01*
X88964483Y-105504123D01*
X89075106Y-105237055D01*
X89131501Y-104953537D01*
X89131501Y-104664465D01*
X89075106Y-104380947D01*
X88964483Y-104113879D01*
X88803883Y-103873524D01*
X88599478Y-103669119D01*
X88359123Y-103508519D01*
X88092055Y-103397896D01*
X87808537Y-103341501D01*
X87519465Y-103341501D01*
X87464256Y-103352483D01*
X87460319Y-103347685D01*
X87325561Y-103237091D01*
X87171815Y-103154913D01*
X87004992Y-103104307D01*
X86874979Y-103091502D01*
X86874971Y-103091502D01*
X86831502Y-103087221D01*
X86788033Y-103091502D01*
X85928081Y-103091502D01*
X82421044Y-99584465D01*
X86196501Y-99584465D01*
X86196501Y-99873537D01*
X86252896Y-100157055D01*
X86363519Y-100424123D01*
X86524119Y-100664478D01*
X86728524Y-100868883D01*
X86968879Y-101029483D01*
X87235947Y-101140106D01*
X87519465Y-101196501D01*
X87808537Y-101196501D01*
X88092055Y-101140106D01*
X88359123Y-101029483D01*
X88599478Y-100868883D01*
X88803883Y-100664478D01*
X88964483Y-100424123D01*
X89075106Y-100157055D01*
X89131501Y-99873537D01*
X89131501Y-99584465D01*
X89075106Y-99300947D01*
X88964483Y-99033879D01*
X88803883Y-98793524D01*
X88599478Y-98589119D01*
X88359123Y-98428519D01*
X88092055Y-98317896D01*
X87808537Y-98261501D01*
X87519465Y-98261501D01*
X87235947Y-98317896D01*
X86968879Y-98428519D01*
X86728524Y-98589119D01*
X86524119Y-98793524D01*
X86363519Y-99033879D01*
X86252896Y-99300947D01*
X86196501Y-99584465D01*
X82421044Y-99584465D01*
X78110000Y-95273422D01*
X78110000Y-94504465D01*
X86196501Y-94504465D01*
X86196501Y-94793537D01*
X86252896Y-95077055D01*
X86363519Y-95344123D01*
X86524119Y-95584478D01*
X86728524Y-95788883D01*
X86968879Y-95949483D01*
X87235947Y-96060106D01*
X87519465Y-96116501D01*
X87808537Y-96116501D01*
X88092055Y-96060106D01*
X88359123Y-95949483D01*
X88599478Y-95788883D01*
X88803883Y-95584478D01*
X88964483Y-95344123D01*
X89075106Y-95077055D01*
X89131501Y-94793537D01*
X89131501Y-94504465D01*
X89075106Y-94220947D01*
X88964483Y-93953879D01*
X88803883Y-93713524D01*
X88599478Y-93509119D01*
X88359123Y-93348519D01*
X88092055Y-93237896D01*
X87808537Y-93181501D01*
X87519465Y-93181501D01*
X87235947Y-93237896D01*
X86968879Y-93348519D01*
X86728524Y-93509119D01*
X86524119Y-93713524D01*
X86363519Y-93953879D01*
X86252896Y-94220947D01*
X86196501Y-94504465D01*
X78110000Y-94504465D01*
X78110000Y-90033737D01*
X78177962Y-89977962D01*
X78288405Y-89843387D01*
X78370472Y-89689851D01*
X78421008Y-89523255D01*
X78438072Y-89350001D01*
X78438072Y-88449999D01*
X78421008Y-88276745D01*
X78370472Y-88110149D01*
X78288405Y-87956613D01*
X78177962Y-87822038D01*
X78110000Y-87766263D01*
X78110000Y-86223737D01*
X78177962Y-86167962D01*
X78288405Y-86033387D01*
X78370472Y-85879851D01*
X78421008Y-85713255D01*
X78438072Y-85540001D01*
X78438072Y-84639999D01*
X79041928Y-84639999D01*
X79041928Y-85540001D01*
X79058992Y-85713255D01*
X79109528Y-85879851D01*
X79191595Y-86033387D01*
X79302038Y-86167962D01*
X79370000Y-86223737D01*
X79370001Y-87766262D01*
X79302038Y-87822038D01*
X79191595Y-87956613D01*
X79109528Y-88110149D01*
X79058992Y-88276745D01*
X79041928Y-88449999D01*
X79041928Y-89350001D01*
X79058992Y-89523255D01*
X79109528Y-89689851D01*
X79191595Y-89843387D01*
X79302038Y-89977962D01*
X79436613Y-90088405D01*
X79590149Y-90170472D01*
X79756745Y-90221008D01*
X79929999Y-90238072D01*
X80580001Y-90238072D01*
X80753255Y-90221008D01*
X80919851Y-90170472D01*
X81073387Y-90088405D01*
X81207962Y-89977962D01*
X81213342Y-89971406D01*
X81278815Y-90051185D01*
X81375506Y-90130537D01*
X81485820Y-90189502D01*
X81605518Y-90225812D01*
X81730000Y-90238072D01*
X82019250Y-90235000D01*
X82178000Y-90076250D01*
X82178000Y-89027000D01*
X82432000Y-89027000D01*
X82432000Y-90076250D01*
X82590750Y-90235000D01*
X82880000Y-90238072D01*
X83004482Y-90225812D01*
X83124180Y-90189502D01*
X83234494Y-90130537D01*
X83331185Y-90051185D01*
X83410537Y-89954494D01*
X83469502Y-89844180D01*
X83505812Y-89724482D01*
X83518072Y-89600000D01*
X83515000Y-89185750D01*
X83356250Y-89027000D01*
X82432000Y-89027000D01*
X82178000Y-89027000D01*
X82158000Y-89027000D01*
X82158000Y-88773000D01*
X82178000Y-88773000D01*
X82178000Y-87723750D01*
X82432000Y-87723750D01*
X82432000Y-88773000D01*
X83356250Y-88773000D01*
X83515000Y-88614250D01*
X83518072Y-88200000D01*
X83505812Y-88075518D01*
X83469502Y-87955820D01*
X83410537Y-87845506D01*
X83331185Y-87748815D01*
X83234494Y-87669463D01*
X83124180Y-87610498D01*
X83004482Y-87574188D01*
X82880000Y-87561928D01*
X82590750Y-87565000D01*
X82432000Y-87723750D01*
X82178000Y-87723750D01*
X82019250Y-87565000D01*
X81730000Y-87561928D01*
X81605518Y-87574188D01*
X81485820Y-87610498D01*
X81375506Y-87669463D01*
X81278815Y-87748815D01*
X81213342Y-87828594D01*
X81207962Y-87822038D01*
X81140000Y-87766263D01*
X81140000Y-86223737D01*
X81207962Y-86167962D01*
X81280000Y-86080184D01*
X81352038Y-86167962D01*
X81486613Y-86278405D01*
X81640149Y-86360472D01*
X81806745Y-86411008D01*
X81979999Y-86428072D01*
X82391494Y-86428072D01*
X83583470Y-87620049D01*
X83611183Y-87653817D01*
X83644951Y-87681530D01*
X83644953Y-87681532D01*
X83681585Y-87711595D01*
X83745941Y-87764411D01*
X83899687Y-87846589D01*
X84066510Y-87897195D01*
X84196523Y-87910000D01*
X84196533Y-87910000D01*
X84239999Y-87914281D01*
X84283465Y-87910000D01*
X85358421Y-87910000D01*
X85673470Y-88225049D01*
X85701183Y-88258817D01*
X85734951Y-88286530D01*
X85734953Y-88286532D01*
X85806452Y-88345210D01*
X85835941Y-88369411D01*
X85989687Y-88451589D01*
X86156510Y-88502195D01*
X86199455Y-88506425D01*
X86204188Y-88554482D01*
X86240498Y-88674180D01*
X86299463Y-88784494D01*
X86378815Y-88881185D01*
X86475506Y-88960537D01*
X86585820Y-89019502D01*
X86705518Y-89055812D01*
X86745000Y-89059701D01*
X86745000Y-89491531D01*
X86740719Y-89535000D01*
X86745000Y-89578469D01*
X86745000Y-89578476D01*
X86752160Y-89651169D01*
X86757805Y-89708490D01*
X86761779Y-89721589D01*
X86808411Y-89875312D01*
X86890589Y-90029058D01*
X87001183Y-90163817D01*
X87034956Y-90191534D01*
X89285001Y-92441580D01*
X89285000Y-97746531D01*
X89280719Y-97790000D01*
X89285000Y-97833469D01*
X89285000Y-97833476D01*
X89297805Y-97963489D01*
X89348411Y-98130312D01*
X89430589Y-98284058D01*
X89541183Y-98418817D01*
X89574956Y-98446534D01*
X96498470Y-105370049D01*
X96526183Y-105403817D01*
X96559951Y-105431530D01*
X96559953Y-105431532D01*
X96631196Y-105490000D01*
X96660941Y-105514411D01*
X96814687Y-105596589D01*
X96981510Y-105647195D01*
X97111523Y-105660000D01*
X97111531Y-105660000D01*
X97155000Y-105664281D01*
X97198469Y-105660000D01*
X98001531Y-105660000D01*
X98045000Y-105664281D01*
X98088469Y-105660000D01*
X98088477Y-105660000D01*
X98218490Y-105647195D01*
X98385313Y-105596589D01*
X98539059Y-105514411D01*
X98673817Y-105403817D01*
X98701534Y-105370044D01*
X100242579Y-103829000D01*
X100461880Y-103829000D01*
X100720572Y-103777543D01*
X100964254Y-103676607D01*
X101183563Y-103530069D01*
X101370069Y-103343563D01*
X101516607Y-103124254D01*
X101617543Y-102880572D01*
X101669000Y-102621880D01*
X101669000Y-102358120D01*
X101617543Y-102099428D01*
X101516607Y-101855746D01*
X101370069Y-101636437D01*
X101183563Y-101449931D01*
X101168700Y-101440000D01*
X101183563Y-101430069D01*
X101370069Y-101243563D01*
X101516607Y-101024254D01*
X101617543Y-100780572D01*
X101669000Y-100521880D01*
X101669000Y-100258120D01*
X101617543Y-99999428D01*
X101516607Y-99755746D01*
X101370069Y-99536437D01*
X101183563Y-99349931D01*
X100964254Y-99203393D01*
X100792069Y-99132072D01*
X101034000Y-99132072D01*
X101158482Y-99119812D01*
X101278180Y-99083502D01*
X101388494Y-99024537D01*
X101485185Y-98945185D01*
X101564537Y-98848494D01*
X101623502Y-98738180D01*
X101659812Y-98618482D01*
X101672072Y-98494000D01*
X101672072Y-98271964D01*
X102745000Y-98271964D01*
X102745000Y-99908037D01*
X102765040Y-100111507D01*
X102844237Y-100372581D01*
X102972844Y-100613188D01*
X103145920Y-100824081D01*
X103356813Y-100997157D01*
X103597420Y-101125764D01*
X103858494Y-101204960D01*
X104130000Y-101231701D01*
X104401507Y-101204960D01*
X104662581Y-101125764D01*
X104903188Y-100997157D01*
X105114081Y-100824081D01*
X105287157Y-100613188D01*
X105415764Y-100372581D01*
X105494960Y-100111507D01*
X105515000Y-99908037D01*
X105515000Y-98271963D01*
X105494960Y-98068493D01*
X105415764Y-97807419D01*
X105287157Y-97566812D01*
X105114080Y-97355919D01*
X104903187Y-97182843D01*
X104662580Y-97054236D01*
X104401506Y-96975040D01*
X104130000Y-96948299D01*
X103858493Y-96975040D01*
X103597419Y-97054236D01*
X103356812Y-97182843D01*
X103145919Y-97355920D01*
X102972843Y-97566813D01*
X102844236Y-97807420D01*
X102765040Y-98068494D01*
X102745000Y-98271964D01*
X101672072Y-98271964D01*
X101672072Y-97086000D01*
X101659812Y-96961518D01*
X101623502Y-96841820D01*
X101564537Y-96731506D01*
X101485185Y-96634815D01*
X101388494Y-96555463D01*
X101368732Y-96544900D01*
X101370069Y-96543563D01*
X101516607Y-96324254D01*
X101617543Y-96080572D01*
X101669000Y-95821880D01*
X101669000Y-95558120D01*
X101617543Y-95299428D01*
X101516607Y-95055746D01*
X101370069Y-94836437D01*
X101218326Y-94684694D01*
X101215000Y-94650927D01*
X101215000Y-94650917D01*
X101202195Y-94520904D01*
X101151589Y-94354081D01*
X101069411Y-94200335D01*
X100958817Y-94065577D01*
X100925049Y-94037864D01*
X99227185Y-92340000D01*
X101188299Y-92340000D01*
X101215040Y-92611507D01*
X101294236Y-92872581D01*
X101422843Y-93113188D01*
X101595919Y-93324081D01*
X101806812Y-93497157D01*
X102047419Y-93625764D01*
X102308493Y-93704960D01*
X102511963Y-93725000D01*
X104148037Y-93725000D01*
X104351507Y-93704960D01*
X104612581Y-93625764D01*
X104853188Y-93497157D01*
X105064081Y-93324081D01*
X105237157Y-93113188D01*
X105365764Y-92872581D01*
X105444960Y-92611507D01*
X105471701Y-92340000D01*
X105444960Y-92068493D01*
X105365764Y-91807419D01*
X105237157Y-91566812D01*
X105064081Y-91355919D01*
X104853188Y-91182843D01*
X104612581Y-91054236D01*
X104351507Y-90975040D01*
X104148037Y-90955000D01*
X102511963Y-90955000D01*
X102308493Y-90975040D01*
X102047419Y-91054236D01*
X101806812Y-91182843D01*
X101595919Y-91355919D01*
X101422843Y-91566812D01*
X101294236Y-91807419D01*
X101215040Y-92068493D01*
X101188299Y-92340000D01*
X99227185Y-92340000D01*
X98675000Y-91787816D01*
X98675000Y-90134214D01*
X98685073Y-90142481D01*
X98951739Y-90285017D01*
X99241087Y-90372790D01*
X99542000Y-90402427D01*
X99842912Y-90372790D01*
X100132260Y-90285017D01*
X100398926Y-90142481D01*
X100632661Y-89950661D01*
X100824481Y-89716927D01*
X100967017Y-89450261D01*
X101054790Y-89160913D01*
X101077000Y-88935408D01*
X101077000Y-87784592D01*
X101054790Y-87559087D01*
X100967017Y-87269739D01*
X100824481Y-87003073D01*
X100632661Y-86769339D01*
X100398927Y-86577519D01*
X100132261Y-86434983D01*
X99842913Y-86347210D01*
X99542000Y-86317573D01*
X99241088Y-86347210D01*
X98951740Y-86434983D01*
X98685074Y-86577519D01*
X98675000Y-86585786D01*
X98675000Y-78783465D01*
X98679281Y-78739999D01*
X98675000Y-78696533D01*
X98675000Y-78696523D01*
X98662195Y-78566510D01*
X98658505Y-78554344D01*
X103525000Y-78554344D01*
X103525000Y-78925656D01*
X103597439Y-79289834D01*
X103739534Y-79632882D01*
X103945825Y-79941618D01*
X104208382Y-80204175D01*
X104517118Y-80410466D01*
X104860166Y-80552561D01*
X105224344Y-80625000D01*
X105595656Y-80625000D01*
X105959834Y-80552561D01*
X106302882Y-80410466D01*
X106611618Y-80204175D01*
X106874175Y-79941618D01*
X107080466Y-79632882D01*
X107222561Y-79289834D01*
X107295000Y-78925656D01*
X107295000Y-78554344D01*
X107222561Y-78190166D01*
X107080466Y-77847118D01*
X106874175Y-77538382D01*
X106611618Y-77275825D01*
X106302882Y-77069534D01*
X105959834Y-76927439D01*
X105595656Y-76855000D01*
X105224344Y-76855000D01*
X104860166Y-76927439D01*
X104517118Y-77069534D01*
X104208382Y-77275825D01*
X103945825Y-77538382D01*
X103739534Y-77847118D01*
X103597439Y-78190166D01*
X103525000Y-78554344D01*
X98658505Y-78554344D01*
X98611589Y-78399687D01*
X98529411Y-78245941D01*
X98483637Y-78190166D01*
X98446532Y-78144953D01*
X98446530Y-78144951D01*
X98418817Y-78111183D01*
X98385049Y-78083470D01*
X97246534Y-76944956D01*
X97218817Y-76911183D01*
X97084059Y-76800589D01*
X96930313Y-76718411D01*
X96763490Y-76667805D01*
X96633477Y-76655000D01*
X96633469Y-76655000D01*
X96590000Y-76650719D01*
X96546531Y-76655000D01*
X87691192Y-76655000D01*
X87660000Y-76651928D01*
X86860000Y-76651928D01*
X86735518Y-76664188D01*
X86615820Y-76700498D01*
X86505506Y-76759463D01*
X86408815Y-76838815D01*
X86360000Y-76898296D01*
X86311185Y-76838815D01*
X86214494Y-76759463D01*
X86104180Y-76700498D01*
X85984482Y-76664188D01*
X85860000Y-76651928D01*
X85060000Y-76651928D01*
X84935518Y-76664188D01*
X84815820Y-76700498D01*
X84705506Y-76759463D01*
X84680482Y-76780000D01*
X82341245Y-76780000D01*
X82303922Y-76776324D01*
X82266599Y-76780000D01*
X82266589Y-76780000D01*
X82154936Y-76790997D01*
X82011675Y-76834454D01*
X81879646Y-76905026D01*
X81763921Y-76999999D01*
X81740122Y-77028998D01*
X81179002Y-77590119D01*
X81149999Y-77613921D01*
X81114983Y-77656589D01*
X81055026Y-77729646D01*
X81035674Y-77765850D01*
X80965000Y-77765850D01*
X80840518Y-77778110D01*
X80720820Y-77814420D01*
X80610506Y-77873385D01*
X80513815Y-77952737D01*
X80434463Y-78049428D01*
X80375498Y-78159742D01*
X80339188Y-78279440D01*
X80326928Y-78403922D01*
X80326928Y-78853922D01*
X80336777Y-78953922D01*
X80326928Y-79053922D01*
X80326928Y-79503922D01*
X80336777Y-79603922D01*
X80326928Y-79703922D01*
X80326928Y-80153922D01*
X80336777Y-80253922D01*
X80326928Y-80353922D01*
X80326928Y-80803922D01*
X80336777Y-80903922D01*
X80326928Y-81003922D01*
X80326928Y-81453922D01*
X80336777Y-81553922D01*
X80326928Y-81653922D01*
X80326928Y-82103922D01*
X80336777Y-82203922D01*
X80326928Y-82303922D01*
X80326928Y-82753922D01*
X80339188Y-82878404D01*
X80375498Y-82998102D01*
X80434463Y-83108416D01*
X80513815Y-83205107D01*
X80610506Y-83284459D01*
X80720820Y-83343424D01*
X80840518Y-83379734D01*
X80965000Y-83391994D01*
X82415000Y-83391994D01*
X82539482Y-83379734D01*
X82659180Y-83343424D01*
X82769494Y-83284459D01*
X82866185Y-83205107D01*
X82945537Y-83108416D01*
X83004502Y-82998102D01*
X83040812Y-82878404D01*
X83053072Y-82753922D01*
X83053072Y-82738921D01*
X84121928Y-82738921D01*
X84121928Y-83000001D01*
X84138992Y-83173255D01*
X84189528Y-83339851D01*
X84271595Y-83493387D01*
X84382038Y-83627962D01*
X84450000Y-83683737D01*
X84450001Y-85983422D01*
X83518072Y-85051494D01*
X83518072Y-84639999D01*
X83501008Y-84466745D01*
X83450472Y-84300149D01*
X83368405Y-84146613D01*
X83257962Y-84012038D01*
X83123387Y-83901595D01*
X82969851Y-83819528D01*
X82803255Y-83768992D01*
X82630001Y-83751928D01*
X81979999Y-83751928D01*
X81806745Y-83768992D01*
X81640149Y-83819528D01*
X81486613Y-83901595D01*
X81352038Y-84012038D01*
X81280000Y-84099816D01*
X81207962Y-84012038D01*
X81073387Y-83901595D01*
X80919851Y-83819528D01*
X80753255Y-83768992D01*
X80580001Y-83751928D01*
X79929999Y-83751928D01*
X79756745Y-83768992D01*
X79590149Y-83819528D01*
X79436613Y-83901595D01*
X79302038Y-84012038D01*
X79191595Y-84146613D01*
X79109528Y-84300149D01*
X79058992Y-84466745D01*
X79041928Y-84639999D01*
X78438072Y-84639999D01*
X78421008Y-84466745D01*
X78370472Y-84300149D01*
X78288405Y-84146613D01*
X78177962Y-84012038D01*
X78043387Y-83901595D01*
X77889851Y-83819528D01*
X77723255Y-83768992D01*
X77550001Y-83751928D01*
X76899999Y-83751928D01*
X76726745Y-83768992D01*
X76560149Y-83819528D01*
X76406613Y-83901595D01*
X76272038Y-84012038D01*
X76200000Y-84099816D01*
X76127962Y-84012038D01*
X75993387Y-83901595D01*
X75839851Y-83819528D01*
X75673255Y-83768992D01*
X75500001Y-83751928D01*
X74849999Y-83751928D01*
X74676745Y-83768992D01*
X74510149Y-83819528D01*
X74356613Y-83901595D01*
X74222038Y-84012038D01*
X74111595Y-84146613D01*
X74029528Y-84300149D01*
X73978992Y-84466745D01*
X73961928Y-84639999D01*
X73961928Y-85051493D01*
X73345470Y-85667952D01*
X73358072Y-85540001D01*
X73358072Y-84639999D01*
X73341008Y-84466745D01*
X73290472Y-84300149D01*
X73245523Y-84216056D01*
X73270044Y-84191535D01*
X73326898Y-84180226D01*
X73515256Y-84102205D01*
X73684774Y-83988937D01*
X73828937Y-83844774D01*
X73942205Y-83675256D01*
X74020226Y-83486898D01*
X74060000Y-83286939D01*
X74060000Y-83083061D01*
X74020226Y-82883102D01*
X73942205Y-82694744D01*
X73828937Y-82525226D01*
X73684774Y-82381063D01*
X73515256Y-82267795D01*
X73326898Y-82189774D01*
X73126939Y-82150000D01*
X72923061Y-82150000D01*
X72723102Y-82189774D01*
X72534744Y-82267795D01*
X72365226Y-82381063D01*
X72221063Y-82525226D01*
X72107795Y-82694744D01*
X72029774Y-82883102D01*
X72018465Y-82939956D01*
X71549951Y-83408471D01*
X71516184Y-83436183D01*
X71488471Y-83469951D01*
X71488468Y-83469954D01*
X71405590Y-83570941D01*
X71323412Y-83724687D01*
X71272805Y-83891510D01*
X71266993Y-83950524D01*
X71192038Y-84012038D01*
X71186658Y-84018594D01*
X71121185Y-83938815D01*
X71024494Y-83859463D01*
X70914180Y-83800498D01*
X70794482Y-83764188D01*
X70670000Y-83751928D01*
X70380750Y-83755000D01*
X70222000Y-83913750D01*
X70222000Y-84963000D01*
X70242000Y-84963000D01*
X70242000Y-85217000D01*
X70222000Y-85217000D01*
X70222000Y-86266250D01*
X70380750Y-86425000D01*
X70670000Y-86428072D01*
X70794482Y-86415812D01*
X70914180Y-86379502D01*
X71024494Y-86320537D01*
X71121185Y-86241185D01*
X71186658Y-86161406D01*
X71192038Y-86167962D01*
X71260001Y-86223738D01*
X71260000Y-87766263D01*
X71192038Y-87822038D01*
X71120000Y-87909816D01*
X71047962Y-87822038D01*
X70913387Y-87711595D01*
X70759851Y-87629528D01*
X70593255Y-87578992D01*
X70420001Y-87561928D01*
X69769999Y-87561928D01*
X69596745Y-87578992D01*
X69430149Y-87629528D01*
X69276613Y-87711595D01*
X69142038Y-87822038D01*
X69031595Y-87956613D01*
X69000386Y-88015000D01*
X67487350Y-88015000D01*
X67611898Y-87990226D01*
X67800256Y-87912205D01*
X67969774Y-87798937D01*
X68113937Y-87654774D01*
X68227205Y-87485256D01*
X68305226Y-87296898D01*
X68316535Y-87240044D01*
X68627750Y-86928829D01*
X68661517Y-86901117D01*
X68726850Y-86821510D01*
X68772110Y-86766360D01*
X68772111Y-86766359D01*
X68854289Y-86612613D01*
X68904895Y-86445790D01*
X68917700Y-86315777D01*
X68917700Y-86315767D01*
X68921981Y-86272301D01*
X68917700Y-86228835D01*
X68917700Y-85991991D01*
X68930498Y-86034180D01*
X68989463Y-86144494D01*
X69068815Y-86241185D01*
X69165506Y-86320537D01*
X69275820Y-86379502D01*
X69395518Y-86415812D01*
X69520000Y-86428072D01*
X69809250Y-86425000D01*
X69968000Y-86266250D01*
X69968000Y-85217000D01*
X69948000Y-85217000D01*
X69948000Y-84963000D01*
X69968000Y-84963000D01*
X69968000Y-83913750D01*
X69809250Y-83755000D01*
X69520000Y-83751928D01*
X69395518Y-83764188D01*
X69275820Y-83800498D01*
X69165506Y-83859463D01*
X69068815Y-83938815D01*
X68989463Y-84035506D01*
X68930498Y-84145820D01*
X68917700Y-84188009D01*
X68917700Y-83243878D01*
X70815050Y-81346529D01*
X70848817Y-81318817D01*
X70915898Y-81237080D01*
X70953342Y-81191454D01*
X70959411Y-81184059D01*
X71041589Y-81030313D01*
X71092195Y-80863490D01*
X71105000Y-80733477D01*
X71105000Y-80733467D01*
X71109281Y-80690001D01*
X71105000Y-80646535D01*
X71105000Y-80599981D01*
X71120000Y-80581704D01*
X71168815Y-80641185D01*
X71265506Y-80720537D01*
X71325270Y-80752482D01*
X71385026Y-80864276D01*
X71480000Y-80980001D01*
X71508997Y-81003798D01*
X71595122Y-81089923D01*
X71618921Y-81118923D01*
X71734646Y-81213896D01*
X71866675Y-81284468D01*
X72009936Y-81327925D01*
X72121589Y-81338922D01*
X72121599Y-81338922D01*
X72158921Y-81342598D01*
X72196244Y-81338922D01*
X74430000Y-81338922D01*
X74430000Y-81355924D01*
X74504155Y-81355924D01*
X74479285Y-81400795D01*
X74462531Y-81453141D01*
X74430000Y-81485672D01*
X74437447Y-81553922D01*
X74430000Y-81622172D01*
X74462531Y-81654703D01*
X74479285Y-81707049D01*
X74539922Y-81816453D01*
X74592559Y-81878637D01*
X74534463Y-81949428D01*
X74475498Y-82059742D01*
X74462247Y-82103425D01*
X74430000Y-82135672D01*
X74437095Y-82200695D01*
X74426928Y-82303922D01*
X74426928Y-82753922D01*
X74439188Y-82878404D01*
X74475498Y-82998102D01*
X74534463Y-83108416D01*
X74613815Y-83205107D01*
X74710506Y-83284459D01*
X74820820Y-83343424D01*
X74940518Y-83379734D01*
X75065000Y-83391994D01*
X76515000Y-83391994D01*
X76639482Y-83379734D01*
X76759180Y-83343424D01*
X76869494Y-83284459D01*
X76966185Y-83205107D01*
X77045537Y-83108416D01*
X77104502Y-82998102D01*
X77140812Y-82878404D01*
X77153072Y-82753922D01*
X77153072Y-82303922D01*
X77142905Y-82200695D01*
X77150000Y-82135672D01*
X77117753Y-82103425D01*
X77104502Y-82059742D01*
X77045537Y-81949428D01*
X76987441Y-81878637D01*
X77040078Y-81816453D01*
X77100715Y-81707049D01*
X77117469Y-81654703D01*
X77150000Y-81622172D01*
X77142553Y-81553922D01*
X77150000Y-81485672D01*
X77117469Y-81453141D01*
X77100715Y-81400795D01*
X77040078Y-81291391D01*
X76987441Y-81229207D01*
X77045537Y-81158416D01*
X77104502Y-81048102D01*
X77117753Y-81004419D01*
X77150000Y-80972172D01*
X77142905Y-80907149D01*
X77153072Y-80803922D01*
X77153072Y-80353922D01*
X77143223Y-80253922D01*
X77153072Y-80153922D01*
X77153072Y-79703922D01*
X77143223Y-79603922D01*
X77153072Y-79503922D01*
X77153072Y-79053922D01*
X77143223Y-78953922D01*
X77153072Y-78853922D01*
X77153072Y-78403922D01*
X77140812Y-78279440D01*
X77104502Y-78159742D01*
X77045537Y-78049428D01*
X76966185Y-77952737D01*
X76869494Y-77873385D01*
X76759180Y-77814420D01*
X76639482Y-77778110D01*
X76515000Y-77765850D01*
X76444326Y-77765850D01*
X76424974Y-77729646D01*
X76330001Y-77613921D01*
X76301004Y-77590124D01*
X75739881Y-77029002D01*
X75716079Y-76999999D01*
X75600354Y-76905026D01*
X75468325Y-76834454D01*
X75325064Y-76790997D01*
X75213411Y-76780000D01*
X75213400Y-76780000D01*
X75176078Y-76776324D01*
X75138756Y-76780000D01*
X72799518Y-76780000D01*
X72774494Y-76759463D01*
X72664180Y-76700498D01*
X72544482Y-76664188D01*
X72420000Y-76651928D01*
X71620000Y-76651928D01*
X71495518Y-76664188D01*
X71375820Y-76700498D01*
X71265506Y-76759463D01*
X71168815Y-76838815D01*
X71120000Y-76898296D01*
X71071185Y-76838815D01*
X70974494Y-76759463D01*
X70864180Y-76700498D01*
X70744482Y-76664188D01*
X70620000Y-76651928D01*
X70583507Y-76651928D01*
X70171534Y-76239956D01*
X70143817Y-76206183D01*
X70009059Y-76095589D01*
X69855313Y-76013411D01*
X69688490Y-75962805D01*
X69558477Y-75950000D01*
X69558469Y-75950000D01*
X69515000Y-75945719D01*
X69471531Y-75950000D01*
X68483454Y-75950000D01*
X68435256Y-75917795D01*
X68246898Y-75839774D01*
X68046939Y-75800000D01*
X67843061Y-75800000D01*
X67643102Y-75839774D01*
X67454744Y-75917795D01*
X67285226Y-76031063D01*
X67141063Y-76175226D01*
X67027795Y-76344744D01*
X66949774Y-76533102D01*
X66910000Y-76733061D01*
X66910000Y-76936939D01*
X66949774Y-77136898D01*
X67027795Y-77325256D01*
X67114487Y-77455000D01*
X65848465Y-77455000D01*
X65804999Y-77450719D01*
X65761533Y-77455000D01*
X65761523Y-77455000D01*
X65631510Y-77467805D01*
X65464687Y-77518411D01*
X65310941Y-77600589D01*
X65176183Y-77711183D01*
X65148466Y-77744956D01*
X64809952Y-78083470D01*
X64776184Y-78111183D01*
X64748471Y-78144951D01*
X64748468Y-78144954D01*
X64665590Y-78245941D01*
X64583412Y-78399687D01*
X64532805Y-78566510D01*
X64515719Y-78740000D01*
X64520001Y-78783479D01*
X64520000Y-80530188D01*
X64174951Y-80875238D01*
X64141184Y-80902950D01*
X64113471Y-80936718D01*
X64113468Y-80936721D01*
X64030590Y-81037708D01*
X63948412Y-81191454D01*
X63897805Y-81358277D01*
X63881674Y-81522067D01*
X63717503Y-81686238D01*
X63569215Y-81908167D01*
X63467072Y-82154761D01*
X63415000Y-82416544D01*
X63415000Y-82683456D01*
X63467072Y-82945239D01*
X63569215Y-83191833D01*
X63717503Y-83413762D01*
X63906238Y-83602497D01*
X64128167Y-83750785D01*
X64374761Y-83852928D01*
X64636544Y-83905000D01*
X64903456Y-83905000D01*
X65165239Y-83852928D01*
X65411833Y-83750785D01*
X65633762Y-83602497D01*
X65822497Y-83413762D01*
X65871393Y-83340583D01*
X65871393Y-84642028D01*
X65159957Y-85353465D01*
X65103102Y-85364774D01*
X64914744Y-85442795D01*
X64745226Y-85556063D01*
X64601063Y-85700226D01*
X64487795Y-85869744D01*
X64409774Y-86058102D01*
X64370000Y-86258061D01*
X64370000Y-86461939D01*
X64409774Y-86661898D01*
X64487795Y-86850256D01*
X64601063Y-87019774D01*
X64745226Y-87163937D01*
X64914744Y-87277205D01*
X65103102Y-87355226D01*
X65303061Y-87395000D01*
X65506939Y-87395000D01*
X65706898Y-87355226D01*
X65895256Y-87277205D01*
X66064774Y-87163937D01*
X66208937Y-87019774D01*
X66275000Y-86920903D01*
X66275000Y-87096939D01*
X66314774Y-87296898D01*
X66392795Y-87485256D01*
X66506063Y-87654774D01*
X66650226Y-87798937D01*
X66819744Y-87912205D01*
X67008102Y-87990226D01*
X67132650Y-88015000D01*
X58463469Y-88015000D01*
X58420000Y-88010719D01*
X58376531Y-88015000D01*
X58376523Y-88015000D01*
X58246510Y-88027805D01*
X58079687Y-88078411D01*
X57994285Y-88124059D01*
X57925941Y-88160589D01*
X57824953Y-88243468D01*
X57824951Y-88243470D01*
X57791183Y-88271183D01*
X57763470Y-88304951D01*
X56196255Y-89872167D01*
X54209688Y-89872167D01*
X54062022Y-89651169D01*
X53820357Y-89409504D01*
X53539285Y-89221698D01*
X52714359Y-88396772D01*
X51889433Y-89221698D01*
X51608361Y-89409504D01*
X51366696Y-89651169D01*
X51176822Y-89935336D01*
X51046034Y-90251086D01*
X50979359Y-90586284D01*
X45364000Y-90586284D01*
X45364000Y-88275806D01*
X50971950Y-88275806D01*
X51016870Y-88614606D01*
X51127023Y-88938133D01*
X51233021Y-89136441D01*
X51507647Y-89244274D01*
X52534754Y-88217167D01*
X52520612Y-88203025D01*
X52700217Y-88023420D01*
X52714359Y-88037562D01*
X52728502Y-88023420D01*
X52908107Y-88203025D01*
X52893964Y-88217167D01*
X53921071Y-89244274D01*
X54195697Y-89136441D01*
X54346575Y-88829783D01*
X54434728Y-88499582D01*
X54456768Y-88158528D01*
X54411848Y-87819728D01*
X54301695Y-87496201D01*
X54195697Y-87297893D01*
X54185626Y-87293939D01*
X54265544Y-87228352D01*
X54344896Y-87131661D01*
X54403861Y-87021347D01*
X54440171Y-86901649D01*
X54452431Y-86777167D01*
X54452431Y-84956544D01*
X60875000Y-84956544D01*
X60875000Y-85223456D01*
X60927072Y-85485239D01*
X61029215Y-85731833D01*
X61177503Y-85953762D01*
X61366238Y-86142497D01*
X61588167Y-86290785D01*
X61834761Y-86392928D01*
X62096544Y-86445000D01*
X62363456Y-86445000D01*
X62625239Y-86392928D01*
X62871833Y-86290785D01*
X63093762Y-86142497D01*
X63282497Y-85953762D01*
X63430785Y-85731833D01*
X63532928Y-85485239D01*
X63585000Y-85223456D01*
X63585000Y-84956544D01*
X63532928Y-84694761D01*
X63430785Y-84448167D01*
X63282497Y-84226238D01*
X63093762Y-84037503D01*
X62871833Y-83889215D01*
X62625239Y-83787072D01*
X62363456Y-83735000D01*
X62096544Y-83735000D01*
X61834761Y-83787072D01*
X61588167Y-83889215D01*
X61366238Y-84037503D01*
X61177503Y-84226238D01*
X61029215Y-84448167D01*
X60927072Y-84694761D01*
X60875000Y-84956544D01*
X54452431Y-84956544D01*
X54452431Y-84577167D01*
X54440171Y-84452685D01*
X54403861Y-84332987D01*
X54344896Y-84222673D01*
X54265544Y-84125982D01*
X54168853Y-84046630D01*
X54058539Y-83987665D01*
X53938841Y-83951355D01*
X53814359Y-83939095D01*
X51614359Y-83939095D01*
X51489877Y-83951355D01*
X51370179Y-83987665D01*
X51259865Y-84046630D01*
X51163174Y-84125982D01*
X51083822Y-84222673D01*
X51024857Y-84332987D01*
X50988547Y-84452685D01*
X50976287Y-84577167D01*
X50976287Y-86777167D01*
X50988547Y-86901649D01*
X51024857Y-87021347D01*
X51083822Y-87131661D01*
X51163174Y-87228352D01*
X51243092Y-87293939D01*
X51233021Y-87297893D01*
X51082143Y-87604551D01*
X50993990Y-87934752D01*
X50971950Y-88275806D01*
X45364000Y-88275806D01*
X45364000Y-79062344D01*
X46375000Y-79062344D01*
X46375000Y-79433656D01*
X46447439Y-79797834D01*
X46589534Y-80140882D01*
X46795825Y-80449618D01*
X47058382Y-80712175D01*
X47367118Y-80918466D01*
X47710166Y-81060561D01*
X48074344Y-81133000D01*
X48445656Y-81133000D01*
X48809834Y-81060561D01*
X49087471Y-80945560D01*
X61474045Y-80945560D01*
X61535932Y-81181368D01*
X61777790Y-81294266D01*
X62037027Y-81357811D01*
X62303680Y-81369561D01*
X62567501Y-81329063D01*
X62818353Y-81237875D01*
X62924068Y-81181368D01*
X62985955Y-80945560D01*
X62230000Y-80189605D01*
X61474045Y-80945560D01*
X49087471Y-80945560D01*
X49152882Y-80918466D01*
X49461618Y-80712175D01*
X49724175Y-80449618D01*
X49930466Y-80140882D01*
X49954159Y-80083680D01*
X60870439Y-80083680D01*
X60910937Y-80347501D01*
X61002125Y-80598353D01*
X61058632Y-80704068D01*
X61294440Y-80765955D01*
X62050395Y-80010000D01*
X62409605Y-80010000D01*
X63165560Y-80765955D01*
X63401368Y-80704068D01*
X63514266Y-80462210D01*
X63577811Y-80202973D01*
X63589561Y-79936320D01*
X63549063Y-79672499D01*
X63457875Y-79421647D01*
X63401368Y-79315932D01*
X63165560Y-79254045D01*
X62409605Y-80010000D01*
X62050395Y-80010000D01*
X61294440Y-79254045D01*
X61058632Y-79315932D01*
X60945734Y-79557790D01*
X60882189Y-79817027D01*
X60870439Y-80083680D01*
X49954159Y-80083680D01*
X50072561Y-79797834D01*
X50145000Y-79433656D01*
X50145000Y-79074440D01*
X61474045Y-79074440D01*
X62230000Y-79830395D01*
X62985955Y-79074440D01*
X62924068Y-78838632D01*
X62682210Y-78725734D01*
X62422973Y-78662189D01*
X62156320Y-78650439D01*
X61892499Y-78690937D01*
X61641647Y-78782125D01*
X61535932Y-78838632D01*
X61474045Y-79074440D01*
X50145000Y-79074440D01*
X50145000Y-79062344D01*
X50072561Y-78698166D01*
X49930466Y-78355118D01*
X49724175Y-78046382D01*
X49461618Y-77783825D01*
X49152882Y-77577534D01*
X48809834Y-77435439D01*
X48445656Y-77363000D01*
X48074344Y-77363000D01*
X47710166Y-77435439D01*
X47367118Y-77577534D01*
X47058382Y-77783825D01*
X46795825Y-78046382D01*
X46589534Y-78355118D01*
X46447439Y-78698166D01*
X46375000Y-79062344D01*
X45364000Y-79062344D01*
X45364000Y-75590000D01*
X108560000Y-75590000D01*
X108560000Y-84802652D01*
X108560000Y-84802652D01*
G37*
X108560000Y-84802652D02*
X108532661Y-84769339D01*
X108298927Y-84577519D01*
X108032261Y-84434983D01*
X107742913Y-84347210D01*
X107442000Y-84317573D01*
X107141088Y-84347210D01*
X106851740Y-84434983D01*
X106585074Y-84577519D01*
X106351340Y-84769339D01*
X106159519Y-85003073D01*
X106016983Y-85269739D01*
X105929210Y-85559087D01*
X105907000Y-85784592D01*
X105907000Y-86584144D01*
X105898927Y-86577519D01*
X105632261Y-86434983D01*
X105342913Y-86347210D01*
X105042000Y-86317573D01*
X104741088Y-86347210D01*
X104451740Y-86434983D01*
X104185074Y-86577519D01*
X103951340Y-86769339D01*
X103759519Y-87003073D01*
X103616983Y-87269739D01*
X103529210Y-87559087D01*
X103507000Y-87784592D01*
X103507000Y-88935407D01*
X103529210Y-89160912D01*
X103616983Y-89450260D01*
X103759519Y-89716926D01*
X103951339Y-89950661D01*
X104185073Y-90142481D01*
X104451739Y-90285017D01*
X104741087Y-90372790D01*
X105042000Y-90402427D01*
X105342912Y-90372790D01*
X105632260Y-90285017D01*
X105898926Y-90142481D01*
X106132661Y-89950661D01*
X106324481Y-89716927D01*
X106467017Y-89450261D01*
X106554790Y-89160913D01*
X106577000Y-88935408D01*
X106577000Y-88135856D01*
X106585073Y-88142481D01*
X106851739Y-88285017D01*
X107141087Y-88372790D01*
X107442000Y-88402427D01*
X107742912Y-88372790D01*
X108032260Y-88285017D01*
X108298926Y-88142481D01*
X108532661Y-87950661D01*
X108560000Y-87917348D01*
X108560001Y-113640000D01*
X45364000Y-113640000D01*
X45364000Y-110304344D01*
X46375000Y-110304344D01*
X46375000Y-110675656D01*
X46447439Y-111039834D01*
X46589534Y-111382882D01*
X46795825Y-111691618D01*
X47058382Y-111954175D01*
X47367118Y-112160466D01*
X47710166Y-112302561D01*
X48074344Y-112375000D01*
X48445656Y-112375000D01*
X48809834Y-112302561D01*
X49152882Y-112160466D01*
X49461618Y-111954175D01*
X49724175Y-111691618D01*
X49930466Y-111382882D01*
X50072561Y-111039834D01*
X50145000Y-110675656D01*
X50145000Y-110304344D01*
X50072561Y-109940166D01*
X49991500Y-109744465D01*
X72988501Y-109744465D01*
X72988501Y-110033537D01*
X73044896Y-110317055D01*
X73155519Y-110584123D01*
X73316119Y-110824478D01*
X73520524Y-111028883D01*
X73760879Y-111189483D01*
X74027947Y-111300106D01*
X74311465Y-111356501D01*
X74600537Y-111356501D01*
X74884055Y-111300106D01*
X75151123Y-111189483D01*
X75391478Y-111028883D01*
X75595883Y-110824478D01*
X75756483Y-110584123D01*
X75867106Y-110317055D01*
X75869634Y-110304344D01*
X103525000Y-110304344D01*
X103525000Y-110675656D01*
X103597439Y-111039834D01*
X103739534Y-111382882D01*
X103945825Y-111691618D01*
X104208382Y-111954175D01*
X104517118Y-112160466D01*
X104860166Y-112302561D01*
X105224344Y-112375000D01*
X105595656Y-112375000D01*
X105959834Y-112302561D01*
X106302882Y-112160466D01*
X106611618Y-111954175D01*
X106874175Y-111691618D01*
X107080466Y-111382882D01*
X107222561Y-111039834D01*
X107295000Y-110675656D01*
X107295000Y-110304344D01*
X107222561Y-109940166D01*
X107080466Y-109597118D01*
X106874175Y-109288382D01*
X106611618Y-109025825D01*
X106302882Y-108819534D01*
X105959834Y-108677439D01*
X105595656Y-108605000D01*
X105224344Y-108605000D01*
X104860166Y-108677439D01*
X104517118Y-108819534D01*
X104208382Y-109025825D01*
X103945825Y-109288382D01*
X103739534Y-109597118D01*
X103597439Y-109940166D01*
X103525000Y-110304344D01*
X75869634Y-110304344D01*
X75923501Y-110033537D01*
X75923501Y-109744465D01*
X75867106Y-109460947D01*
X75756483Y-109193879D01*
X75595883Y-108953524D01*
X75391478Y-108749119D01*
X75151123Y-108588519D01*
X74884055Y-108477896D01*
X74866807Y-108474465D01*
X86196501Y-108474465D01*
X86196501Y-108763537D01*
X86252896Y-109047055D01*
X86363519Y-109314123D01*
X86524119Y-109554478D01*
X86728524Y-109758883D01*
X86968879Y-109919483D01*
X87235947Y-110030106D01*
X87519465Y-110086501D01*
X87808537Y-110086501D01*
X88092055Y-110030106D01*
X88359123Y-109919483D01*
X88599478Y-109758883D01*
X88803883Y-109554478D01*
X88964483Y-109314123D01*
X89075106Y-109047055D01*
X89131501Y-108763537D01*
X89131501Y-108474465D01*
X89075106Y-108190947D01*
X88964483Y-107923879D01*
X88803883Y-107683524D01*
X88599478Y-107479119D01*
X88359123Y-107318519D01*
X88092055Y-107207896D01*
X87808537Y-107151501D01*
X87519465Y-107151501D01*
X87235947Y-107207896D01*
X86968879Y-107318519D01*
X86728524Y-107479119D01*
X86524119Y-107683524D01*
X86363519Y-107923879D01*
X86252896Y-108190947D01*
X86196501Y-108474465D01*
X74866807Y-108474465D01*
X74600537Y-108421501D01*
X74311465Y-108421501D01*
X74027947Y-108477896D01*
X73760879Y-108588519D01*
X73520524Y-108749119D01*
X73316119Y-108953524D01*
X73155519Y-109193879D01*
X73044896Y-109460947D01*
X72988501Y-109744465D01*
X49991500Y-109744465D01*
X49930466Y-109597118D01*
X49724175Y-109288382D01*
X49461618Y-109025825D01*
X49152882Y-108819534D01*
X48809834Y-108677439D01*
X48445656Y-108605000D01*
X48074344Y-108605000D01*
X47710166Y-108677439D01*
X47367118Y-108819534D01*
X47058382Y-109025825D01*
X46795825Y-109288382D01*
X46589534Y-109597118D01*
X46447439Y-109940166D01*
X46375000Y-110304344D01*
X45364000Y-110304344D01*
X45364000Y-107816544D01*
X60875000Y-107816544D01*
X60875000Y-108083456D01*
X60927072Y-108345239D01*
X61029215Y-108591833D01*
X61177503Y-108813762D01*
X61366238Y-109002497D01*
X61588167Y-109150785D01*
X61834761Y-109252928D01*
X62096544Y-109305000D01*
X62363456Y-109305000D01*
X62625239Y-109252928D01*
X62871833Y-109150785D01*
X63093762Y-109002497D01*
X63282497Y-108813762D01*
X63430785Y-108591833D01*
X63532928Y-108345239D01*
X63585000Y-108083456D01*
X63585000Y-107816544D01*
X63532928Y-107554761D01*
X63430785Y-107308167D01*
X63282497Y-107086238D01*
X63093762Y-106897503D01*
X62871833Y-106749215D01*
X62625239Y-106647072D01*
X62363456Y-106595000D01*
X62096544Y-106595000D01*
X61834761Y-106647072D01*
X61588167Y-106749215D01*
X61366238Y-106897503D01*
X61177503Y-107086238D01*
X61029215Y-107308167D01*
X60927072Y-107554761D01*
X60875000Y-107816544D01*
X45364000Y-107816544D01*
X45364000Y-90586284D01*
X50979359Y-90586284D01*
X50979359Y-90928050D01*
X51046034Y-91263248D01*
X51176822Y-91578998D01*
X51366696Y-91863165D01*
X51530698Y-92027167D01*
X51366696Y-92191169D01*
X51176822Y-92475336D01*
X51046034Y-92791086D01*
X50979359Y-93126284D01*
X50979359Y-93468050D01*
X51046034Y-93803248D01*
X51176822Y-94118998D01*
X51366696Y-94403165D01*
X51530698Y-94567167D01*
X51366696Y-94731169D01*
X51176822Y-95015336D01*
X51046034Y-95331086D01*
X50979359Y-95666284D01*
X50979359Y-96008050D01*
X51046034Y-96343248D01*
X51176822Y-96658998D01*
X51366696Y-96943165D01*
X51530698Y-97107167D01*
X51366696Y-97271169D01*
X51176822Y-97555336D01*
X51046034Y-97871086D01*
X50979359Y-98206284D01*
X50979359Y-98548050D01*
X51046034Y-98883248D01*
X51176822Y-99198998D01*
X51366696Y-99483165D01*
X51530698Y-99647167D01*
X51366696Y-99811169D01*
X51176822Y-100095336D01*
X51046034Y-100411086D01*
X50979359Y-100746284D01*
X50979359Y-101088050D01*
X51046034Y-101423248D01*
X51176822Y-101738998D01*
X51366696Y-102023165D01*
X51530698Y-102187167D01*
X51366696Y-102351169D01*
X51176822Y-102635336D01*
X51046034Y-102951086D01*
X50979359Y-103286284D01*
X50979359Y-103628050D01*
X51046034Y-103963248D01*
X51176822Y-104278998D01*
X51366696Y-104563165D01*
X51608361Y-104804830D01*
X51892528Y-104994704D01*
X52208278Y-105125492D01*
X52543476Y-105192167D01*
X52885242Y-105192167D01*
X53145927Y-105140314D01*
X53692782Y-105687169D01*
X53720495Y-105720937D01*
X53754263Y-105748650D01*
X53754265Y-105748652D01*
X53823216Y-105805239D01*
X53855253Y-105831531D01*
X54008999Y-105913709D01*
X54175822Y-105964315D01*
X54305835Y-105977120D01*
X54305843Y-105977120D01*
X54349312Y-105981401D01*
X54392781Y-105977120D01*
X62553980Y-105977120D01*
X62597449Y-105981401D01*
X62640915Y-105977120D01*
X62640926Y-105977120D01*
X62770939Y-105964315D01*
X62937762Y-105913709D01*
X63091508Y-105831531D01*
X63226266Y-105720937D01*
X63253983Y-105687164D01*
X63415000Y-105526147D01*
X63415000Y-105543456D01*
X63467072Y-105805239D01*
X63569215Y-106051833D01*
X63717503Y-106273762D01*
X63906238Y-106462497D01*
X64128167Y-106610785D01*
X64374761Y-106712928D01*
X64636544Y-106765000D01*
X64903456Y-106765000D01*
X65165239Y-106712928D01*
X65411833Y-106610785D01*
X65633762Y-106462497D01*
X65822497Y-106273762D01*
X65970785Y-106051833D01*
X66072928Y-105805239D01*
X66125000Y-105543456D01*
X66125000Y-105276544D01*
X66072928Y-105014761D01*
X65970785Y-104768167D01*
X65901494Y-104664465D01*
X72988501Y-104664465D01*
X72988501Y-104953537D01*
X73044896Y-105237055D01*
X73155519Y-105504123D01*
X73316119Y-105744478D01*
X73520524Y-105948883D01*
X73760879Y-106109483D01*
X74027947Y-106220106D01*
X74311465Y-106276501D01*
X74600537Y-106276501D01*
X74884055Y-106220106D01*
X75151123Y-106109483D01*
X75391478Y-105948883D01*
X75595883Y-105744478D01*
X75756483Y-105504123D01*
X75867106Y-105237055D01*
X75923501Y-104953537D01*
X75923501Y-104664465D01*
X75867106Y-104380947D01*
X75756483Y-104113879D01*
X75595883Y-103873524D01*
X75391478Y-103669119D01*
X75151123Y-103508519D01*
X74884055Y-103397896D01*
X74600537Y-103341501D01*
X74311465Y-103341501D01*
X74027947Y-103397896D01*
X73760879Y-103508519D01*
X73520524Y-103669119D01*
X73316119Y-103873524D01*
X73155519Y-104113879D01*
X73044896Y-104380947D01*
X72988501Y-104664465D01*
X65901494Y-104664465D01*
X65822497Y-104546238D01*
X65633762Y-104357503D01*
X65411833Y-104209215D01*
X65165239Y-104107072D01*
X64903456Y-104055000D01*
X64886147Y-104055000D01*
X72024828Y-96916319D01*
X72081682Y-96905010D01*
X72270040Y-96826989D01*
X72439558Y-96713721D01*
X72583721Y-96569558D01*
X72696989Y-96400040D01*
X72775010Y-96211682D01*
X72807508Y-96048302D01*
X72812490Y-96038981D01*
X72863096Y-95872158D01*
X72875901Y-95742145D01*
X72875901Y-95742136D01*
X72880182Y-95698670D01*
X72875901Y-95655201D01*
X72875901Y-94429447D01*
X73035087Y-94270261D01*
X72988501Y-94504465D01*
X72988501Y-94793537D01*
X73044896Y-95077055D01*
X73155519Y-95344123D01*
X73316119Y-95584478D01*
X73520524Y-95788883D01*
X73760879Y-95949483D01*
X74027947Y-96060106D01*
X74311465Y-96116501D01*
X74600537Y-96116501D01*
X74660079Y-96104657D01*
X75315001Y-96759580D01*
X75315000Y-98538018D01*
X75151123Y-98428519D01*
X74884055Y-98317896D01*
X74600537Y-98261501D01*
X74311465Y-98261501D01*
X74027947Y-98317896D01*
X73760879Y-98428519D01*
X73520524Y-98589119D01*
X73316119Y-98793524D01*
X73155519Y-99033879D01*
X73044896Y-99300947D01*
X72988501Y-99584465D01*
X72988501Y-99873537D01*
X73044896Y-100157055D01*
X73155519Y-100424123D01*
X73316119Y-100664478D01*
X73520524Y-100868883D01*
X73760879Y-101029483D01*
X74027947Y-101140106D01*
X74311465Y-101196501D01*
X74600537Y-101196501D01*
X74884055Y-101140106D01*
X75151123Y-101029483D01*
X75391478Y-100868883D01*
X75595883Y-100664478D01*
X75756483Y-100424123D01*
X75867106Y-100157055D01*
X75896700Y-100008278D01*
X76463465Y-100575044D01*
X76474774Y-100631898D01*
X76552795Y-100820256D01*
X76666063Y-100989774D01*
X76810226Y-101133937D01*
X76979744Y-101247205D01*
X77168102Y-101325226D01*
X77368061Y-101365000D01*
X77571939Y-101365000D01*
X77771898Y-101325226D01*
X77960256Y-101247205D01*
X78129774Y-101133937D01*
X78273937Y-100989774D01*
X78387205Y-100820256D01*
X78465226Y-100631898D01*
X78505000Y-100431939D01*
X78505000Y-100228061D01*
X78465226Y-100028102D01*
X78387205Y-99839744D01*
X78273937Y-99670226D01*
X78129774Y-99526063D01*
X77960256Y-99412795D01*
X77771898Y-99334774D01*
X77715044Y-99323465D01*
X77085000Y-98693422D01*
X77085000Y-96751578D01*
X84904972Y-104571551D01*
X84932685Y-104605319D01*
X84966453Y-104633032D01*
X84966455Y-104633034D01*
X85004754Y-104664465D01*
X85067443Y-104715913D01*
X85221189Y-104798091D01*
X85388012Y-104848697D01*
X85518025Y-104861502D01*
X85518035Y-104861502D01*
X85561501Y-104865783D01*
X85604967Y-104861502D01*
X86196501Y-104861502D01*
X86196501Y-104953537D01*
X86252896Y-105237055D01*
X86363519Y-105504123D01*
X86524119Y-105744478D01*
X86728524Y-105948883D01*
X86968879Y-106109483D01*
X87235947Y-106220106D01*
X87519465Y-106276501D01*
X87808537Y-106276501D01*
X88092055Y-106220106D01*
X88359123Y-106109483D01*
X88599478Y-105948883D01*
X88708361Y-105840000D01*
X101188299Y-105840000D01*
X101215040Y-106111507D01*
X101294236Y-106372581D01*
X101422843Y-106613188D01*
X101595919Y-106824081D01*
X101806812Y-106997157D01*
X102047419Y-107125764D01*
X102308493Y-107204960D01*
X102511963Y-107225000D01*
X104148037Y-107225000D01*
X104351507Y-107204960D01*
X104612581Y-107125764D01*
X104853188Y-106997157D01*
X105064081Y-106824081D01*
X105237157Y-106613188D01*
X105365764Y-106372581D01*
X105444960Y-106111507D01*
X105471701Y-105840000D01*
X105444960Y-105568493D01*
X105365764Y-105307419D01*
X105237157Y-105066812D01*
X105064081Y-104855919D01*
X104853188Y-104682843D01*
X104612581Y-104554236D01*
X104351507Y-104475040D01*
X104148037Y-104455000D01*
X102511963Y-104455000D01*
X102308493Y-104475040D01*
X102047419Y-104554236D01*
X101806812Y-104682843D01*
X101595919Y-104855919D01*
X101422843Y-105066812D01*
X101294236Y-105307419D01*
X101215040Y-105568493D01*
X101188299Y-105840000D01*
X88708361Y-105840000D01*
X88803883Y-105744478D01*
X88964483Y-105504123D01*
X89075106Y-105237055D01*
X89131501Y-104953537D01*
X89131501Y-104664465D01*
X89075106Y-104380947D01*
X88964483Y-104113879D01*
X88803883Y-103873524D01*
X88599478Y-103669119D01*
X88359123Y-103508519D01*
X88092055Y-103397896D01*
X87808537Y-103341501D01*
X87519465Y-103341501D01*
X87464256Y-103352483D01*
X87460319Y-103347685D01*
X87325561Y-103237091D01*
X87171815Y-103154913D01*
X87004992Y-103104307D01*
X86874979Y-103091502D01*
X86874971Y-103091502D01*
X86831502Y-103087221D01*
X86788033Y-103091502D01*
X85928081Y-103091502D01*
X82421044Y-99584465D01*
X86196501Y-99584465D01*
X86196501Y-99873537D01*
X86252896Y-100157055D01*
X86363519Y-100424123D01*
X86524119Y-100664478D01*
X86728524Y-100868883D01*
X86968879Y-101029483D01*
X87235947Y-101140106D01*
X87519465Y-101196501D01*
X87808537Y-101196501D01*
X88092055Y-101140106D01*
X88359123Y-101029483D01*
X88599478Y-100868883D01*
X88803883Y-100664478D01*
X88964483Y-100424123D01*
X89075106Y-100157055D01*
X89131501Y-99873537D01*
X89131501Y-99584465D01*
X89075106Y-99300947D01*
X88964483Y-99033879D01*
X88803883Y-98793524D01*
X88599478Y-98589119D01*
X88359123Y-98428519D01*
X88092055Y-98317896D01*
X87808537Y-98261501D01*
X87519465Y-98261501D01*
X87235947Y-98317896D01*
X86968879Y-98428519D01*
X86728524Y-98589119D01*
X86524119Y-98793524D01*
X86363519Y-99033879D01*
X86252896Y-99300947D01*
X86196501Y-99584465D01*
X82421044Y-99584465D01*
X78110000Y-95273422D01*
X78110000Y-94504465D01*
X86196501Y-94504465D01*
X86196501Y-94793537D01*
X86252896Y-95077055D01*
X86363519Y-95344123D01*
X86524119Y-95584478D01*
X86728524Y-95788883D01*
X86968879Y-95949483D01*
X87235947Y-96060106D01*
X87519465Y-96116501D01*
X87808537Y-96116501D01*
X88092055Y-96060106D01*
X88359123Y-95949483D01*
X88599478Y-95788883D01*
X88803883Y-95584478D01*
X88964483Y-95344123D01*
X89075106Y-95077055D01*
X89131501Y-94793537D01*
X89131501Y-94504465D01*
X89075106Y-94220947D01*
X88964483Y-93953879D01*
X88803883Y-93713524D01*
X88599478Y-93509119D01*
X88359123Y-93348519D01*
X88092055Y-93237896D01*
X87808537Y-93181501D01*
X87519465Y-93181501D01*
X87235947Y-93237896D01*
X86968879Y-93348519D01*
X86728524Y-93509119D01*
X86524119Y-93713524D01*
X86363519Y-93953879D01*
X86252896Y-94220947D01*
X86196501Y-94504465D01*
X78110000Y-94504465D01*
X78110000Y-90033737D01*
X78177962Y-89977962D01*
X78288405Y-89843387D01*
X78370472Y-89689851D01*
X78421008Y-89523255D01*
X78438072Y-89350001D01*
X78438072Y-88449999D01*
X78421008Y-88276745D01*
X78370472Y-88110149D01*
X78288405Y-87956613D01*
X78177962Y-87822038D01*
X78110000Y-87766263D01*
X78110000Y-86223737D01*
X78177962Y-86167962D01*
X78288405Y-86033387D01*
X78370472Y-85879851D01*
X78421008Y-85713255D01*
X78438072Y-85540001D01*
X78438072Y-84639999D01*
X79041928Y-84639999D01*
X79041928Y-85540001D01*
X79058992Y-85713255D01*
X79109528Y-85879851D01*
X79191595Y-86033387D01*
X79302038Y-86167962D01*
X79370000Y-86223737D01*
X79370001Y-87766262D01*
X79302038Y-87822038D01*
X79191595Y-87956613D01*
X79109528Y-88110149D01*
X79058992Y-88276745D01*
X79041928Y-88449999D01*
X79041928Y-89350001D01*
X79058992Y-89523255D01*
X79109528Y-89689851D01*
X79191595Y-89843387D01*
X79302038Y-89977962D01*
X79436613Y-90088405D01*
X79590149Y-90170472D01*
X79756745Y-90221008D01*
X79929999Y-90238072D01*
X80580001Y-90238072D01*
X80753255Y-90221008D01*
X80919851Y-90170472D01*
X81073387Y-90088405D01*
X81207962Y-89977962D01*
X81213342Y-89971406D01*
X81278815Y-90051185D01*
X81375506Y-90130537D01*
X81485820Y-90189502D01*
X81605518Y-90225812D01*
X81730000Y-90238072D01*
X82019250Y-90235000D01*
X82178000Y-90076250D01*
X82178000Y-89027000D01*
X82432000Y-89027000D01*
X82432000Y-90076250D01*
X82590750Y-90235000D01*
X82880000Y-90238072D01*
X83004482Y-90225812D01*
X83124180Y-90189502D01*
X83234494Y-90130537D01*
X83331185Y-90051185D01*
X83410537Y-89954494D01*
X83469502Y-89844180D01*
X83505812Y-89724482D01*
X83518072Y-89600000D01*
X83515000Y-89185750D01*
X83356250Y-89027000D01*
X82432000Y-89027000D01*
X82178000Y-89027000D01*
X82158000Y-89027000D01*
X82158000Y-88773000D01*
X82178000Y-88773000D01*
X82178000Y-87723750D01*
X82432000Y-87723750D01*
X82432000Y-88773000D01*
X83356250Y-88773000D01*
X83515000Y-88614250D01*
X83518072Y-88200000D01*
X83505812Y-88075518D01*
X83469502Y-87955820D01*
X83410537Y-87845506D01*
X83331185Y-87748815D01*
X83234494Y-87669463D01*
X83124180Y-87610498D01*
X83004482Y-87574188D01*
X82880000Y-87561928D01*
X82590750Y-87565000D01*
X82432000Y-87723750D01*
X82178000Y-87723750D01*
X82019250Y-87565000D01*
X81730000Y-87561928D01*
X81605518Y-87574188D01*
X81485820Y-87610498D01*
X81375506Y-87669463D01*
X81278815Y-87748815D01*
X81213342Y-87828594D01*
X81207962Y-87822038D01*
X81140000Y-87766263D01*
X81140000Y-86223737D01*
X81207962Y-86167962D01*
X81280000Y-86080184D01*
X81352038Y-86167962D01*
X81486613Y-86278405D01*
X81640149Y-86360472D01*
X81806745Y-86411008D01*
X81979999Y-86428072D01*
X82391494Y-86428072D01*
X83583470Y-87620049D01*
X83611183Y-87653817D01*
X83644951Y-87681530D01*
X83644953Y-87681532D01*
X83681585Y-87711595D01*
X83745941Y-87764411D01*
X83899687Y-87846589D01*
X84066510Y-87897195D01*
X84196523Y-87910000D01*
X84196533Y-87910000D01*
X84239999Y-87914281D01*
X84283465Y-87910000D01*
X85358421Y-87910000D01*
X85673470Y-88225049D01*
X85701183Y-88258817D01*
X85734951Y-88286530D01*
X85734953Y-88286532D01*
X85806452Y-88345210D01*
X85835941Y-88369411D01*
X85989687Y-88451589D01*
X86156510Y-88502195D01*
X86199455Y-88506425D01*
X86204188Y-88554482D01*
X86240498Y-88674180D01*
X86299463Y-88784494D01*
X86378815Y-88881185D01*
X86475506Y-88960537D01*
X86585820Y-89019502D01*
X86705518Y-89055812D01*
X86745000Y-89059701D01*
X86745000Y-89491531D01*
X86740719Y-89535000D01*
X86745000Y-89578469D01*
X86745000Y-89578476D01*
X86752160Y-89651169D01*
X86757805Y-89708490D01*
X86761779Y-89721589D01*
X86808411Y-89875312D01*
X86890589Y-90029058D01*
X87001183Y-90163817D01*
X87034956Y-90191534D01*
X89285001Y-92441580D01*
X89285000Y-97746531D01*
X89280719Y-97790000D01*
X89285000Y-97833469D01*
X89285000Y-97833476D01*
X89297805Y-97963489D01*
X89348411Y-98130312D01*
X89430589Y-98284058D01*
X89541183Y-98418817D01*
X89574956Y-98446534D01*
X96498470Y-105370049D01*
X96526183Y-105403817D01*
X96559951Y-105431530D01*
X96559953Y-105431532D01*
X96631196Y-105490000D01*
X96660941Y-105514411D01*
X96814687Y-105596589D01*
X96981510Y-105647195D01*
X97111523Y-105660000D01*
X97111531Y-105660000D01*
X97155000Y-105664281D01*
X97198469Y-105660000D01*
X98001531Y-105660000D01*
X98045000Y-105664281D01*
X98088469Y-105660000D01*
X98088477Y-105660000D01*
X98218490Y-105647195D01*
X98385313Y-105596589D01*
X98539059Y-105514411D01*
X98673817Y-105403817D01*
X98701534Y-105370044D01*
X100242579Y-103829000D01*
X100461880Y-103829000D01*
X100720572Y-103777543D01*
X100964254Y-103676607D01*
X101183563Y-103530069D01*
X101370069Y-103343563D01*
X101516607Y-103124254D01*
X101617543Y-102880572D01*
X101669000Y-102621880D01*
X101669000Y-102358120D01*
X101617543Y-102099428D01*
X101516607Y-101855746D01*
X101370069Y-101636437D01*
X101183563Y-101449931D01*
X101168700Y-101440000D01*
X101183563Y-101430069D01*
X101370069Y-101243563D01*
X101516607Y-101024254D01*
X101617543Y-100780572D01*
X101669000Y-100521880D01*
X101669000Y-100258120D01*
X101617543Y-99999428D01*
X101516607Y-99755746D01*
X101370069Y-99536437D01*
X101183563Y-99349931D01*
X100964254Y-99203393D01*
X100792069Y-99132072D01*
X101034000Y-99132072D01*
X101158482Y-99119812D01*
X101278180Y-99083502D01*
X101388494Y-99024537D01*
X101485185Y-98945185D01*
X101564537Y-98848494D01*
X101623502Y-98738180D01*
X101659812Y-98618482D01*
X101672072Y-98494000D01*
X101672072Y-98271964D01*
X102745000Y-98271964D01*
X102745000Y-99908037D01*
X102765040Y-100111507D01*
X102844237Y-100372581D01*
X102972844Y-100613188D01*
X103145920Y-100824081D01*
X103356813Y-100997157D01*
X103597420Y-101125764D01*
X103858494Y-101204960D01*
X104130000Y-101231701D01*
X104401507Y-101204960D01*
X104662581Y-101125764D01*
X104903188Y-100997157D01*
X105114081Y-100824081D01*
X105287157Y-100613188D01*
X105415764Y-100372581D01*
X105494960Y-100111507D01*
X105515000Y-99908037D01*
X105515000Y-98271963D01*
X105494960Y-98068493D01*
X105415764Y-97807419D01*
X105287157Y-97566812D01*
X105114080Y-97355919D01*
X104903187Y-97182843D01*
X104662580Y-97054236D01*
X104401506Y-96975040D01*
X104130000Y-96948299D01*
X103858493Y-96975040D01*
X103597419Y-97054236D01*
X103356812Y-97182843D01*
X103145919Y-97355920D01*
X102972843Y-97566813D01*
X102844236Y-97807420D01*
X102765040Y-98068494D01*
X102745000Y-98271964D01*
X101672072Y-98271964D01*
X101672072Y-97086000D01*
X101659812Y-96961518D01*
X101623502Y-96841820D01*
X101564537Y-96731506D01*
X101485185Y-96634815D01*
X101388494Y-96555463D01*
X101368732Y-96544900D01*
X101370069Y-96543563D01*
X101516607Y-96324254D01*
X101617543Y-96080572D01*
X101669000Y-95821880D01*
X101669000Y-95558120D01*
X101617543Y-95299428D01*
X101516607Y-95055746D01*
X101370069Y-94836437D01*
X101218326Y-94684694D01*
X101215000Y-94650927D01*
X101215000Y-94650917D01*
X101202195Y-94520904D01*
X101151589Y-94354081D01*
X101069411Y-94200335D01*
X100958817Y-94065577D01*
X100925049Y-94037864D01*
X99227185Y-92340000D01*
X101188299Y-92340000D01*
X101215040Y-92611507D01*
X101294236Y-92872581D01*
X101422843Y-93113188D01*
X101595919Y-93324081D01*
X101806812Y-93497157D01*
X102047419Y-93625764D01*
X102308493Y-93704960D01*
X102511963Y-93725000D01*
X104148037Y-93725000D01*
X104351507Y-93704960D01*
X104612581Y-93625764D01*
X104853188Y-93497157D01*
X105064081Y-93324081D01*
X105237157Y-93113188D01*
X105365764Y-92872581D01*
X105444960Y-92611507D01*
X105471701Y-92340000D01*
X105444960Y-92068493D01*
X105365764Y-91807419D01*
X105237157Y-91566812D01*
X105064081Y-91355919D01*
X104853188Y-91182843D01*
X104612581Y-91054236D01*
X104351507Y-90975040D01*
X104148037Y-90955000D01*
X102511963Y-90955000D01*
X102308493Y-90975040D01*
X102047419Y-91054236D01*
X101806812Y-91182843D01*
X101595919Y-91355919D01*
X101422843Y-91566812D01*
X101294236Y-91807419D01*
X101215040Y-92068493D01*
X101188299Y-92340000D01*
X99227185Y-92340000D01*
X98675000Y-91787816D01*
X98675000Y-90134214D01*
X98685073Y-90142481D01*
X98951739Y-90285017D01*
X99241087Y-90372790D01*
X99542000Y-90402427D01*
X99842912Y-90372790D01*
X100132260Y-90285017D01*
X100398926Y-90142481D01*
X100632661Y-89950661D01*
X100824481Y-89716927D01*
X100967017Y-89450261D01*
X101054790Y-89160913D01*
X101077000Y-88935408D01*
X101077000Y-87784592D01*
X101054790Y-87559087D01*
X100967017Y-87269739D01*
X100824481Y-87003073D01*
X100632661Y-86769339D01*
X100398927Y-86577519D01*
X100132261Y-86434983D01*
X99842913Y-86347210D01*
X99542000Y-86317573D01*
X99241088Y-86347210D01*
X98951740Y-86434983D01*
X98685074Y-86577519D01*
X98675000Y-86585786D01*
X98675000Y-78783465D01*
X98679281Y-78739999D01*
X98675000Y-78696533D01*
X98675000Y-78696523D01*
X98662195Y-78566510D01*
X98658505Y-78554344D01*
X103525000Y-78554344D01*
X103525000Y-78925656D01*
X103597439Y-79289834D01*
X103739534Y-79632882D01*
X103945825Y-79941618D01*
X104208382Y-80204175D01*
X104517118Y-80410466D01*
X104860166Y-80552561D01*
X105224344Y-80625000D01*
X105595656Y-80625000D01*
X105959834Y-80552561D01*
X106302882Y-80410466D01*
X106611618Y-80204175D01*
X106874175Y-79941618D01*
X107080466Y-79632882D01*
X107222561Y-79289834D01*
X107295000Y-78925656D01*
X107295000Y-78554344D01*
X107222561Y-78190166D01*
X107080466Y-77847118D01*
X106874175Y-77538382D01*
X106611618Y-77275825D01*
X106302882Y-77069534D01*
X105959834Y-76927439D01*
X105595656Y-76855000D01*
X105224344Y-76855000D01*
X104860166Y-76927439D01*
X104517118Y-77069534D01*
X104208382Y-77275825D01*
X103945825Y-77538382D01*
X103739534Y-77847118D01*
X103597439Y-78190166D01*
X103525000Y-78554344D01*
X98658505Y-78554344D01*
X98611589Y-78399687D01*
X98529411Y-78245941D01*
X98483637Y-78190166D01*
X98446532Y-78144953D01*
X98446530Y-78144951D01*
X98418817Y-78111183D01*
X98385049Y-78083470D01*
X97246534Y-76944956D01*
X97218817Y-76911183D01*
X97084059Y-76800589D01*
X96930313Y-76718411D01*
X96763490Y-76667805D01*
X96633477Y-76655000D01*
X96633469Y-76655000D01*
X96590000Y-76650719D01*
X96546531Y-76655000D01*
X87691192Y-76655000D01*
X87660000Y-76651928D01*
X86860000Y-76651928D01*
X86735518Y-76664188D01*
X86615820Y-76700498D01*
X86505506Y-76759463D01*
X86408815Y-76838815D01*
X86360000Y-76898296D01*
X86311185Y-76838815D01*
X86214494Y-76759463D01*
X86104180Y-76700498D01*
X85984482Y-76664188D01*
X85860000Y-76651928D01*
X85060000Y-76651928D01*
X84935518Y-76664188D01*
X84815820Y-76700498D01*
X84705506Y-76759463D01*
X84680482Y-76780000D01*
X82341245Y-76780000D01*
X82303922Y-76776324D01*
X82266599Y-76780000D01*
X82266589Y-76780000D01*
X82154936Y-76790997D01*
X82011675Y-76834454D01*
X81879646Y-76905026D01*
X81763921Y-76999999D01*
X81740122Y-77028998D01*
X81179002Y-77590119D01*
X81149999Y-77613921D01*
X81114983Y-77656589D01*
X81055026Y-77729646D01*
X81035674Y-77765850D01*
X80965000Y-77765850D01*
X80840518Y-77778110D01*
X80720820Y-77814420D01*
X80610506Y-77873385D01*
X80513815Y-77952737D01*
X80434463Y-78049428D01*
X80375498Y-78159742D01*
X80339188Y-78279440D01*
X80326928Y-78403922D01*
X80326928Y-78853922D01*
X80336777Y-78953922D01*
X80326928Y-79053922D01*
X80326928Y-79503922D01*
X80336777Y-79603922D01*
X80326928Y-79703922D01*
X80326928Y-80153922D01*
X80336777Y-80253922D01*
X80326928Y-80353922D01*
X80326928Y-80803922D01*
X80336777Y-80903922D01*
X80326928Y-81003922D01*
X80326928Y-81453922D01*
X80336777Y-81553922D01*
X80326928Y-81653922D01*
X80326928Y-82103922D01*
X80336777Y-82203922D01*
X80326928Y-82303922D01*
X80326928Y-82753922D01*
X80339188Y-82878404D01*
X80375498Y-82998102D01*
X80434463Y-83108416D01*
X80513815Y-83205107D01*
X80610506Y-83284459D01*
X80720820Y-83343424D01*
X80840518Y-83379734D01*
X80965000Y-83391994D01*
X82415000Y-83391994D01*
X82539482Y-83379734D01*
X82659180Y-83343424D01*
X82769494Y-83284459D01*
X82866185Y-83205107D01*
X82945537Y-83108416D01*
X83004502Y-82998102D01*
X83040812Y-82878404D01*
X83053072Y-82753922D01*
X83053072Y-82738921D01*
X84121928Y-82738921D01*
X84121928Y-83000001D01*
X84138992Y-83173255D01*
X84189528Y-83339851D01*
X84271595Y-83493387D01*
X84382038Y-83627962D01*
X84450000Y-83683737D01*
X84450001Y-85983422D01*
X83518072Y-85051494D01*
X83518072Y-84639999D01*
X83501008Y-84466745D01*
X83450472Y-84300149D01*
X83368405Y-84146613D01*
X83257962Y-84012038D01*
X83123387Y-83901595D01*
X82969851Y-83819528D01*
X82803255Y-83768992D01*
X82630001Y-83751928D01*
X81979999Y-83751928D01*
X81806745Y-83768992D01*
X81640149Y-83819528D01*
X81486613Y-83901595D01*
X81352038Y-84012038D01*
X81280000Y-84099816D01*
X81207962Y-84012038D01*
X81073387Y-83901595D01*
X80919851Y-83819528D01*
X80753255Y-83768992D01*
X80580001Y-83751928D01*
X79929999Y-83751928D01*
X79756745Y-83768992D01*
X79590149Y-83819528D01*
X79436613Y-83901595D01*
X79302038Y-84012038D01*
X79191595Y-84146613D01*
X79109528Y-84300149D01*
X79058992Y-84466745D01*
X79041928Y-84639999D01*
X78438072Y-84639999D01*
X78421008Y-84466745D01*
X78370472Y-84300149D01*
X78288405Y-84146613D01*
X78177962Y-84012038D01*
X78043387Y-83901595D01*
X77889851Y-83819528D01*
X77723255Y-83768992D01*
X77550001Y-83751928D01*
X76899999Y-83751928D01*
X76726745Y-83768992D01*
X76560149Y-83819528D01*
X76406613Y-83901595D01*
X76272038Y-84012038D01*
X76200000Y-84099816D01*
X76127962Y-84012038D01*
X75993387Y-83901595D01*
X75839851Y-83819528D01*
X75673255Y-83768992D01*
X75500001Y-83751928D01*
X74849999Y-83751928D01*
X74676745Y-83768992D01*
X74510149Y-83819528D01*
X74356613Y-83901595D01*
X74222038Y-84012038D01*
X74111595Y-84146613D01*
X74029528Y-84300149D01*
X73978992Y-84466745D01*
X73961928Y-84639999D01*
X73961928Y-85051493D01*
X73345470Y-85667952D01*
X73358072Y-85540001D01*
X73358072Y-84639999D01*
X73341008Y-84466745D01*
X73290472Y-84300149D01*
X73245523Y-84216056D01*
X73270044Y-84191535D01*
X73326898Y-84180226D01*
X73515256Y-84102205D01*
X73684774Y-83988937D01*
X73828937Y-83844774D01*
X73942205Y-83675256D01*
X74020226Y-83486898D01*
X74060000Y-83286939D01*
X74060000Y-83083061D01*
X74020226Y-82883102D01*
X73942205Y-82694744D01*
X73828937Y-82525226D01*
X73684774Y-82381063D01*
X73515256Y-82267795D01*
X73326898Y-82189774D01*
X73126939Y-82150000D01*
X72923061Y-82150000D01*
X72723102Y-82189774D01*
X72534744Y-82267795D01*
X72365226Y-82381063D01*
X72221063Y-82525226D01*
X72107795Y-82694744D01*
X72029774Y-82883102D01*
X72018465Y-82939956D01*
X71549951Y-83408471D01*
X71516184Y-83436183D01*
X71488471Y-83469951D01*
X71488468Y-83469954D01*
X71405590Y-83570941D01*
X71323412Y-83724687D01*
X71272805Y-83891510D01*
X71266993Y-83950524D01*
X71192038Y-84012038D01*
X71186658Y-84018594D01*
X71121185Y-83938815D01*
X71024494Y-83859463D01*
X70914180Y-83800498D01*
X70794482Y-83764188D01*
X70670000Y-83751928D01*
X70380750Y-83755000D01*
X70222000Y-83913750D01*
X70222000Y-84963000D01*
X70242000Y-84963000D01*
X70242000Y-85217000D01*
X70222000Y-85217000D01*
X70222000Y-86266250D01*
X70380750Y-86425000D01*
X70670000Y-86428072D01*
X70794482Y-86415812D01*
X70914180Y-86379502D01*
X71024494Y-86320537D01*
X71121185Y-86241185D01*
X71186658Y-86161406D01*
X71192038Y-86167962D01*
X71260001Y-86223738D01*
X71260000Y-87766263D01*
X71192038Y-87822038D01*
X71120000Y-87909816D01*
X71047962Y-87822038D01*
X70913387Y-87711595D01*
X70759851Y-87629528D01*
X70593255Y-87578992D01*
X70420001Y-87561928D01*
X69769999Y-87561928D01*
X69596745Y-87578992D01*
X69430149Y-87629528D01*
X69276613Y-87711595D01*
X69142038Y-87822038D01*
X69031595Y-87956613D01*
X69000386Y-88015000D01*
X67487350Y-88015000D01*
X67611898Y-87990226D01*
X67800256Y-87912205D01*
X67969774Y-87798937D01*
X68113937Y-87654774D01*
X68227205Y-87485256D01*
X68305226Y-87296898D01*
X68316535Y-87240044D01*
X68627750Y-86928829D01*
X68661517Y-86901117D01*
X68726850Y-86821510D01*
X68772110Y-86766360D01*
X68772111Y-86766359D01*
X68854289Y-86612613D01*
X68904895Y-86445790D01*
X68917700Y-86315777D01*
X68917700Y-86315767D01*
X68921981Y-86272301D01*
X68917700Y-86228835D01*
X68917700Y-85991991D01*
X68930498Y-86034180D01*
X68989463Y-86144494D01*
X69068815Y-86241185D01*
X69165506Y-86320537D01*
X69275820Y-86379502D01*
X69395518Y-86415812D01*
X69520000Y-86428072D01*
X69809250Y-86425000D01*
X69968000Y-86266250D01*
X69968000Y-85217000D01*
X69948000Y-85217000D01*
X69948000Y-84963000D01*
X69968000Y-84963000D01*
X69968000Y-83913750D01*
X69809250Y-83755000D01*
X69520000Y-83751928D01*
X69395518Y-83764188D01*
X69275820Y-83800498D01*
X69165506Y-83859463D01*
X69068815Y-83938815D01*
X68989463Y-84035506D01*
X68930498Y-84145820D01*
X68917700Y-84188009D01*
X68917700Y-83243878D01*
X70815050Y-81346529D01*
X70848817Y-81318817D01*
X70915898Y-81237080D01*
X70953342Y-81191454D01*
X70959411Y-81184059D01*
X71041589Y-81030313D01*
X71092195Y-80863490D01*
X71105000Y-80733477D01*
X71105000Y-80733467D01*
X71109281Y-80690001D01*
X71105000Y-80646535D01*
X71105000Y-80599981D01*
X71120000Y-80581704D01*
X71168815Y-80641185D01*
X71265506Y-80720537D01*
X71325270Y-80752482D01*
X71385026Y-80864276D01*
X71480000Y-80980001D01*
X71508997Y-81003798D01*
X71595122Y-81089923D01*
X71618921Y-81118923D01*
X71734646Y-81213896D01*
X71866675Y-81284468D01*
X72009936Y-81327925D01*
X72121589Y-81338922D01*
X72121599Y-81338922D01*
X72158921Y-81342598D01*
X72196244Y-81338922D01*
X74430000Y-81338922D01*
X74430000Y-81355924D01*
X74504155Y-81355924D01*
X74479285Y-81400795D01*
X74462531Y-81453141D01*
X74430000Y-81485672D01*
X74437447Y-81553922D01*
X74430000Y-81622172D01*
X74462531Y-81654703D01*
X74479285Y-81707049D01*
X74539922Y-81816453D01*
X74592559Y-81878637D01*
X74534463Y-81949428D01*
X74475498Y-82059742D01*
X74462247Y-82103425D01*
X74430000Y-82135672D01*
X74437095Y-82200695D01*
X74426928Y-82303922D01*
X74426928Y-82753922D01*
X74439188Y-82878404D01*
X74475498Y-82998102D01*
X74534463Y-83108416D01*
X74613815Y-83205107D01*
X74710506Y-83284459D01*
X74820820Y-83343424D01*
X74940518Y-83379734D01*
X75065000Y-83391994D01*
X76515000Y-83391994D01*
X76639482Y-83379734D01*
X76759180Y-83343424D01*
X76869494Y-83284459D01*
X76966185Y-83205107D01*
X77045537Y-83108416D01*
X77104502Y-82998102D01*
X77140812Y-82878404D01*
X77153072Y-82753922D01*
X77153072Y-82303922D01*
X77142905Y-82200695D01*
X77150000Y-82135672D01*
X77117753Y-82103425D01*
X77104502Y-82059742D01*
X77045537Y-81949428D01*
X76987441Y-81878637D01*
X77040078Y-81816453D01*
X77100715Y-81707049D01*
X77117469Y-81654703D01*
X77150000Y-81622172D01*
X77142553Y-81553922D01*
X77150000Y-81485672D01*
X77117469Y-81453141D01*
X77100715Y-81400795D01*
X77040078Y-81291391D01*
X76987441Y-81229207D01*
X77045537Y-81158416D01*
X77104502Y-81048102D01*
X77117753Y-81004419D01*
X77150000Y-80972172D01*
X77142905Y-80907149D01*
X77153072Y-80803922D01*
X77153072Y-80353922D01*
X77143223Y-80253922D01*
X77153072Y-80153922D01*
X77153072Y-79703922D01*
X77143223Y-79603922D01*
X77153072Y-79503922D01*
X77153072Y-79053922D01*
X77143223Y-78953922D01*
X77153072Y-78853922D01*
X77153072Y-78403922D01*
X77140812Y-78279440D01*
X77104502Y-78159742D01*
X77045537Y-78049428D01*
X76966185Y-77952737D01*
X76869494Y-77873385D01*
X76759180Y-77814420D01*
X76639482Y-77778110D01*
X76515000Y-77765850D01*
X76444326Y-77765850D01*
X76424974Y-77729646D01*
X76330001Y-77613921D01*
X76301004Y-77590124D01*
X75739881Y-77029002D01*
X75716079Y-76999999D01*
X75600354Y-76905026D01*
X75468325Y-76834454D01*
X75325064Y-76790997D01*
X75213411Y-76780000D01*
X75213400Y-76780000D01*
X75176078Y-76776324D01*
X75138756Y-76780000D01*
X72799518Y-76780000D01*
X72774494Y-76759463D01*
X72664180Y-76700498D01*
X72544482Y-76664188D01*
X72420000Y-76651928D01*
X71620000Y-76651928D01*
X71495518Y-76664188D01*
X71375820Y-76700498D01*
X71265506Y-76759463D01*
X71168815Y-76838815D01*
X71120000Y-76898296D01*
X71071185Y-76838815D01*
X70974494Y-76759463D01*
X70864180Y-76700498D01*
X70744482Y-76664188D01*
X70620000Y-76651928D01*
X70583507Y-76651928D01*
X70171534Y-76239956D01*
X70143817Y-76206183D01*
X70009059Y-76095589D01*
X69855313Y-76013411D01*
X69688490Y-75962805D01*
X69558477Y-75950000D01*
X69558469Y-75950000D01*
X69515000Y-75945719D01*
X69471531Y-75950000D01*
X68483454Y-75950000D01*
X68435256Y-75917795D01*
X68246898Y-75839774D01*
X68046939Y-75800000D01*
X67843061Y-75800000D01*
X67643102Y-75839774D01*
X67454744Y-75917795D01*
X67285226Y-76031063D01*
X67141063Y-76175226D01*
X67027795Y-76344744D01*
X66949774Y-76533102D01*
X66910000Y-76733061D01*
X66910000Y-76936939D01*
X66949774Y-77136898D01*
X67027795Y-77325256D01*
X67114487Y-77455000D01*
X65848465Y-77455000D01*
X65804999Y-77450719D01*
X65761533Y-77455000D01*
X65761523Y-77455000D01*
X65631510Y-77467805D01*
X65464687Y-77518411D01*
X65310941Y-77600589D01*
X65176183Y-77711183D01*
X65148466Y-77744956D01*
X64809952Y-78083470D01*
X64776184Y-78111183D01*
X64748471Y-78144951D01*
X64748468Y-78144954D01*
X64665590Y-78245941D01*
X64583412Y-78399687D01*
X64532805Y-78566510D01*
X64515719Y-78740000D01*
X64520001Y-78783479D01*
X64520000Y-80530188D01*
X64174951Y-80875238D01*
X64141184Y-80902950D01*
X64113471Y-80936718D01*
X64113468Y-80936721D01*
X64030590Y-81037708D01*
X63948412Y-81191454D01*
X63897805Y-81358277D01*
X63881674Y-81522067D01*
X63717503Y-81686238D01*
X63569215Y-81908167D01*
X63467072Y-82154761D01*
X63415000Y-82416544D01*
X63415000Y-82683456D01*
X63467072Y-82945239D01*
X63569215Y-83191833D01*
X63717503Y-83413762D01*
X63906238Y-83602497D01*
X64128167Y-83750785D01*
X64374761Y-83852928D01*
X64636544Y-83905000D01*
X64903456Y-83905000D01*
X65165239Y-83852928D01*
X65411833Y-83750785D01*
X65633762Y-83602497D01*
X65822497Y-83413762D01*
X65871393Y-83340583D01*
X65871393Y-84642028D01*
X65159957Y-85353465D01*
X65103102Y-85364774D01*
X64914744Y-85442795D01*
X64745226Y-85556063D01*
X64601063Y-85700226D01*
X64487795Y-85869744D01*
X64409774Y-86058102D01*
X64370000Y-86258061D01*
X64370000Y-86461939D01*
X64409774Y-86661898D01*
X64487795Y-86850256D01*
X64601063Y-87019774D01*
X64745226Y-87163937D01*
X64914744Y-87277205D01*
X65103102Y-87355226D01*
X65303061Y-87395000D01*
X65506939Y-87395000D01*
X65706898Y-87355226D01*
X65895256Y-87277205D01*
X66064774Y-87163937D01*
X66208937Y-87019774D01*
X66275000Y-86920903D01*
X66275000Y-87096939D01*
X66314774Y-87296898D01*
X66392795Y-87485256D01*
X66506063Y-87654774D01*
X66650226Y-87798937D01*
X66819744Y-87912205D01*
X67008102Y-87990226D01*
X67132650Y-88015000D01*
X58463469Y-88015000D01*
X58420000Y-88010719D01*
X58376531Y-88015000D01*
X58376523Y-88015000D01*
X58246510Y-88027805D01*
X58079687Y-88078411D01*
X57994285Y-88124059D01*
X57925941Y-88160589D01*
X57824953Y-88243468D01*
X57824951Y-88243470D01*
X57791183Y-88271183D01*
X57763470Y-88304951D01*
X56196255Y-89872167D01*
X54209688Y-89872167D01*
X54062022Y-89651169D01*
X53820357Y-89409504D01*
X53539285Y-89221698D01*
X52714359Y-88396772D01*
X51889433Y-89221698D01*
X51608361Y-89409504D01*
X51366696Y-89651169D01*
X51176822Y-89935336D01*
X51046034Y-90251086D01*
X50979359Y-90586284D01*
X45364000Y-90586284D01*
X45364000Y-88275806D01*
X50971950Y-88275806D01*
X51016870Y-88614606D01*
X51127023Y-88938133D01*
X51233021Y-89136441D01*
X51507647Y-89244274D01*
X52534754Y-88217167D01*
X52520612Y-88203025D01*
X52700217Y-88023420D01*
X52714359Y-88037562D01*
X52728502Y-88023420D01*
X52908107Y-88203025D01*
X52893964Y-88217167D01*
X53921071Y-89244274D01*
X54195697Y-89136441D01*
X54346575Y-88829783D01*
X54434728Y-88499582D01*
X54456768Y-88158528D01*
X54411848Y-87819728D01*
X54301695Y-87496201D01*
X54195697Y-87297893D01*
X54185626Y-87293939D01*
X54265544Y-87228352D01*
X54344896Y-87131661D01*
X54403861Y-87021347D01*
X54440171Y-86901649D01*
X54452431Y-86777167D01*
X54452431Y-84956544D01*
X60875000Y-84956544D01*
X60875000Y-85223456D01*
X60927072Y-85485239D01*
X61029215Y-85731833D01*
X61177503Y-85953762D01*
X61366238Y-86142497D01*
X61588167Y-86290785D01*
X61834761Y-86392928D01*
X62096544Y-86445000D01*
X62363456Y-86445000D01*
X62625239Y-86392928D01*
X62871833Y-86290785D01*
X63093762Y-86142497D01*
X63282497Y-85953762D01*
X63430785Y-85731833D01*
X63532928Y-85485239D01*
X63585000Y-85223456D01*
X63585000Y-84956544D01*
X63532928Y-84694761D01*
X63430785Y-84448167D01*
X63282497Y-84226238D01*
X63093762Y-84037503D01*
X62871833Y-83889215D01*
X62625239Y-83787072D01*
X62363456Y-83735000D01*
X62096544Y-83735000D01*
X61834761Y-83787072D01*
X61588167Y-83889215D01*
X61366238Y-84037503D01*
X61177503Y-84226238D01*
X61029215Y-84448167D01*
X60927072Y-84694761D01*
X60875000Y-84956544D01*
X54452431Y-84956544D01*
X54452431Y-84577167D01*
X54440171Y-84452685D01*
X54403861Y-84332987D01*
X54344896Y-84222673D01*
X54265544Y-84125982D01*
X54168853Y-84046630D01*
X54058539Y-83987665D01*
X53938841Y-83951355D01*
X53814359Y-83939095D01*
X51614359Y-83939095D01*
X51489877Y-83951355D01*
X51370179Y-83987665D01*
X51259865Y-84046630D01*
X51163174Y-84125982D01*
X51083822Y-84222673D01*
X51024857Y-84332987D01*
X50988547Y-84452685D01*
X50976287Y-84577167D01*
X50976287Y-86777167D01*
X50988547Y-86901649D01*
X51024857Y-87021347D01*
X51083822Y-87131661D01*
X51163174Y-87228352D01*
X51243092Y-87293939D01*
X51233021Y-87297893D01*
X51082143Y-87604551D01*
X50993990Y-87934752D01*
X50971950Y-88275806D01*
X45364000Y-88275806D01*
X45364000Y-79062344D01*
X46375000Y-79062344D01*
X46375000Y-79433656D01*
X46447439Y-79797834D01*
X46589534Y-80140882D01*
X46795825Y-80449618D01*
X47058382Y-80712175D01*
X47367118Y-80918466D01*
X47710166Y-81060561D01*
X48074344Y-81133000D01*
X48445656Y-81133000D01*
X48809834Y-81060561D01*
X49087471Y-80945560D01*
X61474045Y-80945560D01*
X61535932Y-81181368D01*
X61777790Y-81294266D01*
X62037027Y-81357811D01*
X62303680Y-81369561D01*
X62567501Y-81329063D01*
X62818353Y-81237875D01*
X62924068Y-81181368D01*
X62985955Y-80945560D01*
X62230000Y-80189605D01*
X61474045Y-80945560D01*
X49087471Y-80945560D01*
X49152882Y-80918466D01*
X49461618Y-80712175D01*
X49724175Y-80449618D01*
X49930466Y-80140882D01*
X49954159Y-80083680D01*
X60870439Y-80083680D01*
X60910937Y-80347501D01*
X61002125Y-80598353D01*
X61058632Y-80704068D01*
X61294440Y-80765955D01*
X62050395Y-80010000D01*
X62409605Y-80010000D01*
X63165560Y-80765955D01*
X63401368Y-80704068D01*
X63514266Y-80462210D01*
X63577811Y-80202973D01*
X63589561Y-79936320D01*
X63549063Y-79672499D01*
X63457875Y-79421647D01*
X63401368Y-79315932D01*
X63165560Y-79254045D01*
X62409605Y-80010000D01*
X62050395Y-80010000D01*
X61294440Y-79254045D01*
X61058632Y-79315932D01*
X60945734Y-79557790D01*
X60882189Y-79817027D01*
X60870439Y-80083680D01*
X49954159Y-80083680D01*
X50072561Y-79797834D01*
X50145000Y-79433656D01*
X50145000Y-79074440D01*
X61474045Y-79074440D01*
X62230000Y-79830395D01*
X62985955Y-79074440D01*
X62924068Y-78838632D01*
X62682210Y-78725734D01*
X62422973Y-78662189D01*
X62156320Y-78650439D01*
X61892499Y-78690937D01*
X61641647Y-78782125D01*
X61535932Y-78838632D01*
X61474045Y-79074440D01*
X50145000Y-79074440D01*
X50145000Y-79062344D01*
X50072561Y-78698166D01*
X49930466Y-78355118D01*
X49724175Y-78046382D01*
X49461618Y-77783825D01*
X49152882Y-77577534D01*
X48809834Y-77435439D01*
X48445656Y-77363000D01*
X48074344Y-77363000D01*
X47710166Y-77435439D01*
X47367118Y-77577534D01*
X47058382Y-77783825D01*
X46795825Y-78046382D01*
X46589534Y-78355118D01*
X46447439Y-78698166D01*
X46375000Y-79062344D01*
X45364000Y-79062344D01*
X45364000Y-75590000D01*
X108560000Y-75590000D01*
X108560000Y-84802652D01*
G36*
X71395852Y-93406340D02*
G01*
X71362085Y-93434052D01*
X71334372Y-93467820D01*
X71334369Y-93467823D01*
X71251491Y-93568810D01*
X71169313Y-93722556D01*
X71118706Y-93889379D01*
X71101620Y-94062869D01*
X71105902Y-94106348D01*
X71105901Y-95119956D01*
X70975847Y-95250010D01*
X70862579Y-95419528D01*
X70784558Y-95607886D01*
X70773249Y-95664740D01*
X63587159Y-102850832D01*
X63589561Y-102796320D01*
X63549063Y-102532499D01*
X63457875Y-102281647D01*
X63401368Y-102175932D01*
X63165560Y-102114045D01*
X62409605Y-102870000D01*
X62423748Y-102884143D01*
X62244143Y-103063748D01*
X62230000Y-103049605D01*
X61474045Y-103805560D01*
X61535932Y-104041368D01*
X61777790Y-104154266D01*
X61993412Y-104207120D01*
X54715891Y-104207120D01*
X54397506Y-103888735D01*
X54449359Y-103628050D01*
X54449359Y-103286284D01*
X54382684Y-102951086D01*
X54379617Y-102943680D01*
X60870439Y-102943680D01*
X60910937Y-103207501D01*
X61002125Y-103458353D01*
X61058632Y-103564068D01*
X61294440Y-103625955D01*
X62050395Y-102870000D01*
X61294440Y-102114045D01*
X61058632Y-102175932D01*
X60945734Y-102417790D01*
X60882189Y-102677027D01*
X60870439Y-102943680D01*
X54379617Y-102943680D01*
X54251896Y-102635336D01*
X54062022Y-102351169D01*
X53898020Y-102187167D01*
X54062022Y-102023165D01*
X54209688Y-101802167D01*
X61508760Y-101802167D01*
X61474045Y-101934440D01*
X62230000Y-102690395D01*
X62985955Y-101934440D01*
X62924068Y-101698632D01*
X62682210Y-101585734D01*
X62521255Y-101546280D01*
X62521616Y-101545984D01*
X62549333Y-101512211D01*
X71528659Y-92532886D01*
X72269306Y-92532886D01*
X71395852Y-93406340D01*
X71395852Y-93406340D01*
G37*
X71395852Y-93406340D02*
X71362085Y-93434052D01*
X71334372Y-93467820D01*
X71334369Y-93467823D01*
X71251491Y-93568810D01*
X71169313Y-93722556D01*
X71118706Y-93889379D01*
X71101620Y-94062869D01*
X71105902Y-94106348D01*
X71105901Y-95119956D01*
X70975847Y-95250010D01*
X70862579Y-95419528D01*
X70784558Y-95607886D01*
X70773249Y-95664740D01*
X63587159Y-102850832D01*
X63589561Y-102796320D01*
X63549063Y-102532499D01*
X63457875Y-102281647D01*
X63401368Y-102175932D01*
X63165560Y-102114045D01*
X62409605Y-102870000D01*
X62423748Y-102884143D01*
X62244143Y-103063748D01*
X62230000Y-103049605D01*
X61474045Y-103805560D01*
X61535932Y-104041368D01*
X61777790Y-104154266D01*
X61993412Y-104207120D01*
X54715891Y-104207120D01*
X54397506Y-103888735D01*
X54449359Y-103628050D01*
X54449359Y-103286284D01*
X54382684Y-102951086D01*
X54379617Y-102943680D01*
X60870439Y-102943680D01*
X60910937Y-103207501D01*
X61002125Y-103458353D01*
X61058632Y-103564068D01*
X61294440Y-103625955D01*
X62050395Y-102870000D01*
X61294440Y-102114045D01*
X61058632Y-102175932D01*
X60945734Y-102417790D01*
X60882189Y-102677027D01*
X60870439Y-102943680D01*
X54379617Y-102943680D01*
X54251896Y-102635336D01*
X54062022Y-102351169D01*
X53898020Y-102187167D01*
X54062022Y-102023165D01*
X54209688Y-101802167D01*
X61508760Y-101802167D01*
X61474045Y-101934440D01*
X62230000Y-102690395D01*
X62985955Y-101934440D01*
X62924068Y-101698632D01*
X62682210Y-101585734D01*
X62521255Y-101546280D01*
X62521616Y-101545984D01*
X62549333Y-101512211D01*
X71528659Y-92532886D01*
X72269306Y-92532886D01*
X71395852Y-93406340D01*
G36*
X69031595Y-89843387D02*
G01*
X69142038Y-89977962D01*
X69276613Y-90088405D01*
X69430149Y-90170472D01*
X69596745Y-90221008D01*
X69769999Y-90238072D01*
X70420001Y-90238072D01*
X70593255Y-90221008D01*
X70759851Y-90170472D01*
X70913387Y-90088405D01*
X71047962Y-89977962D01*
X71120000Y-89890184D01*
X71192038Y-89977962D01*
X71326613Y-90088405D01*
X71480149Y-90170472D01*
X71646745Y-90221008D01*
X71819999Y-90238072D01*
X72470001Y-90238072D01*
X72643255Y-90221008D01*
X72796231Y-90174604D01*
X72796231Y-90212655D01*
X72246001Y-90762886D01*
X71205549Y-90762886D01*
X71162080Y-90758605D01*
X71118611Y-90762886D01*
X71118603Y-90762886D01*
X70988590Y-90775691D01*
X70821767Y-90826297D01*
X70723596Y-90878770D01*
X70668021Y-90908475D01*
X70567033Y-90991354D01*
X70567031Y-90991356D01*
X70533263Y-91019069D01*
X70505550Y-91052837D01*
X61526221Y-100032167D01*
X54209688Y-100032167D01*
X54062022Y-99811169D01*
X53898020Y-99647167D01*
X54062022Y-99483165D01*
X54251896Y-99198998D01*
X54382684Y-98883248D01*
X54449359Y-98548050D01*
X54449359Y-98206284D01*
X54382684Y-97871086D01*
X54251896Y-97555336D01*
X54062022Y-97271169D01*
X53898020Y-97107167D01*
X54062022Y-96943165D01*
X54251896Y-96658998D01*
X54364750Y-96386544D01*
X60875000Y-96386544D01*
X60875000Y-96653456D01*
X60927072Y-96915239D01*
X61029215Y-97161833D01*
X61177503Y-97383762D01*
X61366238Y-97572497D01*
X61588167Y-97720785D01*
X61834761Y-97822928D01*
X62096544Y-97875000D01*
X62363456Y-97875000D01*
X62625239Y-97822928D01*
X62871833Y-97720785D01*
X63093762Y-97572497D01*
X63282497Y-97383762D01*
X63430785Y-97161833D01*
X63532928Y-96915239D01*
X63585000Y-96653456D01*
X63585000Y-96386544D01*
X63532928Y-96124761D01*
X63430785Y-95878167D01*
X63282497Y-95656238D01*
X63093762Y-95467503D01*
X62871833Y-95319215D01*
X62625239Y-95217072D01*
X62363456Y-95165000D01*
X62096544Y-95165000D01*
X61834761Y-95217072D01*
X61588167Y-95319215D01*
X61366238Y-95467503D01*
X61177503Y-95656238D01*
X61029215Y-95878167D01*
X60927072Y-96124761D01*
X60875000Y-96386544D01*
X54364750Y-96386544D01*
X54382684Y-96343248D01*
X54449359Y-96008050D01*
X54449359Y-95666284D01*
X54382684Y-95331086D01*
X54251896Y-95015336D01*
X54062022Y-94731169D01*
X53898020Y-94567167D01*
X54062022Y-94403165D01*
X54251896Y-94118998D01*
X54364750Y-93846544D01*
X63415000Y-93846544D01*
X63415000Y-94113456D01*
X63467072Y-94375239D01*
X63569215Y-94621833D01*
X63717503Y-94843762D01*
X63906238Y-95032497D01*
X64128167Y-95180785D01*
X64374761Y-95282928D01*
X64636544Y-95335000D01*
X64903456Y-95335000D01*
X65165239Y-95282928D01*
X65411833Y-95180785D01*
X65633762Y-95032497D01*
X65822497Y-94843762D01*
X65970785Y-94621833D01*
X66072928Y-94375239D01*
X66125000Y-94113456D01*
X66125000Y-93846544D01*
X66072928Y-93584761D01*
X65970785Y-93338167D01*
X65822497Y-93116238D01*
X65633762Y-92927503D01*
X65411833Y-92779215D01*
X65165239Y-92677072D01*
X64903456Y-92625000D01*
X64636544Y-92625000D01*
X64374761Y-92677072D01*
X64128167Y-92779215D01*
X63906238Y-92927503D01*
X63717503Y-93116238D01*
X63569215Y-93338167D01*
X63467072Y-93584761D01*
X63415000Y-93846544D01*
X54364750Y-93846544D01*
X54382684Y-93803248D01*
X54449359Y-93468050D01*
X54449359Y-93126284D01*
X54382684Y-92791086D01*
X54251896Y-92475336D01*
X54185228Y-92375560D01*
X61474045Y-92375560D01*
X61535932Y-92611368D01*
X61777790Y-92724266D01*
X62037027Y-92787811D01*
X62303680Y-92799561D01*
X62567501Y-92759063D01*
X62818353Y-92667875D01*
X62924068Y-92611368D01*
X62985955Y-92375560D01*
X62230000Y-91619605D01*
X61474045Y-92375560D01*
X54185228Y-92375560D01*
X54062022Y-92191169D01*
X53898020Y-92027167D01*
X54062022Y-91863165D01*
X54209688Y-91642167D01*
X56519364Y-91642167D01*
X56562833Y-91646448D01*
X56606302Y-91642167D01*
X56606310Y-91642167D01*
X56736323Y-91629362D01*
X56903146Y-91578756D01*
X57024896Y-91513680D01*
X60870439Y-91513680D01*
X60910937Y-91777501D01*
X61002125Y-92028353D01*
X61058632Y-92134068D01*
X61294440Y-92195955D01*
X62050395Y-91440000D01*
X62409605Y-91440000D01*
X63165560Y-92195955D01*
X63401368Y-92134068D01*
X63514266Y-91892210D01*
X63577811Y-91632973D01*
X63589561Y-91366320D01*
X63549063Y-91102499D01*
X63457875Y-90851647D01*
X63401368Y-90745932D01*
X63165560Y-90684045D01*
X62409605Y-91440000D01*
X62050395Y-91440000D01*
X61294440Y-90684045D01*
X61058632Y-90745932D01*
X60945734Y-90987790D01*
X60882189Y-91247027D01*
X60870439Y-91513680D01*
X57024896Y-91513680D01*
X57056892Y-91496578D01*
X57191650Y-91385984D01*
X57219367Y-91352211D01*
X58067138Y-90504440D01*
X61474045Y-90504440D01*
X62230000Y-91260395D01*
X62985955Y-90504440D01*
X62924068Y-90268632D01*
X62682210Y-90155734D01*
X62422973Y-90092189D01*
X62156320Y-90080439D01*
X61892499Y-90120937D01*
X61641647Y-90212125D01*
X61535932Y-90268632D01*
X61474045Y-90504440D01*
X58067138Y-90504440D01*
X58786579Y-89785000D01*
X69000386Y-89785000D01*
X69031595Y-89843387D01*
X69031595Y-89843387D01*
G37*
X69031595Y-89843387D02*
X69142038Y-89977962D01*
X69276613Y-90088405D01*
X69430149Y-90170472D01*
X69596745Y-90221008D01*
X69769999Y-90238072D01*
X70420001Y-90238072D01*
X70593255Y-90221008D01*
X70759851Y-90170472D01*
X70913387Y-90088405D01*
X71047962Y-89977962D01*
X71120000Y-89890184D01*
X71192038Y-89977962D01*
X71326613Y-90088405D01*
X71480149Y-90170472D01*
X71646745Y-90221008D01*
X71819999Y-90238072D01*
X72470001Y-90238072D01*
X72643255Y-90221008D01*
X72796231Y-90174604D01*
X72796231Y-90212655D01*
X72246001Y-90762886D01*
X71205549Y-90762886D01*
X71162080Y-90758605D01*
X71118611Y-90762886D01*
X71118603Y-90762886D01*
X70988590Y-90775691D01*
X70821767Y-90826297D01*
X70723596Y-90878770D01*
X70668021Y-90908475D01*
X70567033Y-90991354D01*
X70567031Y-90991356D01*
X70533263Y-91019069D01*
X70505550Y-91052837D01*
X61526221Y-100032167D01*
X54209688Y-100032167D01*
X54062022Y-99811169D01*
X53898020Y-99647167D01*
X54062022Y-99483165D01*
X54251896Y-99198998D01*
X54382684Y-98883248D01*
X54449359Y-98548050D01*
X54449359Y-98206284D01*
X54382684Y-97871086D01*
X54251896Y-97555336D01*
X54062022Y-97271169D01*
X53898020Y-97107167D01*
X54062022Y-96943165D01*
X54251896Y-96658998D01*
X54364750Y-96386544D01*
X60875000Y-96386544D01*
X60875000Y-96653456D01*
X60927072Y-96915239D01*
X61029215Y-97161833D01*
X61177503Y-97383762D01*
X61366238Y-97572497D01*
X61588167Y-97720785D01*
X61834761Y-97822928D01*
X62096544Y-97875000D01*
X62363456Y-97875000D01*
X62625239Y-97822928D01*
X62871833Y-97720785D01*
X63093762Y-97572497D01*
X63282497Y-97383762D01*
X63430785Y-97161833D01*
X63532928Y-96915239D01*
X63585000Y-96653456D01*
X63585000Y-96386544D01*
X63532928Y-96124761D01*
X63430785Y-95878167D01*
X63282497Y-95656238D01*
X63093762Y-95467503D01*
X62871833Y-95319215D01*
X62625239Y-95217072D01*
X62363456Y-95165000D01*
X62096544Y-95165000D01*
X61834761Y-95217072D01*
X61588167Y-95319215D01*
X61366238Y-95467503D01*
X61177503Y-95656238D01*
X61029215Y-95878167D01*
X60927072Y-96124761D01*
X60875000Y-96386544D01*
X54364750Y-96386544D01*
X54382684Y-96343248D01*
X54449359Y-96008050D01*
X54449359Y-95666284D01*
X54382684Y-95331086D01*
X54251896Y-95015336D01*
X54062022Y-94731169D01*
X53898020Y-94567167D01*
X54062022Y-94403165D01*
X54251896Y-94118998D01*
X54364750Y-93846544D01*
X63415000Y-93846544D01*
X63415000Y-94113456D01*
X63467072Y-94375239D01*
X63569215Y-94621833D01*
X63717503Y-94843762D01*
X63906238Y-95032497D01*
X64128167Y-95180785D01*
X64374761Y-95282928D01*
X64636544Y-95335000D01*
X64903456Y-95335000D01*
X65165239Y-95282928D01*
X65411833Y-95180785D01*
X65633762Y-95032497D01*
X65822497Y-94843762D01*
X65970785Y-94621833D01*
X66072928Y-94375239D01*
X66125000Y-94113456D01*
X66125000Y-93846544D01*
X66072928Y-93584761D01*
X65970785Y-93338167D01*
X65822497Y-93116238D01*
X65633762Y-92927503D01*
X65411833Y-92779215D01*
X65165239Y-92677072D01*
X64903456Y-92625000D01*
X64636544Y-92625000D01*
X64374761Y-92677072D01*
X64128167Y-92779215D01*
X63906238Y-92927503D01*
X63717503Y-93116238D01*
X63569215Y-93338167D01*
X63467072Y-93584761D01*
X63415000Y-93846544D01*
X54364750Y-93846544D01*
X54382684Y-93803248D01*
X54449359Y-93468050D01*
X54449359Y-93126284D01*
X54382684Y-92791086D01*
X54251896Y-92475336D01*
X54185228Y-92375560D01*
X61474045Y-92375560D01*
X61535932Y-92611368D01*
X61777790Y-92724266D01*
X62037027Y-92787811D01*
X62303680Y-92799561D01*
X62567501Y-92759063D01*
X62818353Y-92667875D01*
X62924068Y-92611368D01*
X62985955Y-92375560D01*
X62230000Y-91619605D01*
X61474045Y-92375560D01*
X54185228Y-92375560D01*
X54062022Y-92191169D01*
X53898020Y-92027167D01*
X54062022Y-91863165D01*
X54209688Y-91642167D01*
X56519364Y-91642167D01*
X56562833Y-91646448D01*
X56606302Y-91642167D01*
X56606310Y-91642167D01*
X56736323Y-91629362D01*
X56903146Y-91578756D01*
X57024896Y-91513680D01*
X60870439Y-91513680D01*
X60910937Y-91777501D01*
X61002125Y-92028353D01*
X61058632Y-92134068D01*
X61294440Y-92195955D01*
X62050395Y-91440000D01*
X62409605Y-91440000D01*
X63165560Y-92195955D01*
X63401368Y-92134068D01*
X63514266Y-91892210D01*
X63577811Y-91632973D01*
X63589561Y-91366320D01*
X63549063Y-91102499D01*
X63457875Y-90851647D01*
X63401368Y-90745932D01*
X63165560Y-90684045D01*
X62409605Y-91440000D01*
X62050395Y-91440000D01*
X61294440Y-90684045D01*
X61058632Y-90745932D01*
X60945734Y-90987790D01*
X60882189Y-91247027D01*
X60870439Y-91513680D01*
X57024896Y-91513680D01*
X57056892Y-91496578D01*
X57191650Y-91385984D01*
X57219367Y-91352211D01*
X58067138Y-90504440D01*
X61474045Y-90504440D01*
X62230000Y-91260395D01*
X62985955Y-90504440D01*
X62924068Y-90268632D01*
X62682210Y-90155734D01*
X62422973Y-90092189D01*
X62156320Y-90080439D01*
X61892499Y-90120937D01*
X61641647Y-90212125D01*
X61535932Y-90268632D01*
X61474045Y-90504440D01*
X58067138Y-90504440D01*
X58786579Y-89785000D01*
X69000386Y-89785000D01*
X69031595Y-89843387D01*
G36*
X96491000Y-95602578D02*
G01*
X96491000Y-95821880D01*
X96542457Y-96080572D01*
X96643393Y-96324254D01*
X96789931Y-96543563D01*
X96976437Y-96730069D01*
X97099236Y-96812121D01*
X97085477Y-96865872D01*
X97830000Y-97610395D01*
X98574523Y-96865872D01*
X98560764Y-96812121D01*
X98683563Y-96730069D01*
X98870069Y-96543563D01*
X99016607Y-96324254D01*
X99080000Y-96171209D01*
X99143393Y-96324254D01*
X99289931Y-96543563D01*
X99291268Y-96544900D01*
X99271506Y-96555463D01*
X99174815Y-96634815D01*
X99095463Y-96731506D01*
X99036498Y-96841820D01*
X99000188Y-96961518D01*
X98987928Y-97086000D01*
X98987928Y-97105326D01*
X98754128Y-97045477D01*
X98009605Y-97790000D01*
X98754128Y-98534523D01*
X98987928Y-98474674D01*
X98987928Y-98494000D01*
X99000188Y-98618482D01*
X99036498Y-98738180D01*
X99095463Y-98848494D01*
X99174815Y-98945185D01*
X99271506Y-99024537D01*
X99381820Y-99083502D01*
X99501518Y-99119812D01*
X99626000Y-99132072D01*
X99867931Y-99132072D01*
X99695746Y-99203393D01*
X99476437Y-99349931D01*
X99289931Y-99536437D01*
X99147434Y-99749699D01*
X99117543Y-99599428D01*
X99016607Y-99355746D01*
X98870069Y-99136437D01*
X98683563Y-98949931D01*
X98538904Y-98853273D01*
X98574523Y-98714128D01*
X97830000Y-97969605D01*
X97815858Y-97983748D01*
X97636253Y-97804143D01*
X97650395Y-97790000D01*
X96905872Y-97045477D01*
X96671695Y-97105423D01*
X96560398Y-97344551D01*
X96536029Y-97444451D01*
X96135000Y-97043422D01*
X96135000Y-95246578D01*
X96491000Y-95602578D01*
X96491000Y-95602578D01*
G37*
X96491000Y-95602578D02*
X96491000Y-95821880D01*
X96542457Y-96080572D01*
X96643393Y-96324254D01*
X96789931Y-96543563D01*
X96976437Y-96730069D01*
X97099236Y-96812121D01*
X97085477Y-96865872D01*
X97830000Y-97610395D01*
X98574523Y-96865872D01*
X98560764Y-96812121D01*
X98683563Y-96730069D01*
X98870069Y-96543563D01*
X99016607Y-96324254D01*
X99080000Y-96171209D01*
X99143393Y-96324254D01*
X99289931Y-96543563D01*
X99291268Y-96544900D01*
X99271506Y-96555463D01*
X99174815Y-96634815D01*
X99095463Y-96731506D01*
X99036498Y-96841820D01*
X99000188Y-96961518D01*
X98987928Y-97086000D01*
X98987928Y-97105326D01*
X98754128Y-97045477D01*
X98009605Y-97790000D01*
X98754128Y-98534523D01*
X98987928Y-98474674D01*
X98987928Y-98494000D01*
X99000188Y-98618482D01*
X99036498Y-98738180D01*
X99095463Y-98848494D01*
X99174815Y-98945185D01*
X99271506Y-99024537D01*
X99381820Y-99083502D01*
X99501518Y-99119812D01*
X99626000Y-99132072D01*
X99867931Y-99132072D01*
X99695746Y-99203393D01*
X99476437Y-99349931D01*
X99289931Y-99536437D01*
X99147434Y-99749699D01*
X99117543Y-99599428D01*
X99016607Y-99355746D01*
X98870069Y-99136437D01*
X98683563Y-98949931D01*
X98538904Y-98853273D01*
X98574523Y-98714128D01*
X97830000Y-97969605D01*
X97815858Y-97983748D01*
X97636253Y-97804143D01*
X97650395Y-97790000D01*
X96905872Y-97045477D01*
X96671695Y-97105423D01*
X96560398Y-97344551D01*
X96536029Y-97444451D01*
X96135000Y-97043422D01*
X96135000Y-95246578D01*
X96491000Y-95602578D01*
G36*
X93095000Y-99463422D02*
G01*
X91055000Y-97423422D01*
X91055000Y-92118465D01*
X91059281Y-92074999D01*
X91055000Y-92031533D01*
X91055000Y-92031523D01*
X91042195Y-91901510D01*
X90991589Y-91734687D01*
X90909411Y-91580941D01*
X90854211Y-91513680D01*
X90826532Y-91479953D01*
X90826530Y-91479951D01*
X90798817Y-91446183D01*
X90765049Y-91418470D01*
X88515000Y-89168422D01*
X88515000Y-89059701D01*
X88554482Y-89055812D01*
X88674180Y-89019502D01*
X88784494Y-88960537D01*
X88881185Y-88881185D01*
X88960537Y-88784494D01*
X89019502Y-88674180D01*
X89035117Y-88622702D01*
X89316903Y-88622702D01*
X89388486Y-88866671D01*
X89643996Y-88987571D01*
X89918184Y-89056300D01*
X90200512Y-89070217D01*
X90480130Y-89028787D01*
X90746292Y-88933603D01*
X90871514Y-88866671D01*
X90943097Y-88622702D01*
X90130000Y-87809605D01*
X89316903Y-88622702D01*
X89035117Y-88622702D01*
X89055812Y-88554482D01*
X89068072Y-88430000D01*
X89068072Y-88422785D01*
X89137298Y-88443097D01*
X89950395Y-87630000D01*
X90309605Y-87630000D01*
X91122702Y-88443097D01*
X91366671Y-88371514D01*
X91487571Y-88116004D01*
X91556300Y-87841816D01*
X91570217Y-87559488D01*
X91528787Y-87279870D01*
X91433603Y-87013708D01*
X91366671Y-86888486D01*
X91122702Y-86816903D01*
X90309605Y-87630000D01*
X89950395Y-87630000D01*
X89137298Y-86816903D01*
X89068072Y-86837215D01*
X89068072Y-86830000D01*
X89055812Y-86705518D01*
X89035118Y-86637298D01*
X89316903Y-86637298D01*
X90130000Y-87450395D01*
X90943097Y-86637298D01*
X90871514Y-86393329D01*
X90616004Y-86272429D01*
X90341816Y-86203700D01*
X90059488Y-86189783D01*
X89779870Y-86231213D01*
X89513708Y-86326397D01*
X89388486Y-86393329D01*
X89316903Y-86637298D01*
X89035118Y-86637298D01*
X89019502Y-86585820D01*
X88960537Y-86475506D01*
X88881185Y-86378815D01*
X88784494Y-86299463D01*
X88674180Y-86240498D01*
X88554482Y-86204188D01*
X88430000Y-86191928D01*
X86830000Y-86191928D01*
X86705518Y-86204188D01*
X86585820Y-86240498D01*
X86475506Y-86299463D01*
X86378815Y-86378815D01*
X86359189Y-86402729D01*
X86353817Y-86396183D01*
X86320046Y-86368468D01*
X86220000Y-86268422D01*
X86220000Y-83683737D01*
X86287962Y-83627962D01*
X86293342Y-83621406D01*
X86358815Y-83701185D01*
X86455506Y-83780537D01*
X86565820Y-83839502D01*
X86685518Y-83875812D01*
X86810000Y-83888072D01*
X87099250Y-83885000D01*
X87258000Y-83726250D01*
X87258000Y-82677000D01*
X87512000Y-82677000D01*
X87512000Y-83726250D01*
X87670750Y-83885000D01*
X87960000Y-83888072D01*
X88084482Y-83875812D01*
X88204180Y-83839502D01*
X88314494Y-83780537D01*
X88411185Y-83701185D01*
X88490537Y-83604494D01*
X88549502Y-83494180D01*
X88585812Y-83374482D01*
X88598072Y-83250000D01*
X88595000Y-82835750D01*
X88436250Y-82677000D01*
X87512000Y-82677000D01*
X87258000Y-82677000D01*
X87238000Y-82677000D01*
X87238000Y-82423000D01*
X87258000Y-82423000D01*
X87258000Y-82403000D01*
X87512000Y-82403000D01*
X87512000Y-82423000D01*
X88436250Y-82423000D01*
X88595000Y-82264250D01*
X88598072Y-81850000D01*
X88585812Y-81725518D01*
X88549502Y-81605820D01*
X88508975Y-81530000D01*
X89631546Y-81530000D01*
X89679744Y-81562205D01*
X89868102Y-81640226D01*
X90068061Y-81680000D01*
X90271939Y-81680000D01*
X90471898Y-81640226D01*
X90660256Y-81562205D01*
X90829774Y-81448937D01*
X90973937Y-81304774D01*
X91087205Y-81135256D01*
X91165226Y-80946898D01*
X91205000Y-80746939D01*
X91205000Y-80570903D01*
X91271063Y-80669774D01*
X91415226Y-80813937D01*
X91584744Y-80927205D01*
X91773102Y-81005226D01*
X91973061Y-81045000D01*
X92176939Y-81045000D01*
X92376898Y-81005226D01*
X92565256Y-80927205D01*
X92734774Y-80813937D01*
X92878937Y-80669774D01*
X92992205Y-80500256D01*
X93070226Y-80311898D01*
X93095001Y-80187345D01*
X93095000Y-99463422D01*
X93095000Y-99463422D01*
G37*
X93095000Y-99463422D02*
X91055000Y-97423422D01*
X91055000Y-92118465D01*
X91059281Y-92074999D01*
X91055000Y-92031533D01*
X91055000Y-92031523D01*
X91042195Y-91901510D01*
X90991589Y-91734687D01*
X90909411Y-91580941D01*
X90854211Y-91513680D01*
X90826532Y-91479953D01*
X90826530Y-91479951D01*
X90798817Y-91446183D01*
X90765049Y-91418470D01*
X88515000Y-89168422D01*
X88515000Y-89059701D01*
X88554482Y-89055812D01*
X88674180Y-89019502D01*
X88784494Y-88960537D01*
X88881185Y-88881185D01*
X88960537Y-88784494D01*
X89019502Y-88674180D01*
X89035117Y-88622702D01*
X89316903Y-88622702D01*
X89388486Y-88866671D01*
X89643996Y-88987571D01*
X89918184Y-89056300D01*
X90200512Y-89070217D01*
X90480130Y-89028787D01*
X90746292Y-88933603D01*
X90871514Y-88866671D01*
X90943097Y-88622702D01*
X90130000Y-87809605D01*
X89316903Y-88622702D01*
X89035117Y-88622702D01*
X89055812Y-88554482D01*
X89068072Y-88430000D01*
X89068072Y-88422785D01*
X89137298Y-88443097D01*
X89950395Y-87630000D01*
X90309605Y-87630000D01*
X91122702Y-88443097D01*
X91366671Y-88371514D01*
X91487571Y-88116004D01*
X91556300Y-87841816D01*
X91570217Y-87559488D01*
X91528787Y-87279870D01*
X91433603Y-87013708D01*
X91366671Y-86888486D01*
X91122702Y-86816903D01*
X90309605Y-87630000D01*
X89950395Y-87630000D01*
X89137298Y-86816903D01*
X89068072Y-86837215D01*
X89068072Y-86830000D01*
X89055812Y-86705518D01*
X89035118Y-86637298D01*
X89316903Y-86637298D01*
X90130000Y-87450395D01*
X90943097Y-86637298D01*
X90871514Y-86393329D01*
X90616004Y-86272429D01*
X90341816Y-86203700D01*
X90059488Y-86189783D01*
X89779870Y-86231213D01*
X89513708Y-86326397D01*
X89388486Y-86393329D01*
X89316903Y-86637298D01*
X89035118Y-86637298D01*
X89019502Y-86585820D01*
X88960537Y-86475506D01*
X88881185Y-86378815D01*
X88784494Y-86299463D01*
X88674180Y-86240498D01*
X88554482Y-86204188D01*
X88430000Y-86191928D01*
X86830000Y-86191928D01*
X86705518Y-86204188D01*
X86585820Y-86240498D01*
X86475506Y-86299463D01*
X86378815Y-86378815D01*
X86359189Y-86402729D01*
X86353817Y-86396183D01*
X86320046Y-86368468D01*
X86220000Y-86268422D01*
X86220000Y-83683737D01*
X86287962Y-83627962D01*
X86293342Y-83621406D01*
X86358815Y-83701185D01*
X86455506Y-83780537D01*
X86565820Y-83839502D01*
X86685518Y-83875812D01*
X86810000Y-83888072D01*
X87099250Y-83885000D01*
X87258000Y-83726250D01*
X87258000Y-82677000D01*
X87512000Y-82677000D01*
X87512000Y-83726250D01*
X87670750Y-83885000D01*
X87960000Y-83888072D01*
X88084482Y-83875812D01*
X88204180Y-83839502D01*
X88314494Y-83780537D01*
X88411185Y-83701185D01*
X88490537Y-83604494D01*
X88549502Y-83494180D01*
X88585812Y-83374482D01*
X88598072Y-83250000D01*
X88595000Y-82835750D01*
X88436250Y-82677000D01*
X87512000Y-82677000D01*
X87258000Y-82677000D01*
X87238000Y-82677000D01*
X87238000Y-82423000D01*
X87258000Y-82423000D01*
X87258000Y-82403000D01*
X87512000Y-82403000D01*
X87512000Y-82423000D01*
X88436250Y-82423000D01*
X88595000Y-82264250D01*
X88598072Y-81850000D01*
X88585812Y-81725518D01*
X88549502Y-81605820D01*
X88508975Y-81530000D01*
X89631546Y-81530000D01*
X89679744Y-81562205D01*
X89868102Y-81640226D01*
X90068061Y-81680000D01*
X90271939Y-81680000D01*
X90471898Y-81640226D01*
X90660256Y-81562205D01*
X90829774Y-81448937D01*
X90973937Y-81304774D01*
X91087205Y-81135256D01*
X91165226Y-80946898D01*
X91205000Y-80746939D01*
X91205000Y-80570903D01*
X91271063Y-80669774D01*
X91415226Y-80813937D01*
X91584744Y-80927205D01*
X91773102Y-81005226D01*
X91973061Y-81045000D01*
X92176939Y-81045000D01*
X92376898Y-81005226D01*
X92565256Y-80927205D01*
X92734774Y-80813937D01*
X92878937Y-80669774D01*
X92992205Y-80500256D01*
X93070226Y-80311898D01*
X93095001Y-80187345D01*
X93095000Y-99463422D01*
M02*
