M48
; DRILL file {KiCad (5.1.2)-2} date 2019-09-22 14:48:10
; FORMAT={-:-/ absolute / metric / decimal}
; #@! TF.CreationDate,2019-09-22T14:48:10+02:00
; #@! TF.GenerationSoftware,Kicad,Pcbnew,(5.1.2)-2
FMAT,2
METRIC
T1C0.400
T2C0.700
T3C0.800
T4C0.900
T5C1.000
T6C1.100
T7C1.110
T8C2.500
%
G90
G05
T1
X65.405Y-86.36
X67.31Y-86.995
X67.945Y-76.835
X71.78Y-95.91
X73.025Y-83.185
X77.47Y-100.33
X90.17Y-80.645
X92.075Y-80.01
X92.71Y-104.14
X92.71Y-106.68
X95.25Y-81.915
X95.25Y-105.41
X96.52Y-83.82
T2
X103.33Y-92.34
X103.33Y-105.84
X104.13Y-99.09
T3
X62.23Y-91.44
X62.23Y-96.52
X64.77Y-93.98
X62.23Y-80.01
X62.23Y-85.09
X64.77Y-82.55
X62.23Y-102.87
X62.23Y-107.95
X64.77Y-105.41
X87.63Y-87.63
X90.13Y-87.63
T4
X97.83Y-95.69
X97.83Y-97.79
X97.83Y-99.99
X97.83Y-102.49
X100.33Y-95.69
X100.33Y-97.79
X100.33Y-100.39
X100.33Y-102.49
T6
X52.714Y-85.677
X52.714Y-88.217
X52.714Y-90.757
X52.714Y-93.297
X52.714Y-95.837
X52.714Y-98.377
X52.714Y-100.917
X52.714Y-103.457
T7
X74.456Y-94.649
X74.456Y-99.729
X74.456Y-104.809
X74.456Y-109.889
X87.664Y-94.649
X87.664Y-99.729
X87.664Y-104.809
X87.664Y-108.619
T8
X105.41Y-78.74
X48.26Y-79.248
X105.41Y-110.49
X48.26Y-110.49
T5
G00X99.542Y-87.86
M15
G01X99.542Y-88.86
M16
G05
G00X105.042Y-87.86
M15
G01X105.042Y-88.86
M16
G05
G00X107.442Y-85.86
M15
G01X107.442Y-86.86
M16
G05
T0
M30
