G04 #@! TF.GenerationSoftware,KiCad,Pcbnew,(5.1.2)-2*
G04 #@! TF.CreationDate,2019-09-22T14:46:25+02:00*
G04 #@! TF.ProjectId,betsubetsu,62657473-7562-4657-9473-752e6b696361,rev?*
G04 #@! TF.SameCoordinates,Original*
G04 #@! TF.FileFunction,Copper,L2,Bot*
G04 #@! TF.FilePolarity,Positive*
%FSLAX46Y46*%
G04 Gerber Fmt 4.6, Leading zero omitted, Abs format (unit mm)*
G04 Created by KiCad (PCBNEW (5.1.2)-2) date 2019-09-22 14:46:25*
%MOMM*%
%LPD*%
G04 APERTURE LIST*
%ADD10O,1.800000X2.800000*%
%ADD11C,2.200000*%
%ADD12R,2.200000X2.200000*%
%ADD13C,1.600000*%
%ADD14R,1.600000X1.600000*%
%ADD15R,1.408000X1.408000*%
%ADD16C,1.408000*%
%ADD17O,3.000000X1.500000*%
%ADD18O,1.500000X3.000000*%
%ADD19C,1.440000*%
%ADD20C,1.665000*%
%ADD21C,0.100000*%
%ADD22C,1.150000*%
%ADD23C,0.800000*%
%ADD24C,0.500000*%
%ADD25C,0.250000*%
%ADD26C,0.254000*%
G04 APERTURE END LIST*
D10*
X99542000Y-88360000D03*
X105042000Y-88360000D03*
X107442000Y-86360000D03*
D11*
X52714359Y-103457167D03*
X52714359Y-100917167D03*
X52714359Y-98377167D03*
X52714359Y-95837167D03*
X52714359Y-93297167D03*
X52714359Y-90757167D03*
X52714359Y-88217167D03*
D12*
X52714359Y-85677167D03*
D13*
X90130000Y-87630000D03*
D14*
X87630000Y-87630000D03*
D15*
X100330000Y-97790000D03*
D16*
X100330000Y-100390000D03*
X100330000Y-102490000D03*
X97830000Y-97790000D03*
X100330000Y-95690000D03*
X97830000Y-102490000D03*
X97830000Y-99990000D03*
X97830000Y-95690000D03*
D17*
X103330000Y-92340000D03*
X103330000Y-105840000D03*
D18*
X104130000Y-99090000D03*
D19*
X62230000Y-80010000D03*
X64770000Y-82550000D03*
X62230000Y-85090000D03*
X62230000Y-96520000D03*
X64770000Y-93980000D03*
X62230000Y-91440000D03*
X62230000Y-102870000D03*
X64770000Y-105410000D03*
X62230000Y-107950000D03*
D20*
X87664001Y-108619001D03*
X87664001Y-104809001D03*
X87664001Y-99729001D03*
X87664001Y-94649001D03*
X74456001Y-94649001D03*
X74456001Y-99729001D03*
X74456001Y-104809001D03*
X74456001Y-109889001D03*
D21*
G36*
X79214505Y-107131204D02*
G01*
X79238773Y-107134804D01*
X79262572Y-107140765D01*
X79285671Y-107149030D01*
X79307850Y-107159520D01*
X79328893Y-107172132D01*
X79348599Y-107186747D01*
X79366777Y-107203223D01*
X79383253Y-107221401D01*
X79397868Y-107241107D01*
X79410480Y-107262150D01*
X79420970Y-107284329D01*
X79429235Y-107307428D01*
X79435196Y-107331227D01*
X79438796Y-107355495D01*
X79440000Y-107379999D01*
X79440000Y-108030001D01*
X79438796Y-108054505D01*
X79435196Y-108078773D01*
X79429235Y-108102572D01*
X79420970Y-108125671D01*
X79410480Y-108147850D01*
X79397868Y-108168893D01*
X79383253Y-108188599D01*
X79366777Y-108206777D01*
X79348599Y-108223253D01*
X79328893Y-108237868D01*
X79307850Y-108250480D01*
X79285671Y-108260970D01*
X79262572Y-108269235D01*
X79238773Y-108275196D01*
X79214505Y-108278796D01*
X79190001Y-108280000D01*
X78289999Y-108280000D01*
X78265495Y-108278796D01*
X78241227Y-108275196D01*
X78217428Y-108269235D01*
X78194329Y-108260970D01*
X78172150Y-108250480D01*
X78151107Y-108237868D01*
X78131401Y-108223253D01*
X78113223Y-108206777D01*
X78096747Y-108188599D01*
X78082132Y-108168893D01*
X78069520Y-108147850D01*
X78059030Y-108125671D01*
X78050765Y-108102572D01*
X78044804Y-108078773D01*
X78041204Y-108054505D01*
X78040000Y-108030001D01*
X78040000Y-107379999D01*
X78041204Y-107355495D01*
X78044804Y-107331227D01*
X78050765Y-107307428D01*
X78059030Y-107284329D01*
X78069520Y-107262150D01*
X78082132Y-107241107D01*
X78096747Y-107221401D01*
X78113223Y-107203223D01*
X78131401Y-107186747D01*
X78151107Y-107172132D01*
X78172150Y-107159520D01*
X78194329Y-107149030D01*
X78217428Y-107140765D01*
X78241227Y-107134804D01*
X78265495Y-107131204D01*
X78289999Y-107130000D01*
X79190001Y-107130000D01*
X79214505Y-107131204D01*
X79214505Y-107131204D01*
G37*
D22*
X78740000Y-107705000D03*
D21*
G36*
X79214505Y-105081204D02*
G01*
X79238773Y-105084804D01*
X79262572Y-105090765D01*
X79285671Y-105099030D01*
X79307850Y-105109520D01*
X79328893Y-105122132D01*
X79348599Y-105136747D01*
X79366777Y-105153223D01*
X79383253Y-105171401D01*
X79397868Y-105191107D01*
X79410480Y-105212150D01*
X79420970Y-105234329D01*
X79429235Y-105257428D01*
X79435196Y-105281227D01*
X79438796Y-105305495D01*
X79440000Y-105329999D01*
X79440000Y-105980001D01*
X79438796Y-106004505D01*
X79435196Y-106028773D01*
X79429235Y-106052572D01*
X79420970Y-106075671D01*
X79410480Y-106097850D01*
X79397868Y-106118893D01*
X79383253Y-106138599D01*
X79366777Y-106156777D01*
X79348599Y-106173253D01*
X79328893Y-106187868D01*
X79307850Y-106200480D01*
X79285671Y-106210970D01*
X79262572Y-106219235D01*
X79238773Y-106225196D01*
X79214505Y-106228796D01*
X79190001Y-106230000D01*
X78289999Y-106230000D01*
X78265495Y-106228796D01*
X78241227Y-106225196D01*
X78217428Y-106219235D01*
X78194329Y-106210970D01*
X78172150Y-106200480D01*
X78151107Y-106187868D01*
X78131401Y-106173253D01*
X78113223Y-106156777D01*
X78096747Y-106138599D01*
X78082132Y-106118893D01*
X78069520Y-106097850D01*
X78059030Y-106075671D01*
X78050765Y-106052572D01*
X78044804Y-106028773D01*
X78041204Y-106004505D01*
X78040000Y-105980001D01*
X78040000Y-105329999D01*
X78041204Y-105305495D01*
X78044804Y-105281227D01*
X78050765Y-105257428D01*
X78059030Y-105234329D01*
X78069520Y-105212150D01*
X78082132Y-105191107D01*
X78096747Y-105171401D01*
X78113223Y-105153223D01*
X78131401Y-105136747D01*
X78151107Y-105122132D01*
X78172150Y-105109520D01*
X78194329Y-105099030D01*
X78217428Y-105090765D01*
X78241227Y-105084804D01*
X78265495Y-105081204D01*
X78289999Y-105080000D01*
X79190001Y-105080000D01*
X79214505Y-105081204D01*
X79214505Y-105081204D01*
G37*
D22*
X78740000Y-105655000D03*
D21*
G36*
X83024505Y-105081204D02*
G01*
X83048773Y-105084804D01*
X83072572Y-105090765D01*
X83095671Y-105099030D01*
X83117850Y-105109520D01*
X83138893Y-105122132D01*
X83158599Y-105136747D01*
X83176777Y-105153223D01*
X83193253Y-105171401D01*
X83207868Y-105191107D01*
X83220480Y-105212150D01*
X83230970Y-105234329D01*
X83239235Y-105257428D01*
X83245196Y-105281227D01*
X83248796Y-105305495D01*
X83250000Y-105329999D01*
X83250000Y-105980001D01*
X83248796Y-106004505D01*
X83245196Y-106028773D01*
X83239235Y-106052572D01*
X83230970Y-106075671D01*
X83220480Y-106097850D01*
X83207868Y-106118893D01*
X83193253Y-106138599D01*
X83176777Y-106156777D01*
X83158599Y-106173253D01*
X83138893Y-106187868D01*
X83117850Y-106200480D01*
X83095671Y-106210970D01*
X83072572Y-106219235D01*
X83048773Y-106225196D01*
X83024505Y-106228796D01*
X83000001Y-106230000D01*
X82099999Y-106230000D01*
X82075495Y-106228796D01*
X82051227Y-106225196D01*
X82027428Y-106219235D01*
X82004329Y-106210970D01*
X81982150Y-106200480D01*
X81961107Y-106187868D01*
X81941401Y-106173253D01*
X81923223Y-106156777D01*
X81906747Y-106138599D01*
X81892132Y-106118893D01*
X81879520Y-106097850D01*
X81869030Y-106075671D01*
X81860765Y-106052572D01*
X81854804Y-106028773D01*
X81851204Y-106004505D01*
X81850000Y-105980001D01*
X81850000Y-105329999D01*
X81851204Y-105305495D01*
X81854804Y-105281227D01*
X81860765Y-105257428D01*
X81869030Y-105234329D01*
X81879520Y-105212150D01*
X81892132Y-105191107D01*
X81906747Y-105171401D01*
X81923223Y-105153223D01*
X81941401Y-105136747D01*
X81961107Y-105122132D01*
X81982150Y-105109520D01*
X82004329Y-105099030D01*
X82027428Y-105090765D01*
X82051227Y-105084804D01*
X82075495Y-105081204D01*
X82099999Y-105080000D01*
X83000001Y-105080000D01*
X83024505Y-105081204D01*
X83024505Y-105081204D01*
G37*
D22*
X82550000Y-105655000D03*
D21*
G36*
X83024505Y-107131204D02*
G01*
X83048773Y-107134804D01*
X83072572Y-107140765D01*
X83095671Y-107149030D01*
X83117850Y-107159520D01*
X83138893Y-107172132D01*
X83158599Y-107186747D01*
X83176777Y-107203223D01*
X83193253Y-107221401D01*
X83207868Y-107241107D01*
X83220480Y-107262150D01*
X83230970Y-107284329D01*
X83239235Y-107307428D01*
X83245196Y-107331227D01*
X83248796Y-107355495D01*
X83250000Y-107379999D01*
X83250000Y-108030001D01*
X83248796Y-108054505D01*
X83245196Y-108078773D01*
X83239235Y-108102572D01*
X83230970Y-108125671D01*
X83220480Y-108147850D01*
X83207868Y-108168893D01*
X83193253Y-108188599D01*
X83176777Y-108206777D01*
X83158599Y-108223253D01*
X83138893Y-108237868D01*
X83117850Y-108250480D01*
X83095671Y-108260970D01*
X83072572Y-108269235D01*
X83048773Y-108275196D01*
X83024505Y-108278796D01*
X83000001Y-108280000D01*
X82099999Y-108280000D01*
X82075495Y-108278796D01*
X82051227Y-108275196D01*
X82027428Y-108269235D01*
X82004329Y-108260970D01*
X81982150Y-108250480D01*
X81961107Y-108237868D01*
X81941401Y-108223253D01*
X81923223Y-108206777D01*
X81906747Y-108188599D01*
X81892132Y-108168893D01*
X81879520Y-108147850D01*
X81869030Y-108125671D01*
X81860765Y-108102572D01*
X81854804Y-108078773D01*
X81851204Y-108054505D01*
X81850000Y-108030001D01*
X81850000Y-107379999D01*
X81851204Y-107355495D01*
X81854804Y-107331227D01*
X81860765Y-107307428D01*
X81869030Y-107284329D01*
X81879520Y-107262150D01*
X81892132Y-107241107D01*
X81906747Y-107221401D01*
X81923223Y-107203223D01*
X81941401Y-107186747D01*
X81961107Y-107172132D01*
X81982150Y-107159520D01*
X82004329Y-107149030D01*
X82027428Y-107140765D01*
X82051227Y-107134804D01*
X82075495Y-107131204D01*
X82099999Y-107130000D01*
X83000001Y-107130000D01*
X83024505Y-107131204D01*
X83024505Y-107131204D01*
G37*
D22*
X82550000Y-107705000D03*
D23*
X92710000Y-106680000D03*
X92710000Y-104140000D03*
X95250000Y-105410000D03*
X95250000Y-81915000D03*
X92075000Y-80010000D03*
X96520000Y-83820000D03*
X90170000Y-80645000D03*
X71779784Y-95909784D03*
X65405000Y-86360000D03*
X73025000Y-83185000D03*
X67945000Y-76835000D03*
X77470000Y-100330000D03*
X67310000Y-86995000D03*
D24*
X76211998Y-87630000D02*
X73306394Y-84724396D01*
X87630000Y-87630000D02*
X76211998Y-87630000D01*
X73306394Y-84724396D02*
X64499573Y-84724396D01*
X64499573Y-84724396D02*
X62949870Y-83174693D01*
X54314359Y-85677167D02*
X52714359Y-85677167D01*
X56816833Y-83174693D02*
X54314359Y-85677167D01*
X62949870Y-83174693D02*
X56816833Y-83174693D01*
X95250000Y-81915000D02*
X93980000Y-81915000D01*
X93980000Y-81915000D02*
X92075000Y-80010000D01*
X61510001Y-85809999D02*
X61510001Y-88349999D01*
X62230000Y-85090000D02*
X61510001Y-85809999D01*
X61510001Y-88349999D02*
X56515000Y-93345000D01*
X56467167Y-93297167D02*
X52714359Y-93297167D01*
X56515000Y-93345000D02*
X56467167Y-93297167D01*
X53397192Y-96520000D02*
X52714359Y-95837167D01*
X62230000Y-96520000D02*
X53397192Y-96520000D01*
X52714359Y-98377167D02*
X57102167Y-98377167D01*
X57102167Y-98377167D02*
X59690000Y-100965000D01*
X59690000Y-105410000D02*
X62230000Y-107950000D01*
X59690000Y-100965000D02*
X59690000Y-105410000D01*
X96520000Y-83820000D02*
X93345000Y-83820000D01*
X93345000Y-83820000D02*
X90170000Y-80645000D01*
X87664001Y-94649001D02*
X84523002Y-97790000D01*
X73660000Y-97790000D02*
X71779784Y-95909784D01*
X84523002Y-97790000D02*
X73660000Y-97790000D01*
X64770000Y-93980000D02*
X64770000Y-86995000D01*
X64770000Y-86995000D02*
X65405000Y-86360000D01*
X73025000Y-83185000D02*
X67945000Y-78105000D01*
X67945000Y-78105000D02*
X67945000Y-76835000D01*
X74456001Y-103631669D02*
X74456001Y-99729001D01*
X74456001Y-104809001D02*
X74456001Y-103631669D01*
X103642000Y-88360000D02*
X99542000Y-88360000D01*
X105042000Y-88360000D02*
X103642000Y-88360000D01*
X95790000Y-88360000D02*
X98520000Y-88360000D01*
X98520000Y-88360000D02*
X99542000Y-88360000D01*
X74456001Y-94649001D02*
X75288500Y-93816502D01*
X98142000Y-88360000D02*
X98520000Y-88360000D01*
X75288500Y-93816502D02*
X83983498Y-93816502D01*
X92710000Y-91440000D02*
X95790000Y-88360000D01*
X83983498Y-93816502D02*
X86360000Y-91440000D01*
X86360000Y-91440000D02*
X92710000Y-91440000D01*
X78740000Y-105655000D02*
X78740000Y-101600000D01*
X78740000Y-101600000D02*
X77470000Y-100330000D01*
X65489999Y-104690001D02*
X65489999Y-100245001D01*
X64770000Y-105410000D02*
X65489999Y-104690001D01*
X65489999Y-100245001D02*
X67310000Y-98425000D01*
X67310000Y-98425000D02*
X67310000Y-86995000D01*
X100330000Y-97790000D02*
X100330000Y-100390000D01*
D25*
X99376000Y-97790000D02*
X100330000Y-97790000D01*
X98305001Y-96719001D02*
X99376000Y-97790000D01*
X94574001Y-96719001D02*
X98305001Y-96719001D01*
D24*
X89016923Y-102276079D02*
X94574001Y-96719001D01*
X82363489Y-102276079D02*
X89016923Y-102276079D01*
X80702511Y-103937057D02*
X82363489Y-102276079D01*
X80702511Y-106663568D02*
X80702511Y-103937057D01*
X78740000Y-107705000D02*
X79661079Y-107705000D01*
X79661079Y-107705000D02*
X80702511Y-106663568D01*
X107442000Y-99280930D02*
X103852930Y-102870000D01*
X107442000Y-86360000D02*
X107442000Y-99280930D01*
X103852930Y-102870000D02*
X102829012Y-102870000D01*
X75288500Y-110721500D02*
X74456001Y-109889001D01*
X102829012Y-102870000D02*
X94977512Y-110721500D01*
X82550000Y-110490000D02*
X82781500Y-110721500D01*
X82550000Y-107705000D02*
X82550000Y-110490000D01*
X94977512Y-110721500D02*
X82781500Y-110721500D01*
X82781500Y-110721500D02*
X75288500Y-110721500D01*
D26*
G36*
X108560000Y-84802652D02*
G01*
X108532661Y-84769339D01*
X108298927Y-84577519D01*
X108032261Y-84434983D01*
X107742913Y-84347210D01*
X107442000Y-84317573D01*
X107141088Y-84347210D01*
X106851740Y-84434983D01*
X106585074Y-84577519D01*
X106351340Y-84769339D01*
X106159519Y-85003073D01*
X106016983Y-85269739D01*
X105929210Y-85559087D01*
X105907000Y-85784592D01*
X105907000Y-86584144D01*
X105898927Y-86577519D01*
X105632261Y-86434983D01*
X105342913Y-86347210D01*
X105042000Y-86317573D01*
X104741088Y-86347210D01*
X104451740Y-86434983D01*
X104185074Y-86577519D01*
X103951340Y-86769339D01*
X103759519Y-87003073D01*
X103616983Y-87269739D01*
X103554718Y-87475000D01*
X101029282Y-87475000D01*
X100967017Y-87269739D01*
X100824481Y-87003073D01*
X100632661Y-86769339D01*
X100398927Y-86577519D01*
X100132261Y-86434983D01*
X99842913Y-86347210D01*
X99542000Y-86317573D01*
X99241088Y-86347210D01*
X98951740Y-86434983D01*
X98685074Y-86577519D01*
X98451340Y-86769339D01*
X98259519Y-87003073D01*
X98116983Y-87269739D01*
X98054718Y-87475000D01*
X95833469Y-87475000D01*
X95790000Y-87470719D01*
X95746531Y-87475000D01*
X95746523Y-87475000D01*
X95616510Y-87487805D01*
X95449687Y-87538411D01*
X95314650Y-87610589D01*
X95295941Y-87620589D01*
X95194953Y-87703468D01*
X95194951Y-87703470D01*
X95161183Y-87731183D01*
X95133470Y-87764951D01*
X92343422Y-90555000D01*
X86403465Y-90555000D01*
X86359999Y-90550719D01*
X86316533Y-90555000D01*
X86316523Y-90555000D01*
X86186510Y-90567805D01*
X86019687Y-90618411D01*
X85865941Y-90700589D01*
X85865939Y-90700590D01*
X85865940Y-90700590D01*
X85764953Y-90783468D01*
X85764951Y-90783470D01*
X85731183Y-90811183D01*
X85703470Y-90844951D01*
X83616920Y-92931502D01*
X75331965Y-92931502D01*
X75288499Y-92927221D01*
X75245033Y-92931502D01*
X75245023Y-92931502D01*
X75115010Y-92944307D01*
X74948187Y-92994913D01*
X74794441Y-93077091D01*
X74794439Y-93077092D01*
X74794440Y-93077092D01*
X74693453Y-93159970D01*
X74693451Y-93159972D01*
X74659683Y-93187685D01*
X74655746Y-93192483D01*
X74600537Y-93181501D01*
X74311465Y-93181501D01*
X74027947Y-93237896D01*
X73760879Y-93348519D01*
X73520524Y-93509119D01*
X73316119Y-93713524D01*
X73155519Y-93953879D01*
X73044896Y-94220947D01*
X72988501Y-94504465D01*
X72988501Y-94793537D01*
X73044896Y-95077055D01*
X73155519Y-95344123D01*
X73316119Y-95584478D01*
X73520524Y-95788883D01*
X73760879Y-95949483D01*
X74027947Y-96060106D01*
X74311465Y-96116501D01*
X74600537Y-96116501D01*
X74884055Y-96060106D01*
X75151123Y-95949483D01*
X75391478Y-95788883D01*
X75595883Y-95584478D01*
X75756483Y-95344123D01*
X75867106Y-95077055D01*
X75923501Y-94793537D01*
X75923501Y-94701502D01*
X83940029Y-94701502D01*
X83983498Y-94705783D01*
X84026967Y-94701502D01*
X84026975Y-94701502D01*
X84156988Y-94688697D01*
X84323811Y-94638091D01*
X84477557Y-94555913D01*
X84612315Y-94445319D01*
X84640032Y-94411546D01*
X86711578Y-92340000D01*
X101188299Y-92340000D01*
X101215040Y-92611507D01*
X101294236Y-92872581D01*
X101422843Y-93113188D01*
X101595919Y-93324081D01*
X101806812Y-93497157D01*
X102047419Y-93625764D01*
X102308493Y-93704960D01*
X102511963Y-93725000D01*
X104148037Y-93725000D01*
X104351507Y-93704960D01*
X104612581Y-93625764D01*
X104853188Y-93497157D01*
X105064081Y-93324081D01*
X105237157Y-93113188D01*
X105365764Y-92872581D01*
X105444960Y-92611507D01*
X105471701Y-92340000D01*
X105444960Y-92068493D01*
X105365764Y-91807419D01*
X105237157Y-91566812D01*
X105064081Y-91355919D01*
X104853188Y-91182843D01*
X104612581Y-91054236D01*
X104351507Y-90975040D01*
X104148037Y-90955000D01*
X102511963Y-90955000D01*
X102308493Y-90975040D01*
X102047419Y-91054236D01*
X101806812Y-91182843D01*
X101595919Y-91355919D01*
X101422843Y-91566812D01*
X101294236Y-91807419D01*
X101215040Y-92068493D01*
X101188299Y-92340000D01*
X86711578Y-92340000D01*
X86726579Y-92325000D01*
X92666531Y-92325000D01*
X92710000Y-92329281D01*
X92753469Y-92325000D01*
X92753477Y-92325000D01*
X92883490Y-92312195D01*
X93050313Y-92261589D01*
X93204059Y-92179411D01*
X93338817Y-92068817D01*
X93366534Y-92035044D01*
X96156579Y-89245000D01*
X98054718Y-89245000D01*
X98116983Y-89450260D01*
X98259519Y-89716926D01*
X98451339Y-89950661D01*
X98685073Y-90142481D01*
X98951739Y-90285017D01*
X99241087Y-90372790D01*
X99542000Y-90402427D01*
X99842912Y-90372790D01*
X100132260Y-90285017D01*
X100398926Y-90142481D01*
X100632661Y-89950661D01*
X100824481Y-89716927D01*
X100967017Y-89450261D01*
X101029282Y-89245000D01*
X103554718Y-89245000D01*
X103616983Y-89450260D01*
X103759519Y-89716926D01*
X103951339Y-89950661D01*
X104185073Y-90142481D01*
X104451739Y-90285017D01*
X104741087Y-90372790D01*
X105042000Y-90402427D01*
X105342912Y-90372790D01*
X105632260Y-90285017D01*
X105898926Y-90142481D01*
X106132661Y-89950661D01*
X106324481Y-89716927D01*
X106467017Y-89450261D01*
X106554790Y-89160913D01*
X106557000Y-89138472D01*
X106557001Y-98914350D01*
X105509722Y-99961630D01*
X105515000Y-99908037D01*
X105515000Y-98271963D01*
X105494960Y-98068493D01*
X105415764Y-97807419D01*
X105287157Y-97566812D01*
X105114080Y-97355919D01*
X104903187Y-97182843D01*
X104662580Y-97054236D01*
X104401506Y-96975040D01*
X104130000Y-96948299D01*
X103858493Y-96975040D01*
X103597419Y-97054236D01*
X103356812Y-97182843D01*
X103145919Y-97355920D01*
X102972843Y-97566813D01*
X102844236Y-97807420D01*
X102765040Y-98068494D01*
X102745000Y-98271964D01*
X102745000Y-99908037D01*
X102765040Y-100111507D01*
X102844237Y-100372581D01*
X102972844Y-100613188D01*
X103145920Y-100824081D01*
X103356813Y-100997157D01*
X103597420Y-101125764D01*
X103858494Y-101204960D01*
X104130000Y-101231701D01*
X104251630Y-101219722D01*
X103486352Y-101985000D01*
X102872481Y-101985000D01*
X102829012Y-101980719D01*
X102785543Y-101985000D01*
X102785535Y-101985000D01*
X102655522Y-101997805D01*
X102488699Y-102048411D01*
X102393252Y-102099428D01*
X102334953Y-102130589D01*
X102233965Y-102213468D01*
X102233963Y-102213470D01*
X102200195Y-102241183D01*
X102172482Y-102274951D01*
X101630127Y-102817306D01*
X101669000Y-102621880D01*
X101669000Y-102358120D01*
X101617543Y-102099428D01*
X101516607Y-101855746D01*
X101370069Y-101636437D01*
X101183563Y-101449931D01*
X101168700Y-101440000D01*
X101183563Y-101430069D01*
X101370069Y-101243563D01*
X101516607Y-101024254D01*
X101617543Y-100780572D01*
X101669000Y-100521880D01*
X101669000Y-100258120D01*
X101617543Y-99999428D01*
X101516607Y-99755746D01*
X101370069Y-99536437D01*
X101215000Y-99381368D01*
X101215000Y-99102667D01*
X101278180Y-99083502D01*
X101388494Y-99024537D01*
X101485185Y-98945185D01*
X101564537Y-98848494D01*
X101623502Y-98738180D01*
X101659812Y-98618482D01*
X101672072Y-98494000D01*
X101672072Y-97086000D01*
X101659812Y-96961518D01*
X101623502Y-96841820D01*
X101564537Y-96731506D01*
X101485185Y-96634815D01*
X101388494Y-96555463D01*
X101368732Y-96544900D01*
X101370069Y-96543563D01*
X101516607Y-96324254D01*
X101617543Y-96080572D01*
X101669000Y-95821880D01*
X101669000Y-95558120D01*
X101617543Y-95299428D01*
X101516607Y-95055746D01*
X101370069Y-94836437D01*
X101183563Y-94649931D01*
X100964254Y-94503393D01*
X100720572Y-94402457D01*
X100461880Y-94351000D01*
X100198120Y-94351000D01*
X99939428Y-94402457D01*
X99695746Y-94503393D01*
X99476437Y-94649931D01*
X99289931Y-94836437D01*
X99143393Y-95055746D01*
X99080000Y-95208791D01*
X99016607Y-95055746D01*
X98870069Y-94836437D01*
X98683563Y-94649931D01*
X98464254Y-94503393D01*
X98220572Y-94402457D01*
X97961880Y-94351000D01*
X97698120Y-94351000D01*
X97439428Y-94402457D01*
X97195746Y-94503393D01*
X96976437Y-94649931D01*
X96789931Y-94836437D01*
X96643393Y-95055746D01*
X96542457Y-95299428D01*
X96491000Y-95558120D01*
X96491000Y-95821880D01*
X96518275Y-95959001D01*
X95029538Y-95959001D01*
X94914314Y-95897413D01*
X94747491Y-95846807D01*
X94574000Y-95829720D01*
X94400510Y-95846807D01*
X94233687Y-95897413D01*
X94079941Y-95979591D01*
X93978954Y-96062469D01*
X88650345Y-101391079D01*
X82406958Y-101391079D01*
X82363489Y-101386798D01*
X82320020Y-101391079D01*
X82320012Y-101391079D01*
X82189999Y-101403884D01*
X82023175Y-101454490D01*
X81869430Y-101536668D01*
X81768442Y-101619547D01*
X81768440Y-101619549D01*
X81734672Y-101647262D01*
X81706959Y-101681030D01*
X80107462Y-103280528D01*
X80073695Y-103308240D01*
X80045982Y-103342008D01*
X80045979Y-103342011D01*
X79963101Y-103442998D01*
X79880923Y-103596744D01*
X79830316Y-103763567D01*
X79813230Y-103937057D01*
X79817512Y-103980536D01*
X79817512Y-104701668D01*
X79683387Y-104591595D01*
X79625000Y-104560386D01*
X79625000Y-101643465D01*
X79629281Y-101599999D01*
X79625000Y-101556533D01*
X79625000Y-101556523D01*
X79612195Y-101426510D01*
X79561589Y-101259687D01*
X79479411Y-101105941D01*
X79368817Y-100971183D01*
X79335049Y-100943470D01*
X78476535Y-100084957D01*
X78465226Y-100028102D01*
X78387205Y-99839744D01*
X78273937Y-99670226D01*
X78188176Y-99584465D01*
X86196501Y-99584465D01*
X86196501Y-99873537D01*
X86252896Y-100157055D01*
X86363519Y-100424123D01*
X86524119Y-100664478D01*
X86728524Y-100868883D01*
X86968879Y-101029483D01*
X87235947Y-101140106D01*
X87519465Y-101196501D01*
X87808537Y-101196501D01*
X88092055Y-101140106D01*
X88359123Y-101029483D01*
X88599478Y-100868883D01*
X88803883Y-100664478D01*
X88964483Y-100424123D01*
X89075106Y-100157055D01*
X89131501Y-99873537D01*
X89131501Y-99584465D01*
X89075106Y-99300947D01*
X88964483Y-99033879D01*
X88803883Y-98793524D01*
X88599478Y-98589119D01*
X88359123Y-98428519D01*
X88092055Y-98317896D01*
X87808537Y-98261501D01*
X87519465Y-98261501D01*
X87235947Y-98317896D01*
X86968879Y-98428519D01*
X86728524Y-98589119D01*
X86524119Y-98793524D01*
X86363519Y-99033879D01*
X86252896Y-99300947D01*
X86196501Y-99584465D01*
X78188176Y-99584465D01*
X78129774Y-99526063D01*
X77960256Y-99412795D01*
X77771898Y-99334774D01*
X77571939Y-99295000D01*
X77368061Y-99295000D01*
X77168102Y-99334774D01*
X76979744Y-99412795D01*
X76810226Y-99526063D01*
X76666063Y-99670226D01*
X76552795Y-99839744D01*
X76474774Y-100028102D01*
X76435000Y-100228061D01*
X76435000Y-100431939D01*
X76474774Y-100631898D01*
X76552795Y-100820256D01*
X76666063Y-100989774D01*
X76810226Y-101133937D01*
X76979744Y-101247205D01*
X77168102Y-101325226D01*
X77224957Y-101336535D01*
X77855001Y-101966580D01*
X77855000Y-104560386D01*
X77796613Y-104591595D01*
X77662038Y-104702038D01*
X77551595Y-104836613D01*
X77469528Y-104990149D01*
X77418992Y-105156745D01*
X77401928Y-105329999D01*
X77401928Y-105980001D01*
X77418992Y-106153255D01*
X77469528Y-106319851D01*
X77551595Y-106473387D01*
X77662038Y-106607962D01*
X77749816Y-106680000D01*
X77662038Y-106752038D01*
X77551595Y-106886613D01*
X77469528Y-107040149D01*
X77418992Y-107206745D01*
X77401928Y-107379999D01*
X77401928Y-108030001D01*
X77418992Y-108203255D01*
X77469528Y-108369851D01*
X77551595Y-108523387D01*
X77662038Y-108657962D01*
X77796613Y-108768405D01*
X77950149Y-108850472D01*
X78116745Y-108901008D01*
X78289999Y-108918072D01*
X79190001Y-108918072D01*
X79363255Y-108901008D01*
X79529851Y-108850472D01*
X79683387Y-108768405D01*
X79817962Y-108657962D01*
X79900713Y-108557130D01*
X80001392Y-108526589D01*
X80155138Y-108444411D01*
X80289896Y-108333817D01*
X80317613Y-108300044D01*
X81211928Y-107405730D01*
X81211928Y-108030001D01*
X81228992Y-108203255D01*
X81279528Y-108369851D01*
X81361595Y-108523387D01*
X81472038Y-108657962D01*
X81606613Y-108768405D01*
X81665000Y-108799614D01*
X81665001Y-109836500D01*
X75923501Y-109836500D01*
X75923501Y-109744465D01*
X75867106Y-109460947D01*
X75756483Y-109193879D01*
X75595883Y-108953524D01*
X75391478Y-108749119D01*
X75151123Y-108588519D01*
X74884055Y-108477896D01*
X74600537Y-108421501D01*
X74311465Y-108421501D01*
X74027947Y-108477896D01*
X73760879Y-108588519D01*
X73520524Y-108749119D01*
X73316119Y-108953524D01*
X73155519Y-109193879D01*
X73044896Y-109460947D01*
X72988501Y-109744465D01*
X72988501Y-110033537D01*
X73044896Y-110317055D01*
X73155519Y-110584123D01*
X73316119Y-110824478D01*
X73520524Y-111028883D01*
X73760879Y-111189483D01*
X74027947Y-111300106D01*
X74311465Y-111356501D01*
X74600537Y-111356501D01*
X74655746Y-111345519D01*
X74659683Y-111350317D01*
X74693451Y-111378030D01*
X74693453Y-111378032D01*
X74699363Y-111382882D01*
X74794441Y-111460911D01*
X74948187Y-111543089D01*
X75115010Y-111593695D01*
X75245023Y-111606500D01*
X75245033Y-111606500D01*
X75288499Y-111610781D01*
X75331965Y-111606500D01*
X82738033Y-111606500D01*
X82781499Y-111610781D01*
X82824965Y-111606500D01*
X94934043Y-111606500D01*
X94977512Y-111610781D01*
X95020981Y-111606500D01*
X95020989Y-111606500D01*
X95151002Y-111593695D01*
X95317825Y-111543089D01*
X95471571Y-111460911D01*
X95606329Y-111350317D01*
X95634046Y-111316544D01*
X96646246Y-110304344D01*
X103525000Y-110304344D01*
X103525000Y-110675656D01*
X103597439Y-111039834D01*
X103739534Y-111382882D01*
X103945825Y-111691618D01*
X104208382Y-111954175D01*
X104517118Y-112160466D01*
X104860166Y-112302561D01*
X105224344Y-112375000D01*
X105595656Y-112375000D01*
X105959834Y-112302561D01*
X106302882Y-112160466D01*
X106611618Y-111954175D01*
X106874175Y-111691618D01*
X107080466Y-111382882D01*
X107222561Y-111039834D01*
X107295000Y-110675656D01*
X107295000Y-110304344D01*
X107222561Y-109940166D01*
X107080466Y-109597118D01*
X106874175Y-109288382D01*
X106611618Y-109025825D01*
X106302882Y-108819534D01*
X105959834Y-108677439D01*
X105595656Y-108605000D01*
X105224344Y-108605000D01*
X104860166Y-108677439D01*
X104517118Y-108819534D01*
X104208382Y-109025825D01*
X103945825Y-109288382D01*
X103739534Y-109597118D01*
X103597439Y-109940166D01*
X103525000Y-110304344D01*
X96646246Y-110304344D01*
X101196789Y-105753802D01*
X101188299Y-105840000D01*
X101215040Y-106111507D01*
X101294236Y-106372581D01*
X101422843Y-106613188D01*
X101595919Y-106824081D01*
X101806812Y-106997157D01*
X102047419Y-107125764D01*
X102308493Y-107204960D01*
X102511963Y-107225000D01*
X104148037Y-107225000D01*
X104351507Y-107204960D01*
X104612581Y-107125764D01*
X104853188Y-106997157D01*
X105064081Y-106824081D01*
X105237157Y-106613188D01*
X105365764Y-106372581D01*
X105444960Y-106111507D01*
X105471701Y-105840000D01*
X105444960Y-105568493D01*
X105365764Y-105307419D01*
X105237157Y-105066812D01*
X105064081Y-104855919D01*
X104853188Y-104682843D01*
X104612581Y-104554236D01*
X104351507Y-104475040D01*
X104148037Y-104455000D01*
X102511963Y-104455000D01*
X102493802Y-104456789D01*
X103195591Y-103755000D01*
X103809461Y-103755000D01*
X103852930Y-103759281D01*
X103896399Y-103755000D01*
X103896407Y-103755000D01*
X104026420Y-103742195D01*
X104193243Y-103691589D01*
X104346989Y-103609411D01*
X104481747Y-103498817D01*
X104509464Y-103465044D01*
X108037049Y-99937460D01*
X108070817Y-99909747D01*
X108128268Y-99839744D01*
X108181410Y-99774990D01*
X108194264Y-99750942D01*
X108263589Y-99621243D01*
X108314195Y-99454420D01*
X108327000Y-99324407D01*
X108327000Y-99324397D01*
X108331281Y-99280931D01*
X108327000Y-99237465D01*
X108327000Y-88119441D01*
X108532661Y-87950661D01*
X108560000Y-87917348D01*
X108560001Y-113640000D01*
X45364000Y-113640000D01*
X45364000Y-110304344D01*
X46375000Y-110304344D01*
X46375000Y-110675656D01*
X46447439Y-111039834D01*
X46589534Y-111382882D01*
X46795825Y-111691618D01*
X47058382Y-111954175D01*
X47367118Y-112160466D01*
X47710166Y-112302561D01*
X48074344Y-112375000D01*
X48445656Y-112375000D01*
X48809834Y-112302561D01*
X49152882Y-112160466D01*
X49461618Y-111954175D01*
X49724175Y-111691618D01*
X49930466Y-111382882D01*
X50072561Y-111039834D01*
X50145000Y-110675656D01*
X50145000Y-110304344D01*
X50072561Y-109940166D01*
X49930466Y-109597118D01*
X49724175Y-109288382D01*
X49461618Y-109025825D01*
X49152882Y-108819534D01*
X48809834Y-108677439D01*
X48445656Y-108605000D01*
X48074344Y-108605000D01*
X47710166Y-108677439D01*
X47367118Y-108819534D01*
X47058382Y-109025825D01*
X46795825Y-109288382D01*
X46589534Y-109597118D01*
X46447439Y-109940166D01*
X46375000Y-110304344D01*
X45364000Y-110304344D01*
X45364000Y-88275806D01*
X50971950Y-88275806D01*
X51016870Y-88614606D01*
X51127023Y-88938133D01*
X51233021Y-89136441D01*
X51507647Y-89244274D01*
X52534754Y-88217167D01*
X52520612Y-88203025D01*
X52700217Y-88023420D01*
X52714359Y-88037562D01*
X52728502Y-88023420D01*
X52908107Y-88203025D01*
X52893964Y-88217167D01*
X53921071Y-89244274D01*
X54195697Y-89136441D01*
X54346575Y-88829783D01*
X54434728Y-88499582D01*
X54456768Y-88158528D01*
X54411848Y-87819728D01*
X54301695Y-87496201D01*
X54195697Y-87297893D01*
X54185626Y-87293939D01*
X54265544Y-87228352D01*
X54344896Y-87131661D01*
X54403861Y-87021347D01*
X54440171Y-86901649D01*
X54452431Y-86777167D01*
X54452431Y-86552850D01*
X54487849Y-86549362D01*
X54654672Y-86498756D01*
X54808418Y-86416578D01*
X54943176Y-86305984D01*
X54970893Y-86272211D01*
X57183412Y-84059693D01*
X61344048Y-84059693D01*
X61177503Y-84226238D01*
X61029215Y-84448167D01*
X60927072Y-84694761D01*
X60875000Y-84956544D01*
X60875000Y-85188717D01*
X60770590Y-85315941D01*
X60688412Y-85469687D01*
X60653717Y-85584060D01*
X60642636Y-85620589D01*
X60637806Y-85636510D01*
X60625001Y-85766523D01*
X60625001Y-85766530D01*
X60620720Y-85809999D01*
X60625001Y-85853468D01*
X60625002Y-87983419D01*
X56196255Y-92412167D01*
X54209688Y-92412167D01*
X54062022Y-92191169D01*
X53898020Y-92027167D01*
X54062022Y-91863165D01*
X54251896Y-91578998D01*
X54382684Y-91263248D01*
X54449359Y-90928050D01*
X54449359Y-90586284D01*
X54382684Y-90251086D01*
X54251896Y-89935336D01*
X54062022Y-89651169D01*
X53820357Y-89409504D01*
X53539285Y-89221698D01*
X52714359Y-88396772D01*
X51889433Y-89221698D01*
X51608361Y-89409504D01*
X51366696Y-89651169D01*
X51176822Y-89935336D01*
X51046034Y-90251086D01*
X50979359Y-90586284D01*
X50979359Y-90928050D01*
X51046034Y-91263248D01*
X51176822Y-91578998D01*
X51366696Y-91863165D01*
X51530698Y-92027167D01*
X51366696Y-92191169D01*
X51176822Y-92475336D01*
X51046034Y-92791086D01*
X50979359Y-93126284D01*
X50979359Y-93468050D01*
X51046034Y-93803248D01*
X51176822Y-94118998D01*
X51366696Y-94403165D01*
X51530698Y-94567167D01*
X51366696Y-94731169D01*
X51176822Y-95015336D01*
X51046034Y-95331086D01*
X50979359Y-95666284D01*
X50979359Y-96008050D01*
X51046034Y-96343248D01*
X51176822Y-96658998D01*
X51366696Y-96943165D01*
X51530698Y-97107167D01*
X51366696Y-97271169D01*
X51176822Y-97555336D01*
X51046034Y-97871086D01*
X50979359Y-98206284D01*
X50979359Y-98548050D01*
X51046034Y-98883248D01*
X51176822Y-99198998D01*
X51366696Y-99483165D01*
X51530698Y-99647167D01*
X51366696Y-99811169D01*
X51176822Y-100095336D01*
X51046034Y-100411086D01*
X50979359Y-100746284D01*
X50979359Y-101088050D01*
X51046034Y-101423248D01*
X51176822Y-101738998D01*
X51366696Y-102023165D01*
X51530698Y-102187167D01*
X51366696Y-102351169D01*
X51176822Y-102635336D01*
X51046034Y-102951086D01*
X50979359Y-103286284D01*
X50979359Y-103628050D01*
X51046034Y-103963248D01*
X51176822Y-104278998D01*
X51366696Y-104563165D01*
X51608361Y-104804830D01*
X51892528Y-104994704D01*
X52208278Y-105125492D01*
X52543476Y-105192167D01*
X52885242Y-105192167D01*
X53220440Y-105125492D01*
X53536190Y-104994704D01*
X53820357Y-104804830D01*
X54062022Y-104563165D01*
X54251896Y-104278998D01*
X54382684Y-103963248D01*
X54449359Y-103628050D01*
X54449359Y-103286284D01*
X54382684Y-102951086D01*
X54251896Y-102635336D01*
X54062022Y-102351169D01*
X53898020Y-102187167D01*
X54062022Y-102023165D01*
X54251896Y-101738998D01*
X54382684Y-101423248D01*
X54449359Y-101088050D01*
X54449359Y-100746284D01*
X54382684Y-100411086D01*
X54251896Y-100095336D01*
X54062022Y-99811169D01*
X53898020Y-99647167D01*
X54062022Y-99483165D01*
X54209688Y-99262167D01*
X56735589Y-99262167D01*
X58805000Y-101331579D01*
X58805001Y-105366521D01*
X58800719Y-105410000D01*
X58817805Y-105583490D01*
X58868412Y-105750313D01*
X58950590Y-105904059D01*
X59033468Y-106005046D01*
X59033471Y-106005049D01*
X59061184Y-106038817D01*
X59094951Y-106066529D01*
X60875000Y-107846579D01*
X60875000Y-108083456D01*
X60927072Y-108345239D01*
X61029215Y-108591833D01*
X61177503Y-108813762D01*
X61366238Y-109002497D01*
X61588167Y-109150785D01*
X61834761Y-109252928D01*
X62096544Y-109305000D01*
X62363456Y-109305000D01*
X62625239Y-109252928D01*
X62871833Y-109150785D01*
X63093762Y-109002497D01*
X63282497Y-108813762D01*
X63430785Y-108591833D01*
X63532928Y-108345239D01*
X63585000Y-108083456D01*
X63585000Y-107816544D01*
X63532928Y-107554761D01*
X63430785Y-107308167D01*
X63282497Y-107086238D01*
X63093762Y-106897503D01*
X62871833Y-106749215D01*
X62625239Y-106647072D01*
X62363456Y-106595000D01*
X62126579Y-106595000D01*
X60575000Y-105043422D01*
X60575000Y-103805560D01*
X61474045Y-103805560D01*
X61535932Y-104041368D01*
X61777790Y-104154266D01*
X62037027Y-104217811D01*
X62303680Y-104229561D01*
X62567501Y-104189063D01*
X62818353Y-104097875D01*
X62924068Y-104041368D01*
X62985955Y-103805560D01*
X62230000Y-103049605D01*
X61474045Y-103805560D01*
X60575000Y-103805560D01*
X60575000Y-102943680D01*
X60870439Y-102943680D01*
X60910937Y-103207501D01*
X61002125Y-103458353D01*
X61058632Y-103564068D01*
X61294440Y-103625955D01*
X62050395Y-102870000D01*
X62409605Y-102870000D01*
X63165560Y-103625955D01*
X63401368Y-103564068D01*
X63514266Y-103322210D01*
X63577811Y-103062973D01*
X63589561Y-102796320D01*
X63549063Y-102532499D01*
X63457875Y-102281647D01*
X63401368Y-102175932D01*
X63165560Y-102114045D01*
X62409605Y-102870000D01*
X62050395Y-102870000D01*
X61294440Y-102114045D01*
X61058632Y-102175932D01*
X60945734Y-102417790D01*
X60882189Y-102677027D01*
X60870439Y-102943680D01*
X60575000Y-102943680D01*
X60575000Y-101934440D01*
X61474045Y-101934440D01*
X62230000Y-102690395D01*
X62985955Y-101934440D01*
X62924068Y-101698632D01*
X62682210Y-101585734D01*
X62422973Y-101522189D01*
X62156320Y-101510439D01*
X61892499Y-101550937D01*
X61641647Y-101642125D01*
X61535932Y-101698632D01*
X61474045Y-101934440D01*
X60575000Y-101934440D01*
X60575000Y-101008469D01*
X60579281Y-100965000D01*
X60575000Y-100921531D01*
X60575000Y-100921523D01*
X60562195Y-100791510D01*
X60523660Y-100664478D01*
X60511589Y-100624686D01*
X60429411Y-100470941D01*
X60346532Y-100369953D01*
X60346530Y-100369951D01*
X60318817Y-100336183D01*
X60285050Y-100308471D01*
X57758701Y-97782123D01*
X57730984Y-97748350D01*
X57596226Y-97637756D01*
X57442480Y-97555578D01*
X57275657Y-97504972D01*
X57145644Y-97492167D01*
X57145636Y-97492167D01*
X57102167Y-97487886D01*
X57058698Y-97492167D01*
X54209688Y-97492167D01*
X54151445Y-97405000D01*
X61198741Y-97405000D01*
X61366238Y-97572497D01*
X61588167Y-97720785D01*
X61834761Y-97822928D01*
X62096544Y-97875000D01*
X62363456Y-97875000D01*
X62625239Y-97822928D01*
X62871833Y-97720785D01*
X63093762Y-97572497D01*
X63282497Y-97383762D01*
X63430785Y-97161833D01*
X63532928Y-96915239D01*
X63585000Y-96653456D01*
X63585000Y-96386544D01*
X63532928Y-96124761D01*
X63430785Y-95878167D01*
X63282497Y-95656238D01*
X63093762Y-95467503D01*
X62871833Y-95319215D01*
X62625239Y-95217072D01*
X62363456Y-95165000D01*
X62096544Y-95165000D01*
X61834761Y-95217072D01*
X61588167Y-95319215D01*
X61366238Y-95467503D01*
X61198741Y-95635000D01*
X54443136Y-95635000D01*
X54382684Y-95331086D01*
X54251896Y-95015336D01*
X54062022Y-94731169D01*
X53898020Y-94567167D01*
X54062022Y-94403165D01*
X54209688Y-94182167D01*
X56226042Y-94182167D01*
X56341510Y-94217195D01*
X56499445Y-94232749D01*
X56514999Y-94234281D01*
X56515000Y-94234281D01*
X56688490Y-94217195D01*
X56855313Y-94166588D01*
X57009059Y-94084410D01*
X57110046Y-94001532D01*
X57143817Y-93973817D01*
X57171532Y-93940046D01*
X58736018Y-92375560D01*
X61474045Y-92375560D01*
X61535932Y-92611368D01*
X61777790Y-92724266D01*
X62037027Y-92787811D01*
X62303680Y-92799561D01*
X62567501Y-92759063D01*
X62818353Y-92667875D01*
X62924068Y-92611368D01*
X62985955Y-92375560D01*
X62230000Y-91619605D01*
X61474045Y-92375560D01*
X58736018Y-92375560D01*
X59597898Y-91513680D01*
X60870439Y-91513680D01*
X60910937Y-91777501D01*
X61002125Y-92028353D01*
X61058632Y-92134068D01*
X61294440Y-92195955D01*
X62050395Y-91440000D01*
X62409605Y-91440000D01*
X63165560Y-92195955D01*
X63401368Y-92134068D01*
X63514266Y-91892210D01*
X63577811Y-91632973D01*
X63589561Y-91366320D01*
X63549063Y-91102499D01*
X63457875Y-90851647D01*
X63401368Y-90745932D01*
X63165560Y-90684045D01*
X62409605Y-91440000D01*
X62050395Y-91440000D01*
X61294440Y-90684045D01*
X61058632Y-90745932D01*
X60945734Y-90987790D01*
X60882189Y-91247027D01*
X60870439Y-91513680D01*
X59597898Y-91513680D01*
X60607138Y-90504440D01*
X61474045Y-90504440D01*
X62230000Y-91260395D01*
X62985955Y-90504440D01*
X62924068Y-90268632D01*
X62682210Y-90155734D01*
X62422973Y-90092189D01*
X62156320Y-90080439D01*
X61892499Y-90120937D01*
X61641647Y-90212125D01*
X61535932Y-90268632D01*
X61474045Y-90504440D01*
X60607138Y-90504440D01*
X62105050Y-89006529D01*
X62138818Y-88978816D01*
X62174443Y-88935408D01*
X62249411Y-88844059D01*
X62281249Y-88784494D01*
X62331590Y-88690312D01*
X62382196Y-88523489D01*
X62395001Y-88393476D01*
X62395001Y-88393466D01*
X62399282Y-88350000D01*
X62395001Y-88306534D01*
X62395001Y-86438725D01*
X62625239Y-86392928D01*
X62871833Y-86290785D01*
X63093762Y-86142497D01*
X63282497Y-85953762D01*
X63430785Y-85731833D01*
X63532928Y-85485239D01*
X63585000Y-85223456D01*
X63585000Y-85061402D01*
X63843043Y-85319445D01*
X63870756Y-85353213D01*
X63904524Y-85380926D01*
X63904526Y-85380928D01*
X63964703Y-85430314D01*
X64005514Y-85463807D01*
X64159260Y-85545985D01*
X64275476Y-85581239D01*
X64326082Y-85596591D01*
X64342258Y-85598184D01*
X64456096Y-85609396D01*
X64456103Y-85609396D01*
X64499572Y-85613677D01*
X64543041Y-85609396D01*
X64691893Y-85609396D01*
X64601063Y-85700226D01*
X64487795Y-85869744D01*
X64409774Y-86058102D01*
X64398465Y-86114957D01*
X64174951Y-86338471D01*
X64141184Y-86366183D01*
X64113471Y-86399951D01*
X64113468Y-86399954D01*
X64030590Y-86500941D01*
X63948412Y-86654687D01*
X63897805Y-86821510D01*
X63880719Y-86995000D01*
X63885001Y-87038479D01*
X63885000Y-92948741D01*
X63717503Y-93116238D01*
X63569215Y-93338167D01*
X63467072Y-93584761D01*
X63415000Y-93846544D01*
X63415000Y-94113456D01*
X63467072Y-94375239D01*
X63569215Y-94621833D01*
X63717503Y-94843762D01*
X63906238Y-95032497D01*
X64128167Y-95180785D01*
X64374761Y-95282928D01*
X64636544Y-95335000D01*
X64903456Y-95335000D01*
X65165239Y-95282928D01*
X65411833Y-95180785D01*
X65633762Y-95032497D01*
X65822497Y-94843762D01*
X65970785Y-94621833D01*
X66072928Y-94375239D01*
X66125000Y-94113456D01*
X66125000Y-93846544D01*
X66072928Y-93584761D01*
X65970785Y-93338167D01*
X65822497Y-93116238D01*
X65655000Y-92948741D01*
X65655000Y-87365549D01*
X65706898Y-87355226D01*
X65895256Y-87277205D01*
X66064774Y-87163937D01*
X66208937Y-87019774D01*
X66275000Y-86920903D01*
X66275000Y-87096939D01*
X66314774Y-87296898D01*
X66392795Y-87485256D01*
X66425001Y-87533456D01*
X66425000Y-98058421D01*
X64894950Y-99588472D01*
X64861183Y-99616184D01*
X64833470Y-99649952D01*
X64833467Y-99649955D01*
X64750589Y-99750942D01*
X64668411Y-99904688D01*
X64617804Y-100071511D01*
X64600718Y-100245001D01*
X64605000Y-100288480D01*
X64604999Y-104061275D01*
X64374761Y-104107072D01*
X64128167Y-104209215D01*
X63906238Y-104357503D01*
X63717503Y-104546238D01*
X63569215Y-104768167D01*
X63467072Y-105014761D01*
X63415000Y-105276544D01*
X63415000Y-105543456D01*
X63467072Y-105805239D01*
X63569215Y-106051833D01*
X63717503Y-106273762D01*
X63906238Y-106462497D01*
X64128167Y-106610785D01*
X64374761Y-106712928D01*
X64636544Y-106765000D01*
X64903456Y-106765000D01*
X65165239Y-106712928D01*
X65411833Y-106610785D01*
X65633762Y-106462497D01*
X65822497Y-106273762D01*
X65970785Y-106051833D01*
X66072928Y-105805239D01*
X66125000Y-105543456D01*
X66125000Y-105311283D01*
X66229410Y-105184060D01*
X66311588Y-105030314D01*
X66362194Y-104863491D01*
X66374999Y-104733478D01*
X66374999Y-104733468D01*
X66379280Y-104690002D01*
X66374999Y-104646536D01*
X66374999Y-100611579D01*
X67905050Y-99081529D01*
X67938817Y-99053817D01*
X67980749Y-99002724D01*
X68049410Y-98919060D01*
X68049411Y-98919059D01*
X68131589Y-98765313D01*
X68182195Y-98598490D01*
X68195000Y-98468477D01*
X68195000Y-98468467D01*
X68199281Y-98425001D01*
X68195000Y-98381535D01*
X68195000Y-95807845D01*
X70744784Y-95807845D01*
X70744784Y-96011723D01*
X70784558Y-96211682D01*
X70862579Y-96400040D01*
X70975847Y-96569558D01*
X71120010Y-96713721D01*
X71289528Y-96826989D01*
X71477886Y-96905010D01*
X71534741Y-96916319D01*
X73003470Y-98385049D01*
X73031183Y-98418817D01*
X73064951Y-98446530D01*
X73064953Y-98446532D01*
X73124677Y-98495546D01*
X73165941Y-98529411D01*
X73319687Y-98611589D01*
X73435903Y-98646843D01*
X73456539Y-98653104D01*
X73316119Y-98793524D01*
X73155519Y-99033879D01*
X73044896Y-99300947D01*
X72988501Y-99584465D01*
X72988501Y-99873537D01*
X73044896Y-100157055D01*
X73155519Y-100424123D01*
X73316119Y-100664478D01*
X73520524Y-100868883D01*
X73571002Y-100902611D01*
X73571001Y-103635391D01*
X73520524Y-103669119D01*
X73316119Y-103873524D01*
X73155519Y-104113879D01*
X73044896Y-104380947D01*
X72988501Y-104664465D01*
X72988501Y-104953537D01*
X73044896Y-105237055D01*
X73155519Y-105504123D01*
X73316119Y-105744478D01*
X73520524Y-105948883D01*
X73760879Y-106109483D01*
X74027947Y-106220106D01*
X74311465Y-106276501D01*
X74600537Y-106276501D01*
X74884055Y-106220106D01*
X75151123Y-106109483D01*
X75391478Y-105948883D01*
X75595883Y-105744478D01*
X75756483Y-105504123D01*
X75867106Y-105237055D01*
X75923501Y-104953537D01*
X75923501Y-104664465D01*
X75867106Y-104380947D01*
X75756483Y-104113879D01*
X75595883Y-103873524D01*
X75391478Y-103669119D01*
X75341001Y-103635391D01*
X75341001Y-100902611D01*
X75391478Y-100868883D01*
X75595883Y-100664478D01*
X75756483Y-100424123D01*
X75867106Y-100157055D01*
X75923501Y-99873537D01*
X75923501Y-99584465D01*
X75867106Y-99300947D01*
X75756483Y-99033879D01*
X75595883Y-98793524D01*
X75477359Y-98675000D01*
X84479533Y-98675000D01*
X84523002Y-98679281D01*
X84566471Y-98675000D01*
X84566479Y-98675000D01*
X84696492Y-98662195D01*
X84863315Y-98611589D01*
X85017061Y-98529411D01*
X85151819Y-98418817D01*
X85179536Y-98385044D01*
X87459923Y-96104657D01*
X87519465Y-96116501D01*
X87808537Y-96116501D01*
X88092055Y-96060106D01*
X88359123Y-95949483D01*
X88599478Y-95788883D01*
X88803883Y-95584478D01*
X88964483Y-95344123D01*
X89075106Y-95077055D01*
X89131501Y-94793537D01*
X89131501Y-94504465D01*
X89075106Y-94220947D01*
X88964483Y-93953879D01*
X88803883Y-93713524D01*
X88599478Y-93509119D01*
X88359123Y-93348519D01*
X88092055Y-93237896D01*
X87808537Y-93181501D01*
X87519465Y-93181501D01*
X87235947Y-93237896D01*
X86968879Y-93348519D01*
X86728524Y-93509119D01*
X86524119Y-93713524D01*
X86363519Y-93953879D01*
X86252896Y-94220947D01*
X86196501Y-94504465D01*
X86196501Y-94793537D01*
X86208345Y-94853079D01*
X84156424Y-96905000D01*
X74026579Y-96905000D01*
X72786319Y-95664741D01*
X72775010Y-95607886D01*
X72696989Y-95419528D01*
X72583721Y-95250010D01*
X72439558Y-95105847D01*
X72270040Y-94992579D01*
X72081682Y-94914558D01*
X71881723Y-94874784D01*
X71677845Y-94874784D01*
X71477886Y-94914558D01*
X71289528Y-94992579D01*
X71120010Y-95105847D01*
X70975847Y-95250010D01*
X70862579Y-95419528D01*
X70784558Y-95607886D01*
X70744784Y-95807845D01*
X68195000Y-95807845D01*
X68195000Y-87533454D01*
X68227205Y-87485256D01*
X68305226Y-87296898D01*
X68345000Y-87096939D01*
X68345000Y-86893061D01*
X68305226Y-86693102D01*
X68227205Y-86504744D01*
X68113937Y-86335226D01*
X67969774Y-86191063D01*
X67800256Y-86077795D01*
X67611898Y-85999774D01*
X67411939Y-85960000D01*
X67208061Y-85960000D01*
X67008102Y-85999774D01*
X66819744Y-86077795D01*
X66650226Y-86191063D01*
X66506063Y-86335226D01*
X66440000Y-86434097D01*
X66440000Y-86258061D01*
X66400226Y-86058102D01*
X66322205Y-85869744D01*
X66208937Y-85700226D01*
X66118107Y-85609396D01*
X72939816Y-85609396D01*
X75555468Y-88225049D01*
X75583181Y-88258817D01*
X75616949Y-88286530D01*
X75616951Y-88286532D01*
X75717939Y-88369411D01*
X75871684Y-88451589D01*
X76029894Y-88499582D01*
X76038508Y-88502195D01*
X76168521Y-88515000D01*
X76168529Y-88515000D01*
X76211998Y-88519281D01*
X76255467Y-88515000D01*
X86200299Y-88515000D01*
X86204188Y-88554482D01*
X86240498Y-88674180D01*
X86299463Y-88784494D01*
X86378815Y-88881185D01*
X86475506Y-88960537D01*
X86585820Y-89019502D01*
X86705518Y-89055812D01*
X86830000Y-89068072D01*
X88430000Y-89068072D01*
X88554482Y-89055812D01*
X88674180Y-89019502D01*
X88784494Y-88960537D01*
X88881185Y-88881185D01*
X88960537Y-88784494D01*
X89019502Y-88674180D01*
X89035117Y-88622702D01*
X89316903Y-88622702D01*
X89388486Y-88866671D01*
X89643996Y-88987571D01*
X89918184Y-89056300D01*
X90200512Y-89070217D01*
X90480130Y-89028787D01*
X90746292Y-88933603D01*
X90871514Y-88866671D01*
X90943097Y-88622702D01*
X90130000Y-87809605D01*
X89316903Y-88622702D01*
X89035117Y-88622702D01*
X89055812Y-88554482D01*
X89068072Y-88430000D01*
X89068072Y-88422785D01*
X89137298Y-88443097D01*
X89950395Y-87630000D01*
X90309605Y-87630000D01*
X91122702Y-88443097D01*
X91366671Y-88371514D01*
X91487571Y-88116004D01*
X91556300Y-87841816D01*
X91570217Y-87559488D01*
X91528787Y-87279870D01*
X91433603Y-87013708D01*
X91366671Y-86888486D01*
X91122702Y-86816903D01*
X90309605Y-87630000D01*
X89950395Y-87630000D01*
X89137298Y-86816903D01*
X89068072Y-86837215D01*
X89068072Y-86830000D01*
X89055812Y-86705518D01*
X89035118Y-86637298D01*
X89316903Y-86637298D01*
X90130000Y-87450395D01*
X90943097Y-86637298D01*
X90871514Y-86393329D01*
X90616004Y-86272429D01*
X90341816Y-86203700D01*
X90059488Y-86189783D01*
X89779870Y-86231213D01*
X89513708Y-86326397D01*
X89388486Y-86393329D01*
X89316903Y-86637298D01*
X89035118Y-86637298D01*
X89019502Y-86585820D01*
X88960537Y-86475506D01*
X88881185Y-86378815D01*
X88784494Y-86299463D01*
X88674180Y-86240498D01*
X88554482Y-86204188D01*
X88430000Y-86191928D01*
X86830000Y-86191928D01*
X86705518Y-86204188D01*
X86585820Y-86240498D01*
X86475506Y-86299463D01*
X86378815Y-86378815D01*
X86299463Y-86475506D01*
X86240498Y-86585820D01*
X86204188Y-86705518D01*
X86200299Y-86745000D01*
X76578577Y-86745000D01*
X73962928Y-84129352D01*
X73935211Y-84095579D01*
X73800453Y-83984985D01*
X73727643Y-83946068D01*
X73828937Y-83844774D01*
X73942205Y-83675256D01*
X74020226Y-83486898D01*
X74060000Y-83286939D01*
X74060000Y-83083061D01*
X74020226Y-82883102D01*
X73942205Y-82694744D01*
X73828937Y-82525226D01*
X73684774Y-82381063D01*
X73515256Y-82267795D01*
X73326898Y-82189774D01*
X73270044Y-82178465D01*
X71634640Y-80543061D01*
X89135000Y-80543061D01*
X89135000Y-80746939D01*
X89174774Y-80946898D01*
X89252795Y-81135256D01*
X89366063Y-81304774D01*
X89510226Y-81448937D01*
X89679744Y-81562205D01*
X89868102Y-81640226D01*
X89924957Y-81651535D01*
X92688470Y-84415049D01*
X92716183Y-84448817D01*
X92749951Y-84476530D01*
X92749953Y-84476532D01*
X92821452Y-84535210D01*
X92850941Y-84559411D01*
X93004687Y-84641589D01*
X93171510Y-84692195D01*
X93301523Y-84705000D01*
X93301533Y-84705000D01*
X93344999Y-84709281D01*
X93388466Y-84705000D01*
X95981546Y-84705000D01*
X96029744Y-84737205D01*
X96218102Y-84815226D01*
X96418061Y-84855000D01*
X96621939Y-84855000D01*
X96821898Y-84815226D01*
X97010256Y-84737205D01*
X97179774Y-84623937D01*
X97323937Y-84479774D01*
X97437205Y-84310256D01*
X97515226Y-84121898D01*
X97555000Y-83921939D01*
X97555000Y-83718061D01*
X97515226Y-83518102D01*
X97437205Y-83329744D01*
X97323937Y-83160226D01*
X97179774Y-83016063D01*
X97010256Y-82902795D01*
X96821898Y-82824774D01*
X96621939Y-82785000D01*
X96418061Y-82785000D01*
X96218102Y-82824774D01*
X96029744Y-82902795D01*
X95981546Y-82935000D01*
X95427350Y-82935000D01*
X95551898Y-82910226D01*
X95740256Y-82832205D01*
X95909774Y-82718937D01*
X96053937Y-82574774D01*
X96167205Y-82405256D01*
X96245226Y-82216898D01*
X96285000Y-82016939D01*
X96285000Y-81813061D01*
X96245226Y-81613102D01*
X96167205Y-81424744D01*
X96053937Y-81255226D01*
X95909774Y-81111063D01*
X95740256Y-80997795D01*
X95551898Y-80919774D01*
X95351939Y-80880000D01*
X95148061Y-80880000D01*
X94948102Y-80919774D01*
X94759744Y-80997795D01*
X94711546Y-81030000D01*
X94346579Y-81030000D01*
X93081535Y-79764957D01*
X93070226Y-79708102D01*
X92992205Y-79519744D01*
X92878937Y-79350226D01*
X92734774Y-79206063D01*
X92565256Y-79092795D01*
X92376898Y-79014774D01*
X92176939Y-78975000D01*
X91973061Y-78975000D01*
X91773102Y-79014774D01*
X91584744Y-79092795D01*
X91415226Y-79206063D01*
X91271063Y-79350226D01*
X91157795Y-79519744D01*
X91079774Y-79708102D01*
X91040000Y-79908061D01*
X91040000Y-80084097D01*
X90973937Y-79985226D01*
X90829774Y-79841063D01*
X90660256Y-79727795D01*
X90471898Y-79649774D01*
X90271939Y-79610000D01*
X90068061Y-79610000D01*
X89868102Y-79649774D01*
X89679744Y-79727795D01*
X89510226Y-79841063D01*
X89366063Y-79985226D01*
X89252795Y-80154744D01*
X89174774Y-80343102D01*
X89135000Y-80543061D01*
X71634640Y-80543061D01*
X69645923Y-78554344D01*
X103525000Y-78554344D01*
X103525000Y-78925656D01*
X103597439Y-79289834D01*
X103739534Y-79632882D01*
X103945825Y-79941618D01*
X104208382Y-80204175D01*
X104517118Y-80410466D01*
X104860166Y-80552561D01*
X105224344Y-80625000D01*
X105595656Y-80625000D01*
X105959834Y-80552561D01*
X106302882Y-80410466D01*
X106611618Y-80204175D01*
X106874175Y-79941618D01*
X107080466Y-79632882D01*
X107222561Y-79289834D01*
X107295000Y-78925656D01*
X107295000Y-78554344D01*
X107222561Y-78190166D01*
X107080466Y-77847118D01*
X106874175Y-77538382D01*
X106611618Y-77275825D01*
X106302882Y-77069534D01*
X105959834Y-76927439D01*
X105595656Y-76855000D01*
X105224344Y-76855000D01*
X104860166Y-76927439D01*
X104517118Y-77069534D01*
X104208382Y-77275825D01*
X103945825Y-77538382D01*
X103739534Y-77847118D01*
X103597439Y-78190166D01*
X103525000Y-78554344D01*
X69645923Y-78554344D01*
X68830000Y-77738422D01*
X68830000Y-77373454D01*
X68862205Y-77325256D01*
X68940226Y-77136898D01*
X68980000Y-76936939D01*
X68980000Y-76733061D01*
X68940226Y-76533102D01*
X68862205Y-76344744D01*
X68748937Y-76175226D01*
X68604774Y-76031063D01*
X68435256Y-75917795D01*
X68246898Y-75839774D01*
X68046939Y-75800000D01*
X67843061Y-75800000D01*
X67643102Y-75839774D01*
X67454744Y-75917795D01*
X67285226Y-76031063D01*
X67141063Y-76175226D01*
X67027795Y-76344744D01*
X66949774Y-76533102D01*
X66910000Y-76733061D01*
X66910000Y-76936939D01*
X66949774Y-77136898D01*
X67027795Y-77325256D01*
X67060001Y-77373455D01*
X67060000Y-78061530D01*
X67055719Y-78105000D01*
X67060000Y-78148469D01*
X67060000Y-78148476D01*
X67072805Y-78278489D01*
X67123411Y-78445312D01*
X67205589Y-78599058D01*
X67316183Y-78733817D01*
X67349956Y-78761534D01*
X72018465Y-83430044D01*
X72029774Y-83486898D01*
X72107795Y-83675256D01*
X72217470Y-83839396D01*
X65197908Y-83839396D01*
X65411833Y-83750785D01*
X65633762Y-83602497D01*
X65822497Y-83413762D01*
X65970785Y-83191833D01*
X66072928Y-82945239D01*
X66125000Y-82683456D01*
X66125000Y-82416544D01*
X66072928Y-82154761D01*
X65970785Y-81908167D01*
X65822497Y-81686238D01*
X65633762Y-81497503D01*
X65411833Y-81349215D01*
X65165239Y-81247072D01*
X64903456Y-81195000D01*
X64636544Y-81195000D01*
X64374761Y-81247072D01*
X64128167Y-81349215D01*
X63906238Y-81497503D01*
X63717503Y-81686238D01*
X63569215Y-81908167D01*
X63467072Y-82154761D01*
X63415000Y-82416544D01*
X63415000Y-82419819D01*
X63290183Y-82353104D01*
X63123360Y-82302498D01*
X62993347Y-82289693D01*
X62993339Y-82289693D01*
X62949870Y-82285412D01*
X62906401Y-82289693D01*
X56860302Y-82289693D01*
X56816833Y-82285412D01*
X56773364Y-82289693D01*
X56773356Y-82289693D01*
X56643343Y-82302498D01*
X56476519Y-82353104D01*
X56322774Y-82435282D01*
X56221786Y-82518161D01*
X56221784Y-82518163D01*
X56188016Y-82545876D01*
X56160303Y-82579644D01*
X54404582Y-84335365D01*
X54403861Y-84332987D01*
X54344896Y-84222673D01*
X54265544Y-84125982D01*
X54168853Y-84046630D01*
X54058539Y-83987665D01*
X53938841Y-83951355D01*
X53814359Y-83939095D01*
X51614359Y-83939095D01*
X51489877Y-83951355D01*
X51370179Y-83987665D01*
X51259865Y-84046630D01*
X51163174Y-84125982D01*
X51083822Y-84222673D01*
X51024857Y-84332987D01*
X50988547Y-84452685D01*
X50976287Y-84577167D01*
X50976287Y-86777167D01*
X50988547Y-86901649D01*
X51024857Y-87021347D01*
X51083822Y-87131661D01*
X51163174Y-87228352D01*
X51243092Y-87293939D01*
X51233021Y-87297893D01*
X51082143Y-87604551D01*
X50993990Y-87934752D01*
X50971950Y-88275806D01*
X45364000Y-88275806D01*
X45364000Y-79062344D01*
X46375000Y-79062344D01*
X46375000Y-79433656D01*
X46447439Y-79797834D01*
X46589534Y-80140882D01*
X46795825Y-80449618D01*
X47058382Y-80712175D01*
X47367118Y-80918466D01*
X47710166Y-81060561D01*
X48074344Y-81133000D01*
X48445656Y-81133000D01*
X48809834Y-81060561D01*
X49087471Y-80945560D01*
X61474045Y-80945560D01*
X61535932Y-81181368D01*
X61777790Y-81294266D01*
X62037027Y-81357811D01*
X62303680Y-81369561D01*
X62567501Y-81329063D01*
X62818353Y-81237875D01*
X62924068Y-81181368D01*
X62985955Y-80945560D01*
X62230000Y-80189605D01*
X61474045Y-80945560D01*
X49087471Y-80945560D01*
X49152882Y-80918466D01*
X49461618Y-80712175D01*
X49724175Y-80449618D01*
X49930466Y-80140882D01*
X49954159Y-80083680D01*
X60870439Y-80083680D01*
X60910937Y-80347501D01*
X61002125Y-80598353D01*
X61058632Y-80704068D01*
X61294440Y-80765955D01*
X62050395Y-80010000D01*
X62409605Y-80010000D01*
X63165560Y-80765955D01*
X63401368Y-80704068D01*
X63514266Y-80462210D01*
X63577811Y-80202973D01*
X63589561Y-79936320D01*
X63549063Y-79672499D01*
X63457875Y-79421647D01*
X63401368Y-79315932D01*
X63165560Y-79254045D01*
X62409605Y-80010000D01*
X62050395Y-80010000D01*
X61294440Y-79254045D01*
X61058632Y-79315932D01*
X60945734Y-79557790D01*
X60882189Y-79817027D01*
X60870439Y-80083680D01*
X49954159Y-80083680D01*
X50072561Y-79797834D01*
X50145000Y-79433656D01*
X50145000Y-79074440D01*
X61474045Y-79074440D01*
X62230000Y-79830395D01*
X62985955Y-79074440D01*
X62924068Y-78838632D01*
X62682210Y-78725734D01*
X62422973Y-78662189D01*
X62156320Y-78650439D01*
X61892499Y-78690937D01*
X61641647Y-78782125D01*
X61535932Y-78838632D01*
X61474045Y-79074440D01*
X50145000Y-79074440D01*
X50145000Y-79062344D01*
X50072561Y-78698166D01*
X49930466Y-78355118D01*
X49724175Y-78046382D01*
X49461618Y-77783825D01*
X49152882Y-77577534D01*
X48809834Y-77435439D01*
X48445656Y-77363000D01*
X48074344Y-77363000D01*
X47710166Y-77435439D01*
X47367118Y-77577534D01*
X47058382Y-77783825D01*
X46795825Y-78046382D01*
X46589534Y-78355118D01*
X46447439Y-78698166D01*
X46375000Y-79062344D01*
X45364000Y-79062344D01*
X45364000Y-75590000D01*
X108560000Y-75590000D01*
X108560000Y-84802652D01*
X108560000Y-84802652D01*
G37*
X108560000Y-84802652D02*
X108532661Y-84769339D01*
X108298927Y-84577519D01*
X108032261Y-84434983D01*
X107742913Y-84347210D01*
X107442000Y-84317573D01*
X107141088Y-84347210D01*
X106851740Y-84434983D01*
X106585074Y-84577519D01*
X106351340Y-84769339D01*
X106159519Y-85003073D01*
X106016983Y-85269739D01*
X105929210Y-85559087D01*
X105907000Y-85784592D01*
X105907000Y-86584144D01*
X105898927Y-86577519D01*
X105632261Y-86434983D01*
X105342913Y-86347210D01*
X105042000Y-86317573D01*
X104741088Y-86347210D01*
X104451740Y-86434983D01*
X104185074Y-86577519D01*
X103951340Y-86769339D01*
X103759519Y-87003073D01*
X103616983Y-87269739D01*
X103554718Y-87475000D01*
X101029282Y-87475000D01*
X100967017Y-87269739D01*
X100824481Y-87003073D01*
X100632661Y-86769339D01*
X100398927Y-86577519D01*
X100132261Y-86434983D01*
X99842913Y-86347210D01*
X99542000Y-86317573D01*
X99241088Y-86347210D01*
X98951740Y-86434983D01*
X98685074Y-86577519D01*
X98451340Y-86769339D01*
X98259519Y-87003073D01*
X98116983Y-87269739D01*
X98054718Y-87475000D01*
X95833469Y-87475000D01*
X95790000Y-87470719D01*
X95746531Y-87475000D01*
X95746523Y-87475000D01*
X95616510Y-87487805D01*
X95449687Y-87538411D01*
X95314650Y-87610589D01*
X95295941Y-87620589D01*
X95194953Y-87703468D01*
X95194951Y-87703470D01*
X95161183Y-87731183D01*
X95133470Y-87764951D01*
X92343422Y-90555000D01*
X86403465Y-90555000D01*
X86359999Y-90550719D01*
X86316533Y-90555000D01*
X86316523Y-90555000D01*
X86186510Y-90567805D01*
X86019687Y-90618411D01*
X85865941Y-90700589D01*
X85865939Y-90700590D01*
X85865940Y-90700590D01*
X85764953Y-90783468D01*
X85764951Y-90783470D01*
X85731183Y-90811183D01*
X85703470Y-90844951D01*
X83616920Y-92931502D01*
X75331965Y-92931502D01*
X75288499Y-92927221D01*
X75245033Y-92931502D01*
X75245023Y-92931502D01*
X75115010Y-92944307D01*
X74948187Y-92994913D01*
X74794441Y-93077091D01*
X74794439Y-93077092D01*
X74794440Y-93077092D01*
X74693453Y-93159970D01*
X74693451Y-93159972D01*
X74659683Y-93187685D01*
X74655746Y-93192483D01*
X74600537Y-93181501D01*
X74311465Y-93181501D01*
X74027947Y-93237896D01*
X73760879Y-93348519D01*
X73520524Y-93509119D01*
X73316119Y-93713524D01*
X73155519Y-93953879D01*
X73044896Y-94220947D01*
X72988501Y-94504465D01*
X72988501Y-94793537D01*
X73044896Y-95077055D01*
X73155519Y-95344123D01*
X73316119Y-95584478D01*
X73520524Y-95788883D01*
X73760879Y-95949483D01*
X74027947Y-96060106D01*
X74311465Y-96116501D01*
X74600537Y-96116501D01*
X74884055Y-96060106D01*
X75151123Y-95949483D01*
X75391478Y-95788883D01*
X75595883Y-95584478D01*
X75756483Y-95344123D01*
X75867106Y-95077055D01*
X75923501Y-94793537D01*
X75923501Y-94701502D01*
X83940029Y-94701502D01*
X83983498Y-94705783D01*
X84026967Y-94701502D01*
X84026975Y-94701502D01*
X84156988Y-94688697D01*
X84323811Y-94638091D01*
X84477557Y-94555913D01*
X84612315Y-94445319D01*
X84640032Y-94411546D01*
X86711578Y-92340000D01*
X101188299Y-92340000D01*
X101215040Y-92611507D01*
X101294236Y-92872581D01*
X101422843Y-93113188D01*
X101595919Y-93324081D01*
X101806812Y-93497157D01*
X102047419Y-93625764D01*
X102308493Y-93704960D01*
X102511963Y-93725000D01*
X104148037Y-93725000D01*
X104351507Y-93704960D01*
X104612581Y-93625764D01*
X104853188Y-93497157D01*
X105064081Y-93324081D01*
X105237157Y-93113188D01*
X105365764Y-92872581D01*
X105444960Y-92611507D01*
X105471701Y-92340000D01*
X105444960Y-92068493D01*
X105365764Y-91807419D01*
X105237157Y-91566812D01*
X105064081Y-91355919D01*
X104853188Y-91182843D01*
X104612581Y-91054236D01*
X104351507Y-90975040D01*
X104148037Y-90955000D01*
X102511963Y-90955000D01*
X102308493Y-90975040D01*
X102047419Y-91054236D01*
X101806812Y-91182843D01*
X101595919Y-91355919D01*
X101422843Y-91566812D01*
X101294236Y-91807419D01*
X101215040Y-92068493D01*
X101188299Y-92340000D01*
X86711578Y-92340000D01*
X86726579Y-92325000D01*
X92666531Y-92325000D01*
X92710000Y-92329281D01*
X92753469Y-92325000D01*
X92753477Y-92325000D01*
X92883490Y-92312195D01*
X93050313Y-92261589D01*
X93204059Y-92179411D01*
X93338817Y-92068817D01*
X93366534Y-92035044D01*
X96156579Y-89245000D01*
X98054718Y-89245000D01*
X98116983Y-89450260D01*
X98259519Y-89716926D01*
X98451339Y-89950661D01*
X98685073Y-90142481D01*
X98951739Y-90285017D01*
X99241087Y-90372790D01*
X99542000Y-90402427D01*
X99842912Y-90372790D01*
X100132260Y-90285017D01*
X100398926Y-90142481D01*
X100632661Y-89950661D01*
X100824481Y-89716927D01*
X100967017Y-89450261D01*
X101029282Y-89245000D01*
X103554718Y-89245000D01*
X103616983Y-89450260D01*
X103759519Y-89716926D01*
X103951339Y-89950661D01*
X104185073Y-90142481D01*
X104451739Y-90285017D01*
X104741087Y-90372790D01*
X105042000Y-90402427D01*
X105342912Y-90372790D01*
X105632260Y-90285017D01*
X105898926Y-90142481D01*
X106132661Y-89950661D01*
X106324481Y-89716927D01*
X106467017Y-89450261D01*
X106554790Y-89160913D01*
X106557000Y-89138472D01*
X106557001Y-98914350D01*
X105509722Y-99961630D01*
X105515000Y-99908037D01*
X105515000Y-98271963D01*
X105494960Y-98068493D01*
X105415764Y-97807419D01*
X105287157Y-97566812D01*
X105114080Y-97355919D01*
X104903187Y-97182843D01*
X104662580Y-97054236D01*
X104401506Y-96975040D01*
X104130000Y-96948299D01*
X103858493Y-96975040D01*
X103597419Y-97054236D01*
X103356812Y-97182843D01*
X103145919Y-97355920D01*
X102972843Y-97566813D01*
X102844236Y-97807420D01*
X102765040Y-98068494D01*
X102745000Y-98271964D01*
X102745000Y-99908037D01*
X102765040Y-100111507D01*
X102844237Y-100372581D01*
X102972844Y-100613188D01*
X103145920Y-100824081D01*
X103356813Y-100997157D01*
X103597420Y-101125764D01*
X103858494Y-101204960D01*
X104130000Y-101231701D01*
X104251630Y-101219722D01*
X103486352Y-101985000D01*
X102872481Y-101985000D01*
X102829012Y-101980719D01*
X102785543Y-101985000D01*
X102785535Y-101985000D01*
X102655522Y-101997805D01*
X102488699Y-102048411D01*
X102393252Y-102099428D01*
X102334953Y-102130589D01*
X102233965Y-102213468D01*
X102233963Y-102213470D01*
X102200195Y-102241183D01*
X102172482Y-102274951D01*
X101630127Y-102817306D01*
X101669000Y-102621880D01*
X101669000Y-102358120D01*
X101617543Y-102099428D01*
X101516607Y-101855746D01*
X101370069Y-101636437D01*
X101183563Y-101449931D01*
X101168700Y-101440000D01*
X101183563Y-101430069D01*
X101370069Y-101243563D01*
X101516607Y-101024254D01*
X101617543Y-100780572D01*
X101669000Y-100521880D01*
X101669000Y-100258120D01*
X101617543Y-99999428D01*
X101516607Y-99755746D01*
X101370069Y-99536437D01*
X101215000Y-99381368D01*
X101215000Y-99102667D01*
X101278180Y-99083502D01*
X101388494Y-99024537D01*
X101485185Y-98945185D01*
X101564537Y-98848494D01*
X101623502Y-98738180D01*
X101659812Y-98618482D01*
X101672072Y-98494000D01*
X101672072Y-97086000D01*
X101659812Y-96961518D01*
X101623502Y-96841820D01*
X101564537Y-96731506D01*
X101485185Y-96634815D01*
X101388494Y-96555463D01*
X101368732Y-96544900D01*
X101370069Y-96543563D01*
X101516607Y-96324254D01*
X101617543Y-96080572D01*
X101669000Y-95821880D01*
X101669000Y-95558120D01*
X101617543Y-95299428D01*
X101516607Y-95055746D01*
X101370069Y-94836437D01*
X101183563Y-94649931D01*
X100964254Y-94503393D01*
X100720572Y-94402457D01*
X100461880Y-94351000D01*
X100198120Y-94351000D01*
X99939428Y-94402457D01*
X99695746Y-94503393D01*
X99476437Y-94649931D01*
X99289931Y-94836437D01*
X99143393Y-95055746D01*
X99080000Y-95208791D01*
X99016607Y-95055746D01*
X98870069Y-94836437D01*
X98683563Y-94649931D01*
X98464254Y-94503393D01*
X98220572Y-94402457D01*
X97961880Y-94351000D01*
X97698120Y-94351000D01*
X97439428Y-94402457D01*
X97195746Y-94503393D01*
X96976437Y-94649931D01*
X96789931Y-94836437D01*
X96643393Y-95055746D01*
X96542457Y-95299428D01*
X96491000Y-95558120D01*
X96491000Y-95821880D01*
X96518275Y-95959001D01*
X95029538Y-95959001D01*
X94914314Y-95897413D01*
X94747491Y-95846807D01*
X94574000Y-95829720D01*
X94400510Y-95846807D01*
X94233687Y-95897413D01*
X94079941Y-95979591D01*
X93978954Y-96062469D01*
X88650345Y-101391079D01*
X82406958Y-101391079D01*
X82363489Y-101386798D01*
X82320020Y-101391079D01*
X82320012Y-101391079D01*
X82189999Y-101403884D01*
X82023175Y-101454490D01*
X81869430Y-101536668D01*
X81768442Y-101619547D01*
X81768440Y-101619549D01*
X81734672Y-101647262D01*
X81706959Y-101681030D01*
X80107462Y-103280528D01*
X80073695Y-103308240D01*
X80045982Y-103342008D01*
X80045979Y-103342011D01*
X79963101Y-103442998D01*
X79880923Y-103596744D01*
X79830316Y-103763567D01*
X79813230Y-103937057D01*
X79817512Y-103980536D01*
X79817512Y-104701668D01*
X79683387Y-104591595D01*
X79625000Y-104560386D01*
X79625000Y-101643465D01*
X79629281Y-101599999D01*
X79625000Y-101556533D01*
X79625000Y-101556523D01*
X79612195Y-101426510D01*
X79561589Y-101259687D01*
X79479411Y-101105941D01*
X79368817Y-100971183D01*
X79335049Y-100943470D01*
X78476535Y-100084957D01*
X78465226Y-100028102D01*
X78387205Y-99839744D01*
X78273937Y-99670226D01*
X78188176Y-99584465D01*
X86196501Y-99584465D01*
X86196501Y-99873537D01*
X86252896Y-100157055D01*
X86363519Y-100424123D01*
X86524119Y-100664478D01*
X86728524Y-100868883D01*
X86968879Y-101029483D01*
X87235947Y-101140106D01*
X87519465Y-101196501D01*
X87808537Y-101196501D01*
X88092055Y-101140106D01*
X88359123Y-101029483D01*
X88599478Y-100868883D01*
X88803883Y-100664478D01*
X88964483Y-100424123D01*
X89075106Y-100157055D01*
X89131501Y-99873537D01*
X89131501Y-99584465D01*
X89075106Y-99300947D01*
X88964483Y-99033879D01*
X88803883Y-98793524D01*
X88599478Y-98589119D01*
X88359123Y-98428519D01*
X88092055Y-98317896D01*
X87808537Y-98261501D01*
X87519465Y-98261501D01*
X87235947Y-98317896D01*
X86968879Y-98428519D01*
X86728524Y-98589119D01*
X86524119Y-98793524D01*
X86363519Y-99033879D01*
X86252896Y-99300947D01*
X86196501Y-99584465D01*
X78188176Y-99584465D01*
X78129774Y-99526063D01*
X77960256Y-99412795D01*
X77771898Y-99334774D01*
X77571939Y-99295000D01*
X77368061Y-99295000D01*
X77168102Y-99334774D01*
X76979744Y-99412795D01*
X76810226Y-99526063D01*
X76666063Y-99670226D01*
X76552795Y-99839744D01*
X76474774Y-100028102D01*
X76435000Y-100228061D01*
X76435000Y-100431939D01*
X76474774Y-100631898D01*
X76552795Y-100820256D01*
X76666063Y-100989774D01*
X76810226Y-101133937D01*
X76979744Y-101247205D01*
X77168102Y-101325226D01*
X77224957Y-101336535D01*
X77855001Y-101966580D01*
X77855000Y-104560386D01*
X77796613Y-104591595D01*
X77662038Y-104702038D01*
X77551595Y-104836613D01*
X77469528Y-104990149D01*
X77418992Y-105156745D01*
X77401928Y-105329999D01*
X77401928Y-105980001D01*
X77418992Y-106153255D01*
X77469528Y-106319851D01*
X77551595Y-106473387D01*
X77662038Y-106607962D01*
X77749816Y-106680000D01*
X77662038Y-106752038D01*
X77551595Y-106886613D01*
X77469528Y-107040149D01*
X77418992Y-107206745D01*
X77401928Y-107379999D01*
X77401928Y-108030001D01*
X77418992Y-108203255D01*
X77469528Y-108369851D01*
X77551595Y-108523387D01*
X77662038Y-108657962D01*
X77796613Y-108768405D01*
X77950149Y-108850472D01*
X78116745Y-108901008D01*
X78289999Y-108918072D01*
X79190001Y-108918072D01*
X79363255Y-108901008D01*
X79529851Y-108850472D01*
X79683387Y-108768405D01*
X79817962Y-108657962D01*
X79900713Y-108557130D01*
X80001392Y-108526589D01*
X80155138Y-108444411D01*
X80289896Y-108333817D01*
X80317613Y-108300044D01*
X81211928Y-107405730D01*
X81211928Y-108030001D01*
X81228992Y-108203255D01*
X81279528Y-108369851D01*
X81361595Y-108523387D01*
X81472038Y-108657962D01*
X81606613Y-108768405D01*
X81665000Y-108799614D01*
X81665001Y-109836500D01*
X75923501Y-109836500D01*
X75923501Y-109744465D01*
X75867106Y-109460947D01*
X75756483Y-109193879D01*
X75595883Y-108953524D01*
X75391478Y-108749119D01*
X75151123Y-108588519D01*
X74884055Y-108477896D01*
X74600537Y-108421501D01*
X74311465Y-108421501D01*
X74027947Y-108477896D01*
X73760879Y-108588519D01*
X73520524Y-108749119D01*
X73316119Y-108953524D01*
X73155519Y-109193879D01*
X73044896Y-109460947D01*
X72988501Y-109744465D01*
X72988501Y-110033537D01*
X73044896Y-110317055D01*
X73155519Y-110584123D01*
X73316119Y-110824478D01*
X73520524Y-111028883D01*
X73760879Y-111189483D01*
X74027947Y-111300106D01*
X74311465Y-111356501D01*
X74600537Y-111356501D01*
X74655746Y-111345519D01*
X74659683Y-111350317D01*
X74693451Y-111378030D01*
X74693453Y-111378032D01*
X74699363Y-111382882D01*
X74794441Y-111460911D01*
X74948187Y-111543089D01*
X75115010Y-111593695D01*
X75245023Y-111606500D01*
X75245033Y-111606500D01*
X75288499Y-111610781D01*
X75331965Y-111606500D01*
X82738033Y-111606500D01*
X82781499Y-111610781D01*
X82824965Y-111606500D01*
X94934043Y-111606500D01*
X94977512Y-111610781D01*
X95020981Y-111606500D01*
X95020989Y-111606500D01*
X95151002Y-111593695D01*
X95317825Y-111543089D01*
X95471571Y-111460911D01*
X95606329Y-111350317D01*
X95634046Y-111316544D01*
X96646246Y-110304344D01*
X103525000Y-110304344D01*
X103525000Y-110675656D01*
X103597439Y-111039834D01*
X103739534Y-111382882D01*
X103945825Y-111691618D01*
X104208382Y-111954175D01*
X104517118Y-112160466D01*
X104860166Y-112302561D01*
X105224344Y-112375000D01*
X105595656Y-112375000D01*
X105959834Y-112302561D01*
X106302882Y-112160466D01*
X106611618Y-111954175D01*
X106874175Y-111691618D01*
X107080466Y-111382882D01*
X107222561Y-111039834D01*
X107295000Y-110675656D01*
X107295000Y-110304344D01*
X107222561Y-109940166D01*
X107080466Y-109597118D01*
X106874175Y-109288382D01*
X106611618Y-109025825D01*
X106302882Y-108819534D01*
X105959834Y-108677439D01*
X105595656Y-108605000D01*
X105224344Y-108605000D01*
X104860166Y-108677439D01*
X104517118Y-108819534D01*
X104208382Y-109025825D01*
X103945825Y-109288382D01*
X103739534Y-109597118D01*
X103597439Y-109940166D01*
X103525000Y-110304344D01*
X96646246Y-110304344D01*
X101196789Y-105753802D01*
X101188299Y-105840000D01*
X101215040Y-106111507D01*
X101294236Y-106372581D01*
X101422843Y-106613188D01*
X101595919Y-106824081D01*
X101806812Y-106997157D01*
X102047419Y-107125764D01*
X102308493Y-107204960D01*
X102511963Y-107225000D01*
X104148037Y-107225000D01*
X104351507Y-107204960D01*
X104612581Y-107125764D01*
X104853188Y-106997157D01*
X105064081Y-106824081D01*
X105237157Y-106613188D01*
X105365764Y-106372581D01*
X105444960Y-106111507D01*
X105471701Y-105840000D01*
X105444960Y-105568493D01*
X105365764Y-105307419D01*
X105237157Y-105066812D01*
X105064081Y-104855919D01*
X104853188Y-104682843D01*
X104612581Y-104554236D01*
X104351507Y-104475040D01*
X104148037Y-104455000D01*
X102511963Y-104455000D01*
X102493802Y-104456789D01*
X103195591Y-103755000D01*
X103809461Y-103755000D01*
X103852930Y-103759281D01*
X103896399Y-103755000D01*
X103896407Y-103755000D01*
X104026420Y-103742195D01*
X104193243Y-103691589D01*
X104346989Y-103609411D01*
X104481747Y-103498817D01*
X104509464Y-103465044D01*
X108037049Y-99937460D01*
X108070817Y-99909747D01*
X108128268Y-99839744D01*
X108181410Y-99774990D01*
X108194264Y-99750942D01*
X108263589Y-99621243D01*
X108314195Y-99454420D01*
X108327000Y-99324407D01*
X108327000Y-99324397D01*
X108331281Y-99280931D01*
X108327000Y-99237465D01*
X108327000Y-88119441D01*
X108532661Y-87950661D01*
X108560000Y-87917348D01*
X108560001Y-113640000D01*
X45364000Y-113640000D01*
X45364000Y-110304344D01*
X46375000Y-110304344D01*
X46375000Y-110675656D01*
X46447439Y-111039834D01*
X46589534Y-111382882D01*
X46795825Y-111691618D01*
X47058382Y-111954175D01*
X47367118Y-112160466D01*
X47710166Y-112302561D01*
X48074344Y-112375000D01*
X48445656Y-112375000D01*
X48809834Y-112302561D01*
X49152882Y-112160466D01*
X49461618Y-111954175D01*
X49724175Y-111691618D01*
X49930466Y-111382882D01*
X50072561Y-111039834D01*
X50145000Y-110675656D01*
X50145000Y-110304344D01*
X50072561Y-109940166D01*
X49930466Y-109597118D01*
X49724175Y-109288382D01*
X49461618Y-109025825D01*
X49152882Y-108819534D01*
X48809834Y-108677439D01*
X48445656Y-108605000D01*
X48074344Y-108605000D01*
X47710166Y-108677439D01*
X47367118Y-108819534D01*
X47058382Y-109025825D01*
X46795825Y-109288382D01*
X46589534Y-109597118D01*
X46447439Y-109940166D01*
X46375000Y-110304344D01*
X45364000Y-110304344D01*
X45364000Y-88275806D01*
X50971950Y-88275806D01*
X51016870Y-88614606D01*
X51127023Y-88938133D01*
X51233021Y-89136441D01*
X51507647Y-89244274D01*
X52534754Y-88217167D01*
X52520612Y-88203025D01*
X52700217Y-88023420D01*
X52714359Y-88037562D01*
X52728502Y-88023420D01*
X52908107Y-88203025D01*
X52893964Y-88217167D01*
X53921071Y-89244274D01*
X54195697Y-89136441D01*
X54346575Y-88829783D01*
X54434728Y-88499582D01*
X54456768Y-88158528D01*
X54411848Y-87819728D01*
X54301695Y-87496201D01*
X54195697Y-87297893D01*
X54185626Y-87293939D01*
X54265544Y-87228352D01*
X54344896Y-87131661D01*
X54403861Y-87021347D01*
X54440171Y-86901649D01*
X54452431Y-86777167D01*
X54452431Y-86552850D01*
X54487849Y-86549362D01*
X54654672Y-86498756D01*
X54808418Y-86416578D01*
X54943176Y-86305984D01*
X54970893Y-86272211D01*
X57183412Y-84059693D01*
X61344048Y-84059693D01*
X61177503Y-84226238D01*
X61029215Y-84448167D01*
X60927072Y-84694761D01*
X60875000Y-84956544D01*
X60875000Y-85188717D01*
X60770590Y-85315941D01*
X60688412Y-85469687D01*
X60653717Y-85584060D01*
X60642636Y-85620589D01*
X60637806Y-85636510D01*
X60625001Y-85766523D01*
X60625001Y-85766530D01*
X60620720Y-85809999D01*
X60625001Y-85853468D01*
X60625002Y-87983419D01*
X56196255Y-92412167D01*
X54209688Y-92412167D01*
X54062022Y-92191169D01*
X53898020Y-92027167D01*
X54062022Y-91863165D01*
X54251896Y-91578998D01*
X54382684Y-91263248D01*
X54449359Y-90928050D01*
X54449359Y-90586284D01*
X54382684Y-90251086D01*
X54251896Y-89935336D01*
X54062022Y-89651169D01*
X53820357Y-89409504D01*
X53539285Y-89221698D01*
X52714359Y-88396772D01*
X51889433Y-89221698D01*
X51608361Y-89409504D01*
X51366696Y-89651169D01*
X51176822Y-89935336D01*
X51046034Y-90251086D01*
X50979359Y-90586284D01*
X50979359Y-90928050D01*
X51046034Y-91263248D01*
X51176822Y-91578998D01*
X51366696Y-91863165D01*
X51530698Y-92027167D01*
X51366696Y-92191169D01*
X51176822Y-92475336D01*
X51046034Y-92791086D01*
X50979359Y-93126284D01*
X50979359Y-93468050D01*
X51046034Y-93803248D01*
X51176822Y-94118998D01*
X51366696Y-94403165D01*
X51530698Y-94567167D01*
X51366696Y-94731169D01*
X51176822Y-95015336D01*
X51046034Y-95331086D01*
X50979359Y-95666284D01*
X50979359Y-96008050D01*
X51046034Y-96343248D01*
X51176822Y-96658998D01*
X51366696Y-96943165D01*
X51530698Y-97107167D01*
X51366696Y-97271169D01*
X51176822Y-97555336D01*
X51046034Y-97871086D01*
X50979359Y-98206284D01*
X50979359Y-98548050D01*
X51046034Y-98883248D01*
X51176822Y-99198998D01*
X51366696Y-99483165D01*
X51530698Y-99647167D01*
X51366696Y-99811169D01*
X51176822Y-100095336D01*
X51046034Y-100411086D01*
X50979359Y-100746284D01*
X50979359Y-101088050D01*
X51046034Y-101423248D01*
X51176822Y-101738998D01*
X51366696Y-102023165D01*
X51530698Y-102187167D01*
X51366696Y-102351169D01*
X51176822Y-102635336D01*
X51046034Y-102951086D01*
X50979359Y-103286284D01*
X50979359Y-103628050D01*
X51046034Y-103963248D01*
X51176822Y-104278998D01*
X51366696Y-104563165D01*
X51608361Y-104804830D01*
X51892528Y-104994704D01*
X52208278Y-105125492D01*
X52543476Y-105192167D01*
X52885242Y-105192167D01*
X53220440Y-105125492D01*
X53536190Y-104994704D01*
X53820357Y-104804830D01*
X54062022Y-104563165D01*
X54251896Y-104278998D01*
X54382684Y-103963248D01*
X54449359Y-103628050D01*
X54449359Y-103286284D01*
X54382684Y-102951086D01*
X54251896Y-102635336D01*
X54062022Y-102351169D01*
X53898020Y-102187167D01*
X54062022Y-102023165D01*
X54251896Y-101738998D01*
X54382684Y-101423248D01*
X54449359Y-101088050D01*
X54449359Y-100746284D01*
X54382684Y-100411086D01*
X54251896Y-100095336D01*
X54062022Y-99811169D01*
X53898020Y-99647167D01*
X54062022Y-99483165D01*
X54209688Y-99262167D01*
X56735589Y-99262167D01*
X58805000Y-101331579D01*
X58805001Y-105366521D01*
X58800719Y-105410000D01*
X58817805Y-105583490D01*
X58868412Y-105750313D01*
X58950590Y-105904059D01*
X59033468Y-106005046D01*
X59033471Y-106005049D01*
X59061184Y-106038817D01*
X59094951Y-106066529D01*
X60875000Y-107846579D01*
X60875000Y-108083456D01*
X60927072Y-108345239D01*
X61029215Y-108591833D01*
X61177503Y-108813762D01*
X61366238Y-109002497D01*
X61588167Y-109150785D01*
X61834761Y-109252928D01*
X62096544Y-109305000D01*
X62363456Y-109305000D01*
X62625239Y-109252928D01*
X62871833Y-109150785D01*
X63093762Y-109002497D01*
X63282497Y-108813762D01*
X63430785Y-108591833D01*
X63532928Y-108345239D01*
X63585000Y-108083456D01*
X63585000Y-107816544D01*
X63532928Y-107554761D01*
X63430785Y-107308167D01*
X63282497Y-107086238D01*
X63093762Y-106897503D01*
X62871833Y-106749215D01*
X62625239Y-106647072D01*
X62363456Y-106595000D01*
X62126579Y-106595000D01*
X60575000Y-105043422D01*
X60575000Y-103805560D01*
X61474045Y-103805560D01*
X61535932Y-104041368D01*
X61777790Y-104154266D01*
X62037027Y-104217811D01*
X62303680Y-104229561D01*
X62567501Y-104189063D01*
X62818353Y-104097875D01*
X62924068Y-104041368D01*
X62985955Y-103805560D01*
X62230000Y-103049605D01*
X61474045Y-103805560D01*
X60575000Y-103805560D01*
X60575000Y-102943680D01*
X60870439Y-102943680D01*
X60910937Y-103207501D01*
X61002125Y-103458353D01*
X61058632Y-103564068D01*
X61294440Y-103625955D01*
X62050395Y-102870000D01*
X62409605Y-102870000D01*
X63165560Y-103625955D01*
X63401368Y-103564068D01*
X63514266Y-103322210D01*
X63577811Y-103062973D01*
X63589561Y-102796320D01*
X63549063Y-102532499D01*
X63457875Y-102281647D01*
X63401368Y-102175932D01*
X63165560Y-102114045D01*
X62409605Y-102870000D01*
X62050395Y-102870000D01*
X61294440Y-102114045D01*
X61058632Y-102175932D01*
X60945734Y-102417790D01*
X60882189Y-102677027D01*
X60870439Y-102943680D01*
X60575000Y-102943680D01*
X60575000Y-101934440D01*
X61474045Y-101934440D01*
X62230000Y-102690395D01*
X62985955Y-101934440D01*
X62924068Y-101698632D01*
X62682210Y-101585734D01*
X62422973Y-101522189D01*
X62156320Y-101510439D01*
X61892499Y-101550937D01*
X61641647Y-101642125D01*
X61535932Y-101698632D01*
X61474045Y-101934440D01*
X60575000Y-101934440D01*
X60575000Y-101008469D01*
X60579281Y-100965000D01*
X60575000Y-100921531D01*
X60575000Y-100921523D01*
X60562195Y-100791510D01*
X60523660Y-100664478D01*
X60511589Y-100624686D01*
X60429411Y-100470941D01*
X60346532Y-100369953D01*
X60346530Y-100369951D01*
X60318817Y-100336183D01*
X60285050Y-100308471D01*
X57758701Y-97782123D01*
X57730984Y-97748350D01*
X57596226Y-97637756D01*
X57442480Y-97555578D01*
X57275657Y-97504972D01*
X57145644Y-97492167D01*
X57145636Y-97492167D01*
X57102167Y-97487886D01*
X57058698Y-97492167D01*
X54209688Y-97492167D01*
X54151445Y-97405000D01*
X61198741Y-97405000D01*
X61366238Y-97572497D01*
X61588167Y-97720785D01*
X61834761Y-97822928D01*
X62096544Y-97875000D01*
X62363456Y-97875000D01*
X62625239Y-97822928D01*
X62871833Y-97720785D01*
X63093762Y-97572497D01*
X63282497Y-97383762D01*
X63430785Y-97161833D01*
X63532928Y-96915239D01*
X63585000Y-96653456D01*
X63585000Y-96386544D01*
X63532928Y-96124761D01*
X63430785Y-95878167D01*
X63282497Y-95656238D01*
X63093762Y-95467503D01*
X62871833Y-95319215D01*
X62625239Y-95217072D01*
X62363456Y-95165000D01*
X62096544Y-95165000D01*
X61834761Y-95217072D01*
X61588167Y-95319215D01*
X61366238Y-95467503D01*
X61198741Y-95635000D01*
X54443136Y-95635000D01*
X54382684Y-95331086D01*
X54251896Y-95015336D01*
X54062022Y-94731169D01*
X53898020Y-94567167D01*
X54062022Y-94403165D01*
X54209688Y-94182167D01*
X56226042Y-94182167D01*
X56341510Y-94217195D01*
X56499445Y-94232749D01*
X56514999Y-94234281D01*
X56515000Y-94234281D01*
X56688490Y-94217195D01*
X56855313Y-94166588D01*
X57009059Y-94084410D01*
X57110046Y-94001532D01*
X57143817Y-93973817D01*
X57171532Y-93940046D01*
X58736018Y-92375560D01*
X61474045Y-92375560D01*
X61535932Y-92611368D01*
X61777790Y-92724266D01*
X62037027Y-92787811D01*
X62303680Y-92799561D01*
X62567501Y-92759063D01*
X62818353Y-92667875D01*
X62924068Y-92611368D01*
X62985955Y-92375560D01*
X62230000Y-91619605D01*
X61474045Y-92375560D01*
X58736018Y-92375560D01*
X59597898Y-91513680D01*
X60870439Y-91513680D01*
X60910937Y-91777501D01*
X61002125Y-92028353D01*
X61058632Y-92134068D01*
X61294440Y-92195955D01*
X62050395Y-91440000D01*
X62409605Y-91440000D01*
X63165560Y-92195955D01*
X63401368Y-92134068D01*
X63514266Y-91892210D01*
X63577811Y-91632973D01*
X63589561Y-91366320D01*
X63549063Y-91102499D01*
X63457875Y-90851647D01*
X63401368Y-90745932D01*
X63165560Y-90684045D01*
X62409605Y-91440000D01*
X62050395Y-91440000D01*
X61294440Y-90684045D01*
X61058632Y-90745932D01*
X60945734Y-90987790D01*
X60882189Y-91247027D01*
X60870439Y-91513680D01*
X59597898Y-91513680D01*
X60607138Y-90504440D01*
X61474045Y-90504440D01*
X62230000Y-91260395D01*
X62985955Y-90504440D01*
X62924068Y-90268632D01*
X62682210Y-90155734D01*
X62422973Y-90092189D01*
X62156320Y-90080439D01*
X61892499Y-90120937D01*
X61641647Y-90212125D01*
X61535932Y-90268632D01*
X61474045Y-90504440D01*
X60607138Y-90504440D01*
X62105050Y-89006529D01*
X62138818Y-88978816D01*
X62174443Y-88935408D01*
X62249411Y-88844059D01*
X62281249Y-88784494D01*
X62331590Y-88690312D01*
X62382196Y-88523489D01*
X62395001Y-88393476D01*
X62395001Y-88393466D01*
X62399282Y-88350000D01*
X62395001Y-88306534D01*
X62395001Y-86438725D01*
X62625239Y-86392928D01*
X62871833Y-86290785D01*
X63093762Y-86142497D01*
X63282497Y-85953762D01*
X63430785Y-85731833D01*
X63532928Y-85485239D01*
X63585000Y-85223456D01*
X63585000Y-85061402D01*
X63843043Y-85319445D01*
X63870756Y-85353213D01*
X63904524Y-85380926D01*
X63904526Y-85380928D01*
X63964703Y-85430314D01*
X64005514Y-85463807D01*
X64159260Y-85545985D01*
X64275476Y-85581239D01*
X64326082Y-85596591D01*
X64342258Y-85598184D01*
X64456096Y-85609396D01*
X64456103Y-85609396D01*
X64499572Y-85613677D01*
X64543041Y-85609396D01*
X64691893Y-85609396D01*
X64601063Y-85700226D01*
X64487795Y-85869744D01*
X64409774Y-86058102D01*
X64398465Y-86114957D01*
X64174951Y-86338471D01*
X64141184Y-86366183D01*
X64113471Y-86399951D01*
X64113468Y-86399954D01*
X64030590Y-86500941D01*
X63948412Y-86654687D01*
X63897805Y-86821510D01*
X63880719Y-86995000D01*
X63885001Y-87038479D01*
X63885000Y-92948741D01*
X63717503Y-93116238D01*
X63569215Y-93338167D01*
X63467072Y-93584761D01*
X63415000Y-93846544D01*
X63415000Y-94113456D01*
X63467072Y-94375239D01*
X63569215Y-94621833D01*
X63717503Y-94843762D01*
X63906238Y-95032497D01*
X64128167Y-95180785D01*
X64374761Y-95282928D01*
X64636544Y-95335000D01*
X64903456Y-95335000D01*
X65165239Y-95282928D01*
X65411833Y-95180785D01*
X65633762Y-95032497D01*
X65822497Y-94843762D01*
X65970785Y-94621833D01*
X66072928Y-94375239D01*
X66125000Y-94113456D01*
X66125000Y-93846544D01*
X66072928Y-93584761D01*
X65970785Y-93338167D01*
X65822497Y-93116238D01*
X65655000Y-92948741D01*
X65655000Y-87365549D01*
X65706898Y-87355226D01*
X65895256Y-87277205D01*
X66064774Y-87163937D01*
X66208937Y-87019774D01*
X66275000Y-86920903D01*
X66275000Y-87096939D01*
X66314774Y-87296898D01*
X66392795Y-87485256D01*
X66425001Y-87533456D01*
X66425000Y-98058421D01*
X64894950Y-99588472D01*
X64861183Y-99616184D01*
X64833470Y-99649952D01*
X64833467Y-99649955D01*
X64750589Y-99750942D01*
X64668411Y-99904688D01*
X64617804Y-100071511D01*
X64600718Y-100245001D01*
X64605000Y-100288480D01*
X64604999Y-104061275D01*
X64374761Y-104107072D01*
X64128167Y-104209215D01*
X63906238Y-104357503D01*
X63717503Y-104546238D01*
X63569215Y-104768167D01*
X63467072Y-105014761D01*
X63415000Y-105276544D01*
X63415000Y-105543456D01*
X63467072Y-105805239D01*
X63569215Y-106051833D01*
X63717503Y-106273762D01*
X63906238Y-106462497D01*
X64128167Y-106610785D01*
X64374761Y-106712928D01*
X64636544Y-106765000D01*
X64903456Y-106765000D01*
X65165239Y-106712928D01*
X65411833Y-106610785D01*
X65633762Y-106462497D01*
X65822497Y-106273762D01*
X65970785Y-106051833D01*
X66072928Y-105805239D01*
X66125000Y-105543456D01*
X66125000Y-105311283D01*
X66229410Y-105184060D01*
X66311588Y-105030314D01*
X66362194Y-104863491D01*
X66374999Y-104733478D01*
X66374999Y-104733468D01*
X66379280Y-104690002D01*
X66374999Y-104646536D01*
X66374999Y-100611579D01*
X67905050Y-99081529D01*
X67938817Y-99053817D01*
X67980749Y-99002724D01*
X68049410Y-98919060D01*
X68049411Y-98919059D01*
X68131589Y-98765313D01*
X68182195Y-98598490D01*
X68195000Y-98468477D01*
X68195000Y-98468467D01*
X68199281Y-98425001D01*
X68195000Y-98381535D01*
X68195000Y-95807845D01*
X70744784Y-95807845D01*
X70744784Y-96011723D01*
X70784558Y-96211682D01*
X70862579Y-96400040D01*
X70975847Y-96569558D01*
X71120010Y-96713721D01*
X71289528Y-96826989D01*
X71477886Y-96905010D01*
X71534741Y-96916319D01*
X73003470Y-98385049D01*
X73031183Y-98418817D01*
X73064951Y-98446530D01*
X73064953Y-98446532D01*
X73124677Y-98495546D01*
X73165941Y-98529411D01*
X73319687Y-98611589D01*
X73435903Y-98646843D01*
X73456539Y-98653104D01*
X73316119Y-98793524D01*
X73155519Y-99033879D01*
X73044896Y-99300947D01*
X72988501Y-99584465D01*
X72988501Y-99873537D01*
X73044896Y-100157055D01*
X73155519Y-100424123D01*
X73316119Y-100664478D01*
X73520524Y-100868883D01*
X73571002Y-100902611D01*
X73571001Y-103635391D01*
X73520524Y-103669119D01*
X73316119Y-103873524D01*
X73155519Y-104113879D01*
X73044896Y-104380947D01*
X72988501Y-104664465D01*
X72988501Y-104953537D01*
X73044896Y-105237055D01*
X73155519Y-105504123D01*
X73316119Y-105744478D01*
X73520524Y-105948883D01*
X73760879Y-106109483D01*
X74027947Y-106220106D01*
X74311465Y-106276501D01*
X74600537Y-106276501D01*
X74884055Y-106220106D01*
X75151123Y-106109483D01*
X75391478Y-105948883D01*
X75595883Y-105744478D01*
X75756483Y-105504123D01*
X75867106Y-105237055D01*
X75923501Y-104953537D01*
X75923501Y-104664465D01*
X75867106Y-104380947D01*
X75756483Y-104113879D01*
X75595883Y-103873524D01*
X75391478Y-103669119D01*
X75341001Y-103635391D01*
X75341001Y-100902611D01*
X75391478Y-100868883D01*
X75595883Y-100664478D01*
X75756483Y-100424123D01*
X75867106Y-100157055D01*
X75923501Y-99873537D01*
X75923501Y-99584465D01*
X75867106Y-99300947D01*
X75756483Y-99033879D01*
X75595883Y-98793524D01*
X75477359Y-98675000D01*
X84479533Y-98675000D01*
X84523002Y-98679281D01*
X84566471Y-98675000D01*
X84566479Y-98675000D01*
X84696492Y-98662195D01*
X84863315Y-98611589D01*
X85017061Y-98529411D01*
X85151819Y-98418817D01*
X85179536Y-98385044D01*
X87459923Y-96104657D01*
X87519465Y-96116501D01*
X87808537Y-96116501D01*
X88092055Y-96060106D01*
X88359123Y-95949483D01*
X88599478Y-95788883D01*
X88803883Y-95584478D01*
X88964483Y-95344123D01*
X89075106Y-95077055D01*
X89131501Y-94793537D01*
X89131501Y-94504465D01*
X89075106Y-94220947D01*
X88964483Y-93953879D01*
X88803883Y-93713524D01*
X88599478Y-93509119D01*
X88359123Y-93348519D01*
X88092055Y-93237896D01*
X87808537Y-93181501D01*
X87519465Y-93181501D01*
X87235947Y-93237896D01*
X86968879Y-93348519D01*
X86728524Y-93509119D01*
X86524119Y-93713524D01*
X86363519Y-93953879D01*
X86252896Y-94220947D01*
X86196501Y-94504465D01*
X86196501Y-94793537D01*
X86208345Y-94853079D01*
X84156424Y-96905000D01*
X74026579Y-96905000D01*
X72786319Y-95664741D01*
X72775010Y-95607886D01*
X72696989Y-95419528D01*
X72583721Y-95250010D01*
X72439558Y-95105847D01*
X72270040Y-94992579D01*
X72081682Y-94914558D01*
X71881723Y-94874784D01*
X71677845Y-94874784D01*
X71477886Y-94914558D01*
X71289528Y-94992579D01*
X71120010Y-95105847D01*
X70975847Y-95250010D01*
X70862579Y-95419528D01*
X70784558Y-95607886D01*
X70744784Y-95807845D01*
X68195000Y-95807845D01*
X68195000Y-87533454D01*
X68227205Y-87485256D01*
X68305226Y-87296898D01*
X68345000Y-87096939D01*
X68345000Y-86893061D01*
X68305226Y-86693102D01*
X68227205Y-86504744D01*
X68113937Y-86335226D01*
X67969774Y-86191063D01*
X67800256Y-86077795D01*
X67611898Y-85999774D01*
X67411939Y-85960000D01*
X67208061Y-85960000D01*
X67008102Y-85999774D01*
X66819744Y-86077795D01*
X66650226Y-86191063D01*
X66506063Y-86335226D01*
X66440000Y-86434097D01*
X66440000Y-86258061D01*
X66400226Y-86058102D01*
X66322205Y-85869744D01*
X66208937Y-85700226D01*
X66118107Y-85609396D01*
X72939816Y-85609396D01*
X75555468Y-88225049D01*
X75583181Y-88258817D01*
X75616949Y-88286530D01*
X75616951Y-88286532D01*
X75717939Y-88369411D01*
X75871684Y-88451589D01*
X76029894Y-88499582D01*
X76038508Y-88502195D01*
X76168521Y-88515000D01*
X76168529Y-88515000D01*
X76211998Y-88519281D01*
X76255467Y-88515000D01*
X86200299Y-88515000D01*
X86204188Y-88554482D01*
X86240498Y-88674180D01*
X86299463Y-88784494D01*
X86378815Y-88881185D01*
X86475506Y-88960537D01*
X86585820Y-89019502D01*
X86705518Y-89055812D01*
X86830000Y-89068072D01*
X88430000Y-89068072D01*
X88554482Y-89055812D01*
X88674180Y-89019502D01*
X88784494Y-88960537D01*
X88881185Y-88881185D01*
X88960537Y-88784494D01*
X89019502Y-88674180D01*
X89035117Y-88622702D01*
X89316903Y-88622702D01*
X89388486Y-88866671D01*
X89643996Y-88987571D01*
X89918184Y-89056300D01*
X90200512Y-89070217D01*
X90480130Y-89028787D01*
X90746292Y-88933603D01*
X90871514Y-88866671D01*
X90943097Y-88622702D01*
X90130000Y-87809605D01*
X89316903Y-88622702D01*
X89035117Y-88622702D01*
X89055812Y-88554482D01*
X89068072Y-88430000D01*
X89068072Y-88422785D01*
X89137298Y-88443097D01*
X89950395Y-87630000D01*
X90309605Y-87630000D01*
X91122702Y-88443097D01*
X91366671Y-88371514D01*
X91487571Y-88116004D01*
X91556300Y-87841816D01*
X91570217Y-87559488D01*
X91528787Y-87279870D01*
X91433603Y-87013708D01*
X91366671Y-86888486D01*
X91122702Y-86816903D01*
X90309605Y-87630000D01*
X89950395Y-87630000D01*
X89137298Y-86816903D01*
X89068072Y-86837215D01*
X89068072Y-86830000D01*
X89055812Y-86705518D01*
X89035118Y-86637298D01*
X89316903Y-86637298D01*
X90130000Y-87450395D01*
X90943097Y-86637298D01*
X90871514Y-86393329D01*
X90616004Y-86272429D01*
X90341816Y-86203700D01*
X90059488Y-86189783D01*
X89779870Y-86231213D01*
X89513708Y-86326397D01*
X89388486Y-86393329D01*
X89316903Y-86637298D01*
X89035118Y-86637298D01*
X89019502Y-86585820D01*
X88960537Y-86475506D01*
X88881185Y-86378815D01*
X88784494Y-86299463D01*
X88674180Y-86240498D01*
X88554482Y-86204188D01*
X88430000Y-86191928D01*
X86830000Y-86191928D01*
X86705518Y-86204188D01*
X86585820Y-86240498D01*
X86475506Y-86299463D01*
X86378815Y-86378815D01*
X86299463Y-86475506D01*
X86240498Y-86585820D01*
X86204188Y-86705518D01*
X86200299Y-86745000D01*
X76578577Y-86745000D01*
X73962928Y-84129352D01*
X73935211Y-84095579D01*
X73800453Y-83984985D01*
X73727643Y-83946068D01*
X73828937Y-83844774D01*
X73942205Y-83675256D01*
X74020226Y-83486898D01*
X74060000Y-83286939D01*
X74060000Y-83083061D01*
X74020226Y-82883102D01*
X73942205Y-82694744D01*
X73828937Y-82525226D01*
X73684774Y-82381063D01*
X73515256Y-82267795D01*
X73326898Y-82189774D01*
X73270044Y-82178465D01*
X71634640Y-80543061D01*
X89135000Y-80543061D01*
X89135000Y-80746939D01*
X89174774Y-80946898D01*
X89252795Y-81135256D01*
X89366063Y-81304774D01*
X89510226Y-81448937D01*
X89679744Y-81562205D01*
X89868102Y-81640226D01*
X89924957Y-81651535D01*
X92688470Y-84415049D01*
X92716183Y-84448817D01*
X92749951Y-84476530D01*
X92749953Y-84476532D01*
X92821452Y-84535210D01*
X92850941Y-84559411D01*
X93004687Y-84641589D01*
X93171510Y-84692195D01*
X93301523Y-84705000D01*
X93301533Y-84705000D01*
X93344999Y-84709281D01*
X93388466Y-84705000D01*
X95981546Y-84705000D01*
X96029744Y-84737205D01*
X96218102Y-84815226D01*
X96418061Y-84855000D01*
X96621939Y-84855000D01*
X96821898Y-84815226D01*
X97010256Y-84737205D01*
X97179774Y-84623937D01*
X97323937Y-84479774D01*
X97437205Y-84310256D01*
X97515226Y-84121898D01*
X97555000Y-83921939D01*
X97555000Y-83718061D01*
X97515226Y-83518102D01*
X97437205Y-83329744D01*
X97323937Y-83160226D01*
X97179774Y-83016063D01*
X97010256Y-82902795D01*
X96821898Y-82824774D01*
X96621939Y-82785000D01*
X96418061Y-82785000D01*
X96218102Y-82824774D01*
X96029744Y-82902795D01*
X95981546Y-82935000D01*
X95427350Y-82935000D01*
X95551898Y-82910226D01*
X95740256Y-82832205D01*
X95909774Y-82718937D01*
X96053937Y-82574774D01*
X96167205Y-82405256D01*
X96245226Y-82216898D01*
X96285000Y-82016939D01*
X96285000Y-81813061D01*
X96245226Y-81613102D01*
X96167205Y-81424744D01*
X96053937Y-81255226D01*
X95909774Y-81111063D01*
X95740256Y-80997795D01*
X95551898Y-80919774D01*
X95351939Y-80880000D01*
X95148061Y-80880000D01*
X94948102Y-80919774D01*
X94759744Y-80997795D01*
X94711546Y-81030000D01*
X94346579Y-81030000D01*
X93081535Y-79764957D01*
X93070226Y-79708102D01*
X92992205Y-79519744D01*
X92878937Y-79350226D01*
X92734774Y-79206063D01*
X92565256Y-79092795D01*
X92376898Y-79014774D01*
X92176939Y-78975000D01*
X91973061Y-78975000D01*
X91773102Y-79014774D01*
X91584744Y-79092795D01*
X91415226Y-79206063D01*
X91271063Y-79350226D01*
X91157795Y-79519744D01*
X91079774Y-79708102D01*
X91040000Y-79908061D01*
X91040000Y-80084097D01*
X90973937Y-79985226D01*
X90829774Y-79841063D01*
X90660256Y-79727795D01*
X90471898Y-79649774D01*
X90271939Y-79610000D01*
X90068061Y-79610000D01*
X89868102Y-79649774D01*
X89679744Y-79727795D01*
X89510226Y-79841063D01*
X89366063Y-79985226D01*
X89252795Y-80154744D01*
X89174774Y-80343102D01*
X89135000Y-80543061D01*
X71634640Y-80543061D01*
X69645923Y-78554344D01*
X103525000Y-78554344D01*
X103525000Y-78925656D01*
X103597439Y-79289834D01*
X103739534Y-79632882D01*
X103945825Y-79941618D01*
X104208382Y-80204175D01*
X104517118Y-80410466D01*
X104860166Y-80552561D01*
X105224344Y-80625000D01*
X105595656Y-80625000D01*
X105959834Y-80552561D01*
X106302882Y-80410466D01*
X106611618Y-80204175D01*
X106874175Y-79941618D01*
X107080466Y-79632882D01*
X107222561Y-79289834D01*
X107295000Y-78925656D01*
X107295000Y-78554344D01*
X107222561Y-78190166D01*
X107080466Y-77847118D01*
X106874175Y-77538382D01*
X106611618Y-77275825D01*
X106302882Y-77069534D01*
X105959834Y-76927439D01*
X105595656Y-76855000D01*
X105224344Y-76855000D01*
X104860166Y-76927439D01*
X104517118Y-77069534D01*
X104208382Y-77275825D01*
X103945825Y-77538382D01*
X103739534Y-77847118D01*
X103597439Y-78190166D01*
X103525000Y-78554344D01*
X69645923Y-78554344D01*
X68830000Y-77738422D01*
X68830000Y-77373454D01*
X68862205Y-77325256D01*
X68940226Y-77136898D01*
X68980000Y-76936939D01*
X68980000Y-76733061D01*
X68940226Y-76533102D01*
X68862205Y-76344744D01*
X68748937Y-76175226D01*
X68604774Y-76031063D01*
X68435256Y-75917795D01*
X68246898Y-75839774D01*
X68046939Y-75800000D01*
X67843061Y-75800000D01*
X67643102Y-75839774D01*
X67454744Y-75917795D01*
X67285226Y-76031063D01*
X67141063Y-76175226D01*
X67027795Y-76344744D01*
X66949774Y-76533102D01*
X66910000Y-76733061D01*
X66910000Y-76936939D01*
X66949774Y-77136898D01*
X67027795Y-77325256D01*
X67060001Y-77373455D01*
X67060000Y-78061530D01*
X67055719Y-78105000D01*
X67060000Y-78148469D01*
X67060000Y-78148476D01*
X67072805Y-78278489D01*
X67123411Y-78445312D01*
X67205589Y-78599058D01*
X67316183Y-78733817D01*
X67349956Y-78761534D01*
X72018465Y-83430044D01*
X72029774Y-83486898D01*
X72107795Y-83675256D01*
X72217470Y-83839396D01*
X65197908Y-83839396D01*
X65411833Y-83750785D01*
X65633762Y-83602497D01*
X65822497Y-83413762D01*
X65970785Y-83191833D01*
X66072928Y-82945239D01*
X66125000Y-82683456D01*
X66125000Y-82416544D01*
X66072928Y-82154761D01*
X65970785Y-81908167D01*
X65822497Y-81686238D01*
X65633762Y-81497503D01*
X65411833Y-81349215D01*
X65165239Y-81247072D01*
X64903456Y-81195000D01*
X64636544Y-81195000D01*
X64374761Y-81247072D01*
X64128167Y-81349215D01*
X63906238Y-81497503D01*
X63717503Y-81686238D01*
X63569215Y-81908167D01*
X63467072Y-82154761D01*
X63415000Y-82416544D01*
X63415000Y-82419819D01*
X63290183Y-82353104D01*
X63123360Y-82302498D01*
X62993347Y-82289693D01*
X62993339Y-82289693D01*
X62949870Y-82285412D01*
X62906401Y-82289693D01*
X56860302Y-82289693D01*
X56816833Y-82285412D01*
X56773364Y-82289693D01*
X56773356Y-82289693D01*
X56643343Y-82302498D01*
X56476519Y-82353104D01*
X56322774Y-82435282D01*
X56221786Y-82518161D01*
X56221784Y-82518163D01*
X56188016Y-82545876D01*
X56160303Y-82579644D01*
X54404582Y-84335365D01*
X54403861Y-84332987D01*
X54344896Y-84222673D01*
X54265544Y-84125982D01*
X54168853Y-84046630D01*
X54058539Y-83987665D01*
X53938841Y-83951355D01*
X53814359Y-83939095D01*
X51614359Y-83939095D01*
X51489877Y-83951355D01*
X51370179Y-83987665D01*
X51259865Y-84046630D01*
X51163174Y-84125982D01*
X51083822Y-84222673D01*
X51024857Y-84332987D01*
X50988547Y-84452685D01*
X50976287Y-84577167D01*
X50976287Y-86777167D01*
X50988547Y-86901649D01*
X51024857Y-87021347D01*
X51083822Y-87131661D01*
X51163174Y-87228352D01*
X51243092Y-87293939D01*
X51233021Y-87297893D01*
X51082143Y-87604551D01*
X50993990Y-87934752D01*
X50971950Y-88275806D01*
X45364000Y-88275806D01*
X45364000Y-79062344D01*
X46375000Y-79062344D01*
X46375000Y-79433656D01*
X46447439Y-79797834D01*
X46589534Y-80140882D01*
X46795825Y-80449618D01*
X47058382Y-80712175D01*
X47367118Y-80918466D01*
X47710166Y-81060561D01*
X48074344Y-81133000D01*
X48445656Y-81133000D01*
X48809834Y-81060561D01*
X49087471Y-80945560D01*
X61474045Y-80945560D01*
X61535932Y-81181368D01*
X61777790Y-81294266D01*
X62037027Y-81357811D01*
X62303680Y-81369561D01*
X62567501Y-81329063D01*
X62818353Y-81237875D01*
X62924068Y-81181368D01*
X62985955Y-80945560D01*
X62230000Y-80189605D01*
X61474045Y-80945560D01*
X49087471Y-80945560D01*
X49152882Y-80918466D01*
X49461618Y-80712175D01*
X49724175Y-80449618D01*
X49930466Y-80140882D01*
X49954159Y-80083680D01*
X60870439Y-80083680D01*
X60910937Y-80347501D01*
X61002125Y-80598353D01*
X61058632Y-80704068D01*
X61294440Y-80765955D01*
X62050395Y-80010000D01*
X62409605Y-80010000D01*
X63165560Y-80765955D01*
X63401368Y-80704068D01*
X63514266Y-80462210D01*
X63577811Y-80202973D01*
X63589561Y-79936320D01*
X63549063Y-79672499D01*
X63457875Y-79421647D01*
X63401368Y-79315932D01*
X63165560Y-79254045D01*
X62409605Y-80010000D01*
X62050395Y-80010000D01*
X61294440Y-79254045D01*
X61058632Y-79315932D01*
X60945734Y-79557790D01*
X60882189Y-79817027D01*
X60870439Y-80083680D01*
X49954159Y-80083680D01*
X50072561Y-79797834D01*
X50145000Y-79433656D01*
X50145000Y-79074440D01*
X61474045Y-79074440D01*
X62230000Y-79830395D01*
X62985955Y-79074440D01*
X62924068Y-78838632D01*
X62682210Y-78725734D01*
X62422973Y-78662189D01*
X62156320Y-78650439D01*
X61892499Y-78690937D01*
X61641647Y-78782125D01*
X61535932Y-78838632D01*
X61474045Y-79074440D01*
X50145000Y-79074440D01*
X50145000Y-79062344D01*
X50072561Y-78698166D01*
X49930466Y-78355118D01*
X49724175Y-78046382D01*
X49461618Y-77783825D01*
X49152882Y-77577534D01*
X48809834Y-77435439D01*
X48445656Y-77363000D01*
X48074344Y-77363000D01*
X47710166Y-77435439D01*
X47367118Y-77577534D01*
X47058382Y-77783825D01*
X46795825Y-78046382D01*
X46589534Y-78355118D01*
X46447439Y-78698166D01*
X46375000Y-79062344D01*
X45364000Y-79062344D01*
X45364000Y-75590000D01*
X108560000Y-75590000D01*
X108560000Y-84802652D01*
G36*
X96497891Y-97600797D02*
G01*
X96486575Y-97864314D01*
X96526886Y-98124976D01*
X96617276Y-98372764D01*
X96671695Y-98474577D01*
X96905872Y-98534523D01*
X97650395Y-97790000D01*
X97636253Y-97775858D01*
X97815858Y-97596253D01*
X97830000Y-97610395D01*
X97844143Y-97596253D01*
X98023748Y-97775858D01*
X98009605Y-97790000D01*
X98754128Y-98534523D01*
X98987928Y-98474674D01*
X98987928Y-98494000D01*
X99000188Y-98618482D01*
X99036498Y-98738180D01*
X99095463Y-98848494D01*
X99174815Y-98945185D01*
X99271506Y-99024537D01*
X99381820Y-99083502D01*
X99445001Y-99102668D01*
X99445001Y-99381367D01*
X99289931Y-99536437D01*
X99147434Y-99749699D01*
X99117543Y-99599428D01*
X99016607Y-99355746D01*
X98870069Y-99136437D01*
X98683563Y-98949931D01*
X98538904Y-98853273D01*
X98574523Y-98714128D01*
X97830000Y-97969605D01*
X97085477Y-98714128D01*
X97121096Y-98853273D01*
X96976437Y-98949931D01*
X96789931Y-99136437D01*
X96643393Y-99355746D01*
X96542457Y-99599428D01*
X96491000Y-99858120D01*
X96491000Y-100121880D01*
X96542457Y-100380572D01*
X96643393Y-100624254D01*
X96789931Y-100843563D01*
X96976437Y-101030069D01*
X97195746Y-101176607D01*
X97348791Y-101240000D01*
X97195746Y-101303393D01*
X96976437Y-101449931D01*
X96789931Y-101636437D01*
X96643393Y-101855746D01*
X96542457Y-102099428D01*
X96491000Y-102358120D01*
X96491000Y-102621880D01*
X96542457Y-102880572D01*
X96643393Y-103124254D01*
X96789931Y-103343563D01*
X96976437Y-103530069D01*
X97195746Y-103676607D01*
X97439428Y-103777543D01*
X97698120Y-103829000D01*
X97961880Y-103829000D01*
X98220572Y-103777543D01*
X98464254Y-103676607D01*
X98683563Y-103530069D01*
X98870069Y-103343563D01*
X99016607Y-103124254D01*
X99080000Y-102971209D01*
X99143393Y-103124254D01*
X99289931Y-103343563D01*
X99476437Y-103530069D01*
X99695746Y-103676607D01*
X99939428Y-103777543D01*
X100198120Y-103829000D01*
X100461880Y-103829000D01*
X100657306Y-103790127D01*
X94610934Y-109836500D01*
X88483316Y-109836500D01*
X88599478Y-109758883D01*
X88803883Y-109554478D01*
X88964483Y-109314123D01*
X89075106Y-109047055D01*
X89131501Y-108763537D01*
X89131501Y-108474465D01*
X89075106Y-108190947D01*
X88964483Y-107923879D01*
X88803883Y-107683524D01*
X88599478Y-107479119D01*
X88359123Y-107318519D01*
X88092055Y-107207896D01*
X87808537Y-107151501D01*
X87519465Y-107151501D01*
X87235947Y-107207896D01*
X86968879Y-107318519D01*
X86728524Y-107479119D01*
X86524119Y-107683524D01*
X86363519Y-107923879D01*
X86252896Y-108190947D01*
X86196501Y-108474465D01*
X86196501Y-108763537D01*
X86252896Y-109047055D01*
X86363519Y-109314123D01*
X86524119Y-109554478D01*
X86728524Y-109758883D01*
X86844686Y-109836500D01*
X83435000Y-109836500D01*
X83435000Y-108799614D01*
X83493387Y-108768405D01*
X83627962Y-108657962D01*
X83738405Y-108523387D01*
X83820472Y-108369851D01*
X83871008Y-108203255D01*
X83888072Y-108030001D01*
X83888072Y-107379999D01*
X83871008Y-107206745D01*
X83820472Y-107040149D01*
X83738405Y-106886613D01*
X83627962Y-106752038D01*
X83621406Y-106746658D01*
X83701185Y-106681185D01*
X83780537Y-106584494D01*
X83839502Y-106474180D01*
X83875812Y-106354482D01*
X83888072Y-106230000D01*
X83885000Y-105940750D01*
X83726250Y-105782000D01*
X82677000Y-105782000D01*
X82677000Y-105802000D01*
X82423000Y-105802000D01*
X82423000Y-105782000D01*
X82403000Y-105782000D01*
X82403000Y-105528000D01*
X82423000Y-105528000D01*
X82423000Y-104603750D01*
X82677000Y-104603750D01*
X82677000Y-105528000D01*
X83726250Y-105528000D01*
X83885000Y-105369250D01*
X83888072Y-105080000D01*
X83875812Y-104955518D01*
X83839502Y-104835820D01*
X83780537Y-104725506D01*
X83730443Y-104664465D01*
X86196501Y-104664465D01*
X86196501Y-104953537D01*
X86252896Y-105237055D01*
X86363519Y-105504123D01*
X86524119Y-105744478D01*
X86728524Y-105948883D01*
X86968879Y-106109483D01*
X87235947Y-106220106D01*
X87519465Y-106276501D01*
X87808537Y-106276501D01*
X88092055Y-106220106D01*
X88359123Y-106109483D01*
X88599478Y-105948883D01*
X88803883Y-105744478D01*
X88964483Y-105504123D01*
X89075106Y-105237055D01*
X89131501Y-104953537D01*
X89131501Y-104664465D01*
X89075106Y-104380947D01*
X88964483Y-104113879D01*
X88803883Y-103873524D01*
X88599478Y-103669119D01*
X88359123Y-103508519D01*
X88092055Y-103397896D01*
X87808537Y-103341501D01*
X87519465Y-103341501D01*
X87235947Y-103397896D01*
X86968879Y-103508519D01*
X86728524Y-103669119D01*
X86524119Y-103873524D01*
X86363519Y-104113879D01*
X86252896Y-104380947D01*
X86196501Y-104664465D01*
X83730443Y-104664465D01*
X83701185Y-104628815D01*
X83604494Y-104549463D01*
X83494180Y-104490498D01*
X83374482Y-104454188D01*
X83250000Y-104441928D01*
X82835750Y-104445000D01*
X82677000Y-104603750D01*
X82423000Y-104603750D01*
X82264250Y-104445000D01*
X81850000Y-104441928D01*
X81725518Y-104454188D01*
X81605820Y-104490498D01*
X81587511Y-104500285D01*
X81587511Y-104303635D01*
X82730068Y-103161079D01*
X88973454Y-103161079D01*
X89016923Y-103165360D01*
X89060392Y-103161079D01*
X89060400Y-103161079D01*
X89190413Y-103148274D01*
X89357236Y-103097668D01*
X89510982Y-103015490D01*
X89645740Y-102904896D01*
X89673457Y-102871123D01*
X95065580Y-97479001D01*
X96527601Y-97479001D01*
X96497891Y-97600797D01*
X96497891Y-97600797D01*
G37*
X96497891Y-97600797D02*
X96486575Y-97864314D01*
X96526886Y-98124976D01*
X96617276Y-98372764D01*
X96671695Y-98474577D01*
X96905872Y-98534523D01*
X97650395Y-97790000D01*
X97636253Y-97775858D01*
X97815858Y-97596253D01*
X97830000Y-97610395D01*
X97844143Y-97596253D01*
X98023748Y-97775858D01*
X98009605Y-97790000D01*
X98754128Y-98534523D01*
X98987928Y-98474674D01*
X98987928Y-98494000D01*
X99000188Y-98618482D01*
X99036498Y-98738180D01*
X99095463Y-98848494D01*
X99174815Y-98945185D01*
X99271506Y-99024537D01*
X99381820Y-99083502D01*
X99445001Y-99102668D01*
X99445001Y-99381367D01*
X99289931Y-99536437D01*
X99147434Y-99749699D01*
X99117543Y-99599428D01*
X99016607Y-99355746D01*
X98870069Y-99136437D01*
X98683563Y-98949931D01*
X98538904Y-98853273D01*
X98574523Y-98714128D01*
X97830000Y-97969605D01*
X97085477Y-98714128D01*
X97121096Y-98853273D01*
X96976437Y-98949931D01*
X96789931Y-99136437D01*
X96643393Y-99355746D01*
X96542457Y-99599428D01*
X96491000Y-99858120D01*
X96491000Y-100121880D01*
X96542457Y-100380572D01*
X96643393Y-100624254D01*
X96789931Y-100843563D01*
X96976437Y-101030069D01*
X97195746Y-101176607D01*
X97348791Y-101240000D01*
X97195746Y-101303393D01*
X96976437Y-101449931D01*
X96789931Y-101636437D01*
X96643393Y-101855746D01*
X96542457Y-102099428D01*
X96491000Y-102358120D01*
X96491000Y-102621880D01*
X96542457Y-102880572D01*
X96643393Y-103124254D01*
X96789931Y-103343563D01*
X96976437Y-103530069D01*
X97195746Y-103676607D01*
X97439428Y-103777543D01*
X97698120Y-103829000D01*
X97961880Y-103829000D01*
X98220572Y-103777543D01*
X98464254Y-103676607D01*
X98683563Y-103530069D01*
X98870069Y-103343563D01*
X99016607Y-103124254D01*
X99080000Y-102971209D01*
X99143393Y-103124254D01*
X99289931Y-103343563D01*
X99476437Y-103530069D01*
X99695746Y-103676607D01*
X99939428Y-103777543D01*
X100198120Y-103829000D01*
X100461880Y-103829000D01*
X100657306Y-103790127D01*
X94610934Y-109836500D01*
X88483316Y-109836500D01*
X88599478Y-109758883D01*
X88803883Y-109554478D01*
X88964483Y-109314123D01*
X89075106Y-109047055D01*
X89131501Y-108763537D01*
X89131501Y-108474465D01*
X89075106Y-108190947D01*
X88964483Y-107923879D01*
X88803883Y-107683524D01*
X88599478Y-107479119D01*
X88359123Y-107318519D01*
X88092055Y-107207896D01*
X87808537Y-107151501D01*
X87519465Y-107151501D01*
X87235947Y-107207896D01*
X86968879Y-107318519D01*
X86728524Y-107479119D01*
X86524119Y-107683524D01*
X86363519Y-107923879D01*
X86252896Y-108190947D01*
X86196501Y-108474465D01*
X86196501Y-108763537D01*
X86252896Y-109047055D01*
X86363519Y-109314123D01*
X86524119Y-109554478D01*
X86728524Y-109758883D01*
X86844686Y-109836500D01*
X83435000Y-109836500D01*
X83435000Y-108799614D01*
X83493387Y-108768405D01*
X83627962Y-108657962D01*
X83738405Y-108523387D01*
X83820472Y-108369851D01*
X83871008Y-108203255D01*
X83888072Y-108030001D01*
X83888072Y-107379999D01*
X83871008Y-107206745D01*
X83820472Y-107040149D01*
X83738405Y-106886613D01*
X83627962Y-106752038D01*
X83621406Y-106746658D01*
X83701185Y-106681185D01*
X83780537Y-106584494D01*
X83839502Y-106474180D01*
X83875812Y-106354482D01*
X83888072Y-106230000D01*
X83885000Y-105940750D01*
X83726250Y-105782000D01*
X82677000Y-105782000D01*
X82677000Y-105802000D01*
X82423000Y-105802000D01*
X82423000Y-105782000D01*
X82403000Y-105782000D01*
X82403000Y-105528000D01*
X82423000Y-105528000D01*
X82423000Y-104603750D01*
X82677000Y-104603750D01*
X82677000Y-105528000D01*
X83726250Y-105528000D01*
X83885000Y-105369250D01*
X83888072Y-105080000D01*
X83875812Y-104955518D01*
X83839502Y-104835820D01*
X83780537Y-104725506D01*
X83730443Y-104664465D01*
X86196501Y-104664465D01*
X86196501Y-104953537D01*
X86252896Y-105237055D01*
X86363519Y-105504123D01*
X86524119Y-105744478D01*
X86728524Y-105948883D01*
X86968879Y-106109483D01*
X87235947Y-106220106D01*
X87519465Y-106276501D01*
X87808537Y-106276501D01*
X88092055Y-106220106D01*
X88359123Y-106109483D01*
X88599478Y-105948883D01*
X88803883Y-105744478D01*
X88964483Y-105504123D01*
X89075106Y-105237055D01*
X89131501Y-104953537D01*
X89131501Y-104664465D01*
X89075106Y-104380947D01*
X88964483Y-104113879D01*
X88803883Y-103873524D01*
X88599478Y-103669119D01*
X88359123Y-103508519D01*
X88092055Y-103397896D01*
X87808537Y-103341501D01*
X87519465Y-103341501D01*
X87235947Y-103397896D01*
X86968879Y-103508519D01*
X86728524Y-103669119D01*
X86524119Y-103873524D01*
X86363519Y-104113879D01*
X86252896Y-104380947D01*
X86196501Y-104664465D01*
X83730443Y-104664465D01*
X83701185Y-104628815D01*
X83604494Y-104549463D01*
X83494180Y-104490498D01*
X83374482Y-104454188D01*
X83250000Y-104441928D01*
X82835750Y-104445000D01*
X82677000Y-104603750D01*
X82423000Y-104603750D01*
X82264250Y-104445000D01*
X81850000Y-104441928D01*
X81725518Y-104454188D01*
X81605820Y-104490498D01*
X81587511Y-104500285D01*
X81587511Y-104303635D01*
X82730068Y-103161079D01*
X88973454Y-103161079D01*
X89016923Y-103165360D01*
X89060392Y-103161079D01*
X89060400Y-103161079D01*
X89190413Y-103148274D01*
X89357236Y-103097668D01*
X89510982Y-103015490D01*
X89645740Y-102904896D01*
X89673457Y-102871123D01*
X95065580Y-97479001D01*
X96527601Y-97479001D01*
X96497891Y-97600797D01*
M02*
