G04 #@! TF.GenerationSoftware,KiCad,Pcbnew,(5.1.2)-2*
G04 #@! TF.CreationDate,2019-09-22T14:46:25+02:00*
G04 #@! TF.ProjectId,betsubetsu,62657473-7562-4657-9473-752e6b696361,rev?*
G04 #@! TF.SameCoordinates,Original*
G04 #@! TF.FileFunction,Legend,Bot*
G04 #@! TF.FilePolarity,Positive*
%FSLAX46Y46*%
G04 Gerber Fmt 4.6, Leading zero omitted, Abs format (unit mm)*
G04 Created by KiCad (PCBNEW (5.1.2)-2) date 2019-09-22 14:46:25*
%MOMM*%
%LPD*%
G04 APERTURE LIST*
%ADD10C,0.120000*%
%ADD11C,0.150000*%
G04 APERTURE END LIST*
D10*
X79700000Y-105680000D02*
X79700000Y-108540000D01*
X79700000Y-108540000D02*
X77780000Y-108540000D01*
X77780000Y-108540000D02*
X77780000Y-105680000D01*
X81840000Y-106418748D02*
X81840000Y-106941252D01*
X83260000Y-106418748D02*
X83260000Y-106941252D01*
D11*
X79842380Y-105275238D02*
X80556666Y-105275238D01*
X80699523Y-105227619D01*
X80794761Y-105132380D01*
X80842380Y-104989523D01*
X80842380Y-104894285D01*
X80842380Y-105751428D02*
X79842380Y-105751428D01*
X80556666Y-106084761D01*
X79842380Y-106418095D01*
X80842380Y-106418095D01*
X80842380Y-106894285D02*
X79842380Y-106894285D01*
X79842380Y-107275238D01*
X79890000Y-107370476D01*
X79937619Y-107418095D01*
X80032857Y-107465714D01*
X80175714Y-107465714D01*
X80270952Y-107418095D01*
X80318571Y-107370476D01*
X80366190Y-107275238D01*
X80366190Y-106894285D01*
X80842380Y-108418095D02*
X80842380Y-107846666D01*
X80842380Y-108132380D02*
X79842380Y-108132380D01*
X79985238Y-108037142D01*
X80080476Y-107941904D01*
X80128095Y-107846666D01*
X83680551Y-105337916D02*
X84394837Y-105337916D01*
X84537694Y-105290297D01*
X84632932Y-105195058D01*
X84680551Y-105052201D01*
X84680551Y-104956963D01*
X84680551Y-105814106D02*
X83680551Y-105814106D01*
X84394837Y-106147439D01*
X83680551Y-106480773D01*
X84680551Y-106480773D01*
X84680551Y-106956963D02*
X83680551Y-106956963D01*
X83680551Y-107337916D01*
X83728171Y-107433154D01*
X83775790Y-107480773D01*
X83871028Y-107528392D01*
X84013885Y-107528392D01*
X84109123Y-107480773D01*
X84156742Y-107433154D01*
X84204361Y-107337916D01*
X84204361Y-106956963D01*
X83775790Y-107909344D02*
X83728171Y-107956963D01*
X83680551Y-108052201D01*
X83680551Y-108290297D01*
X83728171Y-108385535D01*
X83775790Y-108433154D01*
X83871028Y-108480773D01*
X83966266Y-108480773D01*
X84109123Y-108433154D01*
X84680551Y-107861725D01*
X84680551Y-108480773D01*
M02*
